<svg xmlns="http://www.w3.org/2000/svg" xmlns:xlink="http://www.w3.org/1999/xlink" width="70" height="85" viewBox="0 0 70 85">
  <defs>
    <clipPath id="clip-path">
      <rect id="Rect치ngulo_37330" data-name="Rect치ngulo 37330" width="52.784" height="49.857" fill="none"/>
    </clipPath>
  </defs>
  <g id="_104" data-name="104" transform="translate(-301 -1551)">
    <g id="Grupo_156382" data-name="Grupo 156382" transform="translate(-239 -156)">
      <rect id="Rect치ngulo_36766" data-name="Rect치ngulo 36766" width="70" height="85" rx="12" transform="translate(540 1707)" fill="#1169e3"/>
    </g>
    <g id="Grupo_156899" data-name="Grupo 156899" transform="translate(301.089 1528.999)">
      <path id="Trazado_126894" data-name="Trazado 126894" d="M17.182,127.264c-.8.178-.987-.2-.979-.947.02-1.875-.011-1.908-1.952-1.9-.722,0-.946-.22-.932-.934.013-.666.135-.975.9-.972,1.946.007,2-.032,1.975-1.974-.009-.879.422-.9,1.073-.9s.989.1.989.883c0,1.967.04,2,1.962,1.995.743,0,.919.265.921.955s-.174.955-.918.951c-1.959-.011-2.006.025-1.963,1.881.02.861-.3,1.113-1.079.962" transform="translate(-8.318 -57.79)" fill="#29c4bb"/>
      <path id="Trazado_126895" data-name="Trazado 126895" d="M214.9,151.177c.717-.137,1.114.1,1,.912-.1.679.136,1.058.888.941s1,.155,1.011.947c.006.83-.333,1.021-1.04.926-.675-.091-.89.2-.876.875.021,1.053-.63,1.457-1.649,1.138-.483-.151-.378-.537-.347-.842.085-.832-.105-1.341-1.087-1.175-.76.129-.807-.347-.8-.931s.025-1.055.8-.936c.831.128,1.224-.175,1.086-1.053-.132-.839.406-.875,1.026-.8" transform="translate(-153.33 -78.505)" fill="#29c4bb"/>
      <path id="Trazado_126896" data-name="Trazado 126896" d="M213.215,70.517c.185.8-.181,1.073-.931.947-.812-.137-1.144.2-1,1,.139.781-.2.968-.956.975-.781.007-1.075-.223-.939-.983.145-.809-.192-1.143-1-.992-.833.156-.906-.279-.937-.98-.037-.822.282-1.037,1-.912.779.136,1.069-.186.937-.947-.127-.728.108-1.022.919-.993.715.025,1.127.127.975.946s.2,1.127,1,.993c.751-.126,1.116.143.929.943" transform="translate(-158.216 -16.577)" fill="#010000"/>
      <path id="Trazado_126897" data-name="Trazado 126897" d="M57.532,187.9c.175.746-.193,1.02-.939.886-.876-.158-1.083.3-.957,1.035.139.821-.258.948-.979.943-.689,0-1.059-.16-.914-.9.19-.975-.3-1.214-1.138-1.071-.862.147-.822-.4-.825-.987,0-.572.012-1.057.791-.9,1.047.207,1.315-.3,1.173-1.233-.136-.9.548-.639,1-.666.483-.029,1.022-.091.881.687-.174.962.163,1.408,1.181,1.213.85-.163.746.43.721,1" transform="translate(-17.924 -94.219)" fill="#010000"/>
      <path id="Trazado_126898" data-name="Trazado 126898" d="M121.806,18.657c-.2-.852.271-1.017.967-.914.724.107,1.009-.192.9-.905s.1-1.037.922-1.02c.754.015,1.1.211.968.985-.134.794.232,1.052.977.94.69-.1,1.035.062,1.039.9,0,.863-.321,1.095-1.073.975-.795-.127-1.064.235-.941.977.138.832-.308.928-1.008.942-.748.015-.992-.266-.882-.952.12-.753-.158-1.1-.943-.965-.767.128-1.094-.187-.923-.966" transform="translate(-106.064 17.184)" fill="#29c4bb"/>
    </g>
    <g id="Grupo_157119" data-name="Grupo 157119" transform="translate(310 1569)">
      <g id="Grupo_157119-2" data-name="Grupo 157119" transform="translate(0 0)" clip-path="url(#clip-path)">
        <path id="Trazado_128818" data-name="Trazado 128818" d="M98.325,15.444c-.143.322-.26.658-.433.963A3.194,3.194,0,0,1,95.779,18a.527.527,0,0,0-.42.373,6.65,6.65,0,0,1-6.443,4.4c-1.391,0-2.782.006-4.173,0a6.664,6.664,0,0,1-6.362-4.366A.574.574,0,0,0,77.932,18a3.3,3.3,0,0,1-2.494-3.643,1.97,1.97,0,0,1,2.111-1.873c.4.027.4-.118.4-.412-.008-2.353-.016-4.706,0-7.058A4.816,4.816,0,0,1,81.728.14,5.818,5.818,0,0,1,83,.01q3.864-.017,7.728,0A4.83,4.83,0,0,1,95.7,3.992a6.468,6.468,0,0,1,.073,1.18q.01,3.452,0,6.9c0,.308.021.437.411.407A1.918,1.918,0,0,1,98.224,14c.021.078-.007.176.1.211Z" transform="translate(-45.541 0)"/>
        <path id="Trazado_128819" data-name="Trazado 128819" d="M69.5,74.643c.67-.1.865,0,1.134.59a9.43,9.43,0,0,1,.818,3.9c0,.808,0,1.615,0,2.423,0,.168-.026.332.154.454a2.949,2.949,0,0,1,.17,4.182,1.106,1.106,0,0,0-.33.914c.013,1.289.008,2.577,0,3.866,0,.765-.264,1.037-1.017,1.037q-9.254,0-18.507,0c-.759,0-1.019-.265-1.022-1.03-.006-1.323-.01-2.646,0-3.969a1.038,1.038,0,0,0-.293-.774,3.185,3.185,0,0,1-.767-3.011,1.573,1.573,0,0,1,.642-1.025.888.888,0,0,0,.421-.894,19.353,19.353,0,0,1,.253-4.463,9.148,9.148,0,0,1,8.475-6.981,16.374,16.374,0,0,1,5.12.313,9.1,9.1,0,0,1,3.616,1.991c.495.446.527.669.206,1.251a.719.719,0,0,1-1.109.173c-.256-.172-.479-.388-.726-.574a7.046,7.046,0,0,0-4.41-1.459c-.995.01-1.99,0-2.985,0A7.388,7.388,0,0,0,54.3,74.247a8.133,8.133,0,0,0-1.753,5.522c0,.132-.054.387.2.3a7.828,7.828,0,0,1,1.684-.182c1.007-.13,2-.336,2.991-.532a19.879,19.879,0,0,0,5.965-2.178,7.043,7.043,0,0,0,.948-.7c.724-.611,1.232-.529,1.715.275a8.581,8.581,0,0,0,2.155,2.592,4.367,4.367,0,0,0,1.18.614c.291.1.413.042.41-.28a9.386,9.386,0,0,0-.537-3.332,2.524,2.524,0,0,1-.274-.879c0-.37.021-.741.507-.816" transform="translate(-30.039 -42.155)"/>
        <path id="Trazado_128820" data-name="Trazado 128820" d="M15.345,17.01a.778.778,0,0,1,.847-.6q2.963-.009,5.925,0c.469,0,.847.228.85.713a16.89,16.89,0,0,1-.219,4.41A7.766,7.766,0,0,1,19.728,26a.758.758,0,0,0-.353.72c.021.91.006,1.821.008,2.731,0,.16-.057.314.236.331A2.125,2.125,0,0,1,21.712,32.7a3.057,3.057,0,0,1-2.231,2.334.769.769,0,0,0-.549.51,6.227,6.227,0,0,1-5.809,4.036c-1.492.055-2.99.061-4.482,0a6.2,6.2,0,0,1-5.767-4.013.817.817,0,0,0-.592-.537A3.148,3.148,0,0,1,.079,31.3,1.825,1.825,0,0,1,1.99,29.774c.354.009.454-.088.412-.415a2.515,2.515,0,0,1,0-.463,1.2,1.2,0,0,0-.542-1.3,1.718,1.718,0,0,1-.675-1.543c0-1.219-.034-2.44.01-3.658a3.429,3.429,0,0,1,3.526-3.4q1.108-.018,2.215,0a.5.5,0,0,0,.528-.284,4.394,4.394,0,0,1,3.98-2.306c.412-.008.824,0,1.236,0,.727,0,.882.113,1.131.794.093.521-.244.708-.652.841a21.312,21.312,0,0,0-2.308.118A2.706,2.706,0,0,0,8.6,20.84q-.023,1.106,0,2.212a2.7,2.7,0,0,0,2.814,2.771c.257,0,.515.008.772-.005,1,0,1.991,0,2.986,0a6.23,6.23,0,0,0,6.019-5.091,11.234,11.234,0,0,0,.1-1.949c0-.679-.022-.7-.684-.7-1.339,0-2.677,0-4.015,0a4.212,4.212,0,0,1-.566-.018c-.611-.083-.833-.426-.68-1.045" transform="translate(0 -9.904)"/>
        <path id="Trazado_128821" data-name="Trazado 128821" d="M31.741,17.938c0,.716.222.934.957.936,1.56,0,3.121.011,4.681-.007.357,0,.455.094.465.456a7.58,7.58,0,0,1-.989,4.593,6.208,6.208,0,0,1-5.164,2.989c-1.044.039-2.09-.006-3.136-.013a2.976,2.976,0,0,1-1.364-2.466c-.073-.991-.03-1.991-.012-2.987a3.408,3.408,0,0,1,.726-1.949,1.171,1.171,0,0,1,1.169-.591,1,1,0,0,0,.509-.029.994.994,0,0,0,.621-.745c.37,0,.74-.009,1.109,0a.407.407,0,0,0,.426-.189" transform="translate(-16.395 -10.832)" fill="#a97a63"/>
        <path id="Trazado_128822" data-name="Trazado 128822" d="M81.033,77.009a.823.823,0,0,0-.306,1.156,9.067,9.067,0,0,1,.7,4.431,5.609,5.609,0,0,1-3.46-2.639c-.212-.312-.391-.646-.592-.965a.746.746,0,0,0-1.22-.211c-2.017,1.753-4.507,2.4-7,3.04a.663.663,0,0,1-.154,0,.7.7,0,0,1-.143-.579,18.529,18.529,0,0,1,.93-5.688,6.514,6.514,0,0,1,.628-1.344.928.928,0,0,1,.439-.411,19.8,19.8,0,0,1,4.556.117,7.107,7.107,0,0,1,3.478,1.772.847.847,0,0,0,1.233.093l.918,1.226" transform="translate(-41.574 -44.521)" fill="#dc636e"/>
        <path id="Trazado_128823" data-name="Trazado 128823" d="M27.572,89.183c.014.791-.514,1.133-1.117.9a21.182,21.182,0,0,1-4.571-2.435A22.127,22.127,0,0,1,13.7,77.125c-.031-.08-.058-.161-.084-.243a.772.772,0,1,1,1.443-.543c.183.424.332.863.52,1.285A20.559,20.559,0,0,0,26.838,88.571c.379.158.727.33.734.612" transform="translate(-8.192 -45.767)"/>
        <path id="Trazado_128824" data-name="Trazado 128824" d="M48.472,3.307a20.738,20.738,0,0,1,4.748.515c.556.126.8.468.7.94a.78.78,0,0,1-1.036.562,20.634,20.634,0,0,0-14.978,2.4,1.014,1.014,0,0,1-.82.212.754.754,0,0,1-.571-.662.791.791,0,0,1,.452-.8,22.1,22.1,0,0,1,4.959-2.209,21.844,21.844,0,0,1,6.541-.958" transform="translate(-22.049 -1.997)"/>
        <path id="Trazado_128825" data-name="Trazado 128825" d="M112.715,59.08a22.3,22.3,0,0,1-5.192,13.559.8.8,0,0,1-1.17.2c-.364-.3-.373-.764.011-1.228a20.7,20.7,0,0,0,4.343-8.925,20.155,20.155,0,0,0,.462-4.086c.007-.683.294-1.052.8-1.038s.754.38.748,1.077c0,.12,0,.24,0,.437" transform="translate(-64.056 -34.762)"/>
        <path id="Trazado_128826" data-name="Trazado 128826" d="M93.529,18.421c.429.312.861.62,1.285.938a4.382,4.382,0,0,0,5.609.036c.36-.264.7-.55,1.061-.816a2.225,2.225,0,0,1,3.538,1.767c-.073,2.126-.02,4.257-.025,6.385a5.138,5.138,0,0,1-5.44,5.408c-1.081,0-2.163-.012-3.244-.018a3.721,3.721,0,0,1-1.8-1.455,6.569,6.569,0,0,1-1.135-5.2c.092-.109.218-.076.335-.08a.507.507,0,0,0,.3-.064,1.334,1.334,0,0,0,.4-1.358c-.043-.413-.208-.77-.709-.806a.412.412,0,0,1-.323-.134.834.834,0,0,1-.106-.442c-.013-1.225-.017-2.45,0-3.675,0-.185-.033-.429.254-.482" transform="translate(-56.316 -10.915)" fill="#c28859"/>
        <path id="Trazado_128827" data-name="Trazado 128827" d="M102.113,4.024a3.162,3.162,0,0,1,2.853,2.722c.064.641.011,1.293.011,1.989a5.1,5.1,0,0,0-1.733-.681,3.539,3.539,0,0,0-2.768.843c-.36.289-.726.573-1.106.835A2.817,2.817,0,0,1,95.8,9.656a8.794,8.794,0,0,0-2.363-1.522,1.335,1.335,0,0,1-.158-.939,4.267,4.267,0,0,1,1.035-2.729,1.157,1.157,0,0,1,.922-.481q3.363,0,6.726,0a.407.407,0,0,1,.147.038" transform="translate(-56.323 -2.406)" fill="#365e7c"/>
        <path id="Trazado_128828" data-name="Trazado 128828" d="M88.85,25.407a13.468,13.468,0,0,0,.135,2.967,6.063,6.063,0,0,0,2.746,3.744,5.261,5.261,0,0,1-6.052-5.355c-.008-2.3,0-4.6-.008-6.894a.93.93,0,0,1,.267-.689,3.526,3.526,0,0,1,1.215-.931,1.673,1.673,0,0,1,1.792.17c-.111.085-.1.208-.1.327v3.994c0,.12,0,.241.112.322a.253.253,0,0,1-.045.238,1.63,1.63,0,0,0-.128,1.723.493.493,0,0,1,.066.387" transform="translate(-51.734 -10.91)" fill="#b0794a"/>
        <path id="Trazado_128829" data-name="Trazado 128829" d="M97.5,3.916c-2.078,0-4.157.059-6.232-.01a1.942,1.942,0,0,0-1.876,1.139,5.043,5.043,0,0,0-.564,2.98,3.7,3.7,0,0,0-3.084.626c-.478-2.489.575-4.69,3.219-4.791,2.711-.1,5.429-.027,8.143-.028a.55.55,0,0,1,.393.084" transform="translate(-51.711 -2.298)" fill="#2b4d66"/>
        <path id="Trazado_128830" data-name="Trazado 128830" d="M126.789,37.7c0-.607,0-1.167,0-1.728,0-.338.15-.576.508-.577s.449.262.492.553a1.687,1.687,0,0,1-1,1.752" transform="translate(-76.563 -21.375)" fill="#ac7748"/>
        <path id="Trazado_128831" data-name="Trazado 128831" d="M80.261,37.679a1.678,1.678,0,0,1-.935-1.892.451.451,0,0,1,.469-.388.424.424,0,0,1,.464.439c.006.605,0,1.211,0,1.841" transform="translate(-47.871 -21.375)" fill="#af7949"/>
        <path id="Trazado_128832" data-name="Trazado 128832" d="M67.712,94.08A39.051,39.051,0,0,0,72.1,92.841a14.572,14.572,0,0,0,3.308-1.627c.251-.175.355-.118.511.111a7.734,7.734,0,0,0,3.156,2.867c.116.053.2.116.2.264a29.786,29.786,0,0,1-.14,4.879,5,5,0,0,1-4.676,3.929c-1.285.08-2.571.021-3.856.029a.735.735,0,0,1-.434-.144,5.91,5.91,0,0,1-2.446-3.732c.011-.173.145-.25.262-.347.4-.339.4-.62-.011-.938-.118-.092-.269-.146-.342-.291a.626.626,0,0,1,.1-.691c.815.063,1.04-.083,1.158-.753a1.171,1.171,0,0,0-.9-1.469c-.132-.033-.273-.045-.353-.181a.628.628,0,0,1,.073-.667" transform="translate(-40.807 -55.019)" fill="#fedccd"/>
        <path id="Trazado_128833" data-name="Trazado 128833" d="M63.4,73.912a9.627,9.627,0,0,0-1.532,4.1,21.17,21.17,0,0,0-.323,3.925,20.051,20.051,0,0,1-3.586.616,3.459,3.459,0,0,0-1.4.247c-.51-5.842,3.686-8.666,6.843-8.885" transform="translate(-34.129 -44.632)" fill="#ca5769"/>
        <path id="Trazado_128834" data-name="Trazado 128834" d="M63.274,103.856a6.225,6.225,0,0,0,2.4,3.69,1.191,1.191,0,0,0,.763.227c1.162,0,2.325.01,3.487.016a.763.763,0,0,1-.2.053c-1.717,0-3.438.106-5.15-.059a5.072,5.072,0,0,1-4.5-4.846c-.03-1.184,0-2.371-.019-3.556,0-.284.078-.364.363-.4.919-.1,1.833-.251,2.749-.382q0,.361,0,.722a.326.326,0,0,1-.12.094c-.686.3-.688.312-.138.774.069.057.141.122.142.206,0,.441.208.85.189,1.293-.139.225-.047.472-.068.709-.157.109-.332.044-.5.044a1.728,1.728,0,0,0-.795.163c-.221.111-.417.256-.4.539a.562.562,0,0,0,.411.477,1.666,1.666,0,0,0,.895.161c.167-.025.34-.073.483.071" transform="translate(-36.267 -59.543)" fill="#fecabd"/>
        <path id="Trazado_128835" data-name="Trazado 128835" d="M97.168,113.994q0,1.451,0,2.9c0,.221-.155.233-.319.232-.6,0-1.2,0-1.954,0a7.076,7.076,0,0,0,2.14-3.17l.134.036" transform="translate(-57.303 -68.815)" fill="#d8616b"/>
        <path id="Trazado_128836" data-name="Trazado 128836" d="M58.832,117.165c-.769,0-1.381,0-1.993,0-.188,0-.291-.069-.29-.267,0-.952,0-1.905.067-2.88a7.977,7.977,0,0,0,2.216,3.146" transform="translate(-34.148 -68.851)" fill="#c65566"/>
        <path id="Trazado_128837" data-name="Trazado 128837" d="M101.015,106.1c0-.648-.006-1.226,0-1.8a.458.458,0,0,1,.463-.509c.329-.022.45.191.511.465a1.756,1.756,0,0,1-.977,1.848" transform="translate(-60.998 -62.673)" fill="#f9c6b9"/>
        <path id="Trazado_128838" data-name="Trazado 128838" d="M54.633,106.053a1.629,1.629,0,0,1-.948-1.905.444.444,0,0,1,.49-.359.456.456,0,0,1,.454.465c.008.085,0,.172,0,.257v1.541" transform="translate(-32.38 -62.673)" fill="#f9c6ba"/>
        <path id="Trazado_128839" data-name="Trazado 128839" d="M17.151,43.432a5.9,5.9,0,0,0,1.492-1.079c.135-.152.232-.124.381-.016a4.585,4.585,0,0,0,2.915.816c.962-.027,1.925-.017,2.887,0a8.233,8.233,0,0,0,2.943-.4c.263-.094.321-.027.32.236-.011,2.062.042,4.125-.029,6.185a4.766,4.766,0,0,1-4.52,4.462c-1.235.039-2.473,0-3.709,0a4.429,4.429,0,0,1-2.2-2.2,4.341,4.341,0,0,1-.594-2.307,1.194,1.194,0,0,0-.011-.936,1.615,1.615,0,0,1,.057-.8c.029-.043.069-.087.12-.084a.723.723,0,0,0,.822-.535,1.423,1.423,0,0,0-.175-1.364c-.179-.246-.524-.141-.731-.336a2.126,2.126,0,0,1,.027-1.643" transform="translate(-10.249 -25.511)" fill="#fedccd"/>
        <path id="Trazado_128840" data-name="Trazado 128840" d="M12.9,50.9a5.482,5.482,0,0,0,2.275,4.233c.134.1.273.2.409.3-2.8.2-4.937-1.26-5.51-3.792a5.851,5.851,0,0,1-.121-1.226c-.014-1.442,0-2.885-.013-4.327,0-.34.058-.5.442-.471a6.248,6.248,0,0,0,2.522-.385,5.209,5.209,0,0,0,.111,1.653,3.264,3.264,0,0,0-.29,1.409c.04.286.245.53.186.832q0,.475-.007.949c-.189.071-.324-.068-.477-.127a1.6,1.6,0,0,0-1.246.015c-.225.095-.457.2-.463.487s.227.409.444.507a1.754,1.754,0,0,0,1.25.034c.159-.047.3-.168.486-.1" transform="translate(-6.003 -27.317)" fill="#fecabd"/>
        <path id="Trazado_128841" data-name="Trazado 128841" d="M26.063,20.289c-.061.028-.126.088-.181.079-1.122-.17-1.468.685-1.849,1.44a2.638,2.638,0,0,0-.242,1.249c.019.807.026,1.615,0,2.421a3.585,3.585,0,0,0,1.052,2.592c.068.075.128.159.191.24a3.251,3.251,0,0,1-2.9-.848,2.836,2.836,0,0,1-.807-1.95c-.017-.738-.008-1.478,0-2.216a2.894,2.894,0,0,1,2.933-3c.6-.017,1.2,0,1.8-.005" transform="translate(-12.874 -12.25)" fill="#976b54"/>
        <path id="Trazado_128842" data-name="Trazado 128842" d="M13.225,26.934c.009.806.027,1.612.024,2.418a4.084,4.084,0,0,0,.467,2.033.453.453,0,0,1-.126.654,2.919,2.919,0,0,1-1.863.883c-1.215.147-1.216.147-1.216-1.059,0-.995,0-1.989,0-2.985a2.991,2.991,0,0,1,.426-1.568.773.773,0,0,1,.758-.43,9.366,9.366,0,0,1,1.531.055" transform="translate(-6.347 -16.228)" fill="#a97963"/>
        <path id="Trazado_128843" data-name="Trazado 128843" d="M10.981,26.84c-.464,0-.929.021-1.391-.006a.765.765,0,0,0-.778.468,2.953,2.953,0,0,0-.388,1.47c.012,1.151.027,2.3-.008,3.453-.015.479.131.66.6.593a2.7,2.7,0,0,1,.463.01,7.63,7.63,0,0,1-2.145.046.551.551,0,0,1-.509-.614,32.647,32.647,0,0,1,.05-3.908,1.6,1.6,0,0,1,1.127-1.413,6.537,6.537,0,0,1,2.975-.1" transform="translate(-4.103 -16.133)" fill="#976a53"/>
        <path id="Trazado_128844" data-name="Trazado 128844" d="M48.925,56.17c0-.614,0-1.126,0-1.639,0-.278.1-.469.4-.486s.411.181.439.451a1.664,1.664,0,0,1-.843,1.673" transform="translate(-29.543 -32.635)" fill="#fbc8bb"/>
        <path id="Trazado_128845" data-name="Trazado 128845" d="M4.752,56.156a1.668,1.668,0,0,1-.842-1.667c.027-.257.134-.463.449-.447s.394.216.393.486c0,.511,0,1.022,0,1.628" transform="translate(-2.354 -32.633)" fill="#fcc9bc"/>
        <path id="Trazado_128846" data-name="Trazado 128846" d="M101.522,44.795a2.353,2.353,0,0,1-1.587-.6.786.786,0,0,1-.147-1.1.758.758,0,0,1,1.1-.1.865.865,0,0,0,1.2-.008.748.748,0,0,1,1.094.123.76.76,0,0,1-.156,1.095,2.318,2.318,0,0,1-1.5.6" transform="translate(-60.159 -25.844)"/>
        <path id="Trazado_128847" data-name="Trazado 128847" d="M93.1,32.93a1.771,1.771,0,0,1,.107-2.348.628.628,0,0,1,.866.39,1.806,1.806,0,0,1-.043,1.711.585.585,0,0,1-.93.247" transform="translate(-55.982 -18.433)" fill="#010100"/>
        <path id="Trazado_128848" data-name="Trazado 128848" d="M113.525,31.794c0,.729-.346,1.276-.784,1.254-.42-.021-.774-.635-.753-1.3s.372-1.233.778-1.236c.427,0,.763.566.759,1.285" transform="translate(-67.624 -18.423)"/>
        <path id="Trazado_128849" data-name="Trazado 128849" d="M75.87,113.2a2.281,2.281,0,0,1-1.549-.619.777.777,0,0,1-.106-1.065.735.735,0,0,1,1.054-.131.818.818,0,0,0,1.151.007.742.742,0,0,1,1.058.113.771.771,0,0,1-.089,1.066,2.265,2.265,0,0,1-1.519.629" transform="translate(-44.716 -67.162)" fill="#010000"/>
        <path id="Trazado_128850" data-name="Trazado 128850" d="M87.172,100.5c.073,0,.262,0,.448.027a.411.411,0,0,1,.4.4c.019.253-.088.463-.351.481-.311.02-.334.173-.331.431a1.506,1.506,0,0,1-.3.963.563.563,0,0,1-.953.015,1.9,1.9,0,0,1-.015-2.031c.265-.341.633-.281,1.1-.286" transform="translate(-51.801 -60.685)" fill="#010101"/>
        <path id="Trazado_128851" data-name="Trazado 128851" d="M66.685,102.795a3.988,3.988,0,0,1-.262-.66c-.072-.346.1-.8-.5-.856-.143-.015-.179-.234-.164-.4a.381.381,0,0,1,.3-.373c.182-.041.37-.055.555-.082a1.352,1.352,0,0,1,1.19,2.063c-.252.573-.6.667-1.118.3" transform="translate(-39.708 -60.644)" fill="#010101"/>
        <path id="Trazado_128852" data-name="Trazado 128852" d="M65.192,109.488a2.251,2.251,0,0,1-1.5-.121.709.709,0,0,1-.461-.622c-.015-.329.212-.493.464-.615a1.741,1.741,0,0,1,1.394-.1c.354.11.677.254.722.687.048.462-.334.578-.624.768" transform="translate(-38.185 -65.175)" fill="#e9a598"/>
        <path id="Trazado_128853" data-name="Trazado 128853" d="M88.707,107.952a1.562,1.562,0,0,1,1.043.356.6.6,0,0,1-.014.938,1.92,1.92,0,0,1-2.161-.038.545.545,0,0,1-.008-.859,1.523,1.523,0,0,1,1.139-.4" transform="translate(-52.755 -65.188)" fill="#e9a598"/>
        <path id="Trazado_128854" data-name="Trazado 128854" d="M24.722,62.79a2.223,2.223,0,0,1-1.5-.6.758.758,0,0,1-.1-1.1.738.738,0,0,1,1.06-.093A.791.791,0,0,0,25.289,61a.741.741,0,0,1,1.095.12.784.784,0,0,1-.162,1.1,2.213,2.213,0,0,1-1.5.571" transform="translate(-13.846 -36.722)" fill="#010000"/>
        <path id="Trazado_128855" data-name="Trazado 128855" d="M13.808,57.688a1.82,1.82,0,0,1-1.985.088c-.521-.3-.5-.778.027-1.06a1.7,1.7,0,0,1,1.962.152.673.673,0,0,1,0,.82" transform="translate(-6.91 -34.103)" fill="#e9a498"/>
        <path id="Trazado_128856" data-name="Trazado 128856" d="M38.454,58.04a1.27,1.27,0,0,1-1.129-.425.481.481,0,0,1,.084-.759,1.9,1.9,0,0,1,1.847-.147c.225.131.432.292.407.6a.662.662,0,0,1-.483.6,1.552,1.552,0,0,1-.726.13" transform="translate(-22.45 -34.139)" fill="#e9a598"/>
        <path id="Trazado_128857" data-name="Trazado 128857" d="M34.814,50.5c0-.685.314-1.2.727-1.195s.733.539.731,1.2-.338,1.2-.739,1.2-.719-.537-.719-1.21" transform="translate(-21.023 -29.776)" fill="#010101"/>
        <path id="Trazado_128858" data-name="Trazado 128858" d="M16.887,51.593a1.721,1.721,0,0,1,.1-2.242.658.658,0,0,1,.868.485,1.685,1.685,0,0,1-.09,1.52.556.556,0,0,1-.882.237" transform="translate(-9.978 -29.778)" fill="#010101"/>
      </g>
    </g>
  </g>
</svg>
