<svg xmlns="http://www.w3.org/2000/svg" xmlns:xlink="http://www.w3.org/1999/xlink" width="70" height="85" viewBox="0 0 70 85">
  <defs>
    <clipPath id="clip-path">
      <rect id="Rect치ngulo_37332" data-name="Rect치ngulo 37332" width="44.086" height="50.845" fill="none"/>
    </clipPath>
  </defs>
  <g id="_106" data-name="106" transform="translate(-301 -1551)">
    <g id="Grupo_156382" data-name="Grupo 156382" transform="translate(-239 -156)">
      <rect id="Rect치ngulo_36766" data-name="Rect치ngulo 36766" width="70" height="85" rx="12" transform="translate(540 1707)" fill="#1169e3"/>
    </g>
    <g id="Grupo_156899" data-name="Grupo 156899" transform="translate(301.089 1528.999)">
      <path id="Trazado_126894" data-name="Trazado 126894" d="M17.182,127.264c-.8.178-.987-.2-.979-.947.02-1.875-.011-1.908-1.952-1.9-.722,0-.946-.22-.932-.934.013-.666.135-.975.9-.972,1.946.007,2-.032,1.975-1.974-.009-.879.422-.9,1.073-.9s.989.1.989.883c0,1.967.04,2,1.962,1.995.743,0,.919.265.921.955s-.174.955-.918.951c-1.959-.011-2.006.025-1.963,1.881.02.861-.3,1.113-1.079.962" transform="translate(-8.318 -57.79)" fill="#29c4bb"/>
      <path id="Trazado_126895" data-name="Trazado 126895" d="M214.9,151.177c.717-.137,1.114.1,1,.912-.1.679.136,1.058.888.941s1,.155,1.011.947c.006.83-.333,1.021-1.04.926-.675-.091-.89.2-.876.875.021,1.053-.63,1.457-1.649,1.138-.483-.151-.378-.537-.347-.842.085-.832-.105-1.341-1.087-1.175-.76.129-.807-.347-.8-.931s.025-1.055.8-.936c.831.128,1.224-.175,1.086-1.053-.132-.839.406-.875,1.026-.8" transform="translate(-153.33 -78.505)" fill="#29c4bb"/>
      <path id="Trazado_126896" data-name="Trazado 126896" d="M213.215,70.517c.185.8-.181,1.073-.931.947-.812-.137-1.144.2-1,1,.139.781-.2.968-.956.975-.781.007-1.075-.223-.939-.983.145-.809-.192-1.143-1-.992-.833.156-.906-.279-.937-.98-.037-.822.282-1.037,1-.912.779.136,1.069-.186.937-.947-.127-.728.108-1.022.919-.993.715.025,1.127.127.975.946s.2,1.127,1,.993c.751-.126,1.116.143.929.943" transform="translate(-158.216 -16.577)" fill="#010000"/>
      <path id="Trazado_126897" data-name="Trazado 126897" d="M57.532,187.9c.175.746-.193,1.02-.939.886-.876-.158-1.083.3-.957,1.035.139.821-.258.948-.979.943-.689,0-1.059-.16-.914-.9.19-.975-.3-1.214-1.138-1.071-.862.147-.822-.4-.825-.987,0-.572.012-1.057.791-.9,1.047.207,1.315-.3,1.173-1.233-.136-.9.548-.639,1-.666.483-.029,1.022-.091.881.687-.174.962.163,1.408,1.181,1.213.85-.163.746.43.721,1" transform="translate(-17.924 -94.219)" fill="#010000"/>
      <path id="Trazado_126898" data-name="Trazado 126898" d="M121.806,18.657c-.2-.852.271-1.017.967-.914.724.107,1.009-.192.9-.905s.1-1.037.922-1.02c.754.015,1.1.211.968.985-.134.794.232,1.052.977.94.69-.1,1.035.062,1.039.9,0,.863-.321,1.095-1.073.975-.795-.127-1.064.235-.941.977.138.832-.308.928-1.008.942-.748.015-.992-.266-.882-.952.12-.753-.158-1.1-.943-.965-.767.128-1.094-.187-.923-.966" transform="translate(-106.064 17.184)" fill="#29c4bb"/>
    </g>
    <g id="Grupo_157121" data-name="Grupo 157121" transform="translate(313.957 1565.655)">
      <g id="Grupo_157121-2" data-name="Grupo 157121" clip-path="url(#clip-path)">
        <path id="Trazado_128870" data-name="Trazado 128870" d="M90.8,0l.184.216a.633.633,0,0,1-.017.926.682.682,0,0,1-.936,0,.633.633,0,0,1-.012-.926L90.2,0Z" transform="translate(-63.09)" fill="#88d14a"/>
        <path id="Trazado_128871" data-name="Trazado 128871" d="M12.583,38.658c-.465-.5-.867-.933-1.278-1.362-.251-.262-.354-.547-.057-.816.28-.252.545-.119.774.128.462.5.942.979,1.387,1.49a.5.5,0,0,0,.682.168c.812-.405,1.648-.768,2.43-1.224a2.315,2.315,0,0,0,1.1-2.242.456.456,0,0,0-.261-.383,8.029,8.029,0,0,1-3.455-5.4c-.043-.246-.152-.273-.357-.291A3.671,3.671,0,0,1,11.1,22.579a.87.87,0,0,0,.218-.62,40.042,40.042,0,0,1,.086-4.114,8.4,8.4,0,0,1,7.248-7.1,23.753,23.753,0,0,1,3.572-.052,4.612,4.612,0,0,1,3.4,1.711.4.4,0,0,0,.535.134,4.833,4.833,0,0,1,6.6,4.458c.037,1.72.013,3.441,0,5.162a1.137,1.137,0,0,0,.236.722,3.664,3.664,0,0,1-2.642,5.841c-.3.027-.385.129-.432.39a7.956,7.956,0,0,1-3.19,5.129.617.617,0,0,0-.268.537,2.45,2.45,0,0,0,1.507,2.5c.657.307,1.3.642,1.954.962a.549.549,0,0,0,.772-.152c.431-.522.92-1,1.382-1.494.233-.25.5-.357.775-.1s.179.535-.054.783l-1.286,1.367c.832.213,1.6.412,2.37.608.5.127.992.255,1.49.376a5.667,5.667,0,0,1,2.878,1.659.47.47,0,0,0,.557.15c.378-.117.763-.212,1.146-.314a.491.491,0,1,1,.262.943,5.932,5.932,0,0,1-.762.216c-.337.051-.33.172-.2.448,1.222,2.638,2.7,5.143,4.043,7.715a6.383,6.383,0,0,1,.733,2.037,5.033,5.033,0,0,1-4.946,5.828q-17.04.026-34.08,0A5.06,5.06,0,0,1,.612,50.8c1.141-2.2,2.334-4.365,3.492-6.553.278-.524.492-1.082.768-1.606.135-.256.04-.3-.18-.345-.29-.064-.574-.154-.857-.243a.486.486,0,1,1,.236-.942c.512.119,1.069.441,1.518.326s.772-.681,1.212-.982a10.364,10.364,0,0,1,3.389-1.2c.765-.2,1.534-.385,2.394-.6" transform="translate(0 -7.481)"/>
        <path id="Trazado_128872" data-name="Trazado 128872" d="M107.572,10.032a.607.607,0,0,1-.626-.662c0-.3-.052-.46-.4-.437a.572.572,0,0,1-.679-.61.572.572,0,0,1,.691-.594c.312.026.395-.1.391-.4,0-.387.16-.676.6-.69a.59.59,0,0,1,.656.687c-.009.353.142.419.443.4a.551.551,0,0,1,.635.6.562.562,0,0,1-.634.606c-.358-.022-.441.123-.449.452a.61.61,0,0,1-.628.649" transform="translate(-74.358 -4.663)" fill="#70d5f8"/>
        <path id="Trazado_128873" data-name="Trazado 128873" d="M7.4,94.368a2.412,2.412,0,0,0-1.915,1.849A2.515,2.515,0,0,0,3.622,94.36,2.393,2.393,0,0,0,5.47,92.541,2.516,2.516,0,0,0,7.4,94.368" transform="translate(-2.544 -65)" fill="#f4c74c"/>
        <path id="Trazado_128874" data-name="Trazado 128874" d="M29.129,88.022a.517.517,0,0,1,.434.2c.394.424.79.846,1.186,1.269a.468.468,0,0,1,.015.739.484.484,0,0,1-.742-.069c-.408-.434-.817-.867-1.22-1.3a.46.46,0,0,1-.1-.547.451.451,0,0,1,.429-.283" transform="translate(-20.123 -61.825)" fill="#010101"/>
        <path id="Trazado_128875" data-name="Trazado 128875" d="M114.073,88.424a.559.559,0,0,1-.175.446l-1.187,1.268a.486.486,0,0,1-.742.076.464.464,0,0,1,.009-.738q.609-.653,1.219-1.306a.5.5,0,0,1,.591-.124.451.451,0,0,1,.285.378" transform="translate(-78.521 -61.81)" fill="#010101"/>
        <path id="Trazado_128876" data-name="Trazado 128876" d="M116,67.243a1.694,1.694,0,0,0,1.2-1.15,1.722,1.722,0,0,0,1.281,1.146,1.8,1.8,0,0,0-1.286,1.246,1.694,1.694,0,0,0-1.2-1.242" transform="translate(-81.474 -46.423)" fill="#f4c84e"/>
        <path id="Trazado_128877" data-name="Trazado 128877" d="M21.03,81.449a.7.7,0,0,1-.666-.669.677.677,0,1,1,1.354.023.7.7,0,0,1-.688.646" transform="translate(-14.303 -56.265)" fill="#fb6880"/>
        <path id="Trazado_128878" data-name="Trazado 128878" d="M9.045,107.614a4.255,4.255,0,0,1,1.974-1.145c1.436-.386,2.884-.727,4.322-1.1a.579.579,0,0,1,.638.235q1.553,1.676,3.121,3.337c.373.4.8.375.952-.036.107-.284-.065-.471-.237-.656q-1.326-1.412-2.652-2.823c-.123-.131-.241-.265-.379-.417a4.387,4.387,0,0,1,1.374-.633c.494-.036.626.613.935.941a7.164,7.164,0,0,0,11.081-.7c.206-.283.346-.364.658-.169.334.209.706.358,1.114.56-.693.742-1.365,1.463-2.038,2.182q-.526.562-1.056,1.12c-.235.248-.327.519-.048.779s.543.146.776-.1c1.064-1.136,2.134-2.266,3.189-3.409a.569.569,0,0,1,.642-.21c1.406.372,2.818.719,4.225,1.084a4.679,4.679,0,0,1,2.068,1.171c-1,.28-1.943.546-2.888.809-.6.168-1.209.339-1.816.494-.354.091-.594.275-.479.662.106.358.4.392.729.3,1.576-.435,3.156-.86,4.728-1.309.327-.093.513-.051.661.276,1.266,2.8,2.849,5.441,4.257,8.17a4.085,4.085,0,0,1-3.707,6.106c-2.153.007-4.306-.01-6.46.012-.388,0-.456-.114-.452-.47.019-1.671.023-3.343,0-5.014-.007-.483.169-.635.636-.632,2.335.015,4.671.007,7.006.007a4.294,4.294,0,0,0,.447-.009c.3-.032.5-.188.486-.513a.456.456,0,0,0-.482-.463c-.132-.011-.265-.007-.4-.007-1.673,0-3.346-.01-5.019.007-.35,0-.523-.054-.473-.452.057-.453-.192-1.064.1-1.326.251-.225.848-.075,1.293-.071.373,0,.7-.081.686-.517-.009-.4-.318-.5-.671-.479a.791.791,0,0,1-.1,0c-.424-.031-.987.185-1.232-.09-.208-.235-.062-.785-.071-1.2,0-.2,0-.4,0-.6,0-.349-.145-.6-.514-.588-.34.008-.481.245-.479.573,0,.48-.024.962.008,1.439.024.359-.064.476-.451.469-1.523-.026-3.048-.008-4.571-.013a.583.583,0,0,0-.589.279.439.439,0,0,0,.018.47.618.618,0,0,0,.607.248c1.524,0,3.048.007,4.571-.009.315,0,.467.068.408.4a.886.886,0,0,0,0,.149c0,.4.121.863-.047,1.171-.183.336-.693.065-1.054.152a1.11,1.11,0,0,0-.754.435c-.314.539-.748.411-1.2.292a1.068,1.068,0,0,1-.511-.293,3.377,3.377,0,0,0-3-.793.917.917,0,0,0-.871.768c-.065.386-.248.441-.567.413a4.368,4.368,0,0,0-.646,0,1.767,1.767,0,0,0-1.7,1.582,17.621,17.621,0,0,0,.017,3.221A2.971,2.971,0,0,0,25.8,123.1H22.886a3.759,3.759,0,0,0,.739-2.832c-.01-.5.012-.993-.006-1.489a1.846,1.846,0,0,0-1.969-1.9,3.537,3.537,0,0,0-.4,0c-.337.035-.518-.038-.6-.439a.973.973,0,0,0-.987-.757,3.433,3.433,0,0,0-2.94.857,1.481,1.481,0,0,1-1.208.339.253.253,0,0,1-.243-.13,1.411,1.411,0,0,0-1.521-.7c-.455.047-.582-.119-.531-.546a3.921,3.921,0,0,0,0-.892c-.042-.368.112-.427.444-.423,1.474.018,2.948.005,4.422.01.385,0,.8,0,.787-.512s-.437-.486-.813-.485c-1.474,0-2.948-.007-4.422.008-.307,0-.442-.053-.419-.4.032-.478,0-.959.01-1.439.005-.362-.112-.646-.514-.639-.37.007-.488.277-.483.619.007.48-.015.96.008,1.439.015.308-.053.45-.4.418s-.695,0-1.043-.009-.647.108-.64.511c.006.371.276.49.618.485.381-.006.762.009,1.143-.005.223-.008.332.037.319.294a9.189,9.189,0,0,0,0,1.191c.027.337-.128.371-.406.369-1.706-.01-3.412-.006-5.118,0a2.6,2.6,0,0,0-.494.031.422.422,0,0,0-.355.419.43.43,0,0,0,.323.493,2.124,2.124,0,0,0,.54.047q3.5,0,7.006,0c.664,0,.7.035.7.7,0,1.655-.01,3.31.009,4.965,0,.343-.079.442-.432.439-2.186-.017-4.373,0-6.559-.011a4.063,4.063,0,0,1-3.672-5.993c1.141-2.236,2.359-4.432,3.531-6.652.277-.525.522-1.068.758-1.613.148-.34.348-.4.7-.3,1.54.443,3.089.856,4.632,1.288.27.076.523.126.724-.125.248-.308.085-.676-.38-.807-1.431-.4-2.866-.792-4.3-1.188-.124-.035-.246-.079-.4-.13" transform="translate(-2.318 -73.286)" fill="#70d5f8"/>
        <path id="Trazado_128879" data-name="Trazado 128879" d="M63.945,44.292c-.037,1.03.065,2.288-.053,3.544A7.136,7.136,0,0,1,49.874,48.9a6.551,6.551,0,0,1-.217-1.668c0-1.9.011-3.806-.008-5.708,0-.373.087-.406.443-.358A8.546,8.546,0,0,0,58.063,38.5c.106-.117.168-.28.38-.1a8.416,8.416,0,0,0,5.071,1.875c.394.027.443.176.438.511-.019,1.092-.007,2.184-.007,3.5" transform="translate(-34.873 -26.917)" fill="#f8cfb3"/>
        <path id="Trazado_128880" data-name="Trazado 128880" d="M60.787,24.1a4.321,4.321,0,0,0-1.417-.4c-.213-.019-.267-.1-.286-.3-.094-1-.262-1.14-1.235-1.215a7.807,7.807,0,0,1-4.82-1.828c-.493-.442-1.009-.343-1.492.251a6.773,6.773,0,0,1-3.429,2.251,8.022,8.022,0,0,1-3.873.175c-.567-.112-1.1-.115-1.383.531a.2.2,0,0,1-.2.124,7.282,7.282,0,0,0-1.328.27c0-2.084-.233-4.166.856-6.073A7.3,7.3,0,0,1,48.6,13.977a14.609,14.609,0,0,1,2.971.062,3.785,3.785,0,0,1,2.558,1.637c.362.515.447.537,1.015.255a3.863,3.863,0,0,1,5.643,3.438c.015,1.553,0,3.105,0,4.734" transform="translate(-29.012 -9.786)" fill="#5b5d60"/>
        <path id="Trazado_128881" data-name="Trazado 128881" d="M46.895,152.237c-.828,0-1.656-.01-2.484.006-.273.005-.37-.062-.368-.354q.021-2.283,0-4.567c0-.3.107-.355.373-.351a2.264,2.264,0,0,0,1.706-.68,2.5,2.5,0,0,1,2.044-.51c.188,0,.182.151.218.275a1.092,1.092,0,0,0,1.218.921c1.6.023,1.645.071,1.645,1.66,0,.513.011,1.026,0,1.539a1.969,1.969,0,0,1-2.112,2.059c-.746,0-1.491,0-2.236,0" transform="translate(-30.935 -102.391)" fill="#f8cfb3"/>
        <path id="Trazado_128882" data-name="Trazado 128882" d="M84.245,152.212c-.778,0-1.557.006-2.335,0a1.937,1.937,0,0,1-2.037-1.926c-.036-.809-.026-1.622,0-2.432.016-.6.346-.885.957-.9.249-.006.5,0,.745,0a1.053,1.053,0,0,0,1.139-.889c.058-.244.155-.3.4-.316a2.468,2.468,0,0,1,2.048.654,2.03,2.03,0,0,0,1.553.545c.29-.01.357.095.355.368q-.017,2.283,0,4.567c0,.26-.071.342-.333.337-.828-.015-1.656-.006-2.484-.006" transform="translate(-56.085 -102.366)" fill="#f8cfb3"/>
        <path id="Trazado_128883" data-name="Trazado 128883" d="M56.695,95.711A3.319,3.319,0,0,0,58.4,93.1c.023-.241.108-.262.318-.179a8.047,8.047,0,0,0,6.269-.087c.252-.106.312-.057.331.2a3.168,3.168,0,0,0,1.517,2.534c.216.139.14.233.032.373a6.194,6.194,0,0,1-10.174-.229" transform="translate(-39.822 -65.172)" fill="#f8cfb3"/>
        <path id="Trazado_128884" data-name="Trazado 128884" d="M40,52.75c0,.775-.01,1.551.005,2.326.005.268-.044.377-.349.348a2.7,2.7,0,0,1,.057-5.358c.272-.021.293.093.29.308-.008.792,0,1.584,0,2.376" transform="translate(-26.214 -35.165)" fill="#f8cfb3"/>
        <path id="Trazado_128885" data-name="Trazado 128885" d="M101,52.731c0-.776.014-1.552-.007-2.328-.008-.313.112-.352.38-.311a2.7,2.7,0,0,1,.1,5.322c-.35.066-.5.006-.481-.405.036-.758.01-1.518.01-2.278" transform="translate(-70.933 -35.175)" fill="#f8cfb3"/>
        <path id="Trazado_128886" data-name="Trazado 128886" d="M68.128,122.313a2.529,2.529,0,0,1-.7,1.671c-.938.957-1.882,1.909-2.842,2.845a1.088,1.088,0,0,1-1.67-.024c-.922-.9-1.84-1.812-2.738-2.739a2.63,2.63,0,0,1,3.229-4.1.615.615,0,0,0,.742-.021,2.654,2.654,0,0,1,3.975,2.372" transform="translate(-41.725 -83.99)"/>
        <path id="Trazado_128887" data-name="Trazado 128887" d="M93.32,123.365c-.387.01-.578-.1-.638-.362a.437.437,0,0,1,.285-.562q1.454-.494,2.917-.958a.442.442,0,0,1,.563.289.421.421,0,0,1-.195.6c-1.008.362-2.028.692-2.932,1" transform="translate(-65.087 -85.312)" fill="#000101"/>
        <path id="Trazado_128888" data-name="Trazado 128888" d="M45.886,123.4c-.083-.024-.211-.057-.336-.1-.832-.27-1.662-.546-2.5-.81-.343-.109-.517-.327-.4-.669.11-.314.366-.385.688-.277.893.3,1.791.58,2.685.872a.5.5,0,0,1,.4.593c-.048.268-.233.384-.545.39" transform="translate(-29.935 -85.337)" fill="#000101"/>
        <path id="Trazado_128889" data-name="Trazado 128889" d="M67.186,75.187a5.931,5.931,0,0,1-2.454-.512c-.309-.136-.516-.354-.376-.695.154-.373.459-.351.791-.211a5.124,5.124,0,0,0,4.14,0c.31-.131.6-.164.767.175.174.362-.035.59-.364.735a5.919,5.919,0,0,1-2.5.51" transform="translate(-45.172 -51.748)" fill="#010000"/>
        <path id="Trazado_128890" data-name="Trazado 128890" d="M62.37,58.415a.988.988,0,1,1-1.975-.037.988.988,0,0,1,1.975.037" transform="translate(-42.421 -40.331)" fill="#010101"/>
        <path id="Trazado_128891" data-name="Trazado 128891" d="M82.085,59.393a1,1,0,0,1-.985-.974.988.988,0,1,1,.985.974" transform="translate(-56.964 -40.331)" fill="#010101"/>
        <path id="Trazado_128892" data-name="Trazado 128892" d="M62.738,124.557a1.615,1.615,0,0,1,.871-1.445,1.65,1.65,0,0,1,1.821.149c.663.474.693.479,1.368-.009a1.688,1.688,0,0,1,2.25.2A1.605,1.605,0,0,1,69,125.692c-.871.9-1.775,1.776-2.654,2.673-.187.19-.3.169-.482-.011-.88-.9-1.773-1.778-2.659-2.668a1.7,1.7,0,0,1-.468-1.129" transform="translate(-44.067 -86.328)" fill="#fb657d"/>
      </g>
    </g>
  </g>
</svg>
