<svg xmlns="http://www.w3.org/2000/svg" xmlns:xlink="http://www.w3.org/1999/xlink" width="70" height="85" viewBox="0 0 70 85">
  <defs>
    <clipPath id="clip-path">
      <rect id="Rect치ngulo_37329" data-name="Rect치ngulo 37329" width="51.018" height="51" fill="none"/>
    </clipPath>
  </defs>
  <g id="_107" data-name="107" transform="translate(-301 -1551)">
    <g id="Grupo_156382" data-name="Grupo 156382" transform="translate(-239 -156)">
      <rect id="Rect치ngulo_36766" data-name="Rect치ngulo 36766" width="70" height="85" rx="12" transform="translate(540 1707)" fill="#1169e3"/>
    </g>
    <g id="Grupo_156899" data-name="Grupo 156899" transform="translate(301.089 1528.999)">
      <path id="Trazado_126894" data-name="Trazado 126894" d="M17.182,127.264c-.8.178-.987-.2-.979-.947.02-1.875-.011-1.908-1.952-1.9-.722,0-.946-.22-.932-.934.013-.666.135-.975.9-.972,1.946.007,2-.032,1.975-1.974-.009-.879.422-.9,1.073-.9s.989.1.989.883c0,1.967.04,2,1.962,1.995.743,0,.919.265.921.955s-.174.955-.918.951c-1.959-.011-2.006.025-1.963,1.881.02.861-.3,1.113-1.079.962" transform="translate(-8.318 -57.79)" fill="#29c4bb"/>
      <path id="Trazado_126895" data-name="Trazado 126895" d="M214.9,151.177c.717-.137,1.114.1,1,.912-.1.679.136,1.058.888.941s1,.155,1.011.947c.006.83-.333,1.021-1.04.926-.675-.091-.89.2-.876.875.021,1.053-.63,1.457-1.649,1.138-.483-.151-.378-.537-.347-.842.085-.832-.105-1.341-1.087-1.175-.76.129-.807-.347-.8-.931s.025-1.055.8-.936c.831.128,1.224-.175,1.086-1.053-.132-.839.406-.875,1.026-.8" transform="translate(-153.33 -78.505)" fill="#29c4bb"/>
      <path id="Trazado_126896" data-name="Trazado 126896" d="M213.215,70.517c.185.8-.181,1.073-.931.947-.812-.137-1.144.2-1,1,.139.781-.2.968-.956.975-.781.007-1.075-.223-.939-.983.145-.809-.192-1.143-1-.992-.833.156-.906-.279-.937-.98-.037-.822.282-1.037,1-.912.779.136,1.069-.186.937-.947-.127-.728.108-1.022.919-.993.715.025,1.127.127.975.946s.2,1.127,1,.993c.751-.126,1.116.143.929.943" transform="translate(-158.216 -16.577)" fill="#010000"/>
      <path id="Trazado_126897" data-name="Trazado 126897" d="M57.532,187.9c.175.746-.193,1.02-.939.886-.876-.158-1.083.3-.957,1.035.139.821-.258.948-.979.943-.689,0-1.059-.16-.914-.9.19-.975-.3-1.214-1.138-1.071-.862.147-.822-.4-.825-.987,0-.572.012-1.057.791-.9,1.047.207,1.315-.3,1.173-1.233-.136-.9.548-.639,1-.666.483-.029,1.022-.091.881.687-.174.962.163,1.408,1.181,1.213.85-.163.746.43.721,1" transform="translate(-17.924 -94.219)" fill="#010000"/>
      <path id="Trazado_126898" data-name="Trazado 126898" d="M121.806,18.657c-.2-.852.271-1.017.967-.914.724.107,1.009-.192.9-.905s.1-1.037.922-1.02c.754.015,1.1.211.968.985-.134.794.232,1.052.977.94.69-.1,1.035.062,1.039.9,0,.863-.321,1.095-1.073.975-.795-.127-1.064.235-.941.977.138.832-.308.928-1.008.942-.748.015-.992-.266-.882-.952.12-.753-.158-1.1-.943-.965-.767.128-1.094-.187-.923-.966" transform="translate(-106.064 17.184)" fill="#29c4bb"/>
    </g>
    <g id="Grupo_157118" data-name="Grupo 157118" transform="translate(311.232 1568)">
      <g id="Grupo_157118-2" data-name="Grupo 157118" clip-path="url(#clip-path)">
        <path id="Trazado_128773" data-name="Trazado 128773" d="M129.117,109.047a2.222,2.222,0,0,0-2.568-1.6,2.265,2.265,0,0,0-1.823,2.382c0,.862-.023,1.725.009,2.586.016.428-.068.6-.547.575-.86-.045-1.724-.011-2.586-.013a2.3,2.3,0,0,0-1.871.751,2.125,2.125,0,0,0-.393,2.361,2.19,2.19,0,0,0,2.168,1.369c1.276.01,2.553.008,3.83,0a3.856,3.856,0,0,0,2.56-.91,4.276,4.276,0,0,0,1.311-2.326v-5.08c-.031-.031-.077-.057-.091-.095m-1.408,4.674a2.163,2.163,0,0,1-2.106,2.21c-1.39.053-2.784.031-4.177.018a.732.732,0,1,1,0-1.461c1.21-.018,2.421-.006,3.631-.01.958,0,1.157-.208,1.158-1.177q0-1.666,0-3.333c0-.716.251-1.062.759-1.054s.734.35.735,1.078q0,.9,0,1.791h0c0,.647.014,1.293,0,1.94" transform="translate(-78.19 -70.491)"/>
        <path id="Trazado_128774" data-name="Trazado 128774" d="M129.136,14.649a3.694,3.694,0,0,0-3.04-2.9,37.1,37.1,0,0,0-4.968-.022,1.989,1.989,0,0,0-1.642,1.061,2.212,2.212,0,0,0,1.688,3.343c.23.024.463.031.694.033.943.011,1.886.018,2.829.026.1.957.019,1.917.046,2.874.006.216-.01.433.018.646a2.148,2.148,0,0,0,1.427,1.87,2.189,2.189,0,0,0,2.351-.47A4.217,4.217,0,0,0,129.224,20v-5.08c-.03-.091-.067-.18-.088-.274m-1.408,4.694c-.007.559-.273.876-.724.887-.474.012-.763-.312-.766-.894-.007-1.194,0-2.388,0-3.581,0-.852-.229-1.082-1.1-1.086-1.094-.005-2.188,0-3.283,0-.133,0-.266.006-.4,0a.736.736,0,1,1-.024-1.47c.082-.008.166-.006.249-.006,1.194,0,2.387-.008,3.581,0a2.258,2.258,0,0,1,2.467,2.475c0,.564,0,1.128,0,1.691,0,.663.006,1.327,0,1.99" transform="translate(-78.207 -7.65)"/>
        <path id="Trazado_128775" data-name="Trazado 128775" d="M132.162,69.271a2.118,2.118,0,0,0-2.057-1.576c-1.423-.035-2.849-.041-4.271.018a2.145,2.145,0,0,0-2.019,1.975,2.083,2.083,0,0,0,1.586,2.328,17.659,17.659,0,0,0,5.286,0c.863-.125,1.252-.875,1.581-1.609v-1c-.085-.011-.084-.082-.1-.142M129.9,70.648q-1.865.018-3.731,0c-.543-.006-.875-.313-.866-.75s.336-.715.892-.726c.63-.012,1.26,0,1.89,0,.6,0,1.194-.009,1.791,0,.555.011.883.29.891.726s-.323.744-.867.749" transform="translate(-81.249 -44.409)"/>
        <path id="Trazado_128776" data-name="Trazado 128776" d="M69.73,8.452a2.084,2.084,0,0,0,2.328-1.586,17.639,17.639,0,0,0,0-5.286C71.935.718,71.184.329,70.451,0h-1c-.011.085-.082.084-.142.1a2.119,2.119,0,0,0-1.577,2.058c-.035,1.423-.041,2.849.018,4.271A2.145,2.145,0,0,0,69.73,8.452m-.515-6.072c.012-.55.3-.879.738-.879s.732.33.737.879q.017,1.865,0,3.73c-.006.537-.326.871-.761.854s-.7-.332-.712-.854c-.015-.63,0-1.26,0-1.89,0-.613-.01-1.227,0-1.84" transform="translate(-44.437)"/>
        <path id="Trazado_128777" data-name="Trazado 128777" d="M60.064,56.7a.849.849,0,0,0-.749-.994c-.644.2-.758.341-.744,1.133.006.358-.077.5-.463.478-.591-.04-1.185-.027-1.778-.037-.944.01-1.888.011-2.832.036-.346.009-.306-.207-.308-.423-.008-1.359,0-2.719-.031-4.079a8.067,8.067,0,0,0-1.368-4.3c-.183-.28-.189-.408.149-.522a4.2,4.2,0,0,1,1.7-.3A4.791,4.791,0,0,1,58.562,52.6c0,.149,0,.3,0,.448a.848.848,0,0,0,.753.991.777.777,0,0,0,.732-.746,6.453,6.453,0,0,0-2.131-5.541,14.141,14.141,0,0,0-1.446-1,4.554,4.554,0,0,0,.847-6.378A4.413,4.413,0,0,0,53.6,38.6a4.568,4.568,0,0,0-3.64,1.964,5.524,5.524,0,0,0-4.886-5.491,5.261,5.261,0,0,0-4.266,1.378,5.621,5.621,0,0,0-1.845,4.119,4.544,4.544,0,1,0-6.513,6.172c-1.016.709-1.024.724-.8,1.424a.9.9,0,0,0,1.2.1,4.074,4.074,0,0,1,2.247-.584,4.125,4.125,0,0,1,1.973.338c.212.082.291.175.132.391-.184.25-.338.522-.5.785a10.659,10.659,0,0,0-.96,5.214c.028.828,0,1.657.01,2.485,0,.28-.048.415-.375.412-1.541-.015-3.082-.011-4.623,0-.258,0-.39-.042-.387-.348.018-1.557.013-3.115.023-4.672a4.08,4.08,0,0,1,.387-1.732.886.886,0,0,0-.207-1.16c-.666-.159-.891-.045-1.165.574a5.25,5.25,0,0,0-.492,2.063c-.023,1.875-.029,3.75-.037,5.624,0,.942.2,1.143,1.135,1.144,1.776,0,3.551.008,5.327-.007.324,0,.43.088.418.417-.023.63-.022,1.261,0,1.891a.762.762,0,0,0,.846.828c.431.014.863,0,1.294.005a.839.839,0,0,0,.952-.739c-.177-.631-.341-.78-1.027-.747-.45.022-.586-.1-.58-.568.032-2.389-.027-4.78.049-7.168a7.2,7.2,0,0,1,13.881-2.162,7.276,7.276,0,0,1,.5,2.721q0,3.361,0,6.722c0,.28-.014.455-.388.453-3.336-.018-6.672-.016-10.008-.02a.815.815,0,0,0-.738.764.824.824,0,0,0,.944.743q5.378,0,10.757,0c.664,0,.923-.267.936-.944.011-.6.016-1.2,0-1.792-.01-.3.064-.441.384-.4a2.955,2.955,0,0,0,.4,0c1.71,0,3.419.006,5.129,0,.712,0,.951-.252.967-.961.008-.382-.009-.764,0-1.145M35.2,46.141a3.026,3.026,0,1,1,3.034-3.031A3.026,3.026,0,0,1,35.2,46.141m3.337.716c-.26.246-.4-.018-.607-.106a4.669,4.669,0,0,0,1.8-3.472A6.482,6.482,0,0,0,41.4,45.061a8.88,8.88,0,0,0-2.864,1.8M44.462,44.5a3.981,3.981,0,1,1,3.99-3.987,4.03,4.03,0,0,1-3.99,3.987m5.823,2.244a8.828,8.828,0,0,0-2.754-1.682,6.255,6.255,0,0,0,1.668-1.77,4.677,4.677,0,0,0,1.781,3.422c-.378.305-.385.312-.7.03m.424-3.669a3.025,3.025,0,1,1,2.95,3.061,3.027,3.027,0,0,1-2.95-3.061" transform="translate(-18.955 -22.993)"/>
        <path id="Trazado_128778" data-name="Trazado 128778" d="M57.684,81.522c2.637-.008,5.274,0,7.911-.01.151-.069.211-.219.208-.515-.026-2.287.064-4.578-.031-6.861a7.8,7.8,0,0,0-4.07-6.672,1.423,1.423,0,0,0-.22-.1,1.846,1.846,0,0,0-.338-.008,7,7,0,0,0-6.384,3.427,6.054,6.054,0,0,0-.98,3.293q-.006,3.356,0,6.712c0,.659,0,.659.654.74a.742.742,0,0,1,.76.882l1.694,0h0c-.052-.523.167-.764.8-.882m-1.048-7.359a.706.706,0,0,1,.625-.424,1.033,1.033,0,0,1,.733.368c.8.8,1.614,1.576,2.39,2.393.3.315.423.243.638-.075.919-1.359,1.863-2.7,2.8-4.049a.941.941,0,0,1,.652-.49.726.726,0,0,1,.791.959,1.863,1.863,0,0,1-.247.428q-1.7,2.453-3.4,4.9c-.484.695-.9.737-1.493.154Q58.5,76.719,56.877,75.1a.776.776,0,0,1-.241-.938" transform="translate(-35.294 -44.201)" fill="#0086d4"/>
        <path id="Trazado_128779" data-name="Trazado 128779" d="M54.067,81.27c-.652-.08-.653-.08-.654-.74q0-3.356,0-6.712a6.052,6.052,0,0,1,.98-3.293A7,7,0,0,1,60.778,67.1a1.844,1.844,0,0,1,.338.008c-.121-.047-.247-.085-.369-.132a7.149,7.149,0,0,0-7.478,6.7c-.076,2.387-.017,4.779-.049,7.168-.007.465.13.59.58.568.686-.033.85.115,1.027.747a.743.743,0,0,0-.76-.882" transform="translate(-34.928 -43.945)" fill="#0086d4"/>
        <path id="Trazado_128780" data-name="Trazado 128780" d="M63.548,108.68c.157-.14.349-.08.524-.08,2.354,0,4.707-.013,7.06.007a.925.925,0,0,0,.384-.054c-2.637.008-5.274,0-7.911.01-.63.117-.848.359-.8.882h0a.814.814,0,0,1,.738-.764" transform="translate(-41.216 -71.241)" fill="#0086d4"/>
        <path id="Trazado_128781" data-name="Trazado 128781" d="M34.238,74.437a.47.47,0,0,1-.021.246c-.715,1.623-.357,3.34-.437,5.017-.02.414-.009.83,0,1.245.01.523.06.581.568.584q1.917.011,3.835,0c.516,0,.559-.054.571-.578.03-1.277-.017-2.552.081-3.831a9.025,9.025,0,0,1,.917-3.435c.028-.049.058-.1.087-.148a6.468,6.468,0,0,0-1.348-1.287c-.065,0-.13,0-.195,0a4.547,4.547,0,0,0-2.259.589c-.6.283-.865.209-1.176-.252a5.291,5.291,0,0,0-1.084,1.23h0c.358.051.423.324.462.614" transform="translate(-22.156 -47.416)" fill="#00e6fe"/>
        <path id="Trazado_128782" data-name="Trazado 128782" d="M38.137,72.575a4.546,4.546,0,0,1,2.259-.589c.065,0,.13,0,.195,0-.061-.046-.121-.093-.182-.139a4.076,4.076,0,0,0-2.247.584.9.9,0,0,1-1.2-.1c.311.461.581.536,1.176.252" transform="translate(-24.257 -47.146)" fill="#00e6fe"/>
        <path id="Trazado_128783" data-name="Trazado 128783" d="M33.628,77.443a4.08,4.08,0,0,0-.387,1.732c-.01,1.557,0,3.115-.023,4.672,0,.306.129.35.387.348,1.541-.008,3.082-.013,4.623,0,.327,0,.379-.132.375-.412-.014-.828.018-1.658-.01-2.485a10.659,10.659,0,0,1,.96-5.214c-.022-.032-.048-.058-.07-.088-.029.049-.059.1-.087.148a9.012,9.012,0,0,0-.917,3.435c-.1,1.279-.051,2.554-.081,3.831-.012.524-.055.575-.571.578q-1.917.011-3.835,0c-.508,0-.558-.061-.568-.584-.008-.415-.019-.831,0-1.245.08-1.678-.278-3.394.437-5.017a.473.473,0,0,0,.021-.246c-.039-.29-.1-.563-.463-.614a.886.886,0,0,1,.207,1.16" transform="translate(-21.801 -49.876)" fill="#00e6fe"/>
        <path id="Trazado_128784" data-name="Trazado 128784" d="M.033,17.258c0,.792,0,1.44,0,2.087a2.246,2.246,0,1,0,4.481-.016c.005-.93.016-1.86-.008-2.789-.008-.32.1-.382.391-.376.9.019,1.793.01,2.689.006A2.766,2.766,0,0,0,8.8,15.951a2.253,2.253,0,0,0,1.265-2.374,2.153,2.153,0,0,0-1.989-1.849,38.839,38.839,0,0,0-4.627,0A3.643,3.643,0,0,0,.093,14.866a21.935,21.935,0,0,0-.059,2.391m1.5-1.772a2.189,2.189,0,0,1,2.2-2.28c1.342-.044,2.685-.022,4.028-.011a.751.751,0,0,1,.837.727c.005.437-.326.739-.872.744-1.177.012-2.354,0-3.531,0-.964,0-1.167.208-1.168,1.167,0,1.144,0,2.288,0,3.432,0,.63-.268.967-.748.966s-.741-.338-.744-.97,0-1.26,0-1.89-.009-1.26,0-1.89" transform="translate(-0.018 -7.653)"/>
        <path id="Trazado_128785" data-name="Trazado 128785" d="M8.066,113.018c-1.04-.079-2.089-.051-3.135-.036-.339,0-.451-.071-.442-.426q.037-1.468,0-2.938A2.226,2.226,0,0,0,2.266,107.4,2.216,2.216,0,0,0,.025,109.6c-.029,1.394-.037,2.789,0,4.183a3.676,3.676,0,0,0,2.91,3.572,11.9,11.9,0,0,0,2.829.068c.78,0,1.561.034,2.338-.01a2,2,0,0,0,1.67-1.1,2.19,2.19,0,0,0-1.709-3.293m-.07,2.9a2.234,2.234,0,0,1-.445.036c-1.194,0-2.387.009-3.581,0a2.258,2.258,0,0,1-2.46-2.481c0-.581,0-1.161,0-1.741,0-.647-.007-1.293,0-1.94.007-.556.279-.873.73-.882.471-.009.757.318.76.9.007,1.227,0,2.454,0,3.681,0,.7.251.967.955.977,1.16.015,2.321,0,3.482.007a3.123,3.123,0,0,1,.544.035A.719.719,0,0,1,8,115.917" transform="translate(0 -70.487)"/>
        <path id="Trazado_128786" data-name="Trazado 128786" d="M2.068,67.659a2.208,2.208,0,0,0-.014,4.4c.741.054,1.49.01,2.235.01s1.494.044,2.235-.011a2.209,2.209,0,0,0,.014-4.394,34.9,34.9,0,0,0-4.471,0m4.948,2.215c-.01.436-.338.713-.894.724-.613.012-1.227,0-1.84,0s-1.227.01-1.841,0c-.554-.011-.882-.291-.889-.728s.324-.742.869-.748q1.865-.018,3.731,0c.542.006.874.314.864.751" transform="translate(-0.035 -44.357)"/>
        <path id="Trazado_128787" data-name="Trazado 128787" d="M70.014,123.761a2.186,2.186,0,0,0-2.222,1.983c-.055.741-.01,1.49-.01,2.235h0c0,.762-.046,1.527.011,2.284a2.208,2.208,0,0,0,4.389,0,34.255,34.255,0,0,0,0-4.52,2.176,2.176,0,0,0-2.172-1.983m.712,6.1c-.006.543-.313.875-.75.867s-.715-.337-.726-.892c-.012-.63,0-1.26,0-1.89,0-.6-.009-1.194,0-1.791.011-.555.29-.883.726-.891s.744.323.749.867q.018,1.865,0,3.731" transform="translate(-44.473 -81.222)"/>
        <path id="Trazado_128788" data-name="Trazado 128788" d="M106.132,77.986A2.6,2.6,0,0,1,106,76.859a4.637,4.637,0,0,0-3.755-4.563,3.278,3.278,0,0,0-.808-.039,6.747,6.747,0,0,1,1.644,1.7,5.455,5.455,0,0,1,.85,2.861c.037,1.572.014,3.147.014,4.72h0c.461-.011.923-.025,1.382,0,.439.027.689-.1.7-.578a.992.992,0,0,1,.246-.634.55.55,0,0,1,.655-.207V78.461c-.435.125-.654-.13-.8-.475" transform="translate(-66.572 -47.416)" fill="#00c9e0"/>
        <path id="Trazado_128789" data-name="Trazado 128789" d="M111.066,95.292a.992.992,0,0,0-.246.634c-.012.483-.262.6-.7.578-.459-.028-.921-.014-1.382,0h0c0,.053,0,.105,0,.158.593.01,1.188,0,1.779.037.386.026.469-.12.463-.478-.013-.793.1-.935.744-1.133a.55.55,0,0,0-.655.207" transform="translate(-71.361 -62.376)" fill="#00c9e0"/>
        <path id="Trazado_128790" data-name="Trazado 128790" d="M105.825,77.193c0-.149,0-.3,0-.448a4.791,4.791,0,0,0-4.926-4.911c.064.047.123.1.185.144a3.278,3.278,0,0,1,.808.039,4.637,4.637,0,0,1,3.755,4.563,2.6,2.6,0,0,0,.132,1.127c.146.345.365.6.8.475a.849.849,0,0,1-.753-.991" transform="translate(-66.218 -47.139)" fill="#00c9e0"/>
        <path id="Trazado_128791" data-name="Trazado 128791" d="M130.591,114.652q0-.9,0-1.791c0-.728-.235-1.071-.735-1.078s-.758.339-.759,1.054q0,1.666,0,3.333c0,.969-.2,1.174-1.158,1.177-1.21,0-2.421-.008-3.631.01a.732.732,0,1,0,0,1.461c1.392.013,2.786.035,4.177-.018a2.163,2.163,0,0,0,2.106-2.21c.017-.646,0-1.293,0-1.94Z" transform="translate(-81.068 -73.362)" fill="#fe5a51"/>
        <path id="Trazado_128792" data-name="Trazado 128792" d="M130.592,18.575a2.258,2.258,0,0,0-2.467-2.475c-1.193-.009-2.387,0-3.581,0-.083,0-.166,0-.249.006a.737.737,0,1,0,.024,1.47c.132.01.265,0,.4,0,1.094,0,2.188,0,3.283,0,.869,0,1.1.234,1.1,1.086,0,1.194,0,2.388,0,3.581,0,.583.292.907.766.895.451-.012.717-.329.724-.887.008-.663,0-1.326,0-1.99,0-.564,0-1.127,0-1.691" transform="translate(-81.068 -10.563)" fill="#fe5a51"/>
        <path id="Trazado_128793" data-name="Trazado 128793" d="M132.736,72.034c-.6-.012-1.194,0-1.79,0-.63,0-1.26-.009-1.89,0-.555.011-.883.289-.892.726s.323.744.866.75q1.865.018,3.731,0c.543-.005.875-.312.867-.749s-.336-.715-.891-.726" transform="translate(-84.112 -47.271)" fill="#fe7a48"/>
        <path id="Trazado_128794" data-name="Trazado 128794" d="M72.078,8.979c.012.522.291.838.711.854.435.016.756-.317.761-.854q.02-1.865,0-3.731c-.005-.549-.3-.879-.737-.879s-.727.329-.738.879c-.013.613,0,1.227,0,1.841,0,.63-.011,1.26,0,1.89" transform="translate(-47.298 -2.868)" fill="#fe7a48"/>
        <path id="Trazado_128795" data-name="Trazado 128795" d="M66.618,39.411a3.981,3.981,0,1,0,4,3.975,4.012,4.012,0,0,0-4-3.975" transform="translate(-41.118 -25.865)" fill="#fed580"/>
        <path id="Trazado_128796" data-name="Trazado 128796" d="M81.461,74.66c.011,2.123,0,4.246,0,6.369,0,.367-.005.551-.1.643.416,0,.832,0,1.248,0,.747,0,.753-.007.753-.742,0-2.121-.042-4.244.011-6.364A7.041,7.041,0,0,0,77.8,67.676c-.121-.025-.241-.053-.362-.08a4.806,4.806,0,0,1,1.191.835,8.062,8.062,0,0,1,2.837,6.229" transform="translate(-50.818 -44.362)" fill="#006eca"/>
        <path id="Trazado_128797" data-name="Trazado 128797" d="M69.617,67.283a7.04,7.04,0,0,1,5.574,6.888c-.053,2.12-.009,4.243-.01,6.365,0,.735-.007.738-.753.742-.416,0-.832,0-1.248,0-.1.091-.284.093-.65.093q-3.508,0-7.016,0a1.492,1.492,0,0,0-.542.033c3.336,0,6.672,0,10.008.02.374,0,.389-.172.388-.453q-.009-3.362,0-6.723a7.28,7.28,0,0,0-.5-2.721A7.2,7.2,0,0,0,68.459,67a2.327,2.327,0,0,1,.8.2c.121.026.242.055.362.08" transform="translate(-42.64 -43.97)" fill="#006eca"/>
        <path id="Trazado_128798" data-name="Trazado 128798" d="M80.647,80.892c0-2.123.01-4.246,0-6.369a8.063,8.063,0,0,0-2.837-6.229,4.8,4.8,0,0,0-1.191-.835,3.73,3.73,0,0,0-.427-.072,1.423,1.423,0,0,1,.22.1,7.8,7.8,0,0,1,4.07,6.672c.095,2.283,0,4.574.031,6.861,0,.3-.057.445-.208.515h.24c.1-.092.1-.276.1-.643" transform="translate(-50.003 -44.224)" fill="#006eca"/>
        <path id="Trazado_128799" data-name="Trazado 128799" d="M65.514,108.647q3.508,0,7.016,0c.366,0,.553,0,.65-.093h-.24a.936.936,0,0,1-.384.054c-2.353-.02-4.707-.011-7.06-.007-.176,0-.367-.06-.525.08a1.485,1.485,0,0,1,.542-.033" transform="translate(-42.64 -71.241)" fill="#006eca"/>
        <path id="Trazado_128800" data-name="Trazado 128800" d="M75.914,67.2a2.335,2.335,0,0,0-.8-.2c.121.047.247.086.369.132a3.753,3.753,0,0,1,.427.073" transform="translate(-49.299 -43.971)" fill="#006eca"/>
        <path id="Trazado_128801" data-name="Trazado 128801" d="M100.2,81.061c0-1.291,0-2.582,0-3.873a5.524,5.524,0,0,0-2.248-4.643c-.1-.077-.238-.137-.286-.26l-.062,0a3.8,3.8,0,0,0-1.228.161c-.482.141-.532.266-.275.7a8.43,8.43,0,0,1,1.154,3.261,31.567,31.567,0,0,1,.146,3.971c0,1.323-.155,1.168,1.155,1.18.564,0,1.128,0,1.692,0a1.372,1.372,0,0,1-.047-.5" transform="translate(-62.965 -47.439)" fill="#00e6fe"/>
        <path id="Trazado_128802" data-name="Trazado 128802" d="M98.042,81.26c-1.31-.012-1.158.143-1.155-1.179a31.572,31.572,0,0,0-.146-3.972,8.436,8.436,0,0,0-1.154-3.261c-.257-.435-.207-.561.275-.7a3.811,3.811,0,0,1,1.228-.161l.062,0a.287.287,0,0,1-.014-.15,4.192,4.192,0,0,0-1.7.3c-.338.114-.332.242-.149.522a8.067,8.067,0,0,1,1.368,4.3c.03,1.359.023,2.719.031,4.079,0,.217-.039.432.308.423.943-.024,1.888-.025,2.832-.036a.51.51,0,0,1-.1-.158c-.564-.006-1.128,0-1.692,0" transform="translate(-62.457 -47.137)" fill="#00e6fe"/>
        <path id="Trazado_128803" data-name="Trazado 128803" d="M101.227,72.536a5.523,5.523,0,0,1,2.248,4.643q0,1.937,0,3.873a1.372,1.372,0,0,0,.047.5h.1c0-1.573.023-3.147-.014-4.72a5.453,5.453,0,0,0-.85-2.861,6.758,6.758,0,0,0-1.644-1.7l-.171.006c.048.123.185.183.286.26" transform="translate(-66.246 -47.43)" fill="#00e6fe"/>
        <path id="Trazado_128804" data-name="Trazado 128804" d="M108.453,99.284a.51.51,0,0,0,.1.158c0-.053,0-.105,0-.158h-.1" transform="translate(-71.176 -65.158)" fill="#00e6fe"/>
        <path id="Trazado_128805" data-name="Trazado 128805" d="M100.907,72l.171-.006c-.063-.047-.122-.1-.185-.144a.287.287,0,0,0,.014.15" transform="translate(-66.212 -47.154)" fill="#00e6fe"/>
        <path id="Trazado_128806" data-name="Trazado 128806" d="M41.489,49.74a3.026,3.026,0,1,0,3.043,3.021,3.025,3.025,0,0,0-3.043-3.021" transform="translate(-25.254 -32.643)" fill="#fed580"/>
        <path id="Trazado_128807" data-name="Trazado 128807" d="M98.435,52.829a3.025,3.025,0,1,0-3.1,2.959,3.024,3.024,0,0,0,3.1-2.959" transform="translate(-60.63 -32.643)" fill="#fed580"/>
        <path id="Trazado_128808" data-name="Trazado 128808" d="M49.119,73.357a.529.529,0,0,1,.053.079c.076-.13.151-.26.228-.389.221-.368.187-.446-.224-.6a3.493,3.493,0,0,0-1.284-.2,4.025,4.025,0,0,1,1.227,1.11" transform="translate(-31.431 -47.415)" fill="#00c8df"/>
        <path id="Trazado_128809" data-name="Trazado 128809" d="M48.586,72.147c.41.156.444.235.224.6-.078.129-.152.26-.228.389a.193.193,0,0,1,.012.189c.167-.263.321-.534.5-.785.159-.216.08-.309-.132-.391a4.12,4.12,0,0,0-1.973-.338,2.294,2.294,0,0,1,.309.136,3.5,3.5,0,0,1,1.285.2" transform="translate(-30.841 -47.118)" fill="#00c8df"/>
        <path id="Trazado_128810" data-name="Trazado 128810" d="M48.876,73.358a4.025,4.025,0,0,0-1.227-1.11l-.127,0a6.467,6.467,0,0,1,1.348,1.286l.059-.1a.529.529,0,0,0-.053-.079" transform="translate(-31.188 -47.415)" fill="#00c8df"/>
        <path id="Trazado_128811" data-name="Trazado 128811" d="M51.5,75.706l-.059.1c.022.031.049.057.07.088a.193.193,0,0,0-.012-.189" transform="translate(-33.762 -49.685)" fill="#00c8df"/>
        <path id="Trazado_128812" data-name="Trazado 128812" d="M47.3,71.987a2.294,2.294,0,0,0-.309-.136c.061.046.121.093.181.139l.127,0" transform="translate(-30.841 -47.155)" fill="#00c8df"/>
        <path id="Trazado_128813" data-name="Trazado 128813" d="M66.929,86.821q1.7-2.447,3.4-4.9a1.85,1.85,0,0,0,.247-.428.726.726,0,0,0-.79-.959.942.942,0,0,0-.652.49c-.935,1.348-1.878,2.69-2.8,4.049-.215.318-.338.391-.638.075-.777-.816-1.593-1.6-2.39-2.393a1.035,1.035,0,0,0-.733-.368.706.706,0,0,0-.625.424.776.776,0,0,0,.241.938q1.623,1.613,3.244,3.227c.589.583,1.009.54,1.493-.154" transform="translate(-40.608 -52.848)"/>
        <path id="Trazado_128814" data-name="Trazado 128814" d="M4.385,22.164c0,.632.265.969.744.97s.746-.336.748-.966c0-1.144,0-2.288,0-3.432,0-.959.2-1.165,1.168-1.167,1.177,0,2.354.007,3.532,0,.545-.006.876-.307.871-.744a.751.751,0,0,0-.837-.727c-1.343-.011-2.687-.033-4.028.011a2.189,2.189,0,0,0-2.2,2.28c-.012.63,0,1.26,0,1.89s0,1.26,0,1.89" transform="translate(-2.875 -10.552)" fill="#fe5a51"/>
        <path id="Trazado_128815" data-name="Trazado 128815" d="M10.863,117.385a3.121,3.121,0,0,0-.544-.035c-1.161,0-2.321.009-3.482-.007-.7-.01-.952-.277-.955-.977,0-1.227,0-2.454,0-3.681,0-.584-.288-.91-.76-.9-.451.008-.723.326-.73.881-.008.647,0,1.293,0,1.94,0,.581,0,1.161,0,1.741a2.258,2.258,0,0,0,2.46,2.481c1.194.01,2.387,0,3.581,0a2.235,2.235,0,0,0,.445-.035.719.719,0,0,0-.011-1.408" transform="translate(-2.878 -73.362)" fill="#fe5a51"/>
        <path id="Trazado_128816" data-name="Trazado 128816" d="M5.281,72.032c-.544.005-.875.311-.869.748s.335.717.889.728c.613.012,1.227,0,1.841,0s1.227.009,1.84,0c.556-.011.884-.287.894-.724s-.322-.746-.864-.751q-1.865-.019-3.731,0" transform="translate(-2.896 -47.267)" fill="#fe7a48"/>
        <path id="Trazado_128817" data-name="Trazado 128817" d="M72.8,128.122c-.436.008-.715.336-.726.891-.012.6,0,1.194,0,1.79,0,.63-.009,1.26,0,1.89.01.555.289.883.726.892s.744-.323.75-.867q.018-1.865,0-3.73c-.005-.543-.312-.875-.749-.867" transform="translate(-47.299 -84.084)" fill="#fe7a48"/>
      </g>
    </g>
  </g>
</svg>
