<svg xmlns="http://www.w3.org/2000/svg" xmlns:xlink="http://www.w3.org/1999/xlink" width="99" height="99" viewBox="0 0 99 99">
  <defs>
    <clipPath id="clip-path">
      <rect id="Rectángulo_37140" data-name="Rectángulo 37140" width="56.31" height="56.321" fill="none"/>
    </clipPath>
  </defs>
  <g id="Grupo_156594" data-name="Grupo 156594" transform="translate(-1171 -5097)">
    <circle id="Elipse_4760" data-name="Elipse 4760" cx="49.5" cy="49.5" r="49.5" transform="translate(1171 5097)" fill="#1169e3"/>
    <g id="Grupo_156592" data-name="Grupo 156592" transform="translate(1191.845 5118.283)">
      <g id="Grupo_156591" data-name="Grupo 156591" clip-path="url(#clip-path)">
        <path id="Trazado_127085" data-name="Trazado 127085" d="M19.644,76.49c-.193.647-.388.792-1.1.792q-5.742,0-11.484,0a6.847,6.847,0,0,1-6.922-5.56c-.028-.128.046-.307-.141-.379V70.9a1.881,1.881,0,0,0,0-.99v-.33c.2-.151.15-.395.194-.592A6.843,6.843,0,0,1,6.74,63.647c.477-.007.955-.029,1.429.005.413.03.548-.075.545-.523C8.694,59.371,8.7,55.613,8.7,51.856c0-4.033-.01-8.066.012-12.1,0-.521-.075-.745-.664-.693a.834.834,0,0,1-.988-.736.8.8,0,0,1,.665-.871,4.2,4.2,0,0,1,.658-.025q12.372,0,24.744,0c.183,0,.367-.006.549.012a.745.745,0,0,1,.741.738.766.766,0,0,1-.664.867l-.054.012c-.294.08-.727-.14-.866.122a2.379,2.379,0,0,0-.053,1.024q0,11.438-.011,22.877c0,.445.084.6.557.574a27.591,27.591,0,0,1,2.8,0c.52.029.584-.159.581-.613-.019-3.024-.011-6.049-.01-9.074,0-.967.234-1.2,1.191-1.2H48.012c.951,0,1.19.242,1.19,1.208,0,3.025.011,6.049-.011,9.074,0,.466.088.6.586.613a6.8,6.8,0,0,1,.8,13.52,7.846,7.846,0,0,1-1.147.095q-13.252.008-26.5.012c-.6,0-.993-.183-1.147-.778-.1-.6.2-.976.87-1.027.749-.057,1.5-.015,2.252-.02.348,0,.7-.012,1.043.007.4-.019.8-.01,1.2-.007.333,0,.509-.121.508-.478,0-1,0-2.007,0-3.01,0-.321-.15-.461-.466-.464-.42,0-.839.009-1.259-.009-3.7.029-7.392.005-11.087.013-1.029,0-1.03,0-1.03,1.022,0,.768.014,1.537,0,2.305-.011.448.169.621.613.617,1.336-.009,2.671-.007,4.006,0a1.6,1.6,0,0,1,.8.13.7.7,0,0,1,.414.9" transform="translate(0 -20.969)"/>
        <path id="Trazado_127086" data-name="Trazado 127086" d="M44.871,0c.636.319.573.9.564,1.472-.011.728,0,.728.708.728q4.508,0,9.016,0c.893,0,1.147.252,1.149,1.134,0,.953.005,1.906,0,2.859,0,.678-.293.96-.968.975-.037,0-.074,0-.11,0-.487.039-1.136-.214-1.417.11-.241.278-.076.908-.086,1.383-.006.275,0,.55,0,.825-.018.751-.283,1.02-1.047,1.022-2.089.007-4.178,0-6.268,0-.2,0-.4.014-.6,0-.28-.025-.4.069-.376.367.023.273.008.549,0,.824-.009.718-.28,1.042-.992,1-.6-.039-.706.173-.694.721.037,1.612.026,3.226,0,4.838,0,.389.062.6.5.519A3.76,3.76,0,0,1,48.1,20.354a18.171,18.171,0,0,0,1.757,1.738,1.2,1.2,0,0,1,.389.927c-.008,1.851,0,3.7-.005,5.553,0,.749-.284,1.03-1.027,1.033q-1.457.007-2.914,0c-.593,0-.969-.325-.971-.81s.376-.822.963-.835c.6-.013,1.21-.024,1.814,0,.367.017.506-.066.5-.471-.028-1.319-.016-2.639-.005-3.959a.772.772,0,0,0-.256-.624q-1.175-1.117-2.324-2.262a.746.746,0,0,0-.581-.232q-2.5.01-5,0a.809.809,0,0,0-.63.253Q38.68,21.8,37.526,22.9a.771.771,0,0,0-.261.62c.012,1.338.023,2.677,0,4.014-.008.393.142.444.471.431.6-.022,1.209-.015,1.814,0s.957.325.959.826-.333.814-.947.819c-1.008.007-2.016.009-3.024,0a.8.8,0,0,1-.909-.913c-.007-1.924,0-3.849-.006-5.773a1.015,1.015,0,0,1,.333-.777q1.557-1.514,3.1-3.041a1.1,1.1,0,0,1,.838-.33c.6.009,1.21-.011,1.814.008.3.009.415-.066.412-.393q-.023-2.639,0-5.278c0-.31-.087-.4-.4-.4-1.092-.018-1.251-.2-1.251-1.3,0-.892,0-.892-.878-.892H3.742c-.911-.006-1.151-.239-1.157-1.134,0-.6-.016-1.21.005-1.814.011-.318-.1-.42-.409-.4-.365.024-.734-.019-1.1.011A1.026,1.026,0,0,1,0,6.6V2.75a.92.92,0,0,1,1.023-.711c1.222-.009,2.443-.015,3.664,0a1.107,1.107,0,0,1,1.155.743c.036.821-.294,1.2-1.1,1.234-.769.029-1.54.02-2.309,0-.45-.009-.626.169-.61.617.019.566.078.656.608.68.165.007.33,0,.495,0H39.216c.11,0,.22,0,.33,0,.7-.009.793-.125.745-.808-.022-.31-.142-.476-.464-.481-.22,0-.44-.005-.66-.005H9.806a8.38,8.38,0,0,1-.88-.018A1.023,1.023,0,0,1,7.888,2.855a1.041,1.041,0,0,1,.988-.809,6.636,6.636,0,0,1,.877-.022h29.1c.183,0,.366,0,.549,0,.86,0,.866,0,.892-.887.016-.53.121-.989.726-1.136Z"/>
        <path id="Trazado_127087" data-name="Trazado 127087" d="M0,111.292a.983.983,0,0,1,0,.99Z" transform="translate(0 -62.348)" fill="#5c5c5c"/>
        <path id="Trazado_127088" data-name="Trazado 127088" d="M43.283,118.757l-3.075.02c-.72.005-.908.156-1.1.879l-2.133-.022c-.155-.682-.359-.854-1.047-.856-1.518,0-3.037-.01-4.555.006-.321,0-.444-.056-.436-.414.025-1.17.017-2.341,0-3.512,0-.292.054-.415.385-.414,3.933.012,7.866.009,11.8.012a.9.9,0,0,1,.161.029.8.8,0,0,1,.171.56q.015,1.579,0,3.158a.71.71,0,0,1-.174.555" transform="translate(-17.332 -64.114)" fill="#b6d3e1"/>
        <path id="Trazado_127089" data-name="Trazado 127089" d="M42.539,76.311a1.054,1.054,0,0,0-.876-.367q-7.78.007-15.56.006c-.688,0-.962.286-.965.972-.007,1.5-.013,3.006.006,4.509,0,.361-.053.509-.466.5-1.155-.018-1.156,0-1.156-1.176q0-15.727-.014-31.453c0-.547.151-.649.666-.647,5.974.019,11.949.012,17.924.014.182,0,.364.018.547.028a2.084,2.084,0,0,1-.1,2.019,3.794,3.794,0,0,0-1.815-.3q-6.9.013-13.793,0c-.22,0-.44-.006-.66.005-.718.037-.941.256-.945.986-.01,1.979-.007,3.957,0,5.936,0,.857.21,1.074,1.075,1.079,2.271.013,4.543,0,6.814,0,2.455,0,4.909,0,7.364,0a4.053,4.053,0,0,0,1.981-.3c.311.19.248.508.25.788.011,1.428,0,2.856,0,4.284,0,4.083,0,8.166-.008,12.249,0,.3.144.678-.276.854" transform="translate(-13.17 -27.259)" fill="#d3eefe"/>
        <path id="Trazado_127090" data-name="Trazado 127090" d="M66.686,76.293c.178-.164.1-.379.1-.571q.007-8.493,0-16.986c0-.2.06-.405-.079-.584a.794.794,0,0,1-.1-.529q0-3.215,0-6.43a.786.786,0,0,1,.1-.528,9.968,9.968,0,0,0,.08-1.983c1.658-.139,1.658-.139,1.658,1.457q0,15.557.011,31.115c0,.5-.074.7-.634.666-1.028-.054-1.03-.015-1.03-1.029,0-1.282,0-2.565,0-3.848a1.865,1.865,0,0,0-.113-.75" transform="translate(-37.317 -27.241)" fill="#b6d3e1"/>
        <path id="Trazado_127091" data-name="Trazado 127091" d="M87.234,83q-.013-3.351-.029-6.7c0-.224.063-.31.307-.331,1.7-.148,1.7-.154,1.7,1.522,0,.989.006,1.979,0,2.968a.851.851,0,0,0,.456.866.877.877,0,0,0,.968-.155,1.723,1.723,0,0,1,2.353,0,.872.872,0,0,0,.967.156.853.853,0,0,0,.453-.867c-.008-1.319.018-2.639-.015-3.957-.011-.455.14-.569.557-.532a8.8,8.8,0,0,0,1.1,0c.244-.009.369.05.366.329-.017,2.234-.024,4.468-.034,6.7a1.053,1.053,0,0,1-.73.176q-3.841,0-7.683,0A1.015,1.015,0,0,1,87.234,83" transform="translate(-48.854 -42.524)" fill="#fec63b"/>
        <path id="Trazado_127092" data-name="Trazado 127092" d="M23.675,41.224c.146-.009.291-.026.436-.026q9.078,0,18.156,0c.146,0,.292.014.437.022A1.787,1.787,0,0,1,42.84,42.5a.325.325,0,0,1-.367.324c-.128,0-.256,0-.384,0H24.244c-.621,0-.628,0-.618-.618a3.234,3.234,0,0,1,.048-.979" transform="translate(-13.228 -23.079)" fill="#658ea2"/>
        <path id="Trazado_127093" data-name="Trazado 127093" d="M91.009,121.612q-8.028.007-16.054.019c-.332,0-.436-.088-.44-.431-.014-1.226-.028-1.225,1.179-1.225,4.985,0,9.97-.007,14.956.007a5.08,5.08,0,0,0,2.344-.455.26.26,0,0,1-.013.351,4.371,4.371,0,0,1-1.97,1.733" transform="translate(-41.742 -66.961)" fill="#4c7888"/>
        <path id="Trazado_127094" data-name="Trazado 127094" d="M92.991,102.886a5.1,5.1,0,0,0-2.344-.455c-5.187.014-10.373,0-15.56.018-.458,0-.589-.118-.577-.577.03-1.083.006-1.085,1.1-1.084l15.394.013a4.371,4.371,0,0,1,1.97,1.733.26.26,0,0,1,.014.351" transform="translate(-41.742 -56.464)" fill="#4c7888"/>
        <path id="Trazado_127095" data-name="Trazado 127095" d="M9.846,111.116c-2.692.059-4.506-.854-5.542-3.032a5.156,5.156,0,0,1,4.52-7.3c.531-.014,1.063.015,1.593-.013.347-.018.425.113.43.44.015,1.217.026,1.244-1.185,1.209a3.879,3.879,0,0,0-3.245,1.149,3.328,3.328,0,0,0-.684,3.671,3.385,3.385,0,0,0,3.075,2.215,15.973,15.973,0,0,0,1.648.007c.274-.007.378.068.391.366.058,1.289.069,1.289-1,1.289" transform="translate(-2.139 -56.453)" fill="#4c7788"/>
        <path id="Trazado_127096" data-name="Trazado 127096" d="M87.021,108.321h8.23a3.566,3.566,0,0,0,0,3.7H87.054a3.63,3.63,0,0,0-.033-3.7" transform="translate(-48.751 -60.683)" fill="#364c59"/>
        <path id="Trazado_127097" data-name="Trazado 127097" d="M87.228,92.037h9.141c.01.6,0,1.207.036,1.809.016.319-.1.4-.405.395-1.519-.014-3.038-.006-4.558-.006-1.282,0-2.563-.009-3.844.006-.305,0-.418-.079-.4-.4.03-.6.024-1.206.033-1.81" transform="translate(-48.848 -51.561)" fill="#fea63e"/>
        <path id="Trazado_127098" data-name="Trazado 127098" d="M114.007,102.9a5.515,5.515,0,0,0-1.983-2.085,5.161,5.161,0,1,1,0,10.312,5.513,5.513,0,0,0,1.984-2.085,3.566,3.566,0,0,0,0-6.143" transform="translate(-62.757 -56.477)" fill="#364c59"/>
        <path id="Trazado_127099" data-name="Trazado 127099" d="M76,110.174a1.854,1.854,0,0,1,1.873-1.875,1.867,1.867,0,1,1-.037,3.734A1.856,1.856,0,0,1,76,110.174" transform="translate(-42.578 -60.671)" fill="#98b9c5"/>
        <path id="Trazado_127100" data-name="Trazado 127100" d="M112.03,110.157a1.865,1.865,0,1,1-1.843-1.858,1.871,1.871,0,0,1,1.843,1.858" transform="translate(-60.672 -60.671)" fill="#98b9c5"/>
        <path id="Trazado_127101" data-name="Trazado 127101" d="M13.175,108.3a1.867,1.867,0,0,1,.02,3.734,1.867,1.867,0,1,1-.02-3.734" transform="translate(-6.339 -60.671)" fill="#98b9c5"/>
        <path id="Trazado_127102" data-name="Trazado 127102" d="M59.009,118.762q0-2.136,0-4.272c.51-.011,1.021-.012,1.53-.036.253-.011.354.062.352.334q-.019,1.836,0,3.671c0,.28-.108.336-.354.326-.511-.019-1.022-.017-1.533-.024" transform="translate(-33.058 -64.119)" fill="#98b9c5"/>
        <path id="Trazado_127103" data-name="Trazado 127103" d="M97.4,77.706c-.086.438.267,1.179-.153,1.436-.343.211-1.012-.073-1.539.06-.192.048-.2-.1-.2-.231,0-.878.005-1.756,0-2.633,0-.247.1-.329.328-.3a.328.328,0,0,0,.055,0C97.4,75.97,97.4,75.97,97.4,77.706" transform="translate(-53.502 -42.585)" fill="#fe5a39"/>
        <path id="Trazado_127104" data-name="Trazado 127104" d="M23.589,41.23c0,.384.013.769,0,1.153-.01.279.09.413.38.386.109-.01.219,0,.329,0H41.916c.7,0,.7,0,.7-.719v-.823c.164-.006.329-.017.493-.018,1.187,0,1.173,0,1.17,1.183,0,.353-.089.491-.46.474-.548-.025-1.1,0-1.648,0-6.009,0-12.017-.01-18.026.016-.585,0-.756-.178-.667-.708.053-.313-.12-.651.106-.945" transform="translate(-13.143 -23.085)" fill="#4b7788"/>
        <path id="Trazado_127105" data-name="Trazado 127105" d="M7.806,6.264a.52.52,0,0,0,.553.323,10.33,10.33,0,0,1,1.2,0,.563.563,0,0,0,.526-.21c.042.766.289.985,1.123.985q15.341,0,30.681-.015c.579,0,.689.164.666.692-.043.992-.012.993-1.012.993q-18.557,0-37.115.012c-.549,0-.752-.1-.718-.695.057-.985.015-.987,1.013-.987.678,0,1.356,0,2.034,0,.818,0,1.07-.268,1.047-1.094" transform="translate(-2.077 -3.509)" fill="#b6d3e1"/>
        <path id="Trazado_127106" data-name="Trazado 127106" d="M27.764,16.284q8.74,0,17.48-.01c.476,0,.669.082.647.617-.045,1.1-.012,1.1-1.1,1.1H10.435c-.779,0-.779,0-.779-.75,0-.954,0-.954.957-.954h17.15" transform="translate(-5.409 -9.117)" fill="#658ea2"/>
        <path id="Trazado_127107" data-name="Trazado 127107" d="M109.748,10.4c-2.047.007-4.094.011-6.142.026-.265,0-.33-.089-.342-.347-.062-1.328-.069-1.33,1.271-1.327q2.605,0,5.21.015a1.784,1.784,0,0,1,0,1.632" transform="translate(-57.839 -4.904)" fill="#b6d3e1"/>
        <path id="Trazado_127108" data-name="Trazado 127108" d="M95.781,13.083c-.006-2.994-.009-5.988-.025-8.982,0-.3.115-.387.387-.359.163.016.327.017.491.024a.975.975,0,0,1,.187.775q.008,3.865,0,7.73c0,.91-.113.99-1.041.812" transform="translate(-53.644 -2.093)" fill="#4b7788"/>
        <path id="Trazado_127109" data-name="Trazado 127109" d="M95.812,13.1a2.819,2.819,0,0,1,.329.007c.391.053.543-.075.54-.5-.02-2.94-.014-5.88-.015-8.82.787-.051.787-.051.787.707,0,2.72-.008,5.441.008,8.161,0,.421-.1.62-.545.553-.365-.055-.754.132-1.1-.1" transform="translate(-53.676 -2.106)" fill="#364c59"/>
        <path id="Trazado_127110" data-name="Trazado 127110" d="M106.638,16.278c.953,0,1.906.011,2.859-.006.337-.006.453.113.445.445-.035,1.574.205,1.251-1.205,1.271-1.668.023-3.336,0-5,.021-.347,0-.476-.082-.479-.457-.01-1.283-.025-1.283,1.239-1.283h2.144v.01" transform="translate(-57.844 -9.114)" fill="#4b7687"/>
        <path id="Trazado_127111" data-name="Trazado 127111" d="M118.03,10.4q0-.816,0-1.632c.806-.005,1.613,0,2.418-.021.266-.007.33.083.341.342.058,1.333.066,1.334-1.274,1.332-.494,0-.988-.013-1.483-.02" transform="translate(-66.121 -4.897)" fill="#99b9c5"/>
        <path id="Trazado_127112" data-name="Trazado 127112" d="M44.635,52.705a4.262,4.262,0,0,1,.082.591q.009,3.153,0,6.306a4.255,4.255,0,0,1-.084.59,1.037,1.037,0,0,1-.947.436q-7.719-.009-15.438-.005c-.752,0-1.039-.281-1.041-1.018q-.007-3.159,0-6.318c0-.738.286-1.011,1.043-1.012q7.719,0,15.438-.005a1.03,1.03,0,0,1,.946.436" transform="translate(-15.24 -29.282)"/>
        <path id="Trazado_127113" data-name="Trazado 127113" d="M47.585,96.489c1.244,0,2.488,0,3.732,0,.65,0,1.006.306,1,.826s-.365.819-1.017.821q-3.787.006-7.573,0c-.645,0-1-.311-1-.837s.344-.807,1.012-.81c1.281-.005,2.561,0,3.841,0" transform="translate(-23.939 -54.054)"/>
        <path id="Trazado_127114" data-name="Trazado 127114" d="M57.6,81.5c.348,0,.7-.011,1.043,0a.82.82,0,0,1,.861.806.8.8,0,0,1-.785.829c-.786.029-1.575.029-2.361,0a.821.821,0,0,1-.783-.836.83.83,0,0,1,.818-.8c.036,0,.073,0,.109,0h1.1" transform="translate(-31.134 -45.654)" fill="#010101"/>
        <path id="Trazado_127115" data-name="Trazado 127115" d="M44.659,81.5c.384,0,.769-.015,1.151,0a.754.754,0,0,1,.783.753.769.769,0,0,1-.721.871c-.8.037-1.609.034-2.412,0a.815.815,0,0,1,.048-1.629c.383-.018.768,0,1.152,0" transform="translate(-23.921 -45.655)" fill="#010101"/>
        <path id="Trazado_127116" data-name="Trazado 127116" d="M44.682,88.992c.384,0,.769-.016,1.151,0a.777.777,0,0,1,.8.8.789.789,0,0,1-.774.831c-.785.03-1.573.031-2.357,0a.78.78,0,0,1-.77-.832.791.791,0,0,1,.8-.8c.036,0,.073,0,.11,0h1.042v0" transform="translate(-23.939 -49.852)" fill="#010101"/>
        <path id="Trazado_127117" data-name="Trazado 127117" d="M57.618,88.994c.384,0,.769-.018,1.152,0a.751.751,0,0,1,.774.763.726.726,0,0,1-.684.843,20.165,20.165,0,0,1-2.52,0,.733.733,0,0,1-.7-.838A.748.748,0,0,1,56.411,89c.4-.019.8,0,1.207,0" transform="translate(-31.172 -49.852)" fill="#010101"/>
        <path id="Trazado_127118" data-name="Trazado 127118" d="M31.7,88.988c.366,0,.732-.012,1.1,0a.817.817,0,1,1,.071,1.632c-.785.029-1.574.03-2.359,0a.785.785,0,0,1-.769-.836.8.8,0,0,1,.807-.8q.055,0,.11,0H31.7v0" transform="translate(-16.663 -49.85)" fill="#010101"/>
        <path id="Trazado_127119" data-name="Trazado 127119" d="M31.724,96.492c.366,0,.732-.014,1.1,0a.815.815,0,0,1,.084,1.627c-.8.035-1.61.035-2.414,0a.78.78,0,0,1-.747-.853.793.793,0,0,1,.827-.773c.383-.017.768,0,1.152,0" transform="translate(-16.663 -54.054)" fill="#010101"/>
        <path id="Trazado_127120" data-name="Trazado 127120" d="M31.71,81.5c.384,0,.769-.019,1.151.006a.744.744,0,0,1,.756.777.729.729,0,0,1-.7.834,19.578,19.578,0,0,1-2.52,0,.723.723,0,0,1-.675-.849.748.748,0,0,1,.775-.759c.4-.022.8,0,1.206,0" transform="translate(-16.653 -45.655)" fill="#010101"/>
        <path id="Trazado_127121" data-name="Trazado 127121" d="M105.422,18.032c-.511,0-1.022-.007-1.533,0-.248,0-.385-.077-.363-.343,0-.036,0-.073,0-.11.019-1.318-.161-1.055,1.05-1.078.767-.014,1.534.013,2.3-.009.369-.011.52.089.508.487-.039,1.272.15,1.023-1.03,1.05-.31.007-.621,0-.931,0" transform="translate(-57.996 -9.24)" fill="#658da1"/>
        <path id="Trazado_127122" data-name="Trazado 127122" d="M43.185,61.057q-5.929.009-11.858.024c-.278,0-.383-.064-.381-.362q.021-2.169,0-4.338c0-.3.105-.362.382-.361q5.929.02,11.858.024c.282.144.27.416.272.669q.016,1.839,0,3.677c0,.252.011.525-.273.668" transform="translate(-17.336 -31.383)" fill="#3eb0fe"/>
        <path id="Trazado_127123" data-name="Trazado 127123" d="M58.776,60.986a1.461,1.461,0,0,0,.1-.364q.011-2.143,0-4.286a1.477,1.477,0,0,0-.1-.364c.636,0,1.448-.227,1.858.08.394.3.106,1.158.119,1.77.02.931-.007,1.863.012,2.794.007.316-.095.41-.4.394-.528-.027-1.058-.018-1.587-.024" transform="translate(-32.927 -31.312)" fill="#438ffe"/>
      </g>
    </g>
    <g id="Grupo_156593" data-name="Grupo 156593" transform="translate(833.421 454)">
      <path id="Trazado_127053" data-name="Trazado 127053" d="M15.507,123.96c-.454.1-.559-.113-.555-.537.012-1.063-.007-1.081-1.106-1.075-.409,0-.536-.124-.528-.529.007-.377.077-.553.512-.551,1.1,0,1.131-.018,1.119-1.119-.005-.5.239-.507.608-.511s.56.058.56.5c0,1.115.023,1.135,1.112,1.131.421,0,.521.15.522.541s-.1.541-.52.539c-1.11-.006-1.137.014-1.112,1.066.012.488-.169.631-.611.545" transform="translate(339.683 4578.363)" fill="#29c4bb"/>
      <path id="Trazado_127054" data-name="Trazado 127054" d="M213.642,151.161c.406-.078.632.057.565.517-.056.385.077.6.5.533s.57.088.573.537c0,.47-.189.578-.589.525-.383-.052-.5.115-.5.5.012.6-.357.826-.934.645-.274-.086-.214-.3-.2-.477.048-.472-.06-.76-.616-.666-.431.073-.457-.2-.456-.527s.014-.6.451-.53c.471.073.694-.1.616-.6-.075-.475.23-.5.582-.454" transform="translate(205.528 4558.239)" fill="#29c4bb"/>
      <path id="Trazado_127055" data-name="Trazado 127055" d="M210.718,69.268c.1.453-.1.608-.527.537-.46-.078-.648.111-.567.569s-.113.548-.542.553-.609-.127-.532-.557c.082-.459-.109-.648-.565-.562-.472.089-.513-.158-.531-.555-.021-.466.16-.588.566-.517.441.077.606-.106.531-.537-.072-.412.061-.579.521-.563.4.014.639.072.552.536s.115.639.567.563c.425-.072.632.081.526.534" transform="translate(208.976 4610.651)" fill="#010000"/>
      <path id="Trazado_127056" data-name="Trazado 127056" d="M55.04,186.64c.1.423-.11.578-.532.5-.5-.09-.614.169-.543.587.079.465-.146.537-.555.535-.39,0-.6-.091-.518-.511.108-.553-.169-.688-.645-.607s-.466-.225-.467-.559.007-.6.448-.512c.593.117.745-.168.665-.7-.077-.508.311-.362.569-.377.274-.016.579-.052.5.389-.1.545.092.8.67.687.482-.092.423.243.409.566" transform="translate(313.711 4536.959)" fill="#010000"/>
      <path id="Trazado_127057" data-name="Trazado 127057" d="M121.786,17.426c-.114-.483.153-.577.548-.518.41.061.572-.109.509-.513s.058-.588.522-.578c.427.009.623.119.548.558s.131.6.553.533c.391-.059.587.035.589.513s-.182.62-.608.553c-.45-.072-.6.133-.533.553.078.472-.175.526-.572.534-.424.009-.562-.151-.5-.54.068-.427-.09-.622-.535-.547s-.62-.106-.523-.547" transform="translate(266.46 4643.184)" fill="#29c4bb"/>
    </g>
  </g>
</svg>
