<svg xmlns="http://www.w3.org/2000/svg" width="70" height="85" viewBox="0 0 70 85">
  <g id="Grupo_157124" data-name="Grupo 157124" transform="translate(-221 -1744)">
    <g id="Grupo_156312" data-name="Grupo 156312" transform="translate(-319 37)">
      <rect id="Rectángulo_36766" data-name="Rectángulo 36766" width="70" height="85" rx="12" transform="translate(540 1707)" fill="#1169e3"/>
    </g>
    <g id="Grupo_156566" data-name="Grupo 156566" transform="translate(224.794 1758.192)">
      <g id="Grupo_156570" data-name="Grupo 156570">
        <path id="Trazado_126892" data-name="Trazado 126892" d="M78.785,77.953c-1.728.012-3.457.034-5.185.034q-19.441,0-38.883,0c-1.051,0-1.051,0-.956-1.068q8.4-.018,16.8-.026c.419,0,.58-.079.559-.537-.04-.873.016-1.751-.022-2.624-.022-.488.075-.67.621-.653,1.418.046,2.839,0,4.258.025.435.008.649-.075.591-.564a5.331,5.331,0,0,1,0-1.107c.039-.417-.134-.529-.527-.539a18.78,18.78,0,0,1-8.326-2.155,18.983,18.983,0,0,1-9.267-10.281,19.688,19.688,0,0,1,.418-15.473,16.738,16.738,0,0,1,3.084-4.638c.292-.316.348-.491,0-.82-.386-.368-.657-.59-1.274-.36a2.55,2.55,0,0,1-3.062-1.29,2.705,2.705,0,1,1,4.837-.147c-.083.181-.354.352-.193.564a4.307,4.307,0,0,0,.782.774c.153.119.261-.106.365-.2a19.59,19.59,0,0,1,4.259-2.933c.588-.3,1.2-.539,1.8-.816.251-.117.462-.146.486.2.018.266.509.581-.062.8a16.981,16.981,0,0,0-3.02,1.5,18.459,18.459,0,0,0-4.143,28,17.922,17.922,0,0,0,10.5,5.928,18.472,18.472,0,0,0,20.46-11.267.651.651,0,0,1,1.12-.248c.2.186,0,.328-.052.462a19.618,19.618,0,0,1-3.523,5.793c-.156.179-.627.335-.276.733.281.319.494.58,1.041.277a2.6,2.6,0,0,1,3.319.829,2.7,2.7,0,0,1-3.668,3.855,2.583,2.583,0,0,1-.991-3.222c.266-.6-.236-.756-.494-1.017s-.382.136-.522.26a18.838,18.838,0,0,1-11.407,4.869c-.464.035-.671.133-.608.628.065.514-.214,1.184.115,1.51.3.3.961.08,1.462.084,1.3.01,2.606.016,3.908,0,.368-.006.507.078.494.475-.03.913.013,1.828-.019,2.741-.016.449.1.6.574.591,2.469-.024,4.939-.016,7.409-.01q3.237.009,6.474.039c.821.007.732-.14.741.741,0,.1,0,.194,0,.291" transform="translate(-25.604 -24.212)"/>
        <path id="Trazado_126893" data-name="Trazado 126893" d="M76.54,77.322A16.48,16.48,0,1,1,92.995,60.836,16.458,16.458,0,0,1,76.54,77.322" transform="translate(-45.579 -33.683)"/>
        <path id="Trazado_126894" data-name="Trazado 126894" d="M15.507,123.96c-.454.1-.559-.113-.555-.537.012-1.063-.007-1.081-1.106-1.075-.409,0-.536-.124-.528-.529.007-.377.077-.553.512-.551,1.1,0,1.131-.018,1.119-1.119-.005-.5.239-.507.608-.511s.56.058.56.5c0,1.115.023,1.135,1.112,1.131.421,0,.521.15.522.541s-.1.541-.52.539c-1.11-.006-1.137.014-1.112,1.066.012.488-.169.631-.611.545" transform="translate(-10.111 -90.835)" fill="#29c4bb"/>
        <path id="Trazado_126895" data-name="Trazado 126895" d="M213.642,151.161c.406-.078.632.057.565.517-.056.385.077.6.5.533s.57.088.573.537c0,.47-.189.578-.589.525-.383-.052-.5.115-.5.5.012.6-.357.826-.934.645-.274-.086-.214-.3-.2-.477.048-.472-.06-.76-.616-.666-.431.073-.457-.2-.456-.527s.014-.6.451-.53c.471.073.694-.1.616-.6-.075-.475.23-.5.582-.454" transform="translate(-160.958 -114.754)" fill="#29c4bb"/>
        <path id="Trazado_126896" data-name="Trazado 126896" d="M210.718,69.268c.1.453-.1.608-.527.537-.46-.078-.648.111-.567.569s-.113.548-.542.553-.609-.127-.532-.557c.082-.459-.109-.648-.565-.562-.472.089-.513-.158-.531-.555-.021-.466.16-.588.566-.517.441.077.606-.106.531-.537-.072-.412.061-.579.521-.563.4.014.639.072.552.536s.115.639.567.563c.425-.072.632.081.526.534" transform="translate(-157.51 -51.351)" fill="#010000"/>
        <path id="Trazado_126897" data-name="Trazado 126897" d="M55.04,186.64c.1.423-.11.578-.532.5-.5-.09-.614.169-.543.587.079.465-.146.537-.555.535-.39,0-.6-.091-.518-.511.108-.553-.169-.688-.645-.607s-.466-.225-.467-.559.007-.6.448-.512c.593.117.745-.168.665-.7-.077-.508.311-.362.569-.377.274-.016.579-.052.5.389-.1.545.092.8.67.687.482-.092.423.243.409.566" transform="translate(-39.315 -140.454)" fill="#010000"/>
        <path id="Trazado_126898" data-name="Trazado 126898" d="M121.786,17.426c-.114-.483.153-.577.548-.518.41.061.572-.109.509-.513s.058-.588.522-.578c.427.009.623.119.548.558s.131.6.553.533c.391-.059.587.035.589.513s-.182.62-.608.553c-.45-.072-.6.133-.533.553.078.472-.175.526-.572.534-.424.009-.562-.151-.5-.54.068-.427-.09-.622-.535-.547s-.62-.106-.523-.547" transform="translate(-92.447 -12.009)" fill="#29c4bb"/>
        <path id="Trazado_126899" data-name="Trazado 126899" d="M16.737,219.817a3.652,3.652,0,0,0-.521,0c-.418.061-.554-.072-.557-.522,0-.482.119-.655.607-.6a4.715,4.715,0,0,0,1.1,0c.5-.059.5.222.506.589s-.059.592-.5.53a4.566,4.566,0,0,0-.637-.005" transform="translate(-11.889 -166.043)" fill="#080808"/>
        <path id="Trazado_126900" data-name="Trazado 126900" d="M230.917,219.874h-.407c-.69,0-.848-.217-.7-.9.05-.227.19-.207.34-.208.388,0,.775,0,1.163,0,.691,0,.854.222.7.9-.042.184-.138.205-.284.2-.271,0-.543,0-.814,0" transform="translate(-174.447 -166.101)" fill="#080808"/>
        <path id="Trazado_126901" data-name="Trazado 126901" d="M115.609,210.176c-1.515,0-3.03-.022-4.543.013-.5.012-.632-.153-.6-.624a14.211,14.211,0,0,0,0-1.63c-.014-.341.072-.477.449-.475q4.718.021,9.436,0c.312,0,.456.062.441.413-.026.62-.03,1.243,0,1.863.019.379-.132.448-.471.445-1.573-.015-3.145-.006-4.718-.006" transform="translate(-83.87 -157.515)" fill="#7cc3c3"/>
        <path id="Trazado_126902" data-name="Trazado 126902" d="M190.633,175.59a1.577,1.577,0,0,1,1.574-1.649,1.649,1.649,0,0,1,1.7,1.606,1.678,1.678,0,0,1-1.658,1.668,1.635,1.635,0,0,1-1.62-1.626" transform="translate(-144.739 -132.066)" fill="#1169e3"/>
        <path id="Trazado_126903" data-name="Trazado 126903" d="M54.646,36.357a1.637,1.637,0,0,1,1.655,1.6,1.66,1.66,0,0,1-1.661,1.664,1.62,1.62,0,0,1-1.608-1.643,1.584,1.584,0,0,1,1.613-1.621" transform="translate(-40.266 -27.604)" fill="#1169e3"/>
        <path id="Trazado_126904" data-name="Trazado 126904" d="M79.96,48.889A15.388,15.388,0,1,1,64.567,64.255,15.342,15.342,0,0,1,79.96,48.889" transform="translate(-49.023 -37.119)" fill="#b0c8cb"/>
        <path id="Trazado_126905" data-name="Trazado 126905" d="M101.8,59.028c1.042-1.049,2.129-1.286,3.142-.654a2.1,2.1,0,0,1,1.035,1.544c.04.292.091.426.433.461a2.117,2.117,0,0,1-.007,4.217.936.936,0,0,0-.643.325,2.07,2.07,0,0,1-2.447.537c-.683-.38-1.107.064-1.395.4a1.17,1.17,0,0,0-.275,1.532c.291.474.438.808,1.071.847a2.517,2.517,0,0,1,1.541.763c.223.215.378.2.644.049a3.347,3.347,0,1,1,2.749,6.046.649.649,0,0,0-.462.518,2.542,2.542,0,0,1-.87,1.414c-.3.239-.282.381-.046.674a2.834,2.834,0,1,1-4.43,3.535,2.725,2.725,0,0,1-.372-2.907c.1-.232.146-.489.247-.7.44-.925-.473-1.482-.565-2.255-.016-.135-.255-.146-.4-.2a3.537,3.537,0,0,1-1.98-4.962c.145-.288.246-.5-.076-.734a.755.755,0,0,1-.3-.552c-.027-.608-.382-.821-.92-1.036a3.6,3.6,0,0,1-2.3-3.7.541.541,0,0,0-.363-.562,3.461,3.461,0,0,1-.049-6.119.751.751,0,0,0,.443-.615A3.4,3.4,0,0,1,98.749,54a3.465,3.465,0,0,1,3.36,3.38,4.614,4.614,0,0,1-.309,1.646" transform="translate(-70.572 -40.997)"/>
        <path id="Trazado_126906" data-name="Trazado 126906" d="M166.236,131.029c-.028.067-.067.156-.1.246a13.381,13.381,0,0,1-3.514,5.013c-.221.2-.4.252-.537-.036-.116-.239-.658-.368-.195-.778a12.155,12.155,0,0,0,3.276-4.683c.073-.184.128-.287.376-.21.459.144.689.252.7.449" transform="translate(-122.774 -99.124)" fill="#fefefe"/>
        <path id="Trazado_126907" data-name="Trazado 126907" d="M77.482,81.558c-.626-.033-.821-.329-.593-.891a12.979,12.979,0,0,1,1.859-3.149c.131-.167.253-.342.435-.1s.749.292.438.715a14.387,14.387,0,0,0-1.847,3.224c-.053.135-.113.253-.292.2" transform="translate(-58.309 -58.688)" fill="#fdfdfe"/>
        <path id="Trazado_126908" data-name="Trazado 126908" d="M180.223,113.41a7.516,7.516,0,0,0-.11.975c.005.452-.182.537-.6.483s-.566-.219-.485-.635a6.887,6.887,0,0,0,.1-.975c.029-.593.37-.845.915-.614.372.158.068.514.176.766" transform="translate(-135.912 -85.461)" fill="#fdfefe"/>
        <path id="Trazado_126909" data-name="Trazado 126909" d="M105.2,72.657a2.577,2.577,0,0,1,2.2.971c.443.522.628.539,1.149.093a2.266,2.266,0,0,1,3.826,1.951,2.251,2.251,0,0,1-2,1.9.73.73,0,0,0-.672.744,1.967,1.967,0,0,1-.854,1.519,1.039,1.039,0,0,0-.122,1.78,1.729,1.729,0,0,1,.535,1.637,1.682,1.682,0,0,1-1.348,1.369,1.64,1.64,0,0,1-1.755-.647,1.592,1.592,0,0,1-.149-1.858c.332-.59.226-1.291.563-1.875.1-.168-.059-.371-.206-.509a2.108,2.108,0,0,1-.693-1.371c-.042-.436-.3-.609-.719-.694a2.513,2.513,0,0,1-1.487-4.111c.479-.618.422-.856-.294-1.162a.845.845,0,0,1-.577-1.014c.1-.546-.133-.771-.663-.854a2.355,2.355,0,0,1-2.092-3.27.663.663,0,0,0-.5-.967,2.377,2.377,0,0,1-.163-4.568c.5-.183.546-.528.571-.954a2.359,2.359,0,0,1,4.5-.9,2.307,2.307,0,0,1-.325,2.561c-.6.74-.475,1.1.45,1.229a3.435,3.435,0,0,1,.77.25c.56.22.743.136.965-.439.254-.657.689-.975,1.251-.9a1.109,1.109,0,0,1,.981.792,1.093,1.093,0,0,1-.333,1.26c-.215.187-.412.36-.331.68a.572.572,0,0,0,.5.437c.313.049.472-.164.629-.413a1.06,1.06,0,0,1,1.916.766.991.991,0,0,1-1.029.849,1.08,1.08,0,0,0-1.19.574,1.047,1.047,0,0,1-1.63.174c-.47-.431-.763-.241-1.255.011a5.89,5.89,0,0,0-1.947,2.2.58.58,0,0,0,.144.942.859.859,0,0,1,.426.832c-.064,1.036-.058,1.037.962.984" transform="translate(-74.057 -44.424)" fill="#29c4bb"/>
      </g>
    </g>
  </g>
</svg>
