<svg xmlns="http://www.w3.org/2000/svg" width="90.773" height="90.773" viewBox="0 0 90.773 90.773">
  <g id="_29" data-name="29" transform="translate(6399 6571)">
    <path id="Trazado_127483" data-name="Trazado 127483" d="M45.387,0A45.387,45.387,0,1,1,0,45.387,45.387,45.387,0,0,1,45.387,0Z" transform="translate(-6399 -6571)" fill="#b0c8cb"/>
    <g id="Grupo_156595" data-name="Grupo 156595" transform="translate(-6385.246 -6555.413)">
      <path id="Trazado_127053" data-name="Trazado 127053" d="M15.375,123.6c.416.093.513-.1.509-.492-.011-.974.006-.992,1.015-.986.375,0,.492-.114.485-.485-.007-.346-.07-.507-.469-.505-1.011,0-1.037-.017-1.026-1.026,0-.457-.219-.465-.558-.469s-.514.053-.514.459c0,1.022-.021,1.041-1.019,1.037-.386,0-.478.138-.479.5s.091.5.477.494c1.018-.006,1.042.013,1.02.978-.011.448.155.579.561.5" transform="translate(44.792 -83.878)" fill="#29c4bb"/>
      <path id="Trazado_127054" data-name="Trazado 127054" d="M213.5,151.159c-.373-.071-.579.052-.518.474.051.353-.071.55-.461.489s-.522.081-.525.492c0,.431.173.53.54.481.351-.047.462.105.455.455-.011.547.328.757.857.591.251-.079.2-.279.18-.437-.044-.432.055-.7.565-.611.395.067.419-.181.418-.484s-.013-.548-.414-.486c-.432.067-.636-.091-.564-.547.068-.436-.211-.455-.533-.417" transform="translate(-211.994 -104.948)" fill="#29c4bb"/>
      <path id="Trazado_127055" data-name="Trazado 127055" d="M207.478,69.132c-.1.416.094.558.484.492.422-.071.594.1.52.521s.1.5.5.507.558-.116.488-.511c-.075-.42.1-.594.518-.515s.471-.145.487-.509c.019-.427-.147-.539-.519-.474-.4.071-.555-.1-.487-.492.066-.378-.056-.531-.477-.516-.371.013-.586.066-.506.491s-.105.586-.52.516c-.39-.066-.58.074-.483.49" transform="translate(-204.437 -61.871)" fill="#010000"/>
      <path id="Trazado_127056" data-name="Trazado 127056" d="M51.8,186.5c-.091.388.1.53.488.46.455-.082.563.155.5.538-.072.426.134.493.509.49.358,0,.55-.083.475-.469-.1-.507.155-.631.591-.556s.427-.206.428-.513-.006-.549-.411-.47c-.544.108-.683-.154-.61-.641.07-.466-.285-.332-.522-.346s-.531-.047-.458.357c.09.5-.085.732-.614.63-.442-.085-.388.223-.375.519" transform="translate(-4.069 -127.272)" fill="#010000"/>
      <path id="Trazado_127057" data-name="Trazado 127057" d="M124.759,17.292c.1-.443-.141-.529-.5-.475s-.524-.1-.467-.47-.053-.539-.479-.53c-.392.008-.571.109-.5.512s-.121.547-.507.489c-.358-.054-.538.032-.54.47s.167.569.558.507c.413-.066.553.122.489.507-.072.432.16.482.524.49.389.008.516-.138.458-.495-.062-.391.082-.57.49-.5s.569-.1.48-.5" transform="translate(-94.9 -15.817)" fill="#29c4bb"/>
    </g>
    <g id="Grupo_156633" data-name="Grupo 156633" transform="translate(-6380.015 -6552.031)">
      <g id="Grupo_156634" data-name="Grupo 156634">
        <path id="Trazado_127365" data-name="Trazado 127365" d="M19.208,91.086q0-7.447.014-14.894c0-.367-.1-.46-.459-.449-.84.026-1.681.008-2.507.008-.094-.184.033-.291.089-.4,1-2.009,2.011-4.01,3-6.024a.624.624,0,0,1,.669-.392q15.383.013,30.767,0c.293,0,.491.03.644.344,1.007,2.062,2.042,4.11,3.067,6.163.036.073.069.148.143.31-.912,0-1.76.017-2.606-.008-.356-.011-.46.081-.459.449q.021,7.447.014,14.894Z" transform="translate(-9.002 -38.25)"/>
        <path id="Trazado_127366" data-name="Trazado 127366" d="M1.771,64.913,0,64.923v-1.65a6.041,6.041,0,0,1,1.769.014l.056.069a3.334,3.334,0,0,1,0,1.487l-.056.069" transform="translate(0 -35.078)" fill="#020202"/>
        <path id="Trazado_127368" data-name="Trazado 127368" d="M51.524,14.579c-.5.122-1.012.247-1.526.377-.7.177-1.4.348-2.088.545-.262.075-.321,0-.338-.247-.081-1.182-.184-2.362-.263-3.544a1.451,1.451,0,0,0-.208-.673c-.562-.942-1.1-1.9-1.671-2.834-.195-.316-.236-.478.18-.612.438-.14.841-.393,1.28-.53a5.973,5.973,0,0,0,3.354-2.538c.305-.473.719-.876,1.058-1.329.173-.232.26-.232.441,0,.71.9,1.446,1.789,2.162,2.689a1.489,1.489,0,0,0,.6.462c.961.409,1.906.856,2.881,1.228.451.172.417.333.2.678-.566.92-1.094,1.862-1.647,2.789a1.442,1.442,0,0,0-.207.673c-.078,1.165-.181,2.328-.258,3.493-.02.29-.074.372-.393.282-1.055-.3-2.123-.548-3.186-.817-.116-.029-.232-.057-.375-.091" transform="translate(-25.13 -1.676)"/>
        <path id="Trazado_127369" data-name="Trazado 127369" d="M30.784,47.2c-.412-.508-.755-.93-1.1-1.353-.829-1.029-1.653-2.062-2.488-3.086a18.735,18.735,0,0,0-4.333-3.848c-.292-.191-.332-.323-.171-.637.73-1.414,1.436-2.841,2.135-4.272.136-.278.235-.287.481-.111a11.3,11.3,0,0,1,4.866,8.4c.164,1.6.392,3.192.606,4.908" transform="translate(-12.542 -18.741)"/>
        <path id="Trazado_127370" data-name="Trazado 127370" d="M77.6,47.069c.277-2.071.479-4.138.844-6.177a10.853,10.853,0,0,1,4.723-7.084c.174-.123.246-.1.34.087q1.126,2.279,2.273,4.546c.086.17.039.247-.1.329-3.146,1.913-5.231,4.859-7.468,7.658-.16.2-.325.4-.492.593-.019.022-.062.024-.125.048" transform="translate(-43.057 -18.717)"/>
        <path id="Trazado_127371" data-name="Trazado 127371" d="M10.756,23.78a1.969,1.969,0,0,0,.115.219c.07.1.158.183.222.284a5.022,5.022,0,0,0,2.944,2.239c.421.12.452.311.2.633a5.636,5.636,0,0,0-1.137,3.8c.01.361-.132.407-.42.3l-.048-.019a5.006,5.006,0,0,0-3.839.005c-.364.146-.466.029-.469-.35,0-.565-.081-1.13-.1-1.7s-.435-.955-.661-1.428c-.169-.353-.608-.7-.507-1.018s.641-.409,1.009-.5c1.16-.3,1.687-1.278,2.375-2.091l.323-.378" transform="translate(-3.903 -13.195)"/>
        <path id="Trazado_127372" data-name="Trazado 127372" d="M96.347,31.471a3.145,3.145,0,0,1-.034-.363,5.8,5.8,0,0,0-1.174-3.84c-.227-.29-.19-.466.182-.567A5.225,5.225,0,0,0,98.4,24.317c.211-.332.382-.324.568.006.008.015.021.027.031.041a5.2,5.2,0,0,0,3.055,2.34c.373.105.4.279.174.567a5.679,5.679,0,0,0-1.16,3.84c.01.278-.056.444-.367.316a5.316,5.316,0,0,0-4.088.011,1.122,1.122,0,0,1-.27.032" transform="translate(-52.714 -13.357)"/>
        <path id="Trazado_127373" data-name="Trazado 127373" d="M44.586,42.668c0,.824-.013,1.649.007,2.473.007.3-.09.366-.377.37-1.342.02-1.34.03-1.342-1.317a27.08,27.08,0,0,0-.394-5.944,17.458,17.458,0,0,0-3.366-7.139c-.227-.285-.308-.476.064-.7.343-.209.624-.727.955-.674.287.046.51.554.741.872a18.943,18.943,0,0,1,3.519,8.775,24.242,24.242,0,0,1,.194,3.288" transform="translate(-21.596 -16.497)"/>
        <path id="Trazado_127374" data-name="Trazado 127374" d="M66.938,42.346a19.255,19.255,0,0,1,3.3-11.21c.315-.47.675-.908,1.006-1.368.114-.159.215-.2.35-.036a.316.316,0,0,0,.039.033c.34.289.875.528.964.88s-.442.7-.691,1.056A17.629,17.629,0,0,0,68.8,39.663a42.628,42.628,0,0,0-.138,5.3c0,.367-.068.5-.474.5-1.246-.02-1.246,0-1.246-1.249Z" transform="translate(-37.142 -16.441)"/>
        <path id="Trazado_127375" data-name="Trazado 127375" d="M59.074,45.779c0,1.7-.008,3.4.007,5.094,0,.334-.047.476-.434.473-1.257-.012-1.257.005-1.257-1.238,0-3.122.009-6.244-.01-9.366,0-.417.121-.509.515-.5,1.179.021,1.18,0,1.18,1.164v4.374" transform="translate(-31.84 -22.329)"/>
        <path id="Trazado_127377" data-name="Trazado 127377" d="M114.425,55.616a9.307,9.307,0,0,1,1.535-.054c.177-.01.252.066.236.24a.873.873,0,0,0,0,.1c.056,1.368.056,1.368-1.308,1.366-.154,0-.308-.007-.462-.01l-.058-.075a2.583,2.583,0,0,1,.058-1.569" transform="translate(-63.41 -30.828)" fill="#020202"/>
        <path id="Trazado_127378" data-name="Trazado 127378" d="M108.8,57.151c-.446,0-.893-.007-1.338.014-.273.013-.384-.046-.39-.357-.028-1.337-.04-1.334,1.305-1.36.126,0,.278.069.375-.083l-.007-.008.082.153a2.683,2.683,0,0,1,.036,1.57l-.064.071" transform="translate(-59.407 -30.717)" fill="#030303"/>
        <path id="Trazado_127379" data-name="Trazado 127379" d="M106.9,1.705a6.325,6.325,0,0,1-1.812,0A5.662,5.662,0,0,0,105.122.43c0-.268.039-.414.355-.385.439.041,1-.174,1.29.082.273.242.051.807.086,1.229.01.117.031.233.046.349" transform="translate(-58.311 0)"/>
        <path id="Trazado_127380" data-name="Trazado 127380" d="M105.109,7.851a.05.05,0,0,0-.005-.08l-.015.016,1.792-.047c-.009.459-.035.919-.022,1.378.008.273-.091.339-.353.35-1.365.057-1.365.064-1.377-1.313,0-.1-.013-.2-.02-.3" transform="translate(-58.313 -4.295)"/>
        <path id="Trazado_127381" data-name="Trazado 127381" d="M58.29,34.326c-.887,0-.887,0-.887-.874,0-.844,0-.844.875-.844.81,0,.81,0,.81.807v.1c0,.808,0,.808-.8.808" transform="translate(-31.853 -18.094)" fill="#020202"/>
        <path id="Trazado_127383" data-name="Trazado 127383" d="M81.215,23.055c.823,0,.823,0,.823.824,0,.893,0,.893-.92.893-.768,0-.768,0-.768-.783v-.051c0-.883,0-.883.864-.883" transform="translate(-44.586 -12.793)" fill="#020202"/>
        <path id="Trazado_127384" data-name="Trazado 127384" d="M35.29,23.055c.847,0,.847,0,.847.849,0,.869,0,.869-.887.869-.8,0-.8,0-.8-.808v-.051c0-.858,0-.858.84-.858" transform="translate(-19.116 -12.793)" fill="#020202"/>
        <path id="Trazado_127385" data-name="Trazado 127385" d="M86.973,17.122c-.88,0-.88,0-.88-.884,0-.831,0-.831.815-.831.874,0,.874,0,.874.871v.051c0,.793,0,.793-.809.793" transform="translate(-47.772 -8.549)" fill="#020202"/>
        <path id="Trazado_127386" data-name="Trazado 127386" d="M3.888,61.154a8.231,8.231,0,0,1-.063-1.531c-.012-.175.056-.254.233-.236a.714.714,0,0,0,.1,0c1.366-.055,1.366-.055,1.363,1.309,0,.154-.008.308-.012.462l-.076.059a2.332,2.332,0,0,1-1.569-.082Z" transform="translate(-2.119 -32.944)" fill="#020202"/>
        <path id="Trazado_127387" data-name="Trazado 127387" d="M112.571,59.166a7.105,7.105,0,0,1,.06,1.516.172.172,0,0,1-.179.2c-.034,0-.068,0-.1,0-1.414.143-1.415.143-1.413-1.257,0-.153,0-.306.007-.459l-.012.016a1.879,1.879,0,0,1,1.661,0Z" transform="translate(-61.555 -32.733)" fill="#020202"/>
        <path id="Trazado_127388" data-name="Trazado 127388" d="M7.418,63.3a7.076,7.076,0,0,1,1.519-.06c.152-.008.21.086.2.228a.386.386,0,0,0,0,.051c.146,1.416.146,1.416-1.261,1.414-.154,0-.307-.006-.46-.009l-.063-.073a2.27,2.27,0,0,1,.077-1.573Z" transform="translate(-4.026 -35.082)" fill="#020202"/>
        <path id="Trazado_127389" data-name="Trazado 127389" d="M5.447,66.811c0,.478,0,.955.013,1.432.007.222-.07.318-.292.289-.016,0-.034,0-.051,0-.437-.032-1.1.195-1.263-.089a2.462,2.462,0,0,1-.031-1.635l-.022.017a1.877,1.877,0,0,1,1.661,0Z" transform="translate(-2.052 -36.974)" fill="#020202"/>
        <path id="Trazado_127390" data-name="Trazado 127390" d="M28.7,16.251c0-.843,0-.843.851-.843s.837,0,.837.86,0,.856-.856.856c-.832,0-.832,0-.832-.873" transform="translate(-15.928 -8.55)" fill="#020202"/>
        <path id="Trazado_127393" data-name="Trazado 127393" d="M110.844,53.361a6.606,6.606,0,0,0,.035-1.323c0-.219.057-.323.286-.287a.562.562,0,0,0,.1,0c1.428-.024,1.428-.025,1.315,1.406-.01.133.024.3-.188.286a4.853,4.853,0,0,1-1.557-.091l.006.008" transform="translate(-61.503 -28.712)"/>
        <path id="Trazado_127394" data-name="Trazado 127394" d="M112.593,57.353h-1.661q.019-.829.04-1.657l1.6,0a5.531,5.531,0,0,1,.022,1.662" transform="translate(-61.555 -30.903)" fill="#020202"/>
        <path id="Trazado_127395" data-name="Trazado 127395" d="M109.057,5.633c0-.443,0-.886-.019-1.328-.014-.274.055-.376.357-.382,1.335-.027,1.335-.038,1.33,1.294,0,.136-.011.272-.017.408l-1.652.008" transform="translate(-60.503 -2.173)"/>
        <path id="Trazado_127396" data-name="Trazado 127396" d="M40.411,79.466v1.776c0,1.683.006,3.366-.006,5.049,0,.3.056.414.391.418,1.3.015,1.3.029,1.3-1.257V79.478l.091-.046a10.744,10.744,0,0,1,.688,1.368c.22.64.6.8,1.258.794,3.675-.037,7.351-.009,11.027-.029.456,0,.57.115.568.569q-.027,6.261,0,12.52c0,.408-.073.558-.524.556q-6.286-.027-12.572,0c-.426,0-.551-.107-.544-.54.026-1.631,0-3.264.019-4.895,0-.383-.067-.534-.5-.525-1.194.024-1.195,0-1.195,1.209,0,1.425-.01,2.851.007,4.277,0,.347-.079.474-.452.472q-6.363-.018-12.727,0c-.366,0-.458-.109-.457-.465q.017-6.337,0-12.675c0-.433.149-.5.531-.5,3.813.012,7.626,0,11.439.016a.645.645,0,0,0,.7-.43c.258-.585.569-1.146.858-1.717l.1.028" transform="translate(-14.86 -44.076)" fill="#d29f6c"/>
        <path id="Trazado_127397" data-name="Trazado 127397" d="M77.634,76.211H77.05c-4.1,0-8.209-.007-12.313.011a.716.716,0,0,1-.772-.488c-.392-.856-.829-1.692-1.26-2.531-.137-.268-.195-.405.221-.4,4.225.012,8.449.007,12.674.01.144,0,.308-.052.4.138.53,1.069,1.067,2.135,1.632,3.264" transform="translate(-34.739 -40.396)" fill="#deb18a"/>
        <path id="Trazado_127398" data-name="Trazado 127398" d="M22.284,76.143l1.606-3.207c.117-.232.332-.135.5-.135q5.307-.009,10.613,0h2.248c.106.156-.009.251-.057.349-.446.908-.9,1.809-1.348,2.717a.489.489,0,0,1-.494.346q-6.466-.017-12.932-.011a.608.608,0,0,1-.141-.054" transform="translate(-12.365 -40.385)" fill="#deb18a"/>
        <path id="Trazado_127399" data-name="Trazado 127399" d="M5.527,64.936H3.866a7.186,7.186,0,0,1,0-1.662,7.186,7.186,0,0,1,1.662,0v1.661" transform="translate(-2.118 -35.084)" fill="#020202"/>
        <path id="Trazado_127401" data-name="Trazado 127401" d="M58.363,12.082a1.512,1.512,0,0,1-.114.206,6.228,6.228,0,0,0-1.3,4.115c.016.373-.138.453-.457.3-.016-.007-.033-.008-.049-.015a5.092,5.092,0,0,0-3.845.017c-.324.126-.476.069-.459-.306a6.208,6.208,0,0,0-1.3-4.114c-.159-.211-.154-.369.133-.446.033-.009.065-.024.1-.034a5.432,5.432,0,0,0,3.187-2.418c.2-.325.386-.328.584,0a5.536,5.536,0,0,0,3.234,2.441c.3.095.292.129.3.251" transform="translate(-28.149 -5.075)" fill="#1169e3"/>
        <path id="Trazado_127402" data-name="Trazado 127402" d="M28.285,39.59c1.129.8,2.684,3.516,2.616,4.777-.154.042-.209-.089-.283-.172a18.254,18.254,0,0,0-2.883-2.621c-.254-.186-.307-.333-.143-.615.256-.441.464-.91.693-1.369" transform="translate(-15.258 -21.968)" fill="#fee734"/>
        <path id="Trazado_127403" data-name="Trazado 127403" d="M85.921,39.505c.269.532.5,1.007.748,1.476.1.184.137.31-.076.466A18.634,18.634,0,0,0,83.559,44.2a.266.266,0,0,1-.332.113,9.283,9.283,0,0,1,2.694-4.812" transform="translate(-46.182 -21.921)" fill="#fee734"/>
        <path id="Trazado_127404" data-name="Trazado 127404" d="M14.289,32.649c-.075-.015-.141-.008-.173-.037-.376-.347-.987.375-1.19-.159a4.817,4.817,0,0,0-.433-1.222c-.143-.2.008-.272.154-.32a1.556,1.556,0,0,0,.884-.656c.136-.216.255-.171.373.017a1.449,1.449,0,0,0,.843.624c.214.064.32.163.15.391a1.67,1.67,0,0,0-.366,1.145c.015.2-.061.29-.243.217" transform="translate(-6.9 -16.709)" fill="#fee734"/>
        <path id="Trazado_127405" data-name="Trazado 127405" d="M102.128,32.6a1.38,1.38,0,0,0-.974.044c-.2.069-.286,0-.268-.211a1.641,1.641,0,0,0-.364-1.144c-.169-.225-.069-.326.147-.391a1.447,1.447,0,0,0,.844-.624c.117-.186.236-.237.373-.019a1.527,1.527,0,0,0,.884.654c.2.061.276.165.13.365a1.64,1.64,0,0,0-.369,1.142c.019.2-.074.288-.4.184" transform="translate(-55.731 -16.709)" fill="#fee734"/>
        <path id="Trazado_127406" data-name="Trazado 127406" d="M103.044,5.6c-.443-.007-.886-.033-1.328-.015-.278.012-.371-.087-.33-.347a.327.327,0,0,0,0-.051c-.025-1.433-.025-1.428,1.42-1.31.191.016.279.055.266.261a12.05,12.05,0,0,1-.043,1.478l.014-.016" transform="translate(-56.253 -2.126)"/>
        <path id="Trazado_127407" data-name="Trazado 127407" d="M33.172,99.542c.7,0,1.407.016,2.109-.007.343-.011.43.108.432.443.007,1.281.019,1.281-1.272,1.281-1.149,0-2.3-.013-3.446.008-.345.007-.424-.1-.425-.434,0-1.292-.014-1.292,1.264-1.292h1.338" transform="translate(-16.963 -55.231)" fill="#010100"/>
        <path id="Trazado_127408" data-name="Trazado 127408" d="M33.145,108.913c-.72,0-1.44-.011-2.159.005-.288.006-.419-.038-.423-.382-.017-1.339-.032-1.339,1.325-1.339,1.131,0,2.262.007,3.393,0,.293,0,.42.06.427.394.028,1.326.041,1.326-1.277,1.326H33.145" transform="translate(-16.957 -59.48)" fill="#010100"/>
        <path id="Trazado_127409" data-name="Trazado 127409" d="M46.711,108.918c-.826,0-.826,0-.826-.835,0-.881,0-.881.9-.881.828,0,.828,0,.828.849,0,.868,0,.868-.9.868" transform="translate(-25.461 -59.485)" fill="#030201"/>
      </g>
    </g>
  </g>
</svg>
