<svg xmlns="http://www.w3.org/2000/svg" width="70" height="85" viewBox="0 0 70 85">
  <g id="_3" data-name="3" transform="translate(-536 -1744)">
    <g id="Grupo_156311" data-name="Grupo 156311" transform="translate(-4 37)">
      <rect id="Rectángulo_36766" data-name="Rectángulo 36766" width="70" height="85" rx="12" transform="translate(540 1707)" fill="#1169e3"/>
    </g>
    <g id="Grupo_156568" data-name="Grupo 156568" transform="translate(543 1759)">
      <g id="Grupo_156569" data-name="Grupo 156569">
        <path id="Trazado_126910" data-name="Trazado 126910" d="M82.764,12.44c.395-.075.614.055.549.5-.055.374.075.583.489.518s.554.086.557.521c0,.457-.183.562-.573.51-.372-.05-.49.112-.483.482.012.58-.347.8-.908.627-.266-.083-.208-.3-.191-.464.047-.458-.058-.739-.6-.647-.419.071-.444-.191-.443-.513s.014-.581.438-.515c.458.071.674-.1.6-.58-.073-.462.224-.482.565-.441" transform="translate(-62.175 -9.515)"/>
        <path id="Trazado_126911" data-name="Trazado 126911" d="M219.54,132.772c.395-.075.614.055.549.5-.055.374.075.583.489.518s.553.086.557.521c0,.457-.183.562-.573.51-.372-.05-.49.112-.483.482.012.58-.347.8-.908.627-.266-.083-.208-.3-.191-.464.047-.458-.058-.739-.6-.647-.419.071-.444-.191-.443-.513s.014-.581.438-.515c.458.071.674-.1.6-.58-.073-.462.224-.482.565-.441" transform="translate(-166.953 -101.696)"/>
        <path id="Trazado_126912" data-name="Trazado 126912" d="M8.433,189.459c.395-.075.614.055.549.5-.055.374.075.583.489.518s.554.086.557.521c0,.457-.183.562-.573.51-.372-.05-.49.112-.483.482.012.58-.347.8-.908.627-.266-.083-.208-.3-.191-.464.047-.458-.058-.739-.6-.647-.419.071-.444-.191-.443-.513s.014-.581.438-.515c.458.071.674-.1.6-.58-.073-.462.224-.482.565-.441" transform="translate(-5.233 -145.122)"/>
        <path id="Trazado_126913" data-name="Trazado 126913" d="M2.041,77.938c.5-.1.781.07.7.64-.069.477.1.742.623.66s.705.109.709.664c0,.582-.234.716-.729.649-.473-.064-.624.142-.615.613.015.738-.442,1.022-1.156.8-.339-.106-.265-.377-.243-.59.059-.583-.074-.941-.763-.824C.032,80.639,0,80.3,0,79.9s.017-.74.558-.656c.583.09.859-.123.762-.739-.092-.588.285-.614.72-.562" transform="translate(-0.001 -59.686)" fill="#29c4bb"/>
        <path id="Trazado_126914" data-name="Trazado 126914" d="M187.9,10.552c.5-.1.781.07.7.64-.069.477.1.742.623.66s.705.109.709.664c0,.582-.234.716-.729.649-.473-.064-.624.142-.615.613.015.738-.442,1.022-1.156.8-.339-.106-.265-.377-.243-.59.059-.583-.074-.941-.763-.824-.533.091-.566-.244-.564-.653s.017-.74.558-.656c.583.09.859-.123.762-.739-.092-.588.285-.614.72-.562" transform="translate(-142.379 -8.064)" fill="#29c4bb"/>
        <path id="Trazado_126915" data-name="Trazado 126915" d="M47.929,85.924c-.2.007-.4.019-.606.019q-15.508,0-31.015.014c-.511,0-.615-.138-.614-.626.018-5.5,0-11,.023-16.5,0-.462-.111-.573-.567-.563-1.489.033-2.979.012-4.471.012-.063-.181.08-.275.152-.39q2.52-4.044,5.038-8.089a.647.647,0,0,1,.651-.363c.7.025,1.4-.021,2.1.018.474.026.654-.073.637-.6-.045-1.378,0-2.76-.026-4.139-.009-.436.065-.594.55-.58,1.4.039,2.8.044,4.193,0,.519-.017.586.159.577.61-.028,1.435,0,2.87-.017,4.305,0,.292.048.406.38.41,1.393.018,1.393.031,1.393-1.378,0-1.73.012-3.459-.009-5.189,0-.386.053-.534.494-.523q2.151.051,4.3,0c.463-.011.523.153.519.553-.018,2.024,0,4.048-.015,6.072,0,.335.049.47.436.467,1.337-.01,1.338.008,1.338-1.324,0-2.318.012-4.637-.011-6.955,0-.435.065-.594.55-.58,1.4.039,2.8.044,4.193,0,.519-.017.58.16.577.61-.021,2.557,0,5.115-.021,7.672,0,.433.062.6.549.581,1.227-.04,1.228-.012,1.228-1.216,0-4.121.011-8.243-.015-12.364,0-.511.149-.59.607-.58,1.4.03,2.8.033,4.194,0,.457-.011.524.144.522.55-.014,4.361,0,8.721-.02,13.082,0,.45.135.533.546.525,1.324-.025,2.649,0,3.973-.014a.572.572,0,0,1,.583.284q2.625,4.237,5.277,8.46c-.1.177-.267.089-.4.09-1.416.007-2.833.015-4.249,0-.324,0-.449.054-.433.414.035.79.018,1.581.023,2.372-.045.3-.32.369-.524.5-.305.194-.6.4-.905.6-.165.1-.353.252-.469-.065-.117-.954-.031-1.91-.053-2.865-.017-.73-.042-.769-.792-.769-3.659,0-7.318-.02-10.976.013a1.472,1.472,0,0,1-1.578-.977c-.391-.91-.881-1.777-1.325-2.692q0,9.146,0,18.24c0,.968,0,.969.981.969H45.668a7,7,0,0,1,.881.024.449.449,0,0,1,.3.121,5.8,5.8,0,0,1,1.086,1.774" transform="translate(-8.17 -34.697)"/>
        <path id="Trazado_126916" data-name="Trazado 126916" d="M162.274,166.953l-1.181-1.761a2.433,2.433,0,0,1-.628-1.2,9.738,9.738,0,0,1,1.571-9.277,8.354,8.354,0,0,1,1.032-1.146.8.8,0,0,1,.567-.3l1.759-1.183a11.065,11.065,0,0,1,4.582-1.015,9.713,9.713,0,0,1,2.106,19.152,9.537,9.537,0,0,1-9.808-3.267" transform="translate(-122.515 -115.726)" fill="#29c4bb"/>
        <path id="Trazado_126917" data-name="Trazado 126917" d="M56.995,3.061a4.629,4.629,0,0,1-.364.467Q50.022,10.147,43.417,16.77c-.36.363-.52.306-.838-.02-1.491-1.526-3.018-3.017-4.51-4.542-.288-.295-.431-.3-.724,0-3.057,3.082-6.138,6.141-9.191,9.227-.345.349-.511.348-.84,0-.812-.865-.831-.847.01-1.688q5.014-5.015,10.021-10.036c.282-.284.42-.316.719-.01,1.529,1.566,3.091,3.1,4.63,4.657.219.221.338.293.6.028q6.189-6.219,12.4-12.416a2.283,2.283,0,0,0,.143-.19h-2.4c-.993,0-1.987-.012-2.979.007-.312.006-.392-.083-.4-.394-.016-1.38-.027-1.38,1.334-1.38C53.749.009,56.1.017,58.458,0c.357,0,.455.086.453.449q-.025,3.974,0,7.947c0,.353-.079.459-.447.456-1.328-.009-1.328.007-1.328-1.332V3.165l-.14-.1" transform="translate(-20.452 -0.001)"/>
        <path id="Trazado_126918" data-name="Trazado 126918" d="M183.651,45.343c1.691,0,3.383,0,5.074,0a2.65,2.65,0,0,1,2.842,2.813q.008,3.365,0,6.73A2.628,2.628,0,0,1,188.9,57.7a.5.5,0,0,0-.487.339c-.335.693-.678,1.384-1.035,2.066a1.971,1.971,0,0,1-3.758-.9c0-.018,0-.037,0-.055-.035-.47.209-1.115-.1-1.363-.292-.236-.911-.074-1.386-.076-1.232,0-2.464,0-3.7,0a2.646,2.646,0,0,1-2.768-2.776q-.01-3.42,0-6.84a2.637,2.637,0,0,1,2.739-2.748c1.747-.008,3.493,0,5.24,0" transform="translate(-134.571 -34.734)"/>
        <path id="Trazado_126919" data-name="Trazado 126919" d="M126.513,134.307a9.712,9.712,0,0,0-3.545,8.009,10.8,10.8,0,0,0,1,3.917q-6.07.007-12.141.018c-.235,0-.36-.017-.36-.315.009-6.529.007-13.057.091-19.617a22.684,22.684,0,0,1,1.29,2.618,1.975,1.975,0,0,0,2.313,1.443c2.921-.106,5.849-.042,8.774-.03a18,18,0,0,1,2.519.049q.017,1.264.034,2.528.009.69.021,1.379" transform="translate(-85.392 -96.768)" fill="#b0c8cb"/>
        <path id="Trazado_126920" data-name="Trazado 126920" d="M54.745,126.369v.472q0,9.438.012,18.876c0,.463-.113.564-.567.562q-6.98-.028-13.961,0c-.408,0-.512-.089-.51-.506q.025-7.451,0-14.9c0-.4.074-.518.5-.516,3.973.019,7.946.005,11.919.021a.694.694,0,0,0,.741-.466c.569-1.2,1.179-2.378,1.774-3.564l.091.024" transform="translate(-30.427 -96.788)" fill="#b0c8cb"/>
        <path id="Trazado_126921" data-name="Trazado 126921" d="M42.285,113.3c-.867,1.732-1.7,3.383-2.517,5.04a.4.4,0,0,1-.419.265q-7.557-.013-15.115-.015c-.011,0-.022-.022-.069-.074l1.875-3c.4-.638.807-1.27,1.193-1.916a.526.526,0,0,1,.516-.3c4.817.009,9.635.006,14.536.006" transform="translate(-18.513 -86.791)" fill="#b0c8cb"/>
        <path id="Trazado_126922" data-name="Trazado 126922" d="M131.917,118.6h-.479q-7.226,0-14.452.009a.7.7,0,0,1-.743-.464c-.771-1.6-1.579-3.18-2.414-4.846h.528q6.922,0,13.845-.007a.744.744,0,0,1,.749.391c.913,1.507,1.856,3,2.784,4.493.073.117.2.215.182.424" transform="translate(-87.2 -86.787)" fill="#b0c8cb"/>
        <path id="Trazado_126923" data-name="Trazado 126923" d="M145.448,59c0-1.9.01-3.791-.009-5.686,0-.36.091-.454.451-.452,1.324.008,1.324-.006,1.324,1.336,0,3.515-.008,7.029.011,10.544,0,.412-.094.517-.508.509-1.268-.026-1.269-.006-1.269-1.283Z" transform="translate(-111.415 -40.496)" fill="#29c4bb"/>
        <path id="Trazado_126924" data-name="Trazado 126924" d="M115.249,79.057c0-1.049.012-2.1-.007-3.146-.006-.311.082-.393.394-.4,1.38-.016,1.38-.027,1.38,1.334,0,1.766-.011,3.533.009,5.3,0,.359-.09.455-.45.452-1.325-.008-1.325.006-1.325-1.335V79.057" transform="translate(-88.282 -57.846)" fill="#29c4bb"/>
        <path id="Trazado_126925" data-name="Trazado 126925" d="M85.049,85.628c0-.754.011-1.509-.006-2.263-.006-.265.074-.33.337-.34,1.435-.054,1.435-.063,1.435,1.389,0,1.177-.011,2.355.007,3.532,0,.312-.083.392-.394.4-1.38.016-1.38.027-1.38-1.334v-1.38" transform="translate(-65.148 -63.589)" fill="#29c4bb"/>
        <path id="Trazado_126926" data-name="Trazado 126926" d="M54.846,92.355c0-.46.014-.92-.005-1.379-.011-.273.051-.371.355-.378,1.417-.033,1.416-.044,1.416,1.353,0,.607-.012,1.215.005,1.821.008.273-.051.371-.356.378-1.417.033-1.416.044-1.416-1.354v-.442" transform="translate(-42.01 -69.397)" fill="#29c4bb"/>
        <path id="Trazado_126927" data-name="Trazado 126927" d="M186.95,175.419c-.034-1.35-.034-1.334,1.3-1.339.376,0,.492.121.437.466-.052.323.051.452.409.437.716-.031,1.434,0,2.151-.012a.884.884,0,1,0,.018-1.76c-.551-.013-1.1,0-1.655,0a2.675,2.675,0,0,1-2.682-2.418,2.6,2.6,0,0,1,2.17-2.819c.467-.078.483-.27.478-.633-.014-1.2,0-1.17,1.179-1.21.494-.017.609.122.594.6-.037,1.178-.011,1.169,1.191,1.184.47.006,1.1-.21,1.367.1.231.262.076.873.078,1.329,0,1.221,0,1.208-1.217,1.226-.394.006-.639-.047-.549-.519.052-.273-.047-.389-.352-.38-.735.022-1.471,0-2.206.01a.883.883,0,1,0-.02,1.76c.551.014,1.1,0,1.655.005a2.669,2.669,0,0,1,2.683,2.416,2.606,2.606,0,0,1-2.17,2.819c-.467.079-.482.272-.478.634.015,1.2,0,1.169-1.179,1.21-.495.017-.609-.123-.594-.6.036-1.178.011-1.179-1.191-1.179-.037,0-.074,0-.11,0-.433-.037-1.011.195-1.26-.1-.207-.244-.042-.8-.042-1.223" transform="translate(-143.167 -127.262)"/>
        <path id="Trazado_126928" data-name="Trazado 126928" d="M189.411,52.9q2.537,0,5.075,0c.794,0,1.107.308,1.108,1.094q.005,3.311,0,6.621c0,.8-.319,1.2-1.082,1.1a1.485,1.485,0,0,0-1.813,1.162,18.471,18.471,0,0,1-1,2.021c-.077.151-.118.4-.365.332s-.156-.3-.157-.475c0-.827-.024-1.656.007-2.482.016-.413-.076-.552-.525-.546-2.078.028-4.156.013-6.233.012-.909,0-1.2-.282-1.2-1.17q0-3.255,0-6.511c0-.86.3-1.152,1.16-1.153q2.51,0,5.02,0" transform="translate(-140.364 -40.524)" fill="#fefefe"/>
        <path id="Trazado_126929" data-name="Trazado 126929" d="M56.184,188.253v1.774c-.324.254-.707.153-1.065.156-.375,0-.523.151-.526.526,0,.358.1.741-.156,1.065H52.664c-.243-.3-.155-.663-.153-1,0-.4-.12-.594-.563-.6-.856,0-.869-.009-.886.869a1,1,0,0,1-.158.727H49.131c-.254-.324-.153-.707-.156-1.065,0-.375-.151-.523-.526-.526-.358,0-.74.1-1.065-.156v-1.774a.963.963,0,0,1,.731-.173q3.669-.007,7.339,0a.962.962,0,0,1,.731.173" transform="translate(-36.299 -144.077)" fill="#efbb5e"/>
        <path id="Trazado_126930" data-name="Trazado 126930" d="M55.95,182.8h-8.8c0-.567-.2-1.29.07-1.657.259-.347,1.028-.1,1.572-.1,2.244-.012,4.487,0,6.731-.014.356,0,.482.083.452.449-.037.439-.018.882-.023,1.323" transform="translate(-36.065 -138.626)"/>
        <path id="Trazado_126931" data-name="Trazado 126931" d="M47.127,196.169c.573.032,1.341-.251,1.665.115.282.32.074,1.072.082,1.633-.58,0-1.355.262-1.68-.1-.283-.315-.064-1.081-.066-1.648" transform="translate(-36.042 -150.22)"/>
        <path id="Trazado_126932" data-name="Trazado 126932" d="M62.421,198.121c0-.146,0-.291,0-.437,0-1.332,0-1.319,1.32-1.322.351,0,.481.083.453.448-.033.435-.01.874-.011,1.311H62.421" transform="translate(-47.816 -150.425)"/>
        <path id="Trazado_126933" data-name="Trazado 126933" d="M77.289,197.945c.032-.574-.251-1.342.114-1.665.32-.282,1.072-.074,1.633-.083,0,.58.262,1.356-.1,1.681-.315.283-1.081.064-1.647.066" transform="translate(-59.15 -150.249)"/>
        <path id="Trazado_126934" data-name="Trazado 126934" d="M190.852,69.188V67.414a.96.96,0,0,1,.731-.173q3.669-.008,7.339,0a.962.962,0,0,1,.731.173v1.774c-.324.255-.706.153-1.064.156-.375,0-.523.151-.527.526,0,.358.1.74-.156,1.065h-1.773c-.243-.3-.155-.663-.153-1,0-.4-.12-.594-.563-.6-.856,0-.869-.009-.886.869a1,1,0,0,1-.157.727H192.6c-.255-.324-.153-.707-.156-1.065,0-.375-.151-.523-.526-.526-.358,0-.74.1-1.064-.156" transform="translate(-146.204 -51.508)" fill="#efbb5e"/>
        <path id="Trazado_126935" data-name="Trazado 126935" d="M199.417,61.963h-8.8c0-.567-.2-1.29.07-1.656.259-.347,1.028-.1,1.572-.1,2.243-.012,4.487,0,6.731-.014.356,0,.482.083.452.449-.037.439-.018.882-.023,1.322" transform="translate(-145.969 -46.057)"/>
        <path id="Trazado_126936" data-name="Trazado 126936" d="M190.595,75.33c.573.032,1.341-.251,1.664.115.282.32.074,1.072.082,1.633-.58,0-1.355.262-1.68-.1-.283-.315-.064-1.081-.066-1.648" transform="translate(-145.946 -57.65)"/>
        <path id="Trazado_126937" data-name="Trazado 126937" d="M205.888,77.283c0-.146,0-.291,0-.437,0-1.332,0-1.319,1.32-1.322.351,0,.481.083.453.448-.033.435-.01.874-.011,1.311h-1.759" transform="translate(-157.72 -57.856)"/>
        <path id="Trazado_126938" data-name="Trazado 126938" d="M220.756,77.107c.032-.574-.251-1.342.114-1.665.32-.282,1.072-.074,1.633-.083,0,.58.262,1.356-.1,1.681-.315.283-1.081.064-1.647.066" transform="translate(-169.055 -57.68)"/>
      </g>
    </g>
  </g>
</svg>
