<svg xmlns="http://www.w3.org/2000/svg" width="90.773" height="90.773" viewBox="0 0 90.773 90.773">
  <g id="_30" data-name="30" transform="translate(6399 6571)">
    <circle id="Elipse_4762" data-name="Elipse 4762" cx="45.387" cy="45.387" r="45.387" transform="translate(-6399 -6571)" fill="#b0c8cb"/>
    <g id="Grupo_156637" data-name="Grupo 156637" transform="translate(-6379.832 -6549.987)">
      <g id="Grupo_156638" data-name="Grupo 156638" transform="translate(0 0)">
        <path id="Trazado_127410" data-name="Trazado 127410" d="M.3,44.774a8.791,8.791,0,0,0,.743,2.332,2.888,2.888,0,0,0,2.731,1.658q4.276.016,8.55,0a2.658,2.658,0,0,0,2.234-1.043.712.712,0,0,1,.968-.264,4.359,4.359,0,0,0,1.754.29q7.449-.014,14.9,0a5.15,5.15,0,0,0,1.866-.243.519.519,0,0,1,.725.268,1.888,1.888,0,0,0,1.826.995c4.113,0,8.226.013,12.339-.007,1.412-.007,2.023-.656,2.023-2.053,0-3.7-.036-7.407.017-11.11a5.747,5.747,0,0,0-1.711-4.136c-1.08-1.164-2.288-2.2-3.477-3.247a1.433,1.433,0,0,1-.512-1.46c.061-.3.087-.609.156-.908a2.192,2.192,0,0,0-.308-1.717,1.983,1.983,0,0,1-.221-1.939.93.93,0,0,0-.721-1.329c-.635-.1-.711-.517-.824-.991-.106-.443-.151-.832.323-1.111a1.113,1.113,0,0,0,.408-.745c.064-.229.115-.515.394-.543h.006c.007-.007.01-.015.018-.022l.013.023c.228,0,.3.259.406.437a10.585,10.585,0,0,0,2.614,3.118,2.1,2.1,0,0,0,.381.257.7.7,0,0,0,.929-.934,3.978,3.978,0,0,0-.517-.7,6.616,6.616,0,0,1-1.511-3.036,3.369,3.369,0,0,1-.059-.559c-.008-.611.081-.742.649-.94a8.244,8.244,0,0,1,2.459-.446c.514-.016,1.021-.075,1.527-.139.7-.088.88-.3.893-1,0-.068,0-.136,0-.2,0-1.2-.156-1.384-1.37-1.445-.783-.039-1.569-.01-2.354-.011-1.86,0-3.721-.031-5.58.008A7.557,7.557,0,0,0,37.407,14.5c-.139.151-.266.312-.4.465-.368.419-.515.411-.9-.008a23.151,23.151,0,0,0-2.7-2.571,19.618,19.618,0,0,0-4.671-2.518c-.535-.225-1.064-.461-1.574-.737a.865.865,0,0,1-.388-1.27,3.609,3.609,0,0,0,.074-2.641,1.064,1.064,0,0,0-.733-.669.619.619,0,0,1-.443-.664c0-.546.009-1.092,0-1.638A1.758,1.758,0,0,0,23.677.306Q21.859.3,20.041.307c-1.288.007-1.868.6-1.873,1.887q0,.794,0,1.587a.713.713,0,0,1-.48.758,1.428,1.428,0,0,0-.951,1.436c-.005.375-.008.751,0,1.126a1.345,1.345,0,0,0,.441,1.055.809.809,0,0,1,.21.967,12.516,12.516,0,0,1-2.635,4.7A14.622,14.622,0,0,0,12.8,16.434a.508.508,0,0,1-.8.222,3.909,3.909,0,0,0-.447-.25,1.347,1.347,0,0,1-.961-1.492,1.353,1.353,0,0,0-.542-1.166.944.944,0,0,1-.354-.81,2.868,2.868,0,0,0-.648-1.746,1.21,1.21,0,0,0-2.086.094,2.957,2.957,0,0,0-.575,1.72.744.744,0,0,1-.329.661,1.42,1.42,0,0,0-.574,1.35,1.159,1.159,0,0,1-.735,1.251,17.43,17.43,0,0,0-2.6,1.622,3.159,3.159,0,0,0-1.013,1.264A1.478,1.478,0,0,0,1.5,20.93.514.514,0,0,0,1.573,21c1.362.82,1.473,2.067,1.16,3.446-.32,1.416-.828,2.779-1.2,4.18a39.677,39.677,0,0,0-1.082,6.4c-.084.848-.1,1.7-.21,2.547-.02.155.017.363-.236.382v.512c.165.063.084.2.085.3,0,.068,0,.137,0,.206,0,.136,0,.272,0,.408s.071.3-.087.414v.512c.208.251.055.547.1.818-.043.273.1.568-.1.821v1.639c.114.068.138.136,0,.2v.41c.326.069.261.367.3.574M51.043,12.847c.3.016.318.183.3.415.073.308-.135.39-.373.376-.311-.018-.144-.279-.16-.428s-.1-.383.237-.364M14.988,30a4.45,4.45,0,0,1,.176-1.918,15.408,15.408,0,0,1,2.875-6.537,7.046,7.046,0,0,1,2.444-2.064,4.371,4.371,0,0,1,4.964.648,11.547,11.547,0,0,1,3.441,5.115,23.32,23.32,0,0,1,1.356,6.992,25.1,25.1,0,0,1-.853,8.091,2.747,2.747,0,0,1-3.075,2.322h-3.89q-2.048,0-4.1,0a2.474,2.474,0,0,1-.759-.08c-1.092-.345-1.578-.655-1.574-1.855s-.029-2.42-.105-3.63a46.141,46.141,0,0,0-.9-7.086m29.1-8.242a2.417,2.417,0,0,0,.217,2.813,1.745,1.745,0,0,1,.109,1.575,2.668,2.668,0,0,0,1.007,3.025c.991.805,1.894,1.718,2.831,2.589a7.235,7.235,0,0,1,1.127,1.386,3.849,3.849,0,0,1,.629,2.171C49.99,39.123,50,42.928,50,46.732c0,.924-.129,1.049-1.073,1.049H36.543c-.707,0-.831-.1-1.027-.794a8.959,8.959,0,0,1-.271-2.278A65.134,65.134,0,0,1,36.609,30.8a49.524,49.524,0,0,1,1.882-7.365c.024-.064.043-.13.067-.193.549-1.411.646-1.479,2.153-1.479Zm-8.863,8.917a.5.5,0,0,1-.519-.254,2.248,2.248,0,0,1-.3-1.021c-.117-1.2-.2-2.413-.345-3.614a15.47,15.47,0,0,0-1.661-4.48,13.425,13.425,0,0,1-1-2.507c-.149-.638.054-.832.683-.658a2.167,2.167,0,0,1,1.036.717,13.056,13.056,0,0,1,2.512,5.031,15.577,15.577,0,0,1,.521,3.606c-.092.846-.406,1.876-.592,2.929-.034.194-.178.228-.335.25m3.521-11.5c.038-.021.051-.034.065-.035.775-.073.777-.073.621.668-.058.274-.128.545-.225.955-.183-.632-.323-1.113-.461-1.588m1.813.479c.075-.418.252-.641.7-.549a.275.275,0,0,0,.051,0c.881,0,1.236.385,1.187,1.271-.011.2-.108.267-.29.265-.273,0-.545,0-.818,0-1.021,0-1.01,0-.832-.986M45.3,16.5c-.082-.231.252-.3.475-.495.067.388.116.7.18,1.018a6.969,6.969,0,0,1,.164.881,3.622,3.622,0,0,1-.819-1.4m-8.021-.266a7.061,7.061,0,0,1,6.276-3.459c.869,0,1.738,0,2.607,0,1.039,0,2.079.008,3.119,0,.287,0,.465.042.421.383-.036.274.13.615-.395.638a8.928,8.928,0,0,0-3.655,1.041,4.489,4.489,0,0,0-2.442,2.867c-.08.288-.219.36-.5.357-1.483-.014-2.966-.011-4.448,0a1.138,1.138,0,0,1-1.113-.576,1.124,1.124,0,0,1,.134-1.242M19.057,2.156c.011-.633.249-.869.867-.871q1.944-.005,3.888,0c.648,0,.865.214.869.849.005.614-.01,1.228.006,1.842.009.294-.1.385-.388.38-.8-.013-1.6,0-2.405,0-.767,0-1.535-.015-2.3.006-.383.01-.567-.091-.544-.514.03-.561,0-1.125.01-1.688m-.84,3.234q3.659,0,7.318,0c.338,0,.493.184.491.517s0,.682,0,1.024c0,.577-.107.691-.683.695-1.16.007-2.32,0-3.479,0-1.143,0-2.286,0-3.429,0-.615,0-.717-.11-.72-.711,0-.341,0-.682,0-1.024a.445.445,0,0,1,.5-.5m-4.45,11.252A19.126,19.126,0,0,1,15.6,14.311,13.08,13.08,0,0,0,18.4,9.028c.07-.288.2-.341.454-.34q3.2.009,6.4,0c.173,0,.342-.013.423.195a2.675,2.675,0,0,0,1.526,1.36c1.186.558,2.434.979,3.591,1.608a16.522,16.522,0,0,1,4.945,4.153.824.824,0,0,1,.2.649,2.12,2.12,0,0,0,1.346,2.336.514.514,0,0,1,.327.349c.179.621.373,1.238.551,1.86a.487.487,0,0,1,0,.346,15.718,15.718,0,0,0-1.247,3.021,22.383,22.383,0,0,0-.781-2.583A11.118,11.118,0,0,0,33.679,17.9a2.548,2.548,0,0,0-2.146-.869,1.269,1.269,0,0,0-1.257,1.52,7.116,7.116,0,0,0,.677,2.242c.3.686.6,1.376.962,2.033a11.416,11.416,0,0,1,1.27,5.164,9.514,9.514,0,0,0,.294,2.277,1.767,1.767,0,0,0,1.583,1.509c.274.023.229.154.2.34-.269,1.511-.5,3.026-.68,4.55a49.625,49.625,0,0,0-.3,9.346.467.467,0,0,1-.337.538,4.123,4.123,0,0,1-1.654.279q-7.451.01-14.9,0a4.363,4.363,0,0,1-1.6-.272c-.22-.087-.315-.171-.225-.445a8.751,8.751,0,0,0,.428-2.614c0-.337.111-.377.39-.216a3.709,3.709,0,0,0,1.92.442c2.766-.006,5.53,0,8.3,0a3.66,3.66,0,0,0,3.751-2.794,25.641,25.641,0,0,0,.922-9.716A21.444,21.444,0,0,0,29.18,23.2a12.373,12.373,0,0,0-2.353-3.328,5.9,5.9,0,0,0-8.986.234,15.746,15.746,0,0,0-3.4,6.4c-.048.163-.09.328-.137.491,0,.011-.02.019-.085.074a10.875,10.875,0,0,1-.881-4.373,1.658,1.658,0,0,1,.768-1.219c1.66-1.139,1.258-2.415.134-3.47-.1-.093-.2-.184-.308-.27-.565-.461-.557-.456-.17-1.1m-6.32-4.251a.173.173,0,0,1,.023-.046c.236-.236.142-.833.694-.707.312.071.7,1.342.519,1.613-.164.248-.442.064-.621.126-.852,0-.985-.227-.615-.986m.027,2.092A6.088,6.088,0,0,0,9,14.428c.393-.086.631.063.624.5-.018,1.22.144.963-.937,1.008-.222.01-.443,0-.665,0V15.93c-.409,0-.818-.008-1.227,0-.263.007-.382-.1-.355-.361a.276.276,0,0,0,0-.051C6.4,14.431,6.4,14.445,7.474,14.484M2.049,30.549c.352-1.793.974-3.509,1.463-5.263A6.2,6.2,0,0,0,3.7,22.258,2.723,2.723,0,0,0,2.6,20.6c-.866-.633-.882-1.118-.052-1.806a18.283,18.283,0,0,1,2.8-1.78.9.9,0,0,1,.551-.054,19.922,19.922,0,0,0,4.134,0,1.488,1.488,0,0,1,.97.23,13.57,13.57,0,0,1,2.59,1.725c.726.7.72,1.052-.08,1.633a3.2,3.2,0,0,0-1.28,3.188,34.067,34.067,0,0,0,1.342,5.078A39.181,39.181,0,0,1,14.657,35.4a74.056,74.056,0,0,1,.28,7.406,9.982,9.982,0,0,1-.512,3.267,3.216,3.216,0,0,1-.7,1.177,1.676,1.676,0,0,1-1.274.549c-1.484-.01-2.969,0-4.454,0-1.4,0-2.8-.026-4.2.01a1.965,1.965,0,0,1-1.926-1.171,6.789,6.789,0,0,1-.728-3.057,59.936,59.936,0,0,1,.9-13.029" transform="translate(-0.001 -0.165)"/>
        <path id="Trazado_127411" data-name="Trazado 127411" d="M.121,65.242a8.823,8.823,0,0,0,.7,2.5A3.117,3.117,0,0,0,3.877,69.65q4.122-.038,8.244,0a3.041,3.041,0,0,0,2.7-1.264.31.31,0,0,1,.458-.125,4.9,4.9,0,0,0,2.044.385q7.5-.007,15,0a4.651,4.651,0,0,0,1.76-.263c.3-.12.425-.1.572.207a1.714,1.714,0,0,0,1.682,1.023c4.267-.014,8.534,0,12.8-.009A1.761,1.761,0,0,0,51.1,67.643q0-5.863,0-11.726a4.316,4.316,0,0,0-.065-.813,6.394,6.394,0,0,0-1.866-3.229c-1.011-1.042-2.1-2-3.2-2.947a1.41,1.41,0,0,1-.534-1.526A3.094,3.094,0,0,0,45.2,44.7a1.545,1.545,0,0,1-.165-1.719,1.042,1.042,0,0,0-.8-1.516c-.568-.048-.65-.338-.711-.759-.029-.2-.076-.4-.119-.6-.026-.121-.055-.227.107-.286.484-.174.616-.6.718-1.039a1.1,1.1,0,0,1,.253-.563h-.006c-.278.028-.329.314-.393.543a1.119,1.119,0,0,1-.408.745c-.474.279-.429.668-.324,1.111.113.475.189.89.824.991a.93.93,0,0,1,.722,1.329,1.983,1.983,0,0,0,.221,1.939,2.19,2.19,0,0,1,.308,1.717c-.069.3-.095.607-.155.908a1.433,1.433,0,0,0,.512,1.46c1.189,1.05,2.4,2.083,3.477,3.247a5.751,5.751,0,0,1,1.711,4.136c-.053,3.7-.016,7.406-.017,11.11,0,1.4-.611,2.046-2.024,2.053-4.113.019-8.225.007-12.338.007a1.889,1.889,0,0,1-1.827-.995.519.519,0,0,0-.725-.268,5.148,5.148,0,0,1-1.865.243q-7.45-.009-14.9,0a4.359,4.359,0,0,1-1.754-.29.712.712,0,0,0-.968.264A2.658,2.658,0,0,1,12.328,69.5q-4.275.009-8.55,0a2.889,2.889,0,0,1-2.731-1.658A8.774,8.774,0,0,1,.3,65.513c-.043-.207.023-.5-.3-.574.159.053.1.2.121.3" transform="translate(0 -20.904)"/>
        <path id="Trazado_127412" data-name="Trazado 127412" d="M.235,37.406c.109-.846.125-1.7.21-2.547a39.583,39.583,0,0,1,1.082-6.4c.376-1.4.885-2.763,1.2-4.18.312-1.38.2-2.626-1.16-3.446a.489.489,0,0,1-.077-.067,1.477,1.477,0,0,1-.37-1.775,3.161,3.161,0,0,1,1.013-1.265,17.43,17.43,0,0,1,2.6-1.622,1.159,1.159,0,0,0,.735-1.251A1.42,1.42,0,0,1,6.05,13.5a.742.742,0,0,0,.328-.661,2.967,2.967,0,0,1,.575-1.72,1.21,1.21,0,0,1,2.087-.094,2.868,2.868,0,0,1,.648,1.746.944.944,0,0,0,.354.81,1.353,1.353,0,0,1,.542,1.166,1.346,1.346,0,0,0,.961,1.492,3.98,3.98,0,0,1,.447.25.508.508,0,0,0,.8-.222,14.662,14.662,0,0,1,1.959-2.616,12.528,12.528,0,0,0,2.635-4.7.809.809,0,0,0-.21-.967,1.344,1.344,0,0,1-.441-1.055c-.01-.375-.008-.751,0-1.126a1.428,1.428,0,0,1,.951-1.436.712.712,0,0,0,.479-.757q0-.794,0-1.587c0-1.291.585-1.881,1.873-1.888q1.817-.01,3.635,0a1.759,1.759,0,0,1,1.986,1.941c.014.546,0,1.092,0,1.638a.62.62,0,0,0,.443.664,1.061,1.061,0,0,1,.733.668,3.609,3.609,0,0,1-.073,2.641.865.865,0,0,0,.388,1.27c.51.276,1.039.512,1.575.738A19.617,19.617,0,0,1,33.4,12.219a23.151,23.151,0,0,1,2.7,2.571c.384.419.53.426.9.008.135-.154.262-.314.4-.465a7.559,7.559,0,0,1,5.582-2.612c1.859-.039,3.72-.009,5.58-.007.785,0,1.571-.029,2.355.011,1.214.061,1.372.242,1.37,1.445,0,.068,0,.136,0,.2-.013.693-.192.907-.892,1-.506.064-1.014.122-1.527.139a8.227,8.227,0,0,0-2.459.446c-.568.2-.656.329-.649.94a3.362,3.362,0,0,0,.058.559,6.624,6.624,0,0,0,1.511,3.036,3.913,3.913,0,0,1,.517.7.7.7,0,0,1-.929.934,2.124,2.124,0,0,1-.382-.256,10.589,10.589,0,0,1-2.614-3.118c-.1-.178-.178-.433-.407-.438l.228.418a11.154,11.154,0,0,0,2.892,3.412.861.861,0,0,0,1.242-.048.876.876,0,0,0-.027-1.206c-.128-.159-.269-.308-.4-.467a6.06,6.06,0,0,1-1.569-3.746.438.438,0,0,1,.346-.517,10.726,10.726,0,0,1,1.786-.424c.895-.126,1.8-.09,2.694-.257a.773.773,0,0,0,.722-.836c0-.393.005-.785,0-1.178a.729.729,0,0,0-.662-.779,7.989,7.989,0,0,0-1.22-.135c-2.457-.013-4.914-.04-7.37,0a7.817,7.817,0,0,0-6.324,3.229c-.24.312-.345.292-.581.014A18.043,18.043,0,0,0,32.9,11.671a24.449,24.449,0,0,0-4.745-2.366,4.446,4.446,0,0,1-1.127-.593c-.286-.231-.489-.471-.143-.84a1.144,1.144,0,0,0,.262-.81c0-.461.007-.922,0-1.383a1.423,1.423,0,0,0-1.058-1.456.351.351,0,0,1-.308-.419c.01-.648.017-1.3,0-1.945A1.789,1.789,0,0,0,23.892.007q-2-.014-3.994,0a1.774,1.774,0,0,0-1.912,1.918c-.009.631,0,1.263,0,1.895,0,.168.006.3-.223.385-1.262.476-1.689,2.943-.693,3.909a.149.149,0,0,0,.038.034c.324.137.251.386.184.638a11.427,11.427,0,0,1-1.953,3.906c-.713.958-1.57,1.8-2.239,2.795-.235.348-.354.946-.7,1s-.726-.385-1.116-.546a.821.821,0,0,1-.568-.975,1.534,1.534,0,0,0-.736-1.622.331.331,0,0,1-.152-.39,3.052,3.052,0,0,0-.651-2,1.348,1.348,0,0,0-2.122-.2,2.613,2.613,0,0,0-.761,1.423,2.293,2.293,0,0,1-.727,1.66c-.385.352-.251.932-.239,1.421a.511.511,0,0,1-.321.544c-.823.448-1.627.93-2.419,1.431a4.377,4.377,0,0,0-1.468,1.4,1.7,1.7,0,0,0,.375,2.337,5.434,5.434,0,0,0,.439.352,1.864,1.864,0,0,1,.791,1.732,7.1,7.1,0,0,1-.134,1.167c-.338,1.619-.968,3.157-1.356,4.763A48.522,48.522,0,0,0,.109,37.33c-.01.153.088.345-.11.458.253-.019.217-.227.236-.382" transform="translate(0.001 0)"/>
        <path id="Trazado_127413" data-name="Trazado 127413" d="M0,88.629v.819H.053A2.658,2.658,0,0,0,0,88.629" transform="translate(0 -48.486)" fill="#585759"/>
        <path id="Trazado_127414" data-name="Trazado 127414" d="M.053,89.447H.1c-.046-.271.108-.567-.1-.818a2.686,2.686,0,0,1,.053.818" transform="translate(0 -48.486)" fill="#585759"/>
        <path id="Trazado_127415" data-name="Trazado 127415" d="M.052,90.472A.068.068,0,0,1,0,90.438v.819a2.338,2.338,0,0,0,.052-.785" transform="translate(0 -49.475)" fill="#4b4a4c"/>
        <path id="Trazado_127416" data-name="Trazado 127416" d="M.1,90.434h0a.067.067,0,0,1-.049.035A2.338,2.338,0,0,1,0,91.255c.2-.253.059-.548.1-.821" transform="translate(0 -49.473)" fill="#4b4a4c"/>
        <path id="Trazado_127417" data-name="Trazado 127417" d="M.052,90.47c0-.011,0-.022,0-.033v0H0a.068.068,0,0,0,.052.034" transform="translate(0 -49.474)" fill="#4b4a4c"/>
        <path id="Trazado_127418" data-name="Trazado 127418" d="M.116,90.437c0,.011,0,.022,0,.033a.065.065,0,0,0,.049-.035H.116v0" transform="translate(-0.063 -49.474)" fill="#4b4a4c"/>
        <path id="Trazado_127419" data-name="Trazado 127419" d="M.053,86.087v-.4H0v.41l.053,0a.044.044,0,0,1,0-.008" transform="translate(0 -46.876)" fill="#9c9b9c"/>
        <path id="Trazado_127420" data-name="Trazado 127420" d="M.116,85.723v.37l.034,0c0-.136,0-.272,0-.409H.116Z" transform="translate(-0.063 -46.874)" fill="#9c9b9c"/>
        <path id="Trazado_127421" data-name="Trazado 127421" d="M.052,86.622c-.017.005-.034,0-.052-.028V87c.092-.118.046-.253.052-.381" transform="translate(0 -47.372)" fill="#898889"/>
        <path id="Trazado_127422" data-name="Trazado 127422" d="M.087,86.584h0a.062.062,0,0,1-.035.033c-.006.128.04.264-.052.381.158-.111.093-.269.087-.414" transform="translate(0 -47.367)" fill="#898889"/>
        <path id="Trazado_127423" data-name="Trazado 127423" d="M.052,86.619c0-.01,0-.021,0-.031l-.053,0c.018.028.035.034.052.028" transform="translate(0 -47.369)" fill="#898889"/>
        <path id="Trazado_127424" data-name="Trazado 127424" d="M.114,86.617a.06.06,0,0,0,.035-.033l-.034,0c0,.01,0,.02,0,.031" transform="translate(-0.062 -47.367)" fill="#898889"/>
        <path id="Trazado_127425" data-name="Trazado 127425" d="M0,84.559v.307l.052,0c0-.1.032-.214-.052-.305" transform="translate(0 -46.259)" fill="#c3c3c4"/>
        <path id="Trazado_127426" data-name="Trazado 127426" d="M.052,84.863H.085c0-.109.08-.241-.085-.3.084.091.048.2.052.305" transform="translate(0 -46.258)" fill="#c3c3c4"/>
        <path id="Trazado_127427" data-name="Trazado 127427" d="M.053,85.414v-.15c-.017.007-.034,0-.053-.026v.2c.017-.028.034-.033.053-.028" transform="translate(0 -46.63)" fill="#afaeaf"/>
        <path id="Trazado_127428" data-name="Trazado 127428" d="M.116,85.261v.149a.063.063,0,0,1,.036.025h0l0-.206a.055.055,0,0,1-.033.03v0" transform="translate(-0.063 -46.626)" fill="#afaeaf"/>
        <path id="Trazado_127429" data-name="Trazado 127429" d="M.053,85.625c-.018,0-.036,0-.053.028l.053,0Z" transform="translate(0 -46.841)" fill="#afaeaf"/>
        <path id="Trazado_127430" data-name="Trazado 127430" d="M.116,85.627v.026H.152a.063.063,0,0,0-.036-.025" transform="translate(-0.063 -46.843)" fill="#afaeaf"/>
        <path id="Trazado_127431" data-name="Trazado 127431" d="M.053,85.262c0-.01,0-.019,0-.029l-.052,0c.018.029.036.034.053.027" transform="translate(0 -46.628)" fill="#afaeaf"/>
        <path id="Trazado_127432" data-name="Trazado 127432" d="M.115,85.26a.058.058,0,0,0,.033-.03H.115c0,.009,0,.019,0,.029" transform="translate(-0.063 -46.626)" fill="#afaeaf"/>
        <path id="Trazado_127433" data-name="Trazado 127433" d="M0,95.864v.2a.133.133,0,0,0,0-.2" transform="translate(0 -52.444)" fill="#908f90"/>
        <path id="Trazado_127434" data-name="Trazado 127434" d="M0,95.864a.133.133,0,0,1,0,.2c.138-.068.115-.136,0-.2" transform="translate(0 -52.444)" fill="#908f90"/>
        <path id="Trazado_127435" data-name="Trazado 127435" d="M30.021,27.871c.106.086.208.177.308.27,1.123,1.055,1.526,2.331-.134,3.47a1.658,1.658,0,0,0-.768,1.218,10.867,10.867,0,0,0,.881,4.373c.064-.056.082-.063.085-.074.046-.164.089-.328.136-.491a15.756,15.756,0,0,1,3.4-6.4A5.894,5.894,0,0,1,42.911,30a12.375,12.375,0,0,1,2.353,3.328,21.426,21.426,0,0,1,2.081,8.014,25.64,25.64,0,0,1-.922,9.716,3.66,3.66,0,0,1-3.751,2.794c-2.765.007-5.53,0-8.3,0a3.7,3.7,0,0,1-1.92-.442c-.278-.162-.385-.121-.39.216a8.77,8.77,0,0,1-.428,2.615c-.091.274,0,.358.225.444a4.352,4.352,0,0,0,1.6.272q7.451.007,14.9,0a4.11,4.11,0,0,0,1.654-.279.466.466,0,0,0,.337-.538,49.663,49.663,0,0,1,.3-9.346c.178-1.525.412-3.04.68-4.55.033-.187.079-.317-.2-.34A1.766,1.766,0,0,1,49.562,40.4a9.468,9.468,0,0,1-.294-2.276A11.423,11.423,0,0,0,48,32.955c-.357-.658-.659-1.347-.962-2.033a7.1,7.1,0,0,1-.676-2.241,1.268,1.268,0,0,1,1.257-1.521,2.55,2.55,0,0,1,2.146.869,11.123,11.123,0,0,1,2.465,4.084A22.385,22.385,0,0,1,53.01,34.7a15.747,15.747,0,0,1,1.247-3.021.486.486,0,0,0,0-.346c-.177-.622-.372-1.239-.551-1.861a.511.511,0,0,0-.327-.349,2.12,2.12,0,0,1-1.346-2.335.824.824,0,0,0-.2-.65,16.517,16.517,0,0,0-4.945-4.153c-1.157-.629-2.4-1.05-3.591-1.608a2.674,2.674,0,0,1-1.526-1.36c-.083-.208-.251-.195-.424-.195q-3.2,0-6.4,0c-.254,0-.384.053-.454.341a13.07,13.07,0,0,1-2.806,5.283,19.161,19.161,0,0,0-1.832,2.331c-.387.645-.395.639.17,1.1" transform="translate(-16.085 -10.294)" fill="#1169e3"/>
        <path id="Trazado_127436" data-name="Trazado 127436" d="M34.034,63.286c0,1.2.482,1.51,1.574,1.855a2.465,2.465,0,0,0,.76.08q2.048,0,4.1,0h3.891A2.746,2.746,0,0,0,47.428,62.9a25.1,25.1,0,0,0,.853-8.09,23.334,23.334,0,0,0-1.355-6.992A11.553,11.553,0,0,0,43.484,42.7a4.371,4.371,0,0,0-4.964-.648,7.044,7.044,0,0,0-2.443,2.064A15.411,15.411,0,0,0,33.2,50.653a4.457,4.457,0,0,0-.176,1.918,46.147,46.147,0,0,1,.9,7.086q.114,1.815.105,3.63m3.944-12.3a3.4,3.4,0,0,1,.381-.944,16.076,16.076,0,0,0,1.566-3.489c.119-.361.279-.671.719-.679.471-.009.629.325.757.7a16.353,16.353,0,0,0,1.468,3.311,3.571,3.571,0,0,1,.585,1.987,2.692,2.692,0,0,1-1.626,2.516,2.638,2.638,0,0,1-3.042-.462,2.751,2.751,0,0,1-.808-2.937m-1.5,11.689A4.861,4.861,0,0,1,38.4,60.741a.6.6,0,0,0,.39-.618,3.034,3.034,0,0,1,.258-1.345,2.571,2.571,0,0,1,2.324-1.648,5.507,5.507,0,0,1,.869.014,2.2,2.2,0,0,0,2.4-1.582c.052-.125.089-.257.129-.388a.512.512,0,0,1,.577-.4.5.5,0,0,1,.48.45,6.838,6.838,0,0,1,.049,2.139,7.689,7.689,0,0,1-1.412,3.681,3.679,3.679,0,0,1-3.588,1.489c-.3-.025-.574-.127-.639-.483h0c-.04-.366-.453-.423-.588-.71a4.163,4.163,0,0,0-2.089,1.645c-.056.085-.1.177-.163.26a.53.53,0,0,1-.759.186.513.513,0,0,1-.157-.759" transform="translate(-18.038 -22.734)" fill="#b0c8cb"/>
        <path id="Trazado_127437" data-name="Trazado 127437" d="M3.221,66.731A1.964,1.964,0,0,0,5.147,67.9c1.4-.036,2.8-.009,4.2-.01,1.485,0,2.969-.007,4.454,0a1.677,1.677,0,0,0,1.274-.549,3.228,3.228,0,0,0,.7-1.177,9.993,9.993,0,0,0,.512-3.267A73.925,73.925,0,0,0,16,55.5,39.179,39.179,0,0,0,14.924,48.9a34,34,0,0,1-1.342-5.078,3.2,3.2,0,0,1,1.28-3.188c.8-.581.806-.934.08-1.633a13.57,13.57,0,0,0-2.59-1.725,1.493,1.493,0,0,0-.97-.23,19.922,19.922,0,0,1-4.134,0,.9.9,0,0,0-.551.054,18.245,18.245,0,0,0-2.8,1.779c-.83.689-.813,1.173.052,1.806a2.726,2.726,0,0,1,1.106,1.661,6.2,6.2,0,0,1-.192,3.028c-.489,1.754-1.112,3.471-1.463,5.263a59.936,59.936,0,0,0-.9,13.029,6.783,6.783,0,0,0,.728,3.057m.864-5.555c.085-.81,0-1.637.034-2.454A44.071,44.071,0,0,1,5.041,50.7a4.182,4.182,0,0,1,3.012-3.181,4.258,4.258,0,0,1,4.376,1.057,5.515,5.515,0,0,1,1.509,3.474,58.76,58.76,0,0,1,.651,7.5c.029,1.088.075,2.177.058,3.264a8.335,8.335,0,0,1-.4,2.555c-.247.732-.452.876-1.231.876H9.286c-1.263,0-2.525-.009-3.787,0a.9.9,0,0,1-.986-.7,11.059,11.059,0,0,1-.428-4.373" transform="translate(-1.349 -20.26)" fill="#29c4bb"/>
        <path id="Trazado_127438" data-name="Trazado 127438" d="M81.116,49.156c-.024.063-.044.129-.067.193a49.579,49.579,0,0,0-1.883,7.365A65.133,65.133,0,0,0,77.8,70.626a8.979,8.979,0,0,0,.271,2.278c.2.7.319.794,1.027.794H91.486c.944,0,1.073-.125,1.073-1.049,0-3.8-.01-7.608.009-11.413a3.849,3.849,0,0,0-.63-2.171,7.184,7.184,0,0,0-1.127-1.386c-.937-.871-1.84-1.784-2.831-2.589a2.668,2.668,0,0,1-1.007-3.025,1.747,1.747,0,0,0-.108-1.575,2.416,2.416,0,0,1-.218-2.813H83.27c-1.506,0-1.6.067-2.153,1.479m6.41,7.824a11.691,11.691,0,0,1,3.05,3.12,2.231,2.231,0,0,1,.315,1.163q0,2.276,0,4.553,0,2.251,0,4.5c0,1.223-.523,1.74-1.746,1.74-2.677,0-5.355-.008-8.031,0-1.114,0-1.755-.471-1.7-1.695.051-1.106-.031-2.218.025-3.324a46.19,46.19,0,0,1,.838-7.474,4.658,4.658,0,0,1,7.25-2.589" transform="translate(-42.559 -26.082)" fill="#b0c8cb"/>
        <path id="Trazado_127439" data-name="Trazado 127439" d="M82.955,33.1c1.482-.007,2.965-.01,4.448,0,.284,0,.424-.069.5-.357a4.491,4.491,0,0,1,2.443-2.867A8.928,8.928,0,0,1,94,28.841c.525-.023.359-.364.395-.638.044-.341-.134-.386-.421-.383-1.039.013-2.079,0-3.118,0-.869,0-1.738,0-2.608,0a7.06,7.06,0,0,0-6.275,3.459,1.126,1.126,0,0,0-.134,1.241,1.139,1.139,0,0,0,1.113.576" transform="translate(-44.7 -15.219)" fill="#c7dfed"/>
        <path id="Trazado_127440" data-name="Trazado 127440" d="M39.824,13.773c1.143,0,2.286,0,3.429,0,1.16,0,2.32,0,3.48,0,.576,0,.68-.118.683-.695,0-.341,0-.683,0-1.024s-.152-.516-.49-.517q-3.659,0-7.318,0a.445.445,0,0,0-.5.5c0,.341,0,.682,0,1.024,0,.6.105.708.719.711" transform="translate(-21.392 -6.31)" fill="#957639"/>
        <path id="Trazado_127441" data-name="Trazado 127441" d="M42.594,5.541c.767-.021,1.535-.006,2.3-.006.8,0,1.6-.009,2.4,0,.283,0,.4-.087.389-.38-.016-.613,0-1.227-.006-1.842-.005-.635-.221-.847-.87-.849q-1.944-.005-3.888,0c-.618,0-.856.238-.867.871-.01.563.02,1.126-.01,1.688-.022.423.161.525.545.514" transform="translate(-23.002 -1.349)" fill="#957639"/>
        <path id="Trazado_127442" data-name="Trazado 127442" d="M14.206,32.605c-.028.264.091.369.354.361.409-.011.818,0,1.228,0v.009c.221,0,.444.008.665,0,1.083-.045.919.212.938-1.008.006-.439-.232-.588-.625-.5a6.088,6.088,0,0,1-1.528.056c-1.075-.038-1.075-.052-1.032,1.037a.387.387,0,0,1,0,.051" transform="translate(-7.765 -17.198)" fill="#9d8863"/>
        <path id="Trazado_127443" data-name="Trazado 127443" d="M91.089,43.335c.183,0,.279-.063.29-.265.049-.885-.307-1.271-1.187-1.271a.241.241,0,0,1-.051,0c-.45-.092-.627.132-.7.55-.178.989-.189.987.832.986.273,0,.546,0,.818,0" transform="translate(-48.878 -22.855)" fill="#515151"/>
        <path id="Trazado_127444" data-name="Trazado 127444" d="M16.821,27.049c.179-.062.457.122.622-.126.179-.271-.208-1.542-.52-1.612-.552-.125-.458.471-.694.707a.159.159,0,0,0-.022.046c-.37.759-.238.985.614.986" transform="translate(-8.76 -13.837)" fill="#9d8862"/>
        <path id="Trazado_127445" data-name="Trazado 127445" d="M40.745,79.4a.53.53,0,0,0,.759-.185c.059-.083.106-.175.163-.26a4.164,4.164,0,0,1,2.089-1.645,16.318,16.318,0,0,0,2.239-1.141h0a.528.528,0,0,0-.071-.736.566.566,0,0,0-.746-.019,5.192,5.192,0,0,1-1.149.527,1.693,1.693,0,0,1,2.091-1.768,3.226,3.226,0,0,0,2.33-.493c.1-.065.265-.335.321.043a5.219,5.219,0,0,1-1.658,3.24,2.646,2.646,0,0,1-2.04.443c-.462-.029-.72.133-.731.615h0c.065.356.341.458.639.483a3.679,3.679,0,0,0,3.588-1.489,7.693,7.693,0,0,0,1.412-3.681,6.839,6.839,0,0,0-.049-2.139.5.5,0,0,0-.48-.45.512.512,0,0,0-.577.4c-.04.13-.077.262-.13.388a2.2,2.2,0,0,1-2.4,1.583,5.4,5.4,0,0,0-.869-.014,2.57,2.57,0,0,0-2.324,1.648,3.039,3.039,0,0,0-.259,1.345.6.6,0,0,1-.39.618,4.861,4.861,0,0,0-1.921,1.933.513.513,0,0,0,.157.759" transform="translate(-22.15 -38.7)"/>
        <path id="Trazado_127446" data-name="Trazado 127446" d="M47.728,59.6a2.691,2.691,0,0,0,1.626-2.516,3.571,3.571,0,0,0-.585-1.987A16.4,16.4,0,0,1,47.3,51.784c-.128-.374-.286-.708-.757-.7-.441.008-.6.319-.719.679a16.077,16.077,0,0,1-1.566,3.489,3.4,3.4,0,0,0-.38.944,2.752,2.752,0,0,0,.808,2.937,2.638,2.638,0,0,0,3.042.462m-2.869-2.8a3.042,3.042,0,0,1,.372-1.052A19.088,19.088,0,0,0,46.563,53.1a24.678,24.678,0,0,0,1.415,2.844,2.179,2.179,0,0,1,.263,1.475A1.688,1.688,0,0,1,46.3,58.807,1.733,1.733,0,0,1,44.859,56.8" transform="translate(-23.938 -27.946)"/>
        <path id="Trazado_127447" data-name="Trazado 127447" d="M48.914,81.364a3.814,3.814,0,0,1,.509,0A2.353,2.353,0,0,0,51.7,80.108a6.036,6.036,0,0,0,.8-1.9,4.335,4.335,0,0,1-.794,1.217,2.144,2.144,0,0,1-1.652.835c-.01.016-.013.032-.024.048A5.655,5.655,0,0,1,47.7,81.393h0c.135.287.549.343.588.709-.035-.562.082-.7.623-.739" transform="translate(-26.097 -42.785)" fill="#7aa05b"/>
        <path id="Trazado_127448" data-name="Trazado 127448" d="M49.726,81a2.644,2.644,0,0,0,2.039-.443,5.219,5.219,0,0,0,1.658-3.24c-.077.131-.147.267-.217.4a6.036,6.036,0,0,1-.8,1.9,2.353,2.353,0,0,1-2.278,1.252,3.894,3.894,0,0,0-.509,0c-.541.037-.658.177-.623.739h0c.011-.482.268-.644.731-.615" transform="translate(-26.8 -42.299)" fill="#7aa05b"/>
        <path id="Trazado_127449" data-name="Trazado 127449" d="M50.056,82.729c-.038,0-.075,0-.114-.008A16.421,16.421,0,0,1,47.7,83.862a5.651,5.651,0,0,0,2.329-1.086c.011-.016.015-.032.024-.048" transform="translate(-26.097 -45.254)" fill="#7aa05b"/>
        <path id="Trazado_127450" data-name="Trazado 127450" d="M7.385,78.651c1.262-.014,2.524,0,3.786,0h3.735c.779,0,.984-.144,1.231-.876a8.32,8.32,0,0,0,.4-2.555c.016-1.087-.029-2.176-.058-3.264a58.759,58.759,0,0,0-.65-7.5,5.52,5.52,0,0,0-1.509-3.474,4.26,4.26,0,0,0-4.377-1.057A4.182,4.182,0,0,0,6.926,63.1,44.07,44.07,0,0,0,6,71.125c-.039.817.051,1.644-.034,2.454A11.067,11.067,0,0,0,6.4,77.952a.9.9,0,0,0,.986.7M9.2,64.713A15.537,15.537,0,0,0,10.6,61.6c.128-.37.321-.664.74-.659.4.006.564.308.683.654a14.847,14.847,0,0,0,1.274,2.891,2.949,2.949,0,0,1,.348,2.864,2.548,2.548,0,0,1-2.74,1.5,2.516,2.516,0,0,1-2.142-2.589A2.785,2.785,0,0,1,9.2,64.713M6.879,69.346c.264-.386.722-.274.991.252a2.186,2.186,0,0,0,1.636,1.323,4.149,4.149,0,0,0,1.251-.178,2.5,2.5,0,0,1,2.9,2.144.873.873,0,0,0,.553.707,4.2,4.2,0,0,1,1.765,1.345c.221.3.29.615-.026.852a.563.563,0,0,1-.842-.185,3.5,3.5,0,0,0-2.141-1.274.489.489,0,0,1-.4.317c.166.58,0,.8-.57.926-2.25.5-3.619-.775-4.637-2.929a8.236,8.236,0,0,1-.632-2.613,1,1,0,0,1,.149-.687" transform="translate(-3.233 -32.663)" fill="#6ba157"/>
        <path id="Trazado_127451" data-name="Trazado 127451" d="M82.228,69.71a46.24,46.24,0,0,0-.838,7.474c-.056,1.106.026,2.218-.024,3.324-.056,1.224.585,1.7,1.7,1.694,2.677-.012,5.354,0,8.031,0,1.223,0,1.744-.517,1.746-1.741q0-2.251,0-4.5,0-2.277,0-4.553a2.232,2.232,0,0,0-.314-1.163,11.7,11.7,0,0,0-3.05-3.121,4.658,4.658,0,0,0-7.25,2.589m2.466,1.6a3.507,3.507,0,0,1,.329-.745,13.448,13.448,0,0,0,1.3-2.933c.116-.368.308-.67.735-.659.4.01.577.292.69.646A14.257,14.257,0,0,0,89.067,70.6a2.907,2.907,0,0,1,.405,2.059,2.488,2.488,0,1,1-4.778-1.344m-.335,7.325A2.494,2.494,0,0,1,87.579,76.5a1.856,1.856,0,0,0,2.362-1.075c.04-.075.077-.152.117-.227a.52.52,0,0,1,.639-.288.5.5,0,0,1,.4.529,6.472,6.472,0,0,1-2.485,5.31,3.13,3.13,0,0,1-2.844.331c-.442-.119-.444-.457-.394-.817a.686.686,0,0,1-.314-.309A3.41,3.41,0,0,0,83,81.185c-.242.313-.533.461-.869.181-.317-.264-.212-.568.011-.855a4.186,4.186,0,0,1,1.78-1.333.625.625,0,0,0,.439-.543" transform="translate(-44.51 -36.223)" fill="#bfebfc"/>
        <path id="Trazado_127452" data-name="Trazado 127452" d="M52.94,77.83a2.793,2.793,0,0,1,.108-.258c-.1-.033-.175.046-.255.087a3.4,3.4,0,0,1-2.224.37,1.515,1.515,0,0,0-1.848,1.4,3.854,3.854,0,0,0,.96-.422.7.7,0,0,1,.848.116.575.575,0,0,1,.106.743A3.4,3.4,0,0,0,52.94,77.83" transform="translate(-26.653 -42.433)" fill="#9fd871"/>
        <path id="Trazado_127453" data-name="Trazado 127453" d="M50.3,78.75a.7.7,0,0,0-.848-.115,3.865,3.865,0,0,1-.96.422,1.515,1.515,0,0,1,1.848-1.4,3.4,3.4,0,0,0,2.225-.37c.08-.041.159-.12.255-.087a.235.235,0,0,1,.227-.119c-.056-.377-.22-.108-.321-.043a3.227,3.227,0,0,1-2.329.493A1.693,1.693,0,0,0,48.308,79.3a5.212,5.212,0,0,0,1.149-.527.566.566,0,0,1,.746.019.529.529,0,0,1,.071.736c.048-.009.089-.024.135-.035a.575.575,0,0,0-.106-.743" transform="translate(-26.427 -42.061)" fill="#9fd871"/>
        <path id="Trazado_127454" data-name="Trazado 127454" d="M55.334,77.582c-.048.077-.069.177-.108.258a3.4,3.4,0,0,1-2.305,2.035c-.008.014-.013.028-.022.043a2.145,2.145,0,0,0,1.652-.835,4.331,4.331,0,0,0,.794-1.217c.018-.084.042-.165.054-.251a.176.176,0,0,0-.065-.033" transform="translate(-28.939 -42.442)" fill="#9fd871"/>
        <path id="Trazado_127455" data-name="Trazado 127455" d="M52.761,82.687c.009-.014.014-.029.022-.043-.046.01-.088.026-.136.035.039.006.076,0,.114.008" transform="translate(-28.801 -45.211)" fill="#9fd871"/>
        <path id="Trazado_127456" data-name="Trazado 127456" d="M58.276,77.439a.176.176,0,0,1,.065.033c-.012.086-.037.167-.054.251.07-.135.14-.271.217-.4a.234.234,0,0,0-.227.119" transform="translate(-31.881 -42.299)" fill="#9fd871"/>
        <path id="Trazado_127457" data-name="Trazado 127457" d="M47.606,61.239a1.687,1.687,0,0,0,1.937-1.389,2.177,2.177,0,0,0-.263-1.475,24.855,24.855,0,0,1-1.415-2.844,19.053,19.053,0,0,1-1.332,2.649,3.045,3.045,0,0,0-.372,1.052,1.733,1.733,0,0,0,1.444,2.007" transform="translate(-25.24 -30.379)" fill="#83c7e0"/>
        <path id="Trazado_127458" data-name="Trazado 127458" d="M8.342,84.011c1.018,2.153,2.387,3.428,4.637,2.929.574-.127.736-.346.57-.926a.661.661,0,0,0-.7-.183A2.447,2.447,0,0,1,9.908,84.58a3.379,3.379,0,0,1-.57-1.127l-.207-.42a9.412,9.412,0,0,0,1.054.308,4.3,4.3,0,0,0,1.609-.144,1.323,1.323,0,0,1,1.692,1.167,2.892,2.892,0,0,1-.916-.262.608.608,0,0,0-.708.083.529.529,0,0,0-.065.7,6.234,6.234,0,0,0,1.874.709l.277.1A3.5,3.5,0,0,1,16.09,86.97a.563.563,0,0,0,.842.185c.316-.237.246-.548.026-.852a4.206,4.206,0,0,0-1.765-1.345.872.872,0,0,1-.553-.707,2.5,2.5,0,0,0-2.9-2.143,4.149,4.149,0,0,1-1.251.178,2.185,2.185,0,0,1-1.636-1.323c-.268-.526-.727-.637-.991-.251a1,1,0,0,0-.149.686,8.242,8.242,0,0,0,.632,2.613" transform="translate(-4.213 -44.029)"/>
        <path id="Trazado_127459" data-name="Trazado 127459" d="M14.343,70.35a2.547,2.547,0,0,0,2.74-1.5,2.948,2.948,0,0,0-.348-2.863,14.847,14.847,0,0,1-1.274-2.891c-.119-.347-.283-.649-.683-.654-.419-.006-.612.289-.74.659a15.548,15.548,0,0,1-1.4,3.112,2.785,2.785,0,0,0-.436,1.554,2.516,2.516,0,0,0,2.142,2.589m-.77-3.572c.2-.375.417-.741.609-1.12s.357-.764.579-1.241c.346,1.076,1.04,1.9,1.366,2.9a1.5,1.5,0,0,1-.883,1.925A1.449,1.449,0,0,1,13.4,68.4a1.939,1.939,0,0,1,.177-1.623" transform="translate(-6.674 -34.157)"/>
        <path id="Trazado_127460" data-name="Trazado 127460" d="M13.959,88.8c-.618.188-1.063-.211-1.5-.539a4.387,4.387,0,0,1-.648-.661,6.259,6.259,0,0,0,.65,1.067,2.259,2.259,0,0,0,2.436.967c.327-.061.718-.205.9.272a.49.49,0,0,0,.4-.318,3.9,3.9,0,0,1-2.212-.741c-.012-.015-.016-.031-.027-.047" transform="translate(-6.463 -47.925)" fill="#7aa05b"/>
        <path id="Trazado_127461" data-name="Trazado 127461" d="M16.638,90.2c-.03.012-.058.015-.088.024.01.016.014.032.026.048a3.907,3.907,0,0,0,2.213.741l-.277-.1a6.218,6.218,0,0,1-1.874-.709" transform="translate(-9.054 -49.346)" fill="#7aa05b"/>
        <path id="Trazado_127462" data-name="Trazado 127462" d="M14.627,89.33a2.259,2.259,0,0,1-2.436-.968,6.226,6.226,0,0,1-.65-1.066c-.074-.087-.149-.172-.226-.255a3.393,3.393,0,0,0,.57,1.127,2.446,2.446,0,0,0,2.936,1.251.661.661,0,0,1,.7.183c-.181-.477-.571-.333-.9-.272" transform="translate(-6.19 -47.617)" fill="#7aa05b"/>
        <path id="Trazado_127463" data-name="Trazado 127463" d="M82.826,90.989c-.224.288-.328.592-.011.856.336.279.626.131.869-.181a3.4,3.4,0,0,1,2.06-1.228c.433-.136.862-.286,1.3-.4a1.979,1.979,0,0,0,.842-.434c.085-.736-.17-.943-.867-.708a2.37,2.37,0,0,1-.777.211,1.234,1.234,0,0,1,1.623-1.075,3.373,3.373,0,0,0,2.189-.053c.081-.078.164-.2.283-.1.066.057,0,.152-.072.207l-.2.409c-.7,1.655-1.74,2.469-3.149,2.06a.817.817,0,0,0-.854.2c-.05.36-.048.7.394.817a3.131,3.131,0,0,0,2.844-.331A6.473,6.473,0,0,0,91.78,85.92a.5.5,0,0,0-.4-.529.52.52,0,0,0-.639.289c-.04.075-.076.152-.117.227a1.856,1.856,0,0,1-2.361,1.075,2.5,2.5,0,0,0-3.22,2.132.625.625,0,0,1-.439.543,4.188,4.188,0,0,0-1.78,1.333" transform="translate(-45.195 -46.702)"/>
        <path id="Trazado_127464" data-name="Trazado 127464" d="M90.88,75.549a2.472,2.472,0,0,0,2.454-1.979,2.9,2.9,0,0,0-.405-2.059,14.233,14.233,0,0,1-1.323-2.977c-.113-.355-.293-.636-.69-.646-.428-.01-.62.292-.736.659a13.447,13.447,0,0,1-1.3,2.933,3.486,3.486,0,0,0-.329.745,2.478,2.478,0,0,0,2.324,3.323m-1.309-2.923a3.714,3.714,0,0,1,.453-.97,14.65,14.65,0,0,0,.875-1.78,17.918,17.918,0,0,0,1.039,2.1,2.031,2.031,0,0,1,.344,1.311,1.4,1.4,0,0,1-1.667,1.2,1.419,1.419,0,0,1-1.044-1.858" transform="translate(-48.372 -37.139)"/>
        <path id="Trazado_127465" data-name="Trazado 127465" d="M90.344,94.333a2.725,2.725,0,0,1,.658.06,1.961,1.961,0,0,0,1.972-.794,6.682,6.682,0,0,0,.694-1.061,7.531,7.531,0,0,1-.648.616c-.387.257-.765.606-1.286.392a1.335,1.335,0,0,1-.878.532,3.551,3.551,0,0,1-1.335.279.686.686,0,0,0,.314.308c.066-.27.282-.313.51-.334" transform="translate(-48.974 -50.624)" fill="#7aa05b"/>
        <path id="Trazado_127466" data-name="Trazado 127466" d="M91.068,94.315c1.409.409,2.453-.406,3.149-2.06a1.2,1.2,0,0,0-.169.128,6.683,6.683,0,0,1-.694,1.061,1.961,1.961,0,0,1-1.972.794,2.724,2.724,0,0,0-.658-.06c-.227.022-.443.065-.51.334a.816.816,0,0,1,.854-.2" transform="translate(-49.353 -50.469)" fill="#7aa05b"/>
        <path id="Trazado_127467" data-name="Trazado 127467" d="M90.857,95.264a1.336,1.336,0,0,0,.878-.532c-.024-.01-.048-.015-.072-.027a1.978,1.978,0,0,1-.842.434c-.438.118-.867.268-1.3.4a3.544,3.544,0,0,0,1.336-.279" transform="translate(-48.974 -51.81)" fill="#7aa05b"/>
        <path id="Trazado_127468" data-name="Trazado 127468" d="M11.895,87.177a2.851,2.851,0,0,0,1.89,1.079.586.586,0,0,1,.06-.714.705.705,0,0,1,.793-.194,2.274,2.274,0,0,0,.686.175,1.045,1.045,0,0,0-1.226-.837c-.322.035-.634.145-.957.166a2.919,2.919,0,0,1-1.411-.141c-.123-.054-.249-.095-.175.129l0,.01c.163.042.235.212.336.327" transform="translate(-6.309 -47.413)" fill="#9fd871"/>
        <path id="Trazado_127469" data-name="Trazado 127469" d="M11.191,86.547l0-.01c-.073-.224.052-.183.175-.129a2.924,2.924,0,0,0,1.411.141c.323-.021.635-.132.957-.167a1.045,1.045,0,0,1,1.226.837,2.291,2.291,0,0,1-.686-.175.7.7,0,0,0-.793.194.586.586,0,0,0-.06.714c.036,0,.071.01.108.012a.529.529,0,0,1,.065-.7.607.607,0,0,1,.708-.083,2.9,2.9,0,0,0,.916.261,1.323,1.323,0,0,0-1.692-1.167,4.3,4.3,0,0,1-1.609.144,9.517,9.517,0,0,1-1.054-.308l.207.42a.288.288,0,0,1,.125.013" transform="translate(-5.941 -47.11)" fill="#9fd871"/>
        <path id="Trazado_127470" data-name="Trazado 127470" d="M11.927,87.4c-.1-.115-.173-.284-.336-.327.029.083.065.163.1.242a4.366,4.366,0,0,0,.648.661c.435.329.879.727,1.5.539-.008-.012-.014-.024-.021-.036a2.851,2.851,0,0,1-1.89-1.079" transform="translate(-6.341 -47.633)" fill="#9fd871"/>
        <path id="Trazado_127471" data-name="Trazado 127471" d="M11.441,87.052a.288.288,0,0,0-.125-.013c.077.082.151.168.226.255-.036-.08-.072-.159-.1-.242" transform="translate(-6.191 -47.614)" fill="#9fd871"/>
        <path id="Trazado_127472" data-name="Trazado 127472" d="M16.525,90.21c.029-.009.058-.012.088-.024-.037,0-.072-.009-.108-.013.007.012.012.024.02.037" transform="translate(-9.029 -49.33)" fill="#9fd871"/>
        <path id="Trazado_127473" data-name="Trazado 127473" d="M16.56,71.635a1.5,1.5,0,0,0,.884-1.925c-.326-1-1.02-1.827-1.366-2.9-.221.477-.389.864-.579,1.241s-.41.745-.609,1.12a1.937,1.937,0,0,0-.177,1.623,1.448,1.448,0,0,0,1.847.843" transform="translate(-7.99 -36.548)" fill="#83bbdd"/>
        <path id="Trazado_127474" data-name="Trazado 127474" d="M94.6,91.7c.068-.123.138-.245.194-.371-.058-.178-.109.034-.164.006a3.048,3.048,0,0,1-1.993.075,1.3,1.3,0,0,0-1.462.425.271.271,0,0,0-.074.245c.209.08.383-.061.569-.111.73-.194,1.055.094.94.837a2.162,2.162,0,0,0,1.481-.72c.144-.152.262-.38.509-.386" transform="translate(-49.834 -49.925)" fill="#9fd771"/>
        <path id="Trazado_127475" data-name="Trazado 127475" d="M91.41,91.893c-.186.049-.36.19-.569.111a.271.271,0,0,1,.074-.245,1.3,1.3,0,0,1,1.462-.426,3.048,3.048,0,0,0,1.993-.075c.054.028.106-.184.163-.005-.056.126-.126.249-.194.371a.448.448,0,0,1,.1.007l.2-.409c-.043-.088-.126-.1-.212-.107a3.366,3.366,0,0,1-2.189.053,1.234,1.234,0,0,0-1.623,1.075,2.369,2.369,0,0,0,.777-.211c.7-.235.952-.029.867.708.03,0,.057-.009.087-.011.115-.743-.21-1.031-.94-.837" transform="translate(-49.574 -49.846)" fill="#9fd771"/>
        <path id="Trazado_127476" data-name="Trazado 127476" d="M96.413,92.239c-.247.006-.365.234-.509.386a2.162,2.162,0,0,1-1.481.72c0,.008,0,.015,0,.024s-.009.009-.012.014c.52.214.9-.135,1.285-.392a7.54,7.54,0,0,0,.648-.617c.015-.031.034-.061.048-.093.008-.014.014-.029.022-.043" transform="translate(-51.648 -50.46)" fill="#9fd771"/>
        <path id="Trazado_127477" data-name="Trazado 127477" d="M98.726,92.281c-.015.032-.033.062-.048.093a1.187,1.187,0,0,1,.169-.128.45.45,0,0,0-.1-.007l-.022.043" transform="translate(-53.983 -50.46)" fill="#9fd771"/>
        <path id="Trazado_127478" data-name="Trazado 127478" d="M94.321,94.719c0-.006.009-.009.012-.015s0-.015,0-.023c-.03,0-.057.01-.087.011.025.013.048.017.072.027" transform="translate(-51.56 -51.796)" fill="#9fd771"/>
        <path id="Trazado_127479" data-name="Trazado 127479" d="M99.247,91.054c.071-.054.138-.149.072-.207-.119-.1-.2.022-.284.1.121-.065.218-.08.212.107" transform="translate(-54.178 -49.678)" fill="#799b5e"/>
        <path id="Trazado_127480" data-name="Trazado 127480" d="M99.247,91.168c.006-.187-.09-.172-.212-.107a.22.22,0,0,1,.212.107" transform="translate(-54.178 -49.792)" fill="#799b5e"/>
        <path id="Trazado_127481" data-name="Trazado 127481" d="M91.927,76.886a1.4,1.4,0,0,0,1.667-1.2,2.034,2.034,0,0,0-.344-1.311,17.921,17.921,0,0,1-1.039-2.1,14.585,14.585,0,0,1-.875,1.78,3.74,3.74,0,0,0-.452.97,1.419,1.419,0,0,0,1.044,1.858" transform="translate(-49.683 -39.541)" fill="#65a8cb"/>
      </g>
    </g>
    <g id="Grupo_156595" data-name="Grupo 156595" transform="translate(-6385.246 -6555.413)">
      <path id="Trazado_127053" data-name="Trazado 127053" d="M15.375,123.6c.416.093.513-.1.509-.492-.011-.974.006-.992,1.015-.986.375,0,.492-.114.485-.485-.007-.346-.07-.507-.469-.505-1.011,0-1.037-.017-1.026-1.026,0-.457-.219-.465-.558-.469s-.514.053-.514.459c0,1.022-.021,1.041-1.019,1.037-.386,0-.478.138-.479.5s.091.5.477.494c1.018-.006,1.042.013,1.02.978-.011.448.155.579.561.5" transform="translate(44.792 -83.878)" fill="#29c4bb"/>
      <path id="Trazado_127054" data-name="Trazado 127054" d="M213.5,151.159c-.373-.071-.579.052-.518.474.051.353-.071.55-.461.489s-.522.081-.525.492c0,.431.173.53.54.481.351-.047.462.105.455.455-.011.547.328.757.857.591.251-.079.2-.279.18-.437-.044-.432.055-.7.565-.611.395.067.419-.181.418-.484s-.013-.548-.414-.486c-.432.067-.636-.091-.564-.547.068-.436-.211-.455-.533-.417" transform="translate(-211.994 -104.948)" fill="#29c4bb"/>
      <path id="Trazado_127055" data-name="Trazado 127055" d="M207.478,69.132c-.1.416.094.558.484.492.422-.071.594.1.52.521s.1.5.5.507.558-.116.488-.511c-.075-.42.1-.594.518-.515s.471-.145.487-.509c.019-.427-.147-.539-.519-.474-.4.071-.555-.1-.487-.492.066-.378-.056-.531-.477-.516-.371.013-.586.066-.506.491s-.105.586-.52.516c-.39-.066-.58.074-.483.49" transform="translate(-204.437 -61.871)" fill="#010000"/>
      <path id="Trazado_127056" data-name="Trazado 127056" d="M51.8,186.5c-.091.388.1.53.488.46.455-.082.563.155.5.538-.072.426.134.493.509.49.358,0,.55-.083.475-.469-.1-.507.155-.631.591-.556s.427-.206.428-.513-.006-.549-.411-.47c-.544.108-.683-.154-.61-.641.07-.466-.285-.332-.522-.346s-.531-.047-.458.357c.09.5-.085.732-.614.63-.442-.085-.388.223-.375.519" transform="translate(-4.069 -127.272)" fill="#010000"/>
      <path id="Trazado_127057" data-name="Trazado 127057" d="M124.759,17.292c.1-.443-.141-.529-.5-.475s-.524-.1-.467-.47-.053-.539-.479-.53c-.392.008-.571.109-.5.512s-.121.547-.507.489c-.358-.054-.538.032-.54.47s.167.569.558.507c.413-.066.553.122.489.507-.072.432.16.482.524.49.389.008.516-.138.458-.495-.062-.391.082-.57.49-.5s.569-.1.48-.5" transform="translate(-94.9 -15.817)" fill="#29c4bb"/>
    </g>
  </g>
</svg>
