<svg xmlns="http://www.w3.org/2000/svg" xmlns:xlink="http://www.w3.org/1999/xlink" width="90.773" height="90.773" viewBox="0 0 90.773 90.773">
  <defs>
    <clipPath id="clip-path">
      <rect id="Rectángulo_37153" data-name="Rectángulo 37153" width="55.207" height="50.651" fill="none"/>
    </clipPath>
  </defs>
  <g id="_33" data-name="33" transform="translate(6399 6571.146)">
    <circle id="Elipse_4762" data-name="Elipse 4762" cx="45.387" cy="45.387" r="45.387" transform="translate(-6399 -6571.146)" fill="#b0c8cb"/>
    <g id="Grupo_156595" data-name="Grupo 156595" transform="translate(-6385.246 -6555.413)">
      <path id="Trazado_127053" data-name="Trazado 127053" d="M15.375,123.6c.416.093.513-.1.509-.492-.011-.974.006-.992,1.015-.986.375,0,.492-.114.485-.485-.007-.346-.07-.507-.469-.505-1.011,0-1.037-.017-1.026-1.026,0-.457-.219-.465-.558-.469s-.514.053-.514.459c0,1.022-.021,1.041-1.019,1.037-.386,0-.478.138-.479.5s.091.5.477.494c1.018-.006,1.042.013,1.02.978-.011.448.155.579.561.5" transform="translate(44.792 -83.878)" fill="#29c4bb"/>
      <path id="Trazado_127054" data-name="Trazado 127054" d="M213.5,151.159c-.373-.071-.579.052-.518.474.051.353-.071.55-.461.489s-.522.081-.525.492c0,.431.173.53.54.481.351-.047.462.105.455.455-.011.547.328.757.857.591.251-.079.2-.279.18-.437-.044-.432.055-.7.565-.611.395.067.419-.181.418-.484s-.013-.548-.414-.486c-.432.067-.636-.091-.564-.547.068-.436-.211-.455-.533-.417" transform="translate(-211.994 -104.948)" fill="#29c4bb"/>
      <path id="Trazado_127055" data-name="Trazado 127055" d="M207.478,69.132c-.1.416.094.558.484.492.422-.071.594.1.52.521s.1.5.5.507.558-.116.488-.511c-.075-.42.1-.594.518-.515s.471-.145.487-.509c.019-.427-.147-.539-.519-.474-.4.071-.555-.1-.487-.492.066-.378-.056-.531-.477-.516-.371.013-.586.066-.506.491s-.105.586-.52.516c-.39-.066-.58.074-.483.49" transform="translate(-204.437 -61.871)" fill="#010000"/>
      <path id="Trazado_127056" data-name="Trazado 127056" d="M51.8,186.5c-.091.388.1.53.488.46.455-.082.563.155.5.538-.072.426.134.493.509.49.358,0,.55-.083.475-.469-.1-.507.155-.631.591-.556s.427-.206.428-.513-.006-.549-.411-.47c-.544.108-.683-.154-.61-.641.07-.466-.285-.332-.522-.346s-.531-.047-.458.357c.09.5-.085.732-.614.63-.442-.085-.388.223-.375.519" transform="translate(-4.069 -127.272)" fill="#010000"/>
      <path id="Trazado_127057" data-name="Trazado 127057" d="M124.759,17.292c.1-.443-.141-.529-.5-.475s-.524-.1-.467-.47-.053-.539-.479-.53c-.392.008-.571.109-.5.512s-.121.547-.507.489c-.358-.054-.538.032-.54.47s.167.569.558.507c.413-.066.553.122.489.507-.072.432.16.482.524.49.389.008.516-.138.458-.495-.062-.391.082-.57.49-.5s.569-.1.48-.5" transform="translate(-94.9 -15.817)" fill="#29c4bb"/>
    </g>
    <g id="Grupo_156640" data-name="Grupo 156640" transform="translate(-6381 -6551.146)">
      <g id="Grupo_156640-2" data-name="Grupo 156640" clip-path="url(#clip-path)">
        <path id="Trazado_127522" data-name="Trazado 127522" d="M55.207,54.389a1.585,1.585,0,0,1-1.562.793q-26.015-.019-52.03,0A1.608,1.608,0,0,1,0,54.389V23.764a1.548,1.548,0,0,1,1.508-.793q26.069.02,52.138,0a1.586,1.586,0,0,1,1.561.8ZM2.4,52.819H52.823V25.34H2.4Z" transform="translate(0 -13.752)"/>
        <path id="Trazado_127523" data-name="Trazado 127523" d="M38.46,4.621h3.011q9.538,0,19.076,0a2.133,2.133,0,0,1,.785.125,1.114,1.114,0,0,1,.633,1.2A1.133,1.133,0,0,1,61,6.9a3.538,3.538,0,0,1-.484.024l-24.68-.006c-.126,0-.252,0-.377-.008a1.068,1.068,0,0,1-1-.7,1.043,1.043,0,0,1,.209-1.2c1.554-1.571,3.11-3.139,4.688-4.685a1.1,1.1,0,0,1,1.6.045,1.129,1.129,0,0,1-.006,1.6c-.655.691-1.337,1.355-2.018,2.021a6.916,6.916,0,0,1-.583.464l.114.165" transform="translate(-20.573 -0.001)"/>
        <path id="Trazado_127524" data-name="Trazado 127524" d="M58.045,111.27H35.914c-.126,0-.252,0-.377,0a1.153,1.153,0,0,1-1.136-1.132,1.108,1.108,0,0,1,1.107-1.149c.915-.031,1.831-.022,2.747-.022q10.666.01,21.332.029a11.738,11.738,0,0,1,1.555.116.963.963,0,0,1,.677,1.565,8.471,8.471,0,0,1-.953,1.095c-1.216,1.222-2.445,2.431-3.668,3.646-.32.318-.707.6-1.142.419a1.91,1.91,0,0,1-.877-.766,1.009,1.009,0,0,1,.306-1.217l2.56-2.58" transform="translate(-20.597 -65.241)"/>
        <path id="Trazado_127525" data-name="Trazado 127525" d="M5.974,28.88H56.4V56.359H5.974Zm25.264,2.194v-.006h-18c-1.189,0-1.535.307-1.68,1.475a2.221,2.221,0,0,1-2.027,1.97C8.513,34.6,8.113,35,8.112,36.019q-.008,6.6.01,13.2c0,1.022.4,1.421,1.416,1.5a2.207,2.207,0,0,1,1.994,1.879c.161,1.288.472,1.566,1.759,1.566l35.785-.008c1.252,0,1.567-.28,1.732-1.536a2.226,2.226,0,0,1,1.973-1.907c1.1-.1,1.444-.477,1.445-1.585,0-1.833-.006-3.665-.008-5.5,0-2.551.005-5.1,0-7.654,0-.984-.394-1.4-1.331-1.466A2.2,2.2,0,0,1,50.8,32.5c-.132-1.1-.5-1.422-1.614-1.422H31.238" transform="translate(-3.577 -17.292)" fill="#0d7300"/>
        <path id="Trazado_127526" data-name="Trazado 127526" d="M34.425,34.338H52.371c1.119,0,1.483.321,1.615,1.422a2.2,2.2,0,0,0,2.086,2.024c.938.07,1.328.482,1.331,1.466.01,2.551,0,5.1,0,7.654,0,1.832.011,3.665.008,5.5,0,1.108-.35,1.48-1.446,1.585A2.226,2.226,0,0,0,54,55.893c-.165,1.255-.48,1.536-1.732,1.536l-35.785.007c-1.288,0-1.6-.277-1.759-1.566a2.207,2.207,0,0,0-1.994-1.879c-1.021-.083-1.414-.482-1.416-1.5q-.016-6.6-.011-13.2c0-1.019.4-1.418,1.418-1.505a2.221,2.221,0,0,0,2.028-1.97c.144-1.168.492-1.475,1.68-1.475h18Zm-.019,2.422a9.124,9.124,0,1,0,9.081,8.755,9.1,9.1,0,0,0-9.081-8.755m7.035,18.282h4.736c1.742,0,3.484.005,5.225-.01a.517.517,0,0,0,.4-.227,4.76,4.76,0,0,1,3.212-3.059V40.011A4.58,4.58,0,0,1,51.925,37.2a.642.642,0,0,0-.738-.489c-3.07.016-6.141.009-9.211.01-.152,0-.3.013-.5.023a11.685,11.685,0,0,1-.029,18.3M13.713,40.01a1.9,1.9,0,0,0-.027.2c0,3.718.011,7.437,0,11.155,0,.335.159.419.412.513a4.427,4.427,0,0,1,2.724,2.655.648.648,0,0,0,.729.5c3.071-.014,6.143,0,9.214,0,.151,0,.3-.014.506-.023a11.675,11.675,0,0,1-.059-18.241c-.01-.013-.019-.037-.029-.037-3.3-.008-6.609-.017-9.913-.007a.509.509,0,0,0-.36.286,4.762,4.762,0,0,1-3.194,2.991" transform="translate(-6.764 -20.557)"/>
        <path id="Trazado_127527" data-name="Trazado 127527" d="M55.218,40.384a9.124,9.124,0,1,1-9.155,9.54,9.116,9.116,0,0,1,9.155-9.54M56.385,46.1v0c.754,0,1.509.01,2.263,0a1.211,1.211,0,0,0,1.2-1.085,1.174,1.174,0,0,0-.994-1.269,9.931,9.931,0,0,0-1.447-.069c-.977-.009-.976,0-1.01-.948a1.93,1.93,0,0,0-.018-.268,1.251,1.251,0,0,0-1.231-1.069,1.214,1.214,0,0,0-1.178,1.119,3.542,3.542,0,0,0-.01.7c.027.329-.1.48-.432.542a3.5,3.5,0,0,0-3.013,3.717,3.583,3.583,0,0,0,3.693,3.267c.719,0,1.437-.018,2.155,0a1.067,1.067,0,0,1,.241,2.1,2.383,2.383,0,0,1-.636.075c-1.419,0-2.838-.007-4.256,0a1.207,1.207,0,0,0-1.205,1.081,1.174,1.174,0,0,0,.989,1.272,9.258,9.258,0,0,0,1.394.07c1.02.009,1.02,0,1.069,1,0,.054,0,.108.008.161A1.257,1.257,0,0,0,55.2,57.618,1.24,1.24,0,0,0,56.386,56.5a3.481,3.481,0,0,0,.01-.7c-.027-.331.1-.478.435-.538a3.508,3.508,0,0,0,3.009-3.722A3.576,3.576,0,0,0,56.2,48.275c-.647,0-1.293.008-1.94.007-.832,0-1.313-.408-1.3-1.092.008-.661.519-1.085,1.331-1.093.7-.006,1.4,0,2.1,0" transform="translate(-27.576 -24.179)" fill="#0dd200"/>
        <path id="Trazado_127528" data-name="Trazado 127528" d="M86.422,58.591a11.685,11.685,0,0,0,.029-18.3c.2-.009.353-.022.5-.023,3.07,0,6.141.006,9.211-.01a.642.642,0,0,1,.738.488A4.58,4.58,0,0,0,100,43.56V55.295a4.761,4.761,0,0,0-3.212,3.059.517.517,0,0,1-.4.227c-1.741.015-3.483.01-5.225.01H86.422m10.195-9.152a1.167,1.167,0,1,0-1.163,1.176,1.186,1.186,0,0,0,1.163-1.176" transform="translate(-51.745 -24.105)" fill="#0dac00"/>
        <path id="Trazado_127529" data-name="Trazado 127529" d="M17.273,43.585a4.76,4.76,0,0,0,3.194-2.991.51.51,0,0,1,.36-.286c3.3-.01,6.609,0,9.913.007.01,0,.019.024.029.037a11.675,11.675,0,0,0,.059,18.241c-.2.01-.354.023-.506.023-3.072,0-6.143-.016-9.214,0a.648.648,0,0,1-.729-.5,4.427,4.427,0,0,0-2.724-2.655c-.253-.093-.413-.178-.412-.513.012-3.718,0-7.437,0-11.155a1.89,1.89,0,0,1,.026-.2m3.376,5.886a1.219,1.219,0,0,0,1.21,1.186,1.2,1.2,0,0,0,1.171-1.165,1.191,1.191,0,1,0-2.381-.02" transform="translate(-10.325 -24.132)" fill="#0dac00"/>
        <path id="Trazado_127530" data-name="Trazado 127530" d="M63.021,47.6c-.7,0-1.4-.005-2.1,0-.812.008-1.322.432-1.331,1.093-.008.684.473,1.09,1.3,1.092.646,0,1.293-.009,1.94-.007a3.576,3.576,0,0,1,3.643,3.261,3.508,3.508,0,0,1-3.009,3.722c-.335.061-.462.207-.435.538a3.482,3.482,0,0,1-.01.7,1.24,1.24,0,0,1-1.182,1.122A1.257,1.257,0,0,1,60.6,57.99c-.007-.053-.006-.108-.008-.161-.049-.994-.049-.987-1.069-1a9.259,9.259,0,0,1-1.394-.07,1.174,1.174,0,0,1-.989-1.272,1.207,1.207,0,0,1,1.205-1.081c1.419-.009,2.838,0,4.257,0a2.383,2.383,0,0,0,.636-.075,1.067,1.067,0,0,0-.241-2.1c-.718-.018-1.436,0-2.155,0a3.583,3.583,0,0,1-3.693-3.267,3.5,3.5,0,0,1,3.013-3.717c.336-.062.459-.213.432-.542a3.542,3.542,0,0,1,.01-.7,1.214,1.214,0,0,1,1.178-1.119,1.251,1.251,0,0,1,1.231,1.069,1.931,1.931,0,0,1,.018.268c.033.945.033.939,1.01.948a9.932,9.932,0,0,1,1.447.069,1.174,1.174,0,0,1,.994,1.269,1.211,1.211,0,0,1-1.2,1.085c-.754.013-1.509,0-2.263,0v0" transform="translate(-34.212 -25.678)"/>
        <path id="Trazado_127531" data-name="Trazado 127531" d="M108.347,61.352a1.167,1.167,0,1,1-1.141-1.2,1.189,1.189,0,0,1,1.141,1.2" transform="translate(-63.475 -36.018)"/>
        <path id="Trazado_127532" data-name="Trazado 127532" d="M25.73,61.355a1.191,1.191,0,1,1,2.381.02,1.2,1.2,0,0,1-1.171,1.165,1.219,1.219,0,0,1-1.21-1.186" transform="translate(-15.406 -36.016)"/>
      </g>
    </g>
  </g>
</svg>
