<svg xmlns="http://www.w3.org/2000/svg" width="70" height="85" viewBox="0 0 70 85">
  <g id="_4" data-name="4" transform="translate(-851 -1744)">
    <g id="Grupo_156314" data-name="Grupo 156314" transform="translate(311 37)">
      <rect id="Rectángulo_36766" data-name="Rectángulo 36766" width="70" height="85" rx="12" transform="translate(540 1707)" fill="#1169e3"/>
    </g>
    <g id="Grupo_156572" data-name="Grupo 156572" transform="translate(861 1760)">
      <g id="Grupo_156573" data-name="Grupo 156573">
        <path id="Trazado_126939" data-name="Trazado 126939" d="M41.329,13.614a.564.564,0,0,1,.638-.489c.977.005,1.954-.021,2.93.01a2.523,2.523,0,0,1,2.477,2.579c.019.711,0,1.423,0,2.135q0,10.354-.01,20.708c0,.43.089.6.539.544a5.794,5.794,0,0,1,.992,0,1.453,1.453,0,0,1,1.451,1.361,13.618,13.618,0,0,1-.044,2.775,3.465,3.465,0,0,1-3.387,2.973c-1.059.024-2.119.007-3.178.007q-15.669,0-31.338,0c-.4,0-.779,0-.865-.511-.055-.419.235-.547.552-.626a3.665,3.665,0,0,1,.891-.041q16.807,0,33.614,0a2.378,2.378,0,0,0,2.623-2.319c.046-.611.02-1.224.013-1.836a.528.528,0,0,0-.614-.6c-.182.005-.364,0-.546,0H33.075c-.132,0-.265,0-.4,0-.548.015-.594.06-.609.6-.006.215,0,.431-.015.645a1.669,1.669,0,0,1-1.767,1.634q-5.089.012-10.178,0A1.618,1.618,0,0,1,18.347,41.4c-.017-1.2.109-1.109-1.145-1.11q-7.5,0-14.994,0c-1.019,0-1.031.013-1.032,1.016,0,.447,0,.894,0,1.34a2.3,2.3,0,0,0,2.371,2.392c1.324.015,2.648,0,3.972.005a1.552,1.552,0,0,1,.73.111c.245.127.465.28.336.617a.532.532,0,0,1-.61.448c-1.54-.008-3.08.023-4.619-.017A3.461,3.461,0,0,1,.018,42.853c-.024-.761-.02-1.523,0-2.284a1.45,1.45,0,0,1,1.343-1.46A11.189,11.189,0,0,1,2.7,39.086c.241.006.333-.075.305-.313a2.947,2.947,0,0,1,0-.347c0-7.482.026-14.965-.02-22.447a2.718,2.718,0,0,1,2.867-2.868c3.393.052,6.788.007,10.181.026.407,0,.464-.108.373-.465-.171-.672-.337-1.348-.449-2.031-.055-.338-.207-.381-.495-.379-1.275.01-2.55.018-3.824-.008a1.619,1.619,0,0,1-1.524-1.21A1.7,1.7,0,0,1,10.755,7.2a1.872,1.872,0,0,1,1.124-.325c1.208,0,2.417.013,3.625-.006a.689.689,0,0,1,.785.637c.194.955.425,1.9.606,2.86.057.3.186.362.461.359,1.01-.014,2.02-.016,3.029,0,.3,0,.4-.063.4-.381q-.025-2.458,0-4.916c0-.32-.1-.393-.394-.377-.413.023-.828.014-1.241,0a.843.843,0,0,1-.937-.915q-.016-1.614,0-3.228a.82.82,0,0,1,.889-.9q2.334-.014,4.669,0c.58,0,.837.267.909.882a1.592,1.592,0,0,0,1.283,1.5A1.51,1.51,0,0,0,27.571,1.5a2.47,2.47,0,0,0,.145-.725.779.779,0,0,1,.816-.764q2.409-.018,4.818,0a.791.791,0,0,1,.818.824q.032,1.688,0,3.377a.827.827,0,0,1-.91.843c-.447.012-.894.015-1.341,0-.236-.009-.309.06-.308.3.01,1.689.012,3.377,0,5.065,0,.3.14.3.362.3q1.813-.01,3.626,0c.61,0,.777.21.655.8-.024.113-.053.225-.074.339-.075.415-.4.975-.181,1.2s.812.057,1.24.079.972-.168,1.141.487c.124.391-.149.5-.428.6a14.088,14.088,0,0,1-1.585.025c-.4,0-.638.119-.677.536a1.785,1.785,0,0,1-.056.241c-.223.938-.223.938.758.925,2.334-.027,4.667-.017,7-.006.831,0,1.1.286,1.1,1.117q.007,9.555,0,19.11c0,.864-.187,1.045-1.06,1.046q-18.243,0-36.487,0c-.911,0-1.112-.2-1.114-1.111q-.01-4.517,0-9.034c0-.723.153-.914.738-1.013.48.129.57.5.573.926.007,1.059,0,2.119,0,3.178,0,1.688,0,3.377,0,5.065,0,.641.034.673.675.673q17.332,0,34.665,0c.659,0,.691-.036.691-.712q0-8.641,0-17.281a1.847,1.847,0,0,0-.042-.491c-.1-.21-.291-.186-.472-.186-2.283,0-4.567-.013-6.85.009-.621.006-.664.047-.8.644q-.388,1.744-.759,3.492c-.168.788-.335.926-1.144.927q-6.4,0-12.807.005c-.237,0-.556-.11-.686.146a1.593,1.593,0,0,0-.033,1.022c.033.172.189.153.322.151A3.151,3.151,0,0,1,23.087,25.7a.583.583,0,0,0,.615.387c1.291,0,2.582-.016,3.872.005.434.007.541-.255.684-.574a3.077,3.077,0,0,1,5.6-.161,3.078,3.078,0,1,1-5.578,2.6.839.839,0,0,0-.923-.6c-1.191.03-2.383.019-3.574,0a.691.691,0,0,0-.749.484,3.089,3.089,0,0,1-4.868,1.237,2.941,2.941,0,0,1-.608-3.937,4.055,4.055,0,0,0,.615-3.42c-.179-1.342-.563-2.653-.83-3.983-.084-.419-.328-.512-.706-.513-2.267-.008-4.534,0-6.8,0q-1.092,0-2.184,0c-.178,0-.374-.036-.475.177a20.677,20.677,0,0,0-.04,2.275c-.014.924.005,1.848-.008,2.772-.006.387-.092.73-.55.817-.461.037-.657-.231-.728-.637a2.861,2.861,0,0,1-.026-.495c0-1.7-.006-3.405,0-5.107,0-.8.271-1.083,1.075-1.085,3.124-.009,6.248-.025,9.371.006.633-.045.65-.067.517-.681-.219-1.019-.219-1.02-1.251-1.02H5.907a1.615,1.615,0,0,0-.731.1,1.538,1.538,0,0,0-1.023,1.634q.016,6.7.005,13.4,0,4.418,0,8.836c0,.733.024.759.746.76q20.28,0,40.559,0c.753,0,.788-.034.788-.779q0-10.971,0-21.941a4.169,4.169,0,0,0-.026-.545,1.456,1.456,0,0,0-1.541-1.433c-.81-.036-1.621-.006-2.432-.013a1.683,1.683,0,0,1-.59-.059c-.268-.1-.472-.255-.336-.593" transform="translate(0 0)"/>
        <path id="Trazado_126940" data-name="Trazado 126940" d="M30.719,65.372c-.594.01-1.188.027-1.782.028q-3.843,0-7.687,0c-.742,0-.856.117-.857.865,0,1.818,0,3.636,0,5.455,0,.423.107.718.592.727a1.012,1.012,0,0,1,.093.882.131.131,0,0,1-.021.044c-.567.573-.567.573.022,1.128a1,1,0,0,1-.1.906c-.42.047-.588.28-.586.7.008,3.178,0,6.356.006,9.535,0,.564.137.7.708.7q18.475,0,36.95,0c.61,0,.71-.1.71-.739q0-9.708,0-19.417c0-.655-.128-.784-.784-.785q-3.377,0-6.754,0c-.181,0-.363-.014-.544-.022a2.745,2.745,0,0,1,.268-1.8c.054-.151.239-.142.392-.148a5.251,5.251,0,0,0,1.03-.035.607.607,0,0,0,.408-.505l.965,0c.467.472.5.472,1.023,0h.965c.049.39.289.513.657.509.894-.011,1.788-.007,2.681,0a1.563,1.563,0,0,1,1.715,1.688q.008,11.445.008,22.889c0,.293-.07.442-.385.4a1.859,1.859,0,0,0-.248,0q-20.582,0-41.165.013c-.512,0-.615-.134-.614-.624q.025-11.321.012-22.641a1.493,1.493,0,0,1,1.18-1.65,1.093,1.093,0,0,1,.441-.034c3.273,0,6.547.01,9.82-.013.469,0,.672.166.723.592.055.452.314.881.16,1.358" transform="translate(-14.403 -49.276)" fill="#29c4bb"/>
        <path id="Trazado_126941" data-name="Trazado 126941" d="M12.2,190.829c-.037-.457-.342-.551-.73-.55q-2.061.005-4.122,0a2.519,2.519,0,0,1-2.733-2.709c0-.546,0-1.092,0-1.639,0-.675.1-.781.777-.781q4.916,0,9.832,0c2.086,0,4.171.014,6.257-.011.475-.006.714.076.63.61a4.659,4.659,0,0,0-.006.843,1.465,1.465,0,0,0,1.461,1.5c.877.026,1.754.011,2.632.011q3.749,0,7.5,0c1.248,0,1.808-.57,1.811-1.825,0-1.127,0-1.127,1.129-1.127H52.078c.825,0,.915.09.916.906q0,.695,0,1.39a2.568,2.568,0,0,1-2.823,2.834q-17.057,0-34.114,0c-.4,0-.776.006-.9.489a3.175,3.175,0,0,0-.965.065c-.468-.477-.468-.477-1.023-.065a3.329,3.329,0,0,0-.964.062" transform="translate(-3.614 -145.06)" fill="#29c4bb"/>
        <path id="Trazado_126942" data-name="Trazado 126942" d="M166.869,16.284a.491.491,0,0,1-.494-.466A2.075,2.075,0,0,0,164.851,14a.482.482,0,0,1-.371-.473.488.488,0,0,1,.408-.5,1.966,1.966,0,0,0,1.445-1.651c.074-.3.15-.6.525-.619.411-.016.5.315.573.626a1.968,1.968,0,0,0,1.447,1.648.5.5,0,0,1,.01.968,2.011,2.011,0,0,0-1.468,1.692c-.066.293-.155.592-.551.59" transform="translate(-128.873 -8.43)"/>
        <path id="Trazado_126943" data-name="Trazado 126943" d="M182.753,61.159c-.063.28-.19.5-.518.5s-.463-.206-.505-.5a.506.506,0,0,1,.483-.478c.311-.015.465.2.539.479" transform="translate(-142.389 -47.544)" fill="#050606"/>
        <path id="Trazado_126944" data-name="Trazado 126944" d="M44.111,209.435c.084-.274.238-.493.551-.469a.5.5,0,0,1,.473.534.486.486,0,0,1-.51.439c-.331,0-.447-.229-.514-.5" transform="translate(-34.562 -163.727)" fill="#050707"/>
        <path id="Trazado_126945" data-name="Trazado 126945" d="M30.358,88.126l.005-.971c.357-.34.247-.679,0-1.017q0-.486.005-.971c.35-.106.41-.368.409-.694,0-1.761.01-3.522.017-5.283.131-.107.287-.055.43-.055,2.88,0,5.76.007,8.639-.013a.612.612,0,0,1,.714.564c.247,1.25.574,2.484.8,3.738a10.919,10.919,0,0,1,.038,2.377,1.586,1.586,0,0,1-.4.786,3.7,3.7,0,0,0,1.922,5.653,3.642,3.642,0,0,0,4.292-1.72.94.94,0,0,1,.946-.56q1.315.028,2.631,0a.954.954,0,0,1,.949.557,3.643,3.643,0,0,0,5.228,1.278,3.7,3.7,0,0,0-.1-6.245c-.215-.132-.631-.21-.552-.477.085-.284.493-.165.763-.169.972-.016,1.343-.3,1.562-1.24.306-1.305.564-2.621.868-3.926.139-.6.147-.6.754-.6q3.178,0,6.355,0a.86.86,0,0,1,.485.047c.012.164.035.327.035.491,0,5.958,0,11.916.013,17.874,0,.441-.109.535-.54.535q-17.676-.019-35.353,0c-.409,0-.518-.09-.515-.509.021-2.9.006-5.792.017-8.689a.7.7,0,0,0-.418-.757" transform="translate(-23.786 -61.994)" fill="#b0c8cb"/>
        <path id="Trazado_126946" data-name="Trazado 126946" d="M91.255,13.216q-.01-2.233-.02-4.467c0-.83-.272-1.1-1.1-1.105-.381,0-.762-.015-1.142,0-.266.014-.339-.086-.335-.341q.02-1.216,0-2.433c0-.247.09-.3.318-.3,1.291.008,2.582.016,3.873,0,.365-.006.328.237.377.449a2.524,2.524,0,0,0,1.986,1.925,2.447,2.447,0,0,0,2.508-1.056A1.774,1.774,0,0,0,98.1,4.98c.022-.359.194-.414.509-.41q1.812.024,3.625,0c.3,0,.443.05.431.4-.027.777-.017,1.556,0,2.333,0,.255-.073.355-.338.344-.43-.017-.861-.011-1.291,0a.834.834,0,0,0-.938.953c-.011,1.539-.013,3.078-.018,4.616a.839.839,0,0,1-.652.162q-3.755.007-7.511,0a.868.868,0,0,1-.654-.161" transform="translate(-69.468 -3.58)" fill="#d7e4f6"/>
        <path id="Trazado_126947" data-name="Trazado 126947" d="M68.682,79c-2.285,0-4.569.016-6.854,0-.373,0-.521.117-.593.469-.29,1.421-.6,2.839-.908,4.256a1.378,1.378,0,0,1-1.415,1.141c-.314,0-.627,0-1.056,0,.383.271.732.408,1.026.635a3.835,3.835,0,1,1-5.753,4.8.559.559,0,0,0-.6-.383c-.976.021-1.954.019-2.93,0a.567.567,0,0,0-.612.362,3.824,3.824,0,1,1-6.415-4.1,1.513,1.513,0,0,0,.3-.857,18.362,18.362,0,0,0-.765-5.22c-.226-1.1-.245-1.093-1.365-1.093H32.354c.112-.193.3-.093.443-.093,3.144,0,6.288.015,9.432.007.364,0,.511.094.584.467.251,1.28.568,2.547.821,3.827a17.167,17.167,0,0,1,.078,2.822c.006.174-.127.255-.23.361a2.922,2.922,0,0,0-.653,3.331A2.977,2.977,0,0,0,45.6,91.482a2.927,2.927,0,0,0,2.739-2.138.387.387,0,0,1,.444-.326q2.209.021,4.418,0c.263,0,.35.085.429.336A2.91,2.91,0,0,0,56.92,91.43,2.945,2.945,0,0,0,56.8,85.6a2.911,2.911,0,0,0-3.146,2.026.49.49,0,0,1-.576.417c-1.423-.021-2.846-.017-4.269,0a.412.412,0,0,1-.481-.343,2.869,2.869,0,0,0-3.287-2.064c-.276.038-.332-.037-.343-.3-.056-1.353-.063-1.353,1.266-1.353h12.56c.713,0,.766-.049.917-.75.281-1.308.574-2.613.847-3.923.055-.265.136-.387.443-.387,2.548.007,5.1-.006,7.644-.01.1,0,.237-.058.305.086" transform="translate(-25.35 -61.81)" fill="#b0c8cb"/>
        <path id="Trazado_126948" data-name="Trazado 126948" d="M108.09,54.073c1.059,0,2.118.011,3.177-.007.315-.005.383.073.337.387-.168,1.145-.311,2.293-.449,3.442-.038.315-.152.433-.494.429q-2.606-.029-5.213,0c-.375,0-.476-.134-.515-.471-.127-1.117-.252-2.235-.439-3.343-.074-.435.081-.449.418-.444,1.059.015,2.118.006,3.177.006" transform="translate(-81.86 -42.362)" fill="#fee734"/>
        <path id="Trazado_126949" data-name="Trazado 126949" d="M110.581,78.269c.828,0,1.656.008,2.483,0,.269,0,.381.042.335.355-.172,1.178-.322,2.359-.465,3.541-.032.267-.139.347-.408.345q-1.986-.021-3.973,0c-.263,0-.387-.068-.421-.342-.147-1.2-.3-2.4-.473-3.59-.05-.337.136-.3.339-.3h2.582" transform="translate(-84.347 -61.322)" fill="#fee734"/>
        <path id="Trazado_126950" data-name="Trazado 126950" d="M95.665,185.165c1.769,0,3.538.009,5.307-.007.35,0,.442.107.442.449,0,1.62.053,1.522-1.505,1.519q-4.514-.008-9.027,0c-.818,0-.89-.072-.892-.866,0-1.093,0-1.093,1.112-1.093h4.563" transform="translate(-70.509 -145.075)" fill="#aeaeae"/>
        <path id="Trazado_126951" data-name="Trazado 126951" d="M81.791,54.078c.6,0,1.192.013,1.787-.006.26-.008.38.057.413.335q.216,1.8.47,3.589c.033.234-.007.331-.265.329q-1.713-.014-3.425,0c-.233,0-.316-.092-.36-.3-.262-1.227-.525-2.455-.8-3.678-.058-.255.052-.274.248-.272.645.005,1.291,0,1.936,0" transform="translate(-62.361 -42.366)" fill="#fee734"/>
        <path id="Trazado_126952" data-name="Trazado 126952" d="M144.707,54.088c-.3,1.349-.587,2.648-.861,3.951-.047.224-.138.3-.359.295-1.139-.008-2.278-.006-3.417,0-.224,0-.321-.042-.282-.31.171-1.191.316-2.386.476-3.58.023-.173.02-.361.3-.359,1.368.009,2.736,0,4.146,0" transform="translate(-109.521 -42.376)" fill="#fee734"/>
        <path id="Trazado_126953" data-name="Trazado 126953" d="M86.871,78.26c.528,0,1.057.008,1.585,0,.228-.005.363.032.4.3q.225,1.842.484,3.68c.03.213-.046.256-.231.255-1.024,0-2.048-.006-3.071,0-.213,0-.273-.1-.313-.288q-.377-1.791-.781-3.575c-.06-.267-.019-.389.3-.376.544.023,1.09.006,1.635.006" transform="translate(-66.534 -61.313)" fill="#fee734"/>
        <path id="Trazado_126954" data-name="Trazado 126954" d="M139.089,78.256c.528,0,1.057.009,1.584,0,.25-.006.372.047.308.332q-.4,1.808-.788,3.622c-.048.225-.161.286-.377.284q-1.486-.013-2.971,0c-.223,0-.317-.034-.277-.3.171-1.174.322-2.352.464-3.531.037-.3.154-.421.472-.405.527.026,1.056.007,1.584.007" transform="translate(-106.998 -61.308)" fill="#fee734"/>
        <path id="Trazado_126955" data-name="Trazado 126955" d="M138.508,116.366a1.959,1.959,0,1,1-1.894-2.024,1.975,1.975,0,0,1,1.894,2.024" transform="translate(-105.455 -89.588)" fill="#eee"/>
        <path id="Trazado_126956" data-name="Trazado 126956" d="M88.024,116.28a1.957,1.957,0,1,1-1.974-1.945,1.972,1.972,0,0,1,1.974,1.945" transform="translate(-65.902 -89.584)" fill="#eee"/>
        <path id="Trazado_126957" data-name="Trazado 126957" d="M100.576,44.509h8.816c.058,1.085.058,1.085-1.007,1.085q-3.6,0-7.2,0c-.707,0-.623.094-.63-.637,0-.148.012-.3.019-.445" transform="translate(-78.789 -34.873)" fill="#b0c8cb"/>
        <path id="Trazado_126958" data-name="Trazado 126958" d="M53.493,37.73c-.578,0-1.156.011-1.734,0a.666.666,0,0,1-.742-.684.689.689,0,0,1,.732-.708c1.09-.018,2.18,0,3.27-.012.228,0,.313.088.369.3.3,1.114.3,1.112-.854,1.112h-1.04Z" transform="translate(-39.973 -28.46)" fill="#aeaeae"/>
        <path id="Trazado_126959" data-name="Trazado 126959" d="M35.033,67.147c-.1-.448-.219-.893-.3-1.344-.071-.388-.215-.562-.67-.559-3.242.025-6.485.014-9.727.013-.149,0-.3-.009-.446-.013a.781.781,0,0,1,.526-.082c3.521,0,7.043.011,10.565,0,.365,0,.493.124.544.451a6.149,6.149,0,0,0,.226,1.064c.155.45-.008.562-.421.5-.1-.014-.2-.019-.295-.028" transform="translate(-18.718 -51.051)" fill="#29c4bb"/>
        <path id="Trazado_126960" data-name="Trazado 126960" d="M165.856,65.192c-.31.173-.645.066-.967.08-.253.011-.392.08-.434.355-.078.518-.191,1.032-.289,1.547-1.05.07-1.05.07-.821-.947s.23-1.028,1.28-1.044c.41-.006.821.005,1.231.009" transform="translate(-127.888 -51.071)" fill="#4aa4c6"/>
        <path id="Trazado_126961" data-name="Trazado 126961" d="M28.285,111.532c.57.371.572.692,0,1.017-.318-.005-.562-.133-.577-.473-.016-.37.249-.5.573-.544" transform="translate(-21.713 -87.388)" fill="#050708"/>
        <path id="Trazado_126964" data-name="Trazado 126964" d="M172.214,20.669a4.669,4.669,0,0,0,.712-.812.487.487,0,0,1,.082.063c.2.253.563.517.549.759s-.392.485-.619.736c-.115-.131-.228-.271-.352-.4s-.24-.223-.372-.345" transform="translate(-134.933 -15.558)" fill="#1169e3"/>
        <path id="Trazado_126965" data-name="Trazado 126965" d="M64.519,101.64H49.873c-.1,0-.2-.005-.3,0-.376.025-.71-.1-.707-.5s.344-.5.717-.5q11.121.007,22.242,0c2.284,0,4.568-.014,6.851.011.475.005.571-.15.569-.59q-.022-7-.007-14a.846.846,0,0,1,.073-.53.5.5,0,0,1,.482-.189.347.347,0,0,1,.352.283,1.824,1.824,0,0,1,.086.584q0,7.273,0,14.546c0,.717-.162.877-.868.877H64.519" transform="translate(-38.289 -66.873)" fill="#b0c8cb"/>
        <path id="Trazado_126966" data-name="Trazado 126966" d="M51.689,96.573A.494.494,0,0,1,51.2,96.1a2.076,2.076,0,0,0-1.527-1.816.479.479,0,0,1-.366-.476.463.463,0,0,1,.367-.474,2.032,2.032,0,0,0,1.508-1.77c.061-.278.188-.511.507-.52.35-.01.479.245.544.536a2.053,2.053,0,0,0,1.521,1.763.445.445,0,0,1,.339.487.44.44,0,0,1-.336.442,2.092,2.092,0,0,0-1.54,1.807c-.062.28-.2.492-.528.491" transform="translate(-38.634 -71.338)"/>
        <path id="Trazado_126967" data-name="Trazado 126967" d="M37.786,156.978c-.48.044-.844-.061-.844-.487s.371-.523.753-.5a2.644,2.644,0,0,1,.392.017.461.461,0,0,1,.424.507c-.01.3-.2.4-.428.454a1.021,1.021,0,0,1-.3.005" transform="translate(-28.945 -122.222)" fill="#b0c8cb"/>
        <path id="Trazado_126968" data-name="Trazado 126968" d="M108.313,106.593a4.69,4.69,0,0,0-1.737,1.379c-.027.041-.077.074-.089.118-.2.754-.747.811-1.409.77-.79-.05-1.586-.009-2.379-.014-.157,0-.349.059-.437-.141a4.268,4.268,0,0,0-2.069-2.112Z" transform="translate(-78.503 -83.518)" fill="#b0c8cb"/>
        <path id="Trazado_126969" data-name="Trazado 126969" d="M142.379,121.282c-.012.352-.152.607-.513.607-.33,0-.482-.222-.488-.552s.1-.6.473-.614.5.24.528.56" transform="translate(-110.772 -94.588)" fill="#050505"/>
        <path id="Trazado_126970" data-name="Trazado 126970" d="M91.892,121.272c-.011.352-.145.611-.507.615-.331,0-.486-.215-.494-.546s.1-.6.466-.621.507.235.535.552" transform="translate(-71.215 -94.585)" fill="#050505"/>
        <path id="Trazado_126971" data-name="Trazado 126971" d="M56.968,101.038a4.134,4.134,0,0,0,.69-.772c.1-.073.115,0,.129.031.135.3.594.463.538.754-.048.25-.412.44-.585.761a4.345,4.345,0,0,0-.771-.773" transform="translate(-44.636 -78.536)" fill="#1169e3"/>
      </g>
      <path id="Trazado_126972" data-name="Trazado 126972" d="M219.54,132.772c.395-.075.614.055.549.5-.055.374.075.583.489.518s.553.086.557.521c0,.457-.183.562-.573.51-.372-.05-.49.112-.483.482.012.58-.347.8-.908.627-.266-.083-.208-.3-.191-.464.047-.458-.058-.739-.6-.647-.419.071-.444-.191-.443-.513s.014-.581.438-.515c.458.071.674-.1.6-.58-.073-.462.224-.482.565-.441" transform="translate(-177.953 -124.764)"/>
      <path id="Trazado_126974" data-name="Trazado 126974" d="M219.54,132.772c.395-.075.614.055.549.5-.055.374.075.583.489.518s.553.086.557.521c0,.457-.183.562-.573.51-.372-.05-.49.112-.483.482.012.58-.347.8-.908.627-.266-.083-.208-.3-.191-.464.047-.458-.058-.739-.6-.647-.419.071-.444-.191-.443-.513s.014-.581.438-.515c.458.071.674-.1.6-.58-.073-.462.224-.482.565-.441" transform="translate(-210.868 -82.764)"/>
      <path id="Trazado_126973" data-name="Trazado 126973" d="M2.041,77.938c.5-.1.781.07.7.64-.069.477.1.742.623.66s.705.109.709.664c0,.582-.234.716-.729.649-.473-.064-.624.142-.615.613.015.738-.442,1.022-1.156.8-.339-.106-.265-.377-.243-.59.059-.583-.074-.941-.763-.824C.032,80.639,0,80.3,0,79.9s.017-.74.558-.656c.583.09.859-.123.762-.739-.092-.588.285-.614.72-.562" transform="translate(3 -73.049)" fill="#29c4bb"/>
      <path id="Trazado_126975" data-name="Trazado 126975" d="M2.041,77.938c.5-.1.781.07.7.64-.069.477.1.742.623.66s.705.109.709.664c0,.582-.234.716-.729.649-.473-.064-.624.142-.615.613.015.738-.442,1.022-1.156.8-.339-.106-.265-.377-.243-.59.059-.583-.074-.941-.763-.824C.032,80.639,0,80.3,0,79.9s.017-.74.558-.656c.583.09.859-.123.762-.739-.092-.588.285-.614.72-.562" transform="translate(41.583 -29.987)" fill="#29c4bb"/>
    </g>
  </g>
</svg>
