<svg xmlns="http://www.w3.org/2000/svg" width="108" height="131" viewBox="0 0 108 131">
  <g id="_44" data-name="44" transform="translate(-861 -1421)">
    <g id="Grupo_156744" data-name="Grupo 156744" transform="translate(691 -302)">
      <g id="Grupo_156723" data-name="Grupo 156723" transform="translate(170 1723)">
        <rect id="Rectángulo_36766" data-name="Rectángulo 36766" width="108" height="131" rx="12" fill="#1169e3"/>
      </g>
      <g id="Grupo_156739" data-name="Grupo 156739" transform="translate(2.139 -0.256)">
        <g id="Grupo_156737" data-name="Grupo 156737" transform="translate(180.8 1750.941)">
          <g id="Grupo_156738" data-name="Grupo 156738" transform="translate(0 0)">
            <path id="Trazado_127680" data-name="Trazado 127680" d="M50.334,35.3c.919.515,1.245.461,2-.307a19.529,19.529,0,0,0,3.727-5.257.785.785,0,0,1,.883-.544,3.625,3.625,0,0,0,3.611-2.42c.061-.156-.006-.387.226-.463V24.725a4.221,4.221,0,0,0-2.347-2.676c-.358-.142-.208-.447-.2-.682a20.26,20.26,0,0,0-2.195-9.99C52.766,5.133,47.661,1.277,40.683.242a20.363,20.363,0,0,0-21.532,11.2c-.086.168-.069.661-.468.4a.73.73,0,0,1-.363-1.035A3.629,3.629,0,0,0,16.234,5.9a3.541,3.541,0,0,0-3.813.75,3.485,3.485,0,0,0-1.035,3.736.83.83,0,0,1-.265.954Q8.416,14,5.754,16.71A.944.944,0,0,1,4.669,17,3.687,3.687,0,0,0,.092,19.789,3.756,3.756,0,0,0,2.866,24.2a3.738,3.738,0,0,0,4.5-2.844,3.264,3.264,0,0,0-.156-2.015.738.738,0,0,1,.187-.954q2.712-2.656,5.371-5.365a.666.666,0,0,1,.884-.183,3,3,0,0,0,2.086.143c.473-.135.689.053,1.019.3a2.223,2.223,0,0,1,.831,2.676A20.538,20.538,0,0,0,32.545,40.53a20.273,20.273,0,0,0,14.985-1.885c.907-.486,1.034-.767.84-1.781-.27-.749-.833-.967-1.7-.623-1.273.5-2.481,1.155-3.8,1.553a17.526,17.526,0,0,1-12.854-.909,17.764,17.764,0,0,1-8.717-8.695,16.221,16.221,0,0,1-1.621-6.548,17.052,17.052,0,0,1,.315-4.6c.229,0,.3.165.411.271,2.349,2.347,4.691,4.7,7.052,7.036a1.505,1.505,0,0,1,.5,1.47,3.923,3.923,0,0,0,3.365,4.322,3.855,3.855,0,0,0,4.348-3.59,2.472,2.472,0,0,0-.014-.787c-.3-.969.205-1.566.844-2.189,2.055-2.007,4.078-4.047,6.1-6.09a1.222,1.222,0,0,1,1.4-.4,2.758,2.758,0,0,0,1.716-.018,1.017,1.017,0,0,1,1.144.271q3.067,3.083,6.149,6.15a.98.98,0,0,1,.276,1.071,3.526,3.526,0,0,0,.4,2.892,1.264,1.264,0,0,1,.006,1.4,21.321,21.321,0,0,1-3.09,4.284,2.68,2.68,0,0,0-.583.742c-.224.547-.31,1.078.329,1.434" transform="translate(20.207 0)"/>
            <path id="Trazado_127681" data-name="Trazado 127681" d="M5.091,65.06c-.962.273-1.146.534-1.146,1.669q0,12.261.008,24.522c0,.6.038,1.052-.8,1.065a.975.975,0,0,0-.909,1.1,1.058,1.058,0,0,0,.916,1.117,4.619,4.619,0,0,0,.863.066q38.166,0,76.332,0a4.835,4.835,0,0,0,.631-.023,1.176,1.176,0,0,0,1.12-1.2A1.109,1.109,0,0,0,81,92.26c-.761-.046-1.527-.031-2.291-.032-2,0-4.009-.041-6.011.02-.757.023-.875-.233-.872-.914.027-5.643.016-11.285.015-16.928,0-1.392-.336-1.732-1.713-1.733q-3.006,0-6.011,0c-1.217,0-1.6.389-1.6,1.611,0,5.695-.011,11.39.012,17.086,0,.644-.081.911-.828.878-1.562-.07-1.564-.019-1.564-1.549,0-1.608-.009-3.216,0-4.825a1.3,1.3,0,0,0-1.165-1.513c-.663-.278-.978.158-1.252.631a2.4,2.4,0,0,0-.2,1.235c-.007,1.608-.009,3.216,0,4.824,0,.595-.215.875-.834.854-.658-.022-1.318,0-1.976,0-1.283,0-1.287,0-1.287-1.258q0-6.366,0-12.732c0-.527-.006-1.055,0-1.582.014-.955.072-1.012,1.051-1.02.712-.006,1.424-.011,2.135,0,.81.014.893.094.9.925.015,1.318,0,2.636.008,3.954a2.065,2.065,0,0,0,.321,1.281c.283.378.609.677,1.134.426a1.271,1.271,0,0,0,1.162-1.433c0-2.11.006-4.219,0-6.328-.005-1.05-.434-1.458-1.512-1.462q-3.125-.01-6.249,0c-1.168,0-1.568.4-1.569,1.563,0,5.721-.017,11.443.018,17.164,0,.712-.188.865-.863.842-1.537-.052-1.538-.015-1.538-1.572q0-10.995,0-21.989c0-1.472-.347-1.822-1.81-1.823q-2.887,0-5.774,0c-1.374,0-1.743.368-1.743,1.724,0,7.619-.011,15.239.017,22.859,0,.678-.184.819-.824.8-1.576-.046-1.577-.012-1.577-1.613q0-15.266,0-30.532c0-1.528-.314-1.839-1.855-1.84q-2.926,0-5.853,0c-1.273,0-1.622.361-1.623,1.656q0,15.7.02,31.4c0,.78-.2.96-.949.928-1.452-.063-1.454-.017-1.454-1.5q0-19.774,0-39.549c0-1.558-.333-1.886-1.916-1.887-1.925,0-3.849,0-5.774,0-1.261,0-1.641.391-1.641,1.662q0,20.17.019,40.339c0,.777-.2.968-.951.935-1.451-.063-1.453-.018-1.453-1.508q0-24.955,0-49.91c0-1.669-.3-1.968-1.991-1.968-1.9,0-3.8,0-5.7,0-1.258,0-1.643.393-1.643,1.658q0,10.243,0,20.486c0,1.054.2,1.321,1.146,1.59a1.071,1.071,0,0,0,1.331-.768,4.172,4.172,0,0,0,.172-1.563q0-8.7,0-17.4c0-1.405,0-1.406,1.388-1.407.58,0,1.16-.009,1.74,0,.85.018.923.1.948.973,0,.184,0,.369,0,.553q0,23.688,0,47.376c0,1.531,0,1.532-1.5,1.531-.607,0-1.213-.006-1.819,0-.536,0-.764-.252-.755-.773,0-.29,0-.58,0-.87q0-11.39,0-22.779A4.7,4.7,0,0,0,6.449,65.9a1.089,1.089,0,0,0-1.358-.843" transform="translate(-2.249 -19.484)"/>
            <path id="Trazado_127682" data-name="Trazado 127682" d="M44.2,51.882a1.378,1.378,0,0,1,.3-1.96,18.042,18.042,0,0,0,3.369-4.745.862.862,0,0,0-.031-1.05,3.366,3.366,0,0,1-.419-3.232.667.667,0,0,0-.183-.825q-3.286-3.258-6.546-6.541a.66.66,0,0,0-.827-.192,3.13,3.13,0,0,1-2.32.027.652.652,0,0,0-.815.213q-3.624,3.646-7.272,7.269a.793.793,0,0,0-.251.9,3.661,3.661,0,0,1-1.319,4.078,3.732,3.732,0,0,1-4.227.129,3.675,3.675,0,0,1-1.585-3.985.767.767,0,0,0-.194-.833q-3.932-3.9-7.838-7.821a3.547,3.547,0,0,0-.308-.236,18.246,18.246,0,0,0,13.885,21.88A17.535,17.535,0,0,0,39.1,53.7c.454-.208.9-.434,1.348-.654a1.275,1.275,0,0,1,1.795.407A16.4,16.4,0,0,1,44.2,51.882" transform="translate(26.338 -16.584)" fill="#29c4bb"/>
            <path id="Trazado_127683" data-name="Trazado 127683" d="M145.033,67.422c.984.227,1.226.551,1.226,1.691q0,12.217,0,24.432c0,1.041,0,1.041,1.041,1.041,1,0,2-.014,3,.006.407.008.592-.124.54-.542a3.257,3.257,0,0,1,0-.395q0-24.551.021-49.1c0-.817-.211-1.038-1-.976a20.67,20.67,0,0,1-2.844,0c-.64-.039-.776.18-.774.789.022,6.3.014,12.6.012,18.9,0,1.14-.242,1.464-1.226,1.691v2.466" transform="translate(-142.191 -21.845)" fill="#29c4bb"/>
            <path id="Trazado_127684" data-name="Trazado 127684" d="M54.469,118.281c-.932-.214-1.2-.526-1.21-1.455-.01-1.608-.018-3.216.006-4.824.006-.44-.108-.595-.567-.582q-1.739.046-3.479,0c-.47-.013-.56.159-.559.589q.019,7.987,0,15.974c0,.471.105.648.608.632,1.132-.036,2.268-.038,3.4,0,.515.017.6-.182.6-.641-.022-1.924-.016-3.849-.006-5.773,0-.929.279-1.241,1.21-1.454a11.668,11.668,0,0,1,0-2.465" transform="translate(2.255 -55.866)" fill="#b0c8cb"/>
            <path id="Trazado_127685" data-name="Trazado 127685" d="M139.311,21.522c-1.737,0-3.475-.007-5.212,0a1.169,1.169,0,0,0-1.255.973,1.089,1.089,0,0,0,.56,1.2,1.515,1.515,0,0,0,.833.188c3.4,0,6.791.012,10.187,0,.936,0,1.452-.477,1.433-1.215s-.537-1.143-1.493-1.15c-1.684-.013-3.369,0-5.054,0Z" transform="translate(-131.094 -10.788)" fill="#010101"/>
            <path id="Trazado_127686" data-name="Trazado 127686" d="M149.443,16.169c.631,0,1.263.02,1.893,0a1.141,1.141,0,0,0,1.253-1.127,1.127,1.127,0,0,0-1.172-1.217c-1.339-.049-2.682-.049-4.021,0a1.17,1.17,0,1,0,.075,2.339c.657.014,1.315,0,1.972,0" transform="translate(-144.519 -6.912)" fill="#010101"/>
            <path id="Trazado_127687" data-name="Trazado 127687" d="M148.578,5.086a1.169,1.169,0,0,0-1.25-1.212,1.225,1.225,0,0,0-1.115,1.365,1.189,1.189,0,1,0,2.365-.154" transform="translate(-140.493 -1.941)" fill="#010101"/>
            <path id="Trazado_127688" data-name="Trazado 127688" d="M154.269,5.193a1.181,1.181,0,0,0,1.205,1.264,1.223,1.223,0,0,0,1.166-1.323,1.205,1.205,0,0,0-1.226-1.262,1.183,1.183,0,0,0-1.146,1.321" transform="translate(-152.573 -1.942)" fill="#020202"/>
            <path id="Trazado_127689" data-name="Trazado 127689" d="M26.769,4.715a18.335,18.335,0,0,0-16.8,10.878.825.825,0,0,0,.187,1.089q4.163,4.113,8.278,8.275a.815.815,0,0,0,1.084.221,3.143,3.143,0,0,1,2.606-.032.647.647,0,0,0,.824-.172q3.616-3.654,7.269-7.27a.658.658,0,0,0,.153-.823,3.646,3.646,0,0,1,1.238-4.229,3.7,3.7,0,0,1,4.354-.086,3.647,3.647,0,0,1,1.386,4.183.8.8,0,0,0,.25.952c2.156,2.131,4.293,4.282,6.441,6.421.155.154.268.421.574.317.349-.118.257-.42.27-.668A18.278,18.278,0,0,0,29.273,4.906c-.867-.125-1.734-.105-2.5-.191" transform="translate(31.164 -2.364)" fill="#29c4bb"/>
            <path id="Trazado_127690" data-name="Trazado 127690" d="M111.715,39.94a1.317,1.317,0,0,0,1.387,1.293,1.342,1.342,0,0,0,1.295-1.318,1.406,1.406,0,0,0-1.36-1.36,1.368,1.368,0,0,0-1.322,1.385" transform="translate(-89.112 -19.332)" fill="#f6b566"/>
            <path id="Trazado_127691" data-name="Trazado 127691" d="M29.373,25.223a1.337,1.337,0,1,0,1.365-1.335,1.369,1.369,0,0,0-1.365,1.335" transform="translate(34.294 -11.978)" fill="#f7b566"/>
            <path id="Trazado_127692" data-name="Trazado 127692" d="M90.558,16.119a1.32,1.32,0,0,0-1.316,1.365,1.3,1.3,0,0,0,1.374,1.3,1.359,1.359,0,0,0,1.3-1.317,1.375,1.375,0,0,0-1.358-1.344" transform="translate(-55.425 -8.082)" fill="#f7b566"/>
            <path id="Trazado_127693" data-name="Trazado 127693" d="M6.085,51.123A1.352,1.352,0,0,0,7.46,49.806,1.4,1.4,0,0,0,6.107,48.45a1.358,1.358,0,0,0-1.325,1.295,1.326,1.326,0,0,0,1.3,1.378" transform="translate(71.141 -24.293)" fill="#f6b566"/>
            <path id="Trazado_127694" data-name="Trazado 127694" d="M55.459,51.278a1.359,1.359,0,0,0,1.364,1.336,1.306,1.306,0,0,0,1.306-1.29,1.34,1.34,0,0,0-1.3-1.389,1.408,1.408,0,0,0-1.373,1.343" transform="translate(-4.796 -25.038)" fill="#f7b566"/>
            <path id="Trazado_127695" data-name="Trazado 127695" d="M121.556,84.77c0,6.509.011,13.018-.016,19.527,0,.662.161.854.821.817,1.077-.059,2.16-.029,3.24-.009.4.007.6-.113.542-.536a3.067,3.067,0,0,1,0-.395q0-19.369.017-38.738c0-.737-.2-.942-.913-.9a24.438,24.438,0,0,1-2.923,0c-.629-.036-.782.164-.779.782.023,6.483.014,12.966.014,19.449" transform="translate(-105.772 -32.357)" fill="#29c4bb"/>
            <path id="Trazado_127696" data-name="Trazado 127696" d="M102.64,98.2c0-4.954-.018-9.908.02-14.862.005-.723-.2-.881-.874-.846-1.077.057-2.16.029-3.24.008-.369-.007-.519.092-.5.483.03.552.007,1.106.007,1.66q0,14.309-.017,28.619c0,.7.172.9.863.854a23.729,23.729,0,0,1,2.923,0c.649.037.837-.147.832-.814-.031-4.269-.016-8.538-.016-12.807Z" transform="translate(-70.556 -41.362)" fill="#29c4bb"/>
            <path id="Trazado_127697" data-name="Trazado 127697" d="M79.151,111.288c0-3.61-.011-7.221.012-10.831,0-.546-.131-.731-.7-.707-1.052.045-2.109.046-3.161,0-.576-.025-.766.114-.753.727.043,1.975.016,3.952.016,5.929,0,5.191.01,10.383-.013,15.574,0,.6.132.823.77.787a27.29,27.29,0,0,1,3,0c.638.034.847-.124.84-.807-.037-3.557-.017-7.115-.017-10.673" transform="translate(-35.355 -50.014)" fill="#1169e3"/>
            <path id="Trazado_127698" data-name="Trazado 127698" d="M32.183,120.064c0-2.661-.012-5.323.011-7.985,0-.5-.111-.686-.646-.665-1.105.042-2.214.03-3.32,0-.444-.01-.646.058-.644.587q.031,7.984,0,15.97c0,.471.106.649.608.634,1.132-.034,2.267-.037,3.4,0,.517.018.6-.183.6-.641-.018-2.635-.009-5.271-.009-7.906" transform="translate(35.038 -55.863)" fill="#b0c8cb"/>
          </g>
        </g>
        <g id="Grupo_156735" data-name="Grupo 156735" transform="translate(174.861 1741.257)">
          <path id="Trazado_126894" data-name="Trazado 126894" d="M16.7,126.306c-.7.156-.863-.174-.856-.828.018-1.639-.01-1.668-1.707-1.658-.631,0-.828-.192-.815-.817.012-.582.118-.853.79-.85,1.7.006,1.745-.028,1.727-1.726-.008-.768.369-.783.939-.789s.865.089.865.772c0,1.72.035,1.751,1.715,1.744.65,0,.8.232.805.835s-.152.835-.8.831c-1.713-.01-1.754.022-1.716,1.645.018.753-.26.974-.943.841" transform="translate(-13.318 -64.386)" fill="#29c4bb"/>
          <path id="Trazado_126895" data-name="Trazado 126895" d="M214.537,151.172c.627-.12.974.088.871.8-.086.594.119.925.776.823s.879.136.884.828c.005.725-.291.893-.909.809-.591-.08-.778.177-.766.765.019.92-.551,1.274-1.442,1-.423-.132-.33-.47-.3-.736.074-.728-.092-1.173-.951-1.027-.664.113-.705-.3-.7-.814s.022-.923.7-.818c.727.112,1.071-.153.95-.921-.115-.734.355-.766.9-.7" transform="translate(-123.762 -79.668)" fill="#29c4bb"/>
          <path id="Trazado_126896" data-name="Trazado 126896" d="M212.491,70.155c.162.7-.158.939-.814.828-.71-.12-1,.172-.874.877.121.683-.174.846-.836.852-.683.006-.94-.2-.821-.86.127-.708-.168-1-.871-.867-.728.137-.792-.244-.819-.857-.032-.719.247-.907.873-.8.681.119.935-.163.819-.828-.111-.636.095-.894.8-.868.625.022.986.111.852.827s.177.986.875.868c.656-.11.975.125.812.824" transform="translate(-120.908 -40.273)" fill="#010000"/>
          <path id="Trazado_126897" data-name="Trazado 126897" d="M56.81,187.537c.153.653-.169.892-.821.774-.766-.139-.947.26-.837.905.122.718-.226.829-.856.825-.6,0-.926-.14-.8-.789.166-.853-.26-1.062-.995-.936-.754.129-.718-.347-.721-.863,0-.5.011-.924.691-.79.916.181,1.15-.259,1.026-1.078-.118-.784.479-.559.878-.582.423-.025.894-.08.77.6-.152.841.143,1.231,1.033,1.06.743-.143.652.376.63.873" transform="translate(-34.699 -95.677)" fill="#010000"/>
          <path id="Trazado_126898" data-name="Trazado 126898" d="M121.8,18.3c-.175-.745.237-.89.846-.8.633.094.882-.168.786-.792s.089-.907.806-.892c.659.013.961.184.846.861-.117.695.2.92.854.822.6-.09.905.054.909.791,0,.755-.281.957-.938.852-.695-.111-.93.206-.823.854.121.728-.27.811-.882.824-.654.013-.868-.233-.771-.833.105-.658-.138-.959-.825-.844-.67.112-.957-.164-.807-.845" transform="translate(-73.6 -15.816)" fill="#29c4bb"/>
        </g>
      </g>
    </g>
    <g id="Grupo_156745" data-name="Grupo 156745" transform="translate(497 3)">
      <g id="Grupo_156747" data-name="Grupo 156747">
        <path id="Trazado_127700" data-name="Trazado 127700" d="M15,0A15,15,0,1,1,0,15,15,15,0,0,1,15,0Z" transform="translate(433 1505)" fill="#fee734"/>
        <path id="Trazado_127701" data-name="Trazado 127701" d="M-.059-10.811H.029L2.461-15.85H7.295L2.52-8.013,7.456,0H2.637L.044-5.259-2.549,0H-7.383l4.937-8.013-4.79-7.837h4.8Z" transform="translate(448.383 1527.85)"/>
      </g>
    </g>
  </g>
</svg>
