<svg id="Grupo_156796" data-name="Grupo 156796" xmlns="http://www.w3.org/2000/svg" xmlns:xlink="http://www.w3.org/1999/xlink" width="250" height="192" viewBox="0 0 250 192">
  <defs>
    <clipPath id="clip-path">
      <rect id="Rect치ngulo_37253" data-name="Rect치ngulo 37253" width="161.65" height="160.91" fill="none"/>
    </clipPath>
  </defs>
  <rect id="Rect치ngulo_37255" data-name="Rect치ngulo 37255" width="250" height="192" fill="none"/>
  <g id="Grupo_156795" data-name="Grupo 156795" transform="translate(44.35 16)">
    <g id="Grupo_156794" data-name="Grupo 156794" clip-path="url(#clip-path)">
      <path id="Trazado_128318" data-name="Trazado 128318" d="M38.172,69.538c1.571,5.779-3.4,10.917-5.009,11.88S20.64,86.875,13.9,87.035-2.795,72.909.736,71.3s28.251-3.371,30.981-3.371a20.551,20.551,0,0,1,6.454,1.6" transform="translate(123.176 51.469)" fill="#ffc5c7"/>
      <path id="Trazado_128319" data-name="Trazado 128319" d="M52.786,76.249c-1.686,17.336-7.7,30.818-9.871,31.059s-23.68-6.981-29.658-9.63S11.88,54.344,15.534,55.059,27.65,63.592,34.44,67.341s18.347,8.908,18.347,8.908" transform="translate(90.629 41.708)" fill="#fff"/>
      <path id="Trazado_128320" data-name="Trazado 128320" d="M15.283,71.211c2.276,3.47,19.593,12.263,29.011,15.469-1.9,5.118-3.807,8.27-4.841,8.384C37.6,95.27,21.561,90,13.237,86.824a119.168,119.168,0,0,1,2.046-15.613" transform="translate(94.09 53.953)" fill="#dcedff"/>
      <path id="Trazado_128321" data-name="Trazado 128321" d="M72.7,100.161c.666,6.878-5.458,7.865-13,6.1s-20.867-18.459-26.807-26S15.918,59.269,13.751,58.065,6.768,56.223,2.194,49.44,1.953,28.451,3.76,26.765,22.5,30.708,24.627,33.551s-.04,18.134.682,20.06S41.241,71.269,47.66,75.12,72.221,95.185,72.7,100.161" transform="translate(88.61 20.045)" fill="#ffc5c7"/>
      <path id="Trazado_128322" data-name="Trazado 128322" d="M30.94,35.1c-2.014-.963-2.8-5.336-1.524-4.566s3.417.754,6.308.714a23.949,23.949,0,0,0,4.059-.29,25.826,25.826,0,0,1,.533,3.448s-7.361,1.657-9.376.694" transform="translate(70.719 23.063)" fill="#fe8a8b"/>
      <path id="Trazado_128323" data-name="Trazado 128323" d="M9.221,35.316c1.019-2.19,1.809-3.853,1.809-3.853L23.193,42.406a64.391,64.391,0,0,1,6.537-5.155l1.13,1.784a34.25,34.25,0,0,0-2.656,11.3s-1.6,1.925-2.568,2.086c0,0,13.564,19.262,22.071,28.732,8.458,9.414,14.374,17.557,18.229,20.174-7.7-4.262-18.8-18.16-24.075-24.864-5.939-7.544-16.974-20.986-19.141-22.19s-6.983-1.844-11.559-8.626c-1.814-2.691-2.215-6.547-1.94-10.33" transform="translate(79.643 23.838)" fill="#fe8a8b"/>
      <path id="Trazado_128324" data-name="Trazado 128324" d="M59.21,45.755c-.056,1.123-10.641,10.915-11.741,12.038a1.684,1.684,0,0,1-1.215,0c-3.2-2.64-18.048-26.461-18.345-27.321-.278-.8,7.836-9,10.335-11.189a2.407,2.407,0,0,1,2.116.244C43.334,23.5,59.282,44.305,59.21,45.755" transform="translate(53.397 14.497)" fill="#0c0835"/>
      <path id="Trazado_128325" data-name="Trazado 128325" d="M59.9,45.718c-.056,1.123-10.641,10.915-11.741,12.038S28.919,31.365,28.6,30.435c-.278-.8,8.832-8.864,11.332-11.056a.76.76,0,0,1,1.12.111c2.974,3.974,18.922,24.777,18.85,26.227" transform="translate(51.492 14.535)" fill="#252384"/>
      <path id="Trazado_128326" data-name="Trazado 128326" d="M59.031,44.064c-.053,1.049-9.954,10.21-10.984,11.263s-18-24.691-18.3-25.56c-.258-.751,8.263-8.293,10.6-10.344a.711.711,0,0,1,1.048.105c2.781,3.717,17.7,23.178,17.633,24.535" transform="translate(50.342 14.578)" fill="#57aff7"/>
      <path id="Trazado_128327" data-name="Trazado 128327" d="M36.119,29.332a13.938,13.938,0,0,1-4.514-5.83c-.281-1.2-.241-2.287.682-2.527s4.092,3.531,5.618,4.654,3.45,3.452,2.849,5.016-3.853.963-4.213.722-.422-2.035-.422-2.035" transform="translate(65.501 15.884)" fill="#ffc5c7"/>
      <path id="Trazado_128328" data-name="Trazado 128328" d="M33.05,21.15c-.455,1.369,3.559,6.862,6.843,8.442l-1.081,1.346s-.543-.118-1.241-.279a9.715,9.715,0,0,1-.17-1.468,13.938,13.938,0,0,1-4.514-5.83,2.611,2.611,0,0,1,.163-2.211" transform="translate(64.219 16.025)" fill="#fe8a8b"/>
      <path id="Trazado_128329" data-name="Trazado 128329" d="M37.921,31.379c-3.127-1.606-5.475-1.425-7.161-2.088s-2.165-3.19-1.083-3.612,7.947.663,9.752,1.445,2.9,4.387,2.9,4.387Z" transform="translate(68.17 19.385)" fill="#ffc5c7"/>
      <path id="Trazado_128330" data-name="Trazado 128330" d="M37.534,28.638a3.8,3.8,0,0,0,2.287,0c0,.664.652,1,1.429,1.942l-2.262-.067c-3.127-1.608-5.473-1.427-7.159-2.09a2.7,2.7,0,0,1-1.506-1.694c.83,1.387,5.495,1.589,7.212,1.909" transform="translate(67.104 20.252)" fill="#fe8a8b"/>
      <path id="Trazado_128331" data-name="Trazado 128331" d="M41.13,31.718c-1.445,2.222-9.39,1.26-11,1.018s-2.673-1.243-2.586-2.253c.178-2.039,10.613-1.679,11.5-1.357s2.086,2.593,2.086,2.593" transform="translate(72.108 21.878)" fill="#ffc5c7"/>
      <path id="Trazado_128332" data-name="Trazado 128332" d="M29.07,30.069c1.153,1.07,3.784,1.679,6.625,1.907a26.577,26.577,0,0,0,4.18.074,32.632,32.632,0,0,1-8.31-.218,2.877,2.877,0,0,1-2.494-1.763" transform="translate(70.679 22.782)" fill="#fe8a8b"/>
      <path id="Trazado_128333" data-name="Trazado 128333" d="M48.069,126.89c-1.94-5.7-7.372-16.474-8.815-23.932C37.437,93.568,25.349,67.664,26.94,62.92S45.912,52.888,57.575,46.854s20.314,3.858,20.314,3.858c17.336,8.507,20.055,8.177,27.515,12.036s8.281,44.463,8.281,50.724c0,2.41.012,7.584.109,13.418Z" transform="translate(0.758 34.021)" fill="#fff"/>
      <path id="Trazado_128334" data-name="Trazado 128334" d="M62.4,52.062a12.519,12.519,0,0,1-.237,3.044,7.242,7.242,0,0,1-1.06,2.752,5.557,5.557,0,0,1-4.837,2.568,16.1,16.1,0,0,1-5.83-1.165c-1.912-.689-3.742-1.615-5.612-2.5.835.608,1.7,1.171,2.564,1.752.919.476,1.81,1.025,2.77,1.439A14.246,14.246,0,0,0,56.3,61.39l.814-.039.805-.183a5.766,5.766,0,0,0,1.547-.589,5.679,5.679,0,0,0,2.271-2.346,8.9,8.9,0,0,0,.661-6.171" transform="translate(20.206 39.445)" fill="#dcedff"/>
      <path id="Trazado_128335" data-name="Trazado 128335" d="M69.817,106.957c-1.94-5.7-7.372-16.474-8.815-23.932a53.237,53.237,0,0,0-1.756-6.2l7.129-5.614c4.5,10.432,8.295,27.516,12.128,35.745Z" transform="translate(-20.99 53.954)" fill="#dcedff"/>
      <path id="Trazado_128336" data-name="Trazado 128336" d="M47.52,36.281c.559,10.047.4,16.949-1.689,18.875,0,0,5.043,16.673,20.226,15.249,5.138-.482,4.013-9.15,1.125-13.163l.642-12.323Z" transform="translate(11.465 27.489)" fill="#ffc5c7"/>
      <path id="Trazado_128337" data-name="Trazado 128337" d="M46.858,53.386h0c1.084-3.081,1.1-9.087.654-17.105l20.3,8.639-.411,7.9c-3.373,1.566-20.544.564-20.544.564" transform="translate(11.475 27.489)" fill="#fe8a8b"/>
      <path id="Trazado_128338" data-name="Trazado 128338" d="M96.237,98.4H75.456a39.877,39.877,0,0,1,5.18-15.882l18.3,7.062-3.853,7.705c.4.367.773.742,1.155,1.114" transform="translate(-69.914 62.516)" fill="#ffc5c7"/>
      <path id="Trazado_128339" data-name="Trazado 128339" d="M77.479,88.007l-1.573,2.984a11.181,11.181,0,0,1,4.361,2.478l3.062-5.929Z" transform="translate(-55.098 66.325)" fill="#fe8a8b"/>
      <path id="Trazado_128340" data-name="Trazado 128340" d="M108.356,96.3c3.944-9.048,4.718-23.746,0-31.478S95.594,54.3,93.738,55.227,87.549,68.221,83.063,73.791,66.356,94.985,66.047,96.3s10.523,11.929,30.011,19.724c2.32.928,12.3-19.724,12.3-19.724" transform="translate(-66.04 41.713)" fill="#fff"/>
      <path id="Trazado_128341" data-name="Trazado 128341" d="M74.138,91.065,71.57,97.254s13.786-14.9,19.15-26.029a42.314,42.314,0,0,1-3.058,12.824s-9.975,20.652-12.3,19.724c-3.334-1.334-6.395-2.752-9.212-4.19Z" transform="translate(-45.347 53.963)" fill="#dcedff"/>
      <path id="Trazado_128342" data-name="Trazado 128342" d="M45.789,50.685c-3.542-8.651-7.876-17.8-2.419-22.616,0,0-6.1-1.926-9.311-1.283,0,0,3.211-1.926,9.632-2.57,0,0-1.264-14.606,2.1-20.867,0,0-.011,6.421,1.754,8.99,0,0,3.531-7.546,13.967-10.433S82.055-1.3,89.277,6.079s15.682,16.85,3.508,31.138S64.559,55.2,57.657,56.16s-11.868-5.475-11.868-5.475" transform="translate(2.85 0.001)" fill="#252384"/>
      <path id="Trazado_128343" data-name="Trazado 128343" d="M73.617,13.226A38.923,38.923,0,0,1,66.2,15.567c-2.522.569-5.06,1.077-7.616,1.473-2.552.42-5.12.74-7.692.984a33.861,33.861,0,0,1-7.767.005,19.266,19.266,0,0,0,7.816,1.5,46.228,46.228,0,0,0,7.948-.584A46.739,46.739,0,0,0,66.614,17a20.857,20.857,0,0,0,7-3.779" transform="translate(12.239 10.021)" fill="#0c0835"/>
      <path id="Trazado_128344" data-name="Trazado 128344" d="M53.109,22.666c-2.782-.689-7.393-5.143-7.393-5.143s4.777,3.376,14.6,2.571a83.7,83.7,0,0,0,16.387-2.846s-10.126,5.943-13.858,6.9-9.739-1.483-9.739-1.483" transform="translate(4.589 13.069)" fill="#0c0835"/>
      <path id="Trazado_128345" data-name="Trazado 128345" d="M36.34,17.035c4.561-2.253,5.887.033,5.887,1.96s-2.139,6.023-2.139,6.023Z" transform="translate(55.549 12.199)" fill="#0c0835"/>
      <path id="Trazado_128346" data-name="Trazado 128346" d="M59.634,20.659c3.64,7.2,11.754,12.787,11.754,12.787s3.167,4.271-.388,6c-.149.072-.315.135-.478.2A16.92,16.92,0,0,1,64.5,35.033c-2.018-4.928-4.287-10.015-4.862-14.374" transform="translate(-15.855 15.653)" fill="#0c0835"/>
      <path id="Trazado_128347" data-name="Trazado 128347" d="M44.155,36.5s-3.732-2.768-6.261,0,2.289,15.65,7.947,12.52c0,0,9.39,11.919,15.891,15.29s10.834,1.686,13-.722S84.171,51.3,84.846,40.829C85.088,37.1,84,29.753,84,28.188s.963-7.705-.36-9.511a5.091,5.091,0,0,0-3.13-2.046S72.447,20.6,65.463,21.205a27.236,27.236,0,0,0,4.454-3.491s-13.844,4.816-23.6,5.417a53.878,53.878,0,0,1-.362,7.946A32.119,32.119,0,0,1,44.155,36.5" transform="translate(11.376 12.602)" fill="#ffc5c7"/>
      <path id="Trazado_128348" data-name="Trazado 128348" d="M59.833,30.866c.337-2.361,2.317-2.825,3.934-1.179,1.658,1.686,2.3,7.024,1.967,7.811s-2.979.729-3.6-.9.842-2.651,2.361-2.169a5.806,5.806,0,0,0-1.083-3.909c-1.324-1.533-2.543-.946-2.823-.554a10.753,10.753,0,0,1-.759.9" transform="translate(-9.338 21.753)" fill="#fe8a8b"/>
      <path id="Trazado_128349" data-name="Trazado 128349" d="M49.747,25.5a18.38,18.38,0,0,1,1.7-1.49A11.321,11.321,0,0,1,53.4,22.8a6.263,6.263,0,0,1,2.208-.763,4.853,4.853,0,0,1,2.32.3l0,.107a10.873,10.873,0,0,1-1.086.359L55.8,23.1c-.675.2-1.385.264-2.069.5a14.308,14.308,0,0,0-1.995.868c-.657.332-1.287.726-1.923,1.12Z" transform="translate(16.281 16.677)" fill="#0c0835"/>
      <path id="Trazado_128350" data-name="Trazado 128350" d="M48.043,23.328a8.34,8.34,0,0,0-2.092-.74,11.348,11.348,0,0,0-2.171-.257c-.729-.014-1.443.135-2.164.13A21.064,21.064,0,0,1,39.36,22.4l-.03-.1a5.142,5.142,0,0,1,2.176-.914,6.761,6.761,0,0,1,2.348.084,9.782,9.782,0,0,1,2.259.6,7.713,7.713,0,0,1,1.99,1.165Z" transform="translate(44.417 16.148)" fill="#0c0835"/>
      <path id="Trazado_128351" data-name="Trazado 128351" d="M52.345,27.155c-.1-1.018-.67-1.8-1.271-1.737s-1.009.933-.907,1.953.67,1.795,1.271,1.737,1.007-.935.907-1.953" transform="translate(21.139 19.256)" fill="#0c0835"/>
      <path id="Trazado_128352" data-name="Trazado 128352" d="M42.852,26.431c-.1-1.018-.582-1.805-1.074-1.756s-.809.914-.707,1.932.58,1.805,1.072,1.756.809-.914.708-1.932" transform="translate(46.622 18.694)" fill="#0c0835"/>
      <path id="Trazado_128353" data-name="Trazado 128353" d="M44.061,32.058a4.545,4.545,0,0,0,4.964-.051,2.092,2.092,0,0,1-1.155,1.828,3.1,3.1,0,0,1-2.317-.125c-.726-.322-1-1.028-1.492-1.652" transform="translate(35.179 24.25)" fill="#fe8a8b"/>
      <path id="Trazado_128354" data-name="Trazado 128354" d="M41.849,35.841a136.921,136.921,0,0,0,14-.94c-.789,3.4-3.268,6.763-7.069,6.765-3.422,0-5.887-2.81-6.927-5.825" transform="translate(32.247 26.443)" fill="#c31f2a"/>
      <path id="Trazado_128355" data-name="Trazado 128355" d="M43.56,38.435A6.037,6.037,0,0,1,46.8,38.4a5.033,5.033,0,0,1,4.326-.425,6.061,6.061,0,0,1-7.565.457" transform="translate(33.96 28.563)" fill="#fb8384"/>
      <path id="Trazado_128356" data-name="Trazado 128356" d="M53.031,37.687a16.553,16.553,0,0,1-10.342-.4c-.058-.5-.134-1.009-.209-1.515,3.315-.07,8.66-.473,11.513-.793a8.946,8.946,0,0,1-.961,2.707" transform="translate(32.99 26.503)" fill="#fff"/>
    </g>
  </g>
</svg>
