<svg xmlns="http://www.w3.org/2000/svg" xmlns:xlink="http://www.w3.org/1999/xlink" width="250" height="192" viewBox="0 0 250 192">
  <defs>
    <clipPath id="clip-path">
      <rect id="Rectángulo_37246" data-name="Rectángulo 37246" width="195.6" height="158.13" fill="none"/>
    </clipPath>
  </defs>
  <g id="_59" data-name="59" transform="translate(3364 4643)">
    <rect id="Rectángulo_37251" data-name="Rectángulo 37251" width="250" height="192" transform="translate(-3364 -4643)" fill="none"/>
    <g id="Grupo_156787" data-name="Grupo 156787" transform="translate(-3336 -4626)">
      <rect id="Rectángulo_37244" data-name="Rectángulo 37244" width="70.365" height="109.316" transform="translate(125.235 27.366)" fill="#394277"/>
      <g id="Grupo_156786" data-name="Grupo 156786">
        <g id="Grupo_156785" data-name="Grupo 156785" clip-path="url(#clip-path)">
          <path id="Trazado_128227" data-name="Trazado 128227" d="M219.88,74.427H195.274a3.035,3.035,0,0,1-3.032-3.032V70.028A3.035,3.035,0,0,1,195.274,67H219.88a3.036,3.036,0,0,1,3.033,3.033v1.367a3.035,3.035,0,0,1-3.033,3.032m-24.607-6.639a2.242,2.242,0,0,0-2.239,2.24v1.367a2.241,2.241,0,0,0,2.239,2.239H219.88a2.242,2.242,0,0,0,2.24-2.239V70.028a2.243,2.243,0,0,0-2.24-2.24Z" transform="translate(-39.864 -13.894)" fill="#fff"/>
          <path id="Trazado_128228" data-name="Trazado 128228" d="M211.413,49.843h-1.3a2.5,2.5,0,0,1-2.5-2.5V45.706a2.5,2.5,0,0,1,2.5-2.5h1.3a2.5,2.5,0,0,1,2.5,2.5V47.34a2.5,2.5,0,0,1-2.5,2.5" transform="translate(-43.051 -8.96)" fill="#fff"/>
          <path id="Trazado_128229" data-name="Trazado 128229" d="M220.8,84.542H195.569a.4.4,0,0,1,0-.793H220.8a.4.4,0,0,1,0,.793" transform="translate(-40.472 -17.369)" fill="#fff"/>
          <path id="Trazado_128230" data-name="Trazado 128230" d="M220.8,92.918H195.569a.4.4,0,0,1,0-.793H220.8a.4.4,0,0,1,0,.793" transform="translate(-40.472 -19.106)" fill="#fff"/>
          <path id="Trazado_128231" data-name="Trazado 128231" d="M220.8,101.295H195.569a.4.4,0,0,1,0-.793H220.8a.4.4,0,0,1,0,.793" transform="translate(-40.472 -20.843)" fill="#fff"/>
          <path id="Trazado_128232" data-name="Trazado 128232" d="M202.058,115.091a.4.4,0,0,1,0-.793L217,114.244h0a.4.4,0,0,1,0,.793l-14.944.055Z" transform="translate(-41.817 -23.693)" fill="#8b8bc4"/>
          <rect id="Rectángulo_37245" data-name="Rectángulo 37245" width="57.101" height="72.591" transform="translate(73.42 18.059)" fill="#fff"/>
          <path id="Trazado_128233" data-name="Trazado 128233" d="M149.623,32.012a.41.41,0,0,1-.411-.4.383.383,0,0,1,.38-.4h.031a.4.4,0,1,1,0,.793m-1.616,0h-1.585a.4.4,0,1,1,0-.793h1.585a.4.4,0,1,1,0,.793m-3.171,0h-1.585a.4.4,0,1,1,0-.793h1.585a.4.4,0,1,1,0,.793m-3.171,0h-1.585a.4.4,0,1,1,0-.793h1.585a.4.4,0,1,1,0,.793m-3.171,0H136.91a.4.4,0,1,1,0-.793H138.5a.4.4,0,1,1,0,.793m-3.171,0H133.74a.4.4,0,1,1,0-.793h1.585a.4.4,0,1,1,0,.793m-3.171,0h-1.585a.4.4,0,1,1,0-.793h1.585a.4.4,0,1,1,0,.793m-3.171,0H127.4a.4.4,0,1,1,0-.793h1.585a.4.4,0,1,1,0,.793m-3.171,0h-1.585a.4.4,0,1,1,0-.793h1.585a.4.4,0,1,1,0,.793m-3.171,0h-1.585a.4.4,0,1,1,0-.793h1.585a.4.4,0,1,1,0,.793m-3.17,0h-1.585a.4.4,0,1,1,0-.793h1.585a.4.4,0,1,1,0,.793m-3.171,0h-1.585a.4.4,0,1,1,0-.793H116.3a.4.4,0,1,1,0,.793m-3.171,0h-1.585a.4.4,0,1,1,0-.793h1.585a.4.4,0,1,1,0,.793m-3.171,0h-1.585a.4.4,0,1,1,0-.793h1.585a.4.4,0,1,1,0,.793m-3.171,0h-1.585a.4.4,0,1,1,0-.793h1.585a.4.4,0,1,1,0,.793m-3.171,0h-1.585a.4.4,0,1,1,0-.793h1.585a.4.4,0,1,1,0,.793m-3.171,0H98.864a.4.4,0,1,1,0-.793h1.585a.4.4,0,1,1,0,.793m-3.171,0H95.694a.4.4,0,1,1,0-.793h1.585a.4.4,0,1,1,0,.793m-3.171,0H92.523a.4.4,0,1,1,0-.793h1.585a.4.4,0,1,1,0,.793" transform="translate(-19.104 -6.474)" fill="#a3a3d1"/>
          <path id="Trazado_128234" data-name="Trazado 128234" d="M143.087,39.551h-39.4a.4.4,0,1,1,0-.793h39.4a.4.4,0,1,1,0,.793" transform="translate(-21.419 -8.038)" fill="#394277"/>
          <path id="Trazado_128235" data-name="Trazado 128235" d="M128.812,50.441h-25.12a.4.4,0,1,1,0-.793h25.12a.4.4,0,1,1,0,.793" transform="translate(-21.419 -10.296)" fill="#a3a3d1"/>
          <path id="Trazado_128236" data-name="Trazado 128236" d="M122.5,57.979H103.691a.4.4,0,1,1,0-.793H122.5a.4.4,0,1,1,0,.793" transform="translate(-21.419 -11.86)" fill="#a3a3d1"/>
          <path id="Trazado_128237" data-name="Trazado 128237" d="M128.812,65.518h-25.12a.4.4,0,1,1,0-.793h25.12a.4.4,0,1,1,0,.793" transform="translate(-21.419 -13.423)" fill="#a3a3d1"/>
          <path id="Trazado_128238" data-name="Trazado 128238" d="M115.864,73.057H103.691a.4.4,0,1,1,0-.793h12.173a.4.4,0,1,1,0,.793" transform="translate(-21.419 -14.987)" fill="#a3a3d1"/>
          <path id="Trazado_128239" data-name="Trazado 128239" d="M125.824,80.6H103.692a.4.4,0,1,1,0-.793h22.132a.4.4,0,1,1,0,.793" transform="translate(-21.42 -16.55)" fill="#a3a3d1"/>
          <path id="Trazado_128240" data-name="Trazado 128240" d="M151.83,50.441h-5.976a.4.4,0,1,1,0-.793h5.976a.4.4,0,1,1,0,.793" transform="translate(-30.163 -10.296)" fill="#a3a3d1"/>
          <path id="Trazado_128241" data-name="Trazado 128241" d="M151.83,57.979h-5.976a.4.4,0,1,1,0-.793h5.976a.4.4,0,1,1,0,.793" transform="translate(-30.163 -11.86)" fill="#a3a3d1"/>
          <path id="Trazado_128242" data-name="Trazado 128242" d="M151.83,65.518h-5.976a.4.4,0,1,1,0-.793h5.976a.4.4,0,1,1,0,.793" transform="translate(-30.163 -13.423)" fill="#a3a3d1"/>
          <path id="Trazado_128243" data-name="Trazado 128243" d="M151.83,73.057h-5.976a.4.4,0,1,1,0-.793h5.976a.4.4,0,1,1,0,.793" transform="translate(-30.163 -14.987)" fill="#a3a3d1"/>
          <path id="Trazado_128244" data-name="Trazado 128244" d="M151.83,80.6h-5.976a.4.4,0,1,1,0-.793h5.976a.4.4,0,1,1,0,.793" transform="translate(-30.163 -16.55)" fill="#a3a3d1"/>
          <path id="Trazado_128245" data-name="Trazado 128245" d="M149.623,100.142a.41.41,0,0,1-.411-.4.383.383,0,0,1,.38-.4h.031a.4.4,0,1,1,0,.793m-1.616,0h-1.585a.4.4,0,1,1,0-.793h1.585a.4.4,0,1,1,0,.793m-3.171,0h-1.585a.4.4,0,1,1,0-.793h1.585a.4.4,0,1,1,0,.793m-3.171,0h-1.585a.4.4,0,1,1,0-.793h1.585a.4.4,0,1,1,0,.793m-3.171,0H136.91a.4.4,0,1,1,0-.793H138.5a.4.4,0,1,1,0,.793m-3.171,0H133.74a.4.4,0,1,1,0-.793h1.585a.4.4,0,1,1,0,.793m-3.171,0h-1.585a.4.4,0,1,1,0-.793h1.585a.4.4,0,1,1,0,.793m-3.171,0H127.4a.4.4,0,1,1,0-.793h1.585a.4.4,0,1,1,0,.793m-3.171,0h-1.585a.4.4,0,1,1,0-.793h1.585a.4.4,0,1,1,0,.793m-3.171,0h-1.585a.4.4,0,1,1,0-.793h1.585a.4.4,0,1,1,0,.793m-3.17,0h-1.585a.4.4,0,1,1,0-.793h1.585a.4.4,0,1,1,0,.793m-3.171,0h-1.585a.4.4,0,1,1,0-.793H116.3a.4.4,0,1,1,0,.793m-3.171,0h-1.585a.4.4,0,1,1,0-.793h1.585a.4.4,0,1,1,0,.793m-3.171,0h-1.585a.4.4,0,1,1,0-.793h1.585a.4.4,0,1,1,0,.793m-3.171,0h-1.585a.4.4,0,1,1,0-.793h1.585a.4.4,0,1,1,0,.793m-3.171,0h-1.585a.4.4,0,1,1,0-.793h1.585a.4.4,0,1,1,0,.793m-3.171,0H98.864a.4.4,0,1,1,0-.793h1.585a.4.4,0,1,1,0,.793m-3.171,0H95.694a.4.4,0,1,1,0-.793h1.585a.4.4,0,1,1,0,.793m-3.171,0H92.523a.4.4,0,1,1,0-.793h1.585a.4.4,0,1,1,0,.793" transform="translate(-19.104 -20.604)" fill="#a3a3d1"/>
          <path id="Trazado_128246" data-name="Trazado 128246" d="M96.87,115.808l3.48,1.943,3.476-1.943,3.474,1.943,3.474-1.943,3.475,1.943,3.475-1.943,3.475,1.943,3.473-1.943,3.471,1.943,3.474-1.943,3.47,1.943,3.473-1.943,3.469,1.943,3.472-1.943,4.233,1.571v-5.338H92.627v5.341Z" transform="translate(-19.207 -23.236)" fill="#fff"/>
          <path id="Trazado_128247" data-name="Trazado 128247" d="M131.811,107.245a12.263,12.263,0,0,1-2.566-.293,4.617,4.617,0,0,1-2.5-1.285,8.984,8.984,0,0,1-3.308,1.038,4.158,4.158,0,0,1-1.875-.887c-.985-.643-2.212-1.443-3.138-1.177a15.12,15.12,0,0,0-1.793.687,10.494,10.494,0,0,1-4.207,1.12,3.231,3.231,0,0,1-2.934-1.689c-1.426,1.561-4.18,3.408-6.767,1.619a2.067,2.067,0,0,1-.836-1.233c-1.676.769-3.007,1.229-3.164,1.282l-.255-.75a33.5,33.5,0,0,0,3.334-1.367,5.86,5.86,0,0,1,.388-1.84c1.068-2.936,4.181-6.568,6.03-6.4.388.036,1.068.273,1.267,1.462.506,3.031-3.577,5.662-6.862,7.26a1.348,1.348,0,0,0,.55.93c2.977,2.06,5.992-1.8,6.118-1.963l.5-.652.2.8a2.44,2.44,0,0,0,2.433,1.748,9.728,9.728,0,0,0,3.893-1.055,15.857,15.857,0,0,1,1.888-.722c1.276-.361,2.669.545,3.789,1.275a4.546,4.546,0,0,0,1.442.759,8.075,8.075,0,0,0,2.865-.9,1.882,1.882,0,0,1-.163-.557.929.929,0,0,1,.426-1,.839.839,0,0,1,.995.269.872.872,0,0,1,.218.984,1.451,1.451,0,0,1-.375.5,3.909,3.909,0,0,0,2.009.972c3.339.715,4.807-.192,4.822-.2l.436.662a5.417,5.417,0,0,1-2.859.607m-4.887-3.028a.776.776,0,0,0,.041.315.535.535,0,0,0,.08-.128c.013-.033.021-.053-.046-.121a.777.777,0,0,0-.075-.066M108.079,96.86c-1.266,0-4.084,2.964-5.143,5.88a5.987,5.987,0,0,0-.3,1.164c3.155-1.594,6.463-3.907,6.075-6.239-.127-.762-.451-.792-.558-.8-.022,0-.045,0-.069,0" transform="translate(-20.419 -19.923)" fill="#394277"/>
          <path id="Trazado_128248" data-name="Trazado 128248" d="M46.948,27.477a108.176,108.176,0,0,1-3.8-11.511c-.718-3.552,1.7-6.365,5.648-9.819s3.474-2.741,2.016-3.158S52.922.051,58.553,0,73.941,1.773,71.868,12.148,51.176,35.725,46.948,27.477" transform="translate(-8.921 0)" fill="#10101a"/>
          <path id="Trazado_128249" data-name="Trazado 128249" d="M46.516,25.514c1.782-.97,4.344.231,6.023,2.7-.013-.368-.041-.8-.059-1.29-.078-2.024.824-6,2.39-7.168s-.908-7.071-2.551-7.923,5.357-.7,9.784-1.789,6.084-2.037,9.39.945,4.737,7.007,5.292,11.4a85.442,85.442,0,0,1-.51,17.17c-.529,2.222-.326,3.684-3.888,4.981-.755.274-1.807,1.551-1.749,4.4.1,4.84,1.559,20.747.426,23.446-.68,1.62-2.316,2.621-5.777,2.873-8.865.645-12.406-3.044-13.621-3.923l-.6-30.222a6.813,6.813,0,0,0-.839-4.512,7.232,7.232,0,0,1-4.312-3.724c-1.633-3-1.364-6.3.6-7.367" transform="translate(-9.3 -1.865)" fill="#fdd7c5"/>
          <path id="Trazado_128250" data-name="Trazado 128250" d="M55.739,45.917s4.568,4.765,7.047,5.781S73,51.53,75.673,51.177s-.931-.38-5.88,3.75-10.821,10.959-11.92,8.337-3-7.476-2.865-9.591.731-7.756.731-7.756" transform="translate(-11.405 -9.523)" fill="#efaf9b"/>
          <path id="Trazado_128251" data-name="Trazado 128251" d="M77.191,32.9a.793.793,0,0,1-.2-1.561,4.918,4.918,0,0,0,2.369-1.675l-3.922-6.925a.793.793,0,0,1,1.379-.782L81,29.332a.793.793,0,0,1-.022.819,6.852,6.852,0,0,1-3.588,2.723.806.806,0,0,1-.2.025" transform="translate(-15.623 -4.47)" fill="#efaf9b"/>
          <path id="Trazado_128252" data-name="Trazado 128252" d="M63.322,21.925a.793.793,0,0,1-.566-1.348c2.24-2.281,3.966-1.908,5.635-1.548.245.053.5.107.754.154a.792.792,0,1,1-.281,1.56c-.277-.05-.545-.107-.808-.164-1.53-.331-2.541-.549-4.168,1.11a.792.792,0,0,1-.566.237" transform="translate(-12.966 -3.89)" fill="#010101"/>
          <path id="Trazado_128253" data-name="Trazado 128253" d="M78.352,20.395a.793.793,0,0,1-.215-1.556,3.72,3.72,0,0,0,1.017-.571,4.991,4.991,0,0,1,1.494-.8,3.357,3.357,0,0,1,3.343,1.251.792.792,0,0,1-1.34.847A1.84,1.84,0,0,0,81.079,19a3.716,3.716,0,0,0-1.018.572,5.009,5.009,0,0,1-1.494.8.813.813,0,0,1-.216.03" transform="translate(-16.083 -3.606)" fill="#010101"/>
          <path id="Trazado_128254" data-name="Trazado 128254" d="M70.636,26.2c.128.755-.208,1.443-.751,1.535s-1.088-.444-1.217-1.2.208-1.443.751-1.535,1.088.444,1.218,1.2" transform="translate(-14.233 -5.183)" fill="#010101"/>
          <path id="Trazado_128255" data-name="Trazado 128255" d="M83.765,23.96c.129.755-.207,1.443-.751,1.535s-1.088-.444-1.217-1.2.207-1.443.751-1.535,1.088.444,1.217,1.2" transform="translate(-16.956 -4.718)" fill="#010101"/>
          <path id="Trazado_128256" data-name="Trazado 128256" d="M78.62,39.314s-5.028.422-5.663.967S73.7,43.8,75.143,43.7s3.492-.888,3.477-4.382" transform="translate(-15.095 -8.153)" fill="#fff"/>
          <path id="Trazado_128257" data-name="Trazado 128257" d="M50.693,37.6a.792.792,0,0,1-.779-.946c.317-1.607-.291-2.417-.908-2.624a.792.792,0,1,1,.5-1.5c1.323.442,2.442,1.985,1.96,4.432a.794.794,0,0,1-.777.64" transform="translate(-10.05 -6.737)" fill="#efaf9b"/>
          <path id="Trazado_128258" data-name="Trazado 128258" d="M43.727,164.33s18.484,11.1,31.3,6.061c8.844-3.478,12.223-9.242,12.223-9.242S78.708,83.241,75.925,77.675s-5.963-7.552-5.963-7.552L67.18,83.241l-16-17.788s2.883,38.855,4.472,46.8-3.179,47.3-11.924,52.072" transform="translate(-9.067 -13.574)" fill="#9ec5e9"/>
          <path id="Trazado_128259" data-name="Trazado 128259" d="M43.225,64.7s7.466,42.911,7.466,49,0,37.128-6.492,43.216-11.037,10.042-11.037,10.042l-5.843-5.173s4.869-21.912,5.843-21.912-5.195-12.478-5.195-12.478.961-23.638-8.281-31.091C10.746,89.092,6.867,87.83,6.867,87.83Z" transform="translate(-1.424 -13.418)" fill="#303b67"/>
          <path id="Trazado_128260" data-name="Trazado 128260" d="M5.812,93.662s14.609,5.962,18.783,15.8,3.874,13.714,3.874,13.714l-8.38,31.355L.342,169.139Z" transform="translate(-0.071 -19.424)" fill="#202a54"/>
          <path id="Trazado_128261" data-name="Trazado 128261" d="M77.578,72.222s14.608,60.817,14.608,72.445,8.348-57.538,8.348-57.538Z" transform="translate(-16.087 -14.978)" fill="#202a54"/>
          <path id="Trazado_128262" data-name="Trazado 128262" d="M56.163,121.279c-.289-10.108-12.876-31-13-31.213l-.422-.7,5.3-3.026-6.65-1.791,4.069-15.96,1.536.392L43.309,83.429l8.852,2.383-7.229,4.13c2.255,3.815,12.542,21.72,12.815,31.291Z" transform="translate(-8.582 -14.225)" fill="#8b8bc4"/>
          <path id="Trazado_128263" data-name="Trazado 128263" d="M91.374,118.344l-1.581-.108,2.039-30.011L85.657,86.99l2.389-6.823,1.5.524-1.786,5.1,5.751,1.149Z" transform="translate(-17.762 -16.626)" fill="#8b8bc4"/>
          <path id="Trazado_128264" data-name="Trazado 128264" d="M70.54,90.539,69.579,89.5C63.473,82.928,54.1,72.925,53.309,72.324l.893-1.309c.835.556,11.142,11.6,15.578,16.377l2.9-10.269,1.526.43Z" transform="translate(-11.054 -14.728)" fill="#fff"/>
          <path id="Trazado_128265" data-name="Trazado 128265" d="M72.472,129.49a1.627,1.627,0,0,0-2.33,2.273L84.93,146.911a1.627,1.627,0,0,0,2.33-2.273Z" transform="translate(-14.449 -26.753)"/>
          <path id="Trazado_128266" data-name="Trazado 128266" d="M27.131,161.24l31.344-2.5,9.342-14.794,15.758,5.368S69.3,162.026,59.557,167.394s-32.462,12.173-37.332,7.574c-4.317-4.076,4.906-13.728,4.906-13.728" transform="translate(-4.37 -29.852)" fill="#ffd8c5"/>
          <path id="Trazado_128267" data-name="Trazado 128267" d="M91.167,152.4a.771.771,0,0,1-.147-.013l-7.868-1.475a.793.793,0,1,1,.292-1.558l7.867,1.475a.793.793,0,0,1-.145,1.572" transform="translate(-17.109 -30.97)" fill="#f0af9b"/>
          <path id="Trazado_128268" data-name="Trazado 128268" d="M111.1,127.787l-1.521-2.351L76.663,156.044l1.352,1.966Z" transform="translate(-15.897 -26.014)"/>
          <path id="Trazado_128269" data-name="Trazado 128269" d="M119.616,127.741l-1.429-2.3,29.457.092,1.014,1.89Z" transform="translate(-24.508 -26.014)"/>
          <path id="Trazado_128270" data-name="Trazado 128270" d="M140.479,127.918H111.222L78.524,158.4l29.994.491Z" transform="translate(-16.283 -26.529)"/>
          <path id="Trazado_128271" data-name="Trazado 128271" d="M134.742,142.111s-12.79,2.316-14.966,3.474-1.114,3.656-1.114,3.656-4.393-.163-4.958,3.636c-3.5,3.029.808,3.556.808,3.556s-1.28,1.835,1.86,2.263c3.557.485,8.659,1.028,10.57.6s1.91-3.474,1.91-3.474,3.609-.671,4.3-2.743-.371-2.681.8-3.656,3.821-3.413,4.139-5.668a20.163,20.163,0,0,0-.159-5.119Z" transform="translate(-23.293 -28.752)" fill="#ffd8c5"/>
          <path id="Trazado_128272" data-name="Trazado 128272" d="M133.55,151.013l-12.364.589Z" transform="translate(-25.129 -31.318)" fill="#fff"/>
          <path id="Trazado_128273" data-name="Trazado 128273" d="M120.978,152.187a.793.793,0,0,1-.037-1.584l12.364-.589a.8.8,0,0,1,.829.755.792.792,0,0,1-.754.829l-12.364.589h-.039" transform="translate(-24.922 -31.111)" fill="#f0af9b"/>
          <path id="Trazado_128274" data-name="Trazado 128274" d="M127.467,156.706l-12.082,0Z" transform="translate(-23.926 -32.499)" fill="#fff"/>
          <path id="Trazado_128275" data-name="Trazado 128275" d="M127.26,157.291H115.177a.793.793,0,0,1,0-1.585H127.26a.793.793,0,1,1,0,1.585" transform="translate(-23.719 -32.291)" fill="#f0af9b"/>
          <path id="Trazado_128276" data-name="Trazado 128276" d="M123.343,160.867l-7.788-.067Z" transform="translate(-23.962 -33.348)" fill="#fff"/>
          <path id="Trazado_128277" data-name="Trazado 128277" d="M123.136,161.452h-.007l-7.788-.067a.793.793,0,0,1,.013-1.585l7.789.067a.793.793,0,0,1-.007,1.585" transform="translate(-23.754 -33.14)" fill="#f0af9b"/>
          <path id="Trazado_128278" data-name="Trazado 128278" d="M49.4,162.949,8.991,165.187.579,180.979a4.869,4.869,0,0,0,5.548,6.969L51.939,176.38Z" transform="translate(0 -33.794)" fill="#202a54"/>
        </g>
      </g>
    </g>
  </g>
</svg>
