<svg xmlns="http://www.w3.org/2000/svg" xmlns:xlink="http://www.w3.org/1999/xlink" width="250" height="192" viewBox="0 0 250 192">
  <defs>
    <clipPath id="clip-path">
      <rect id="Rect치ngulo_37239" data-name="Rect치ngulo 37239" width="234.307" height="98.586" transform="translate(0 0)" fill="none"/>
    </clipPath>
  </defs>
  <g id="_62" data-name="62" transform="translate(-1147 -7057)">
    <rect id="Rect치ngulo_37250" data-name="Rect치ngulo 37250" width="250" height="192" transform="translate(1147 7057)" fill="none"/>
    <g id="Grupo_156777" data-name="Grupo 156777" transform="translate(1155 7104)">
      <g id="Grupo_156776" data-name="Grupo 156776" clip-path="url(#clip-path)">
        <path id="Trazado_127999" data-name="Trazado 127999" d="M204.39,48.879v.008a24.825,24.825,0,0,0-2.562-2.475c-5.072-4.235-11.568-5.657-17.413-6.165a122.938,122.938,0,0,0-19.343.188,75.742,75.742,0,0,0-19.343,3.584C139.665,46.136,134,49.2,130.291,54.154c-9.727,13.009-7.207,44.255-7.207,44.255l107.528,0s1.7.287,2-2.318l1.69-14.429Z" fill="#2a2a2a"/>
        <path id="Trazado_128000" data-name="Trazado 128000" d="M170.083,40.092c-1.69.08-3.371.19-5.041.31a94.509,94.509,0,0,0-10.75,1.34c-.41.99-3.047,6.712-.92,15.28,3.228,13,8.45,25.51,13.3,38.16.61-3.97,1.2-7.93,1.8-11.9,1.319-9.11,2.735-18.221,3.75-27.4.437-3.959.929-9.94-2.14-15.79" fill="#efefef"/>
        <path id="Trazado_128001" data-name="Trazado 128001" d="M184.976,58.087q-5.821,15.4-11.367,30.91-1.531,4.306-3.028,8.626c-.211.609.755.871.964.266,3.591-10.375,7.348-20.691,11.183-30.977q1.6-4.284,3.212-8.559c.228-.6-.738-.863-.964-.266" fill="#838383"/>
        <path id="Trazado_128002" data-name="Trazado 128002" d="M212.87,83.643c6.572,3.067,13.056,6.36,19.329,10a.5.5,0,0,0,.5-.863c-6.272-3.644-12.756-6.937-19.328-10-.58-.27-1.088.592-.505.864" fill="#838383"/>
        <path id="Trazado_128003" data-name="Trazado 128003" d="M208.884,98.408l-33.675.012L172.3,64.549a1,1,0,0,1,1-1.086h31.586a1,1,0,0,1,1,.914Z" fill="#efefef"/>
        <path id="Trazado_128004" data-name="Trazado 128004" d="M191.135,98.408c.059-2.052-3.23-3.13-3.23-3.13s3.23.151,3.22-1.912c-.007-1.559-3.352-2.417-3.874-2.516.465.084,2.994.672,2.952-1.421-.034-1.648-3.076-2.9-4.4-3.256A54.232,54.232,0,0,0,174.036,84.5l-.394-4.379a61.2,61.2,0,0,0-6.242,4.621h0c-.391.05-.774.106-1.145.17l3.46,13.5Z" fill="#bdbdbd"/>
        <path id="Trazado_128005" data-name="Trazado 128005" d="M161.864,57.207c1.512,9.749,2.852,19.522,3.939,29.329q.48,4.335.912,8.675c.063.635,1.064.641,1,0-.989-9.879-2.161-19.736-3.58-29.563q-.628-4.356-1.307-8.707c-.1-.634-1.062-.365-.964.266" fill="#2a2a2a"/>
        <path id="Trazado_128006" data-name="Trazado 128006" d="M140.091,64.531q7.537,13.16,15.576,26.024,2.277,3.644,4.593,7.262c.346.54,1.211.039.863-.505q-8.177-12.772-15.858-25.854-2.175-3.7-4.31-7.432a.5.5,0,0,0-.864.5" fill="#838383"/>
        <path id="Trazado_128007" data-name="Trazado 128007" d="M166.913,84.561l2.8,13.85H123.641l7.391-6.556s23.053-4.752,35.881-7.294" fill="#2a2a2a"/>
        <path id="Trazado_128008" data-name="Trazado 128008" d="M140.655,64.761c3.223-.514,6.431-1.117,9.654-1.631.634-.1.365-1.065-.266-.965-3.223.515-6.431,1.117-9.654,1.632-.634.1-.365,1.065.266.964" fill="#838383"/>
        <path id="Trazado_128009" data-name="Trazado 128009" d="M133.273,92.472c8.465-2.36,16.955-4.549,25.611-6.1,2.675-.478,5.358-.914,8.043-1.332.634-.1.365-1.063-.266-.965a254.346,254.346,0,0,0-25.618,5.24c-2.685.706-5.362,1.443-8.036,2.189a.5.5,0,0,0,.266.964" fill="#838383"/>
        <path id="Trazado_128010" data-name="Trazado 128010" d="M158.565,86.021q1.188,6.163,2.906,12.2a.5.5,0,0,0,.964-.266q-1.718-6.038-2.906-12.2c-.121-.631-1.085-.364-.964.266" fill="#838383"/>
        <path id="Trazado_128011" data-name="Trazado 128011" d="M176.085,89.6q5.443.564,10.835,1.513c.63.111.9-.853.266-.964q-5.521-.972-11.1-1.549c-.639-.066-.635.934,0,1" fill="#2a2a2a"/>
        <path id="Trazado_128012" data-name="Trazado 128012" d="M176.755,94.262q5.443.564,10.835,1.513c.63.111.9-.853.266-.964q-5.521-.972-11.1-1.549c-.639-.066-.635.934,0,1" fill="#2a2a2a"/>
        <path id="Trazado_128013" data-name="Trazado 128013" d="M216.137,83.352A41.715,41.715,0,0,0,206.81,75.2l.362,4.528a39.865,39.865,0,0,0-6.408-1.836c-1.39-.25-4.81-.76-5.41.83-.63,1.64,1.19,2.6,1.84,2.841-.83-.19-3.92-.711-4.58.649-.93,1.911,2,3.541,2,3.541s-2.64-.291-3.12,1.45a2.682,2.682,0,0,0,1.19,2.92,176.085,176.085,0,0,0,16.2,8.286l3.97,0,6.532-12.788c-.782-.475-3.249-2.271-3.249-2.271" fill="#bdbdbd"/>
        <path id="Trazado_128014" data-name="Trazado 128014" d="M208.631,84.459q-5.376-1.923-10.878-3.46a.5.5,0,0,0-.265.964q5.5,1.538,10.877,3.46c.607.217.869-.749.266-.964" fill="#2a2a2a"/>
        <path id="Trazado_128015" data-name="Trazado 128015" d="M205.931,88.866q-5.376-1.923-10.878-3.46a.5.5,0,0,0-.265.964q5.5,1.537,10.877,3.46c.607.217.869-.749.266-.964" fill="#2a2a2a"/>
        <path id="Trazado_128016" data-name="Trazado 128016" d="M221.78,98.343q2.361-4.079,4.585-8.227c.3-.567-.559-1.072-.864-.5q-2.226,4.152-4.584,8.226a.5.5,0,0,0,.863.505" fill="#838383"/>
        <path id="Trazado_128017" data-name="Trazado 128017" d="M147.548,43.642c-1.68,5.5-3.393,10.973-5.326,16.389-.217.607.749.869.964.266,1.933-5.416,3.646-10.891,5.326-16.389.189-.617-.776-.881-.964-.266" fill="#838383"/>
        <path id="Trazado_128018" data-name="Trazado 128018" d="M174.909,40.623A163.056,163.056,0,0,1,183.423,55c.3.571,1.161.066.864-.5a162.7,162.7,0,0,0-8.515-14.378c-.352-.535-1.218-.034-.863.505" fill="#838383"/>
        <path id="Trazado_128019" data-name="Trazado 128019" d="M142.571,60.646c2.509.772,4.963,1.712,7.472,2.483.617.19.881-.775.266-.964-2.509-.772-4.963-1.711-7.472-2.483-.617-.19-.88.775-.266.964" fill="#838383"/>
        <path id="Trazado_128020" data-name="Trazado 128020" d="M176.257,58.228l9.2.492c.643.035.641-.966,0-1l-9.2-.492c-.643-.034-.641.966,0,1" fill="#838383"/>
        <path id="Trazado_128021" data-name="Trazado 128021" d="M176.39,58.168l7.6-2.939c.594-.229.336-1.2-.266-.964q-3.8,1.469-7.6,2.94c-.594.229-.336,1.2.266.963" fill="#838383"/>
        <path id="Trazado_128022" data-name="Trazado 128022" d="M153.365,54.965a7.152,7.152,0,0,1,1.113-2.043c.367-.383.912.216,1.2.463q.636.554,1.272,1.11,2.544,2.222,5.089,4.442c.483.422,1.193-.283.707-.707l-6.079-5.306c-.716-.624-1.74-1.636-2.714-.87A6.334,6.334,0,0,0,152.5,54.46c-.255.584.606,1.094.863.505" fill="#2a2a2a"/>
        <path id="Trazado_128023" data-name="Trazado 128023" d="M163,58.872a17.375,17.375,0,0,1,4.345-5.343,2.865,2.865,0,0,1,1.413-.779,2.138,2.138,0,0,1,.956.222,17.25,17.25,0,0,1,2.223,1.109.5.5,0,0,0,.5-.863,18.175,18.175,0,0,0-2.515-1.231,2.729,2.729,0,0,0-2.821.465,17.891,17.891,0,0,0-4.968,5.915c-.3.569.562,1.075.863.505" fill="#2a2a2a"/>
        <path id="Trazado_128024" data-name="Trazado 128024" d="M153.845,41.863c3.655,8.564,5.454,11.553,8.936,20.208,2.147-9.33,5.728-12.73,8.216-21.992-1.035.09-10.127-1.741-17.152,1.784" fill="#bdbdbd"/>
        <path id="Trazado_128025" data-name="Trazado 128025" d="M168.549,26.759,171,40.079a24.507,24.507,0,0,1-16.712,1.695l-.439-8.014Z" fill="#bdbdbd"/>
        <path id="Trazado_128026" data-name="Trazado 128026" d="M151.858,17.534c.4,3.739-1.816,7.045-4.959,7.385s-6.018-2.416-6.422-6.155,1.816-7.045,4.959-7.385,6.018,2.416,6.422,6.155" fill="#3e3e3e"/>
        <path id="Trazado_128027" data-name="Trazado 128027" d="M168.814,9.588c-3.1-8.421-10.169-8.814-17.633-4.922s-8.625,7.774-8.042,14.956a151.065,151.065,0,0,0,2.606,17.709c.54,2.227,4.311,6.252,9.9,2.853a31.465,31.465,0,0,0,11.21-11.411c1.525-2.688,5.061-10.763,1.956-19.185" fill="#bdbdbd"/>
        <path id="Trazado_128028" data-name="Trazado 128028" d="M163.945,2.661A9.191,9.191,0,0,0,157.786,0c-5.313-.107-7.277,3.483-7.367,3.651a7.845,7.845,0,0,0-6.866,1.126c-3.4,2.319-4.577,6.516-2.628,9.374,1.743,2.554,5.25,2.839,8.574,1.615a13.294,13.294,0,0,0,4.2-2.282,1.788,1.788,0,0,0,.371,1.906c1.795,1.483,3.669-2.52,3.669-2.52s2.206,3.4,3.466,1.181c.221,2.2-.172,4.849.375,5.808a23.612,23.612,0,0,0,2.121,3.076s.054,7.582,5.7,8.442l-.849-4.62s2.426-8.807,2.667-15.363c.351-9.488-7.271-8.735-7.271-8.735" fill="#3e3e3e"/>
        <path id="Trazado_128029" data-name="Trazado 128029" d="M162.5,14.826c.785.916,1.826,1.79,3.118,1.525,1.343-.276,2.036-1.578,2.545-2.717l-.786.1a2.114,2.114,0,0,0,3.722-.986.516.516,0,0,0-.349-.615.5.5,0,0,0-.615.349,1.126,1.126,0,0,1-2.051.545.5.5,0,0,0-.785.1c-.381.854-.837,1.958-1.833,2.23-.934.255-1.716-.606-2.259-1.24-.419-.49-1.124.221-.707.707" fill="#919191"/>
        <path id="Trazado_128030" data-name="Trazado 128030" d="M152.2,6.272c-.358,1.074-.842,2.587-.146,3.627a2.987,2.987,0,0,0,2.244,1.107,3.255,3.255,0,0,0,2.257-.463,3.916,3.916,0,0,0,1.726-3.216l-.932.253c.5.771.771,1.871,1.57,2.4a4.2,4.2,0,0,0,2,.609,2.557,2.557,0,0,0,1.992-.634,3.828,3.828,0,0,0,.71-3.138l-.913.386a2.984,2.984,0,0,0,2.111,1.3c1.308.2,2.077-.768,2.276-1.968.1-.63-.859-.9-.964-.266-.13.781-.451,1.439-1.335,1.213a2.1,2.1,0,0,1-1.225-.789c-.266-.562-.982-.121-.914.385.094.7.045,1.876-.628,2.3a2.11,2.11,0,0,1-1.484.152,2.592,2.592,0,0,1-1.154-.44c-.55-.475-.787-1.416-1.181-2.022a.5.5,0,0,0-.931.252,2.872,2.872,0,0,1-1.561,2.563,2.756,2.756,0,0,1-1.3.127,2.147,2.147,0,0,1-1.5-.622c-.557-.73-.005-2.1.247-2.857.2-.612-.761-.875-.964-.266" fill="#919191"/>
        <path id="Trazado_128031" data-name="Trazado 128031" d="M147.575,20.477c-.364,1.362-1.531.456-3,.977-1.348.479-2.279.407-2.322-.363-.052-.931,1.206-2.115,3.163-2.25,1.832-.127,2.422.642,2.157,1.636" fill="#3e3e3e"/>
        <path id="Trazado_128032" data-name="Trazado 128032" d="M150.964,20.111c.646,1.253,1.593.119,3.137.314,1.42.18,2.314-.089,2.191-.85-.148-.921-1.63-1.808-3.57-1.523-1.817.267-2.229,1.145-1.758,2.059" fill="#3e3e3e"/>
        <path id="Trazado_128033" data-name="Trazado 128033" d="M146.247,23.671a1,1,0,0,0-.851-.43.942.942,0,0,0-.764.721,3.282,3.282,0,0,0-.077,1.16,2.082,2.082,0,0,0,.461,1.266.872.872,0,0,0,1.465-.42,2.882,2.882,0,0,0-.234-2.3" fill="#2a2a2a"/>
        <path id="Trazado_128034" data-name="Trazado 128034" d="M144.307,30.208a4.2,4.2,0,0,1-2.789-1.084,5.017,5.017,0,0,1-.714-6.612,4.166,4.166,0,0,1,2.929-1.726,4.557,4.557,0,0,1,4.84,4.231,4.906,4.906,0,0,1-.9,3.442,4.168,4.168,0,0,1-2.929,1.725,4.086,4.086,0,0,1-.441.024m-.139-8.445a3.018,3.018,0,0,0-.328.018,3.176,3.176,0,0,0-2.229,1.322,4.016,4.016,0,0,0,.569,5.271,3.124,3.124,0,0,0,4.69-.507,3.91,3.91,0,0,0,.709-2.742,3.607,3.607,0,0,0-3.411-3.362" fill="#2a2a2a"/>
        <path id="Trazado_128035" data-name="Trazado 128035" d="M154.541,22.775a1,1,0,0,0-.85-.43.941.941,0,0,0-.765.721,3.263,3.263,0,0,0-.076,1.161,2.074,2.074,0,0,0,.46,1.265.872.872,0,0,0,1.465-.42,2.878,2.878,0,0,0-.234-2.3" fill="#2a2a2a"/>
        <path id="Trazado_128036" data-name="Trazado 128036" d="M147.7,24.733a26.3,26.3,0,0,1-.319,4.69c-.06.367-.212.8.065,1.116a1.01,1.01,0,0,0,.951.225,5.1,5.1,0,0,0,2.073-.717c.547-.336.045-1.2-.505-.863a4.072,4.072,0,0,1-.987.449,4.231,4.231,0,0,1-.521.121c-.085.014-.169.024-.254.03l-.1.007c-.111-.006-.1.007.047.041l.129.22c-.015.1-.012.081.01-.045l.027-.159c.018-.106.035-.212.051-.319.038-.239.071-.478.1-.718.058-.445.107-.89.143-1.337a27.26,27.26,0,0,0,.084-2.741.5.5,0,0,0-1,0" fill="#2a2a2a"/>
        <path id="Trazado_128037" data-name="Trazado 128037" d="M158.787,23.922a4.652,4.652,0,1,0,4.569-4.733,4.651,4.651,0,0,0-4.569,4.733" fill="#bdbdbd"/>
        <path id="Trazado_128038" data-name="Trazado 128038" d="M165.635,25.982a3.565,3.565,0,0,0-1.958-5.3c-.614-.2-.876.764-.266.964a2.554,2.554,0,0,1,1.361,3.832c-.341.548.523,1.051.863.505" fill="#2a2a2a"/>
        <path id="Trazado_128039" data-name="Trazado 128039" d="M153.842,31.379c.119,3.618-4.137,4.77-6.191,1.665Z" fill="#fff"/>
        <path id="Trazado_128040" data-name="Trazado 128040" d="M155,41.521a14.782,14.782,0,0,0,5.022-3.813.514.514,0,0,0,0-.707.5.5,0,0,0-.708,0,14.08,14.08,0,0,1-4.819,3.656.505.505,0,0,0-.179.685.512.512,0,0,0,.684.179" fill="#2a2a2a"/>
        <path id="Trazado_128041" data-name="Trazado 128041" d="M154.459,29.111a4.605,4.605,0,0,1-4.4-4.254,4.909,4.909,0,0,1,.9-3.442,4.166,4.166,0,0,1,2.928-1.725,4.561,4.561,0,0,1,4.841,4.231,4.558,4.558,0,0,1-3.825,5.167,4.255,4.255,0,0,1-.435.023m-.145-8.444a3.018,3.018,0,0,0-.328.018,3.175,3.175,0,0,0-2.23,1.322,3.914,3.914,0,0,0-.708,2.743,3.376,3.376,0,1,0,6.677-.722,3.607,3.607,0,0,0-3.411-3.361" fill="#2a2a2a"/>
        <path id="Trazado_128042" data-name="Trazado 128042" d="M148.341,24.6l1.781-.192a.543.543,0,0,0,.354-.147.5.5,0,0,0-.354-.853l-1.781.192a.549.549,0,0,0-.354.146.514.514,0,0,0-.146.354.505.505,0,0,0,.5.5" fill="#2a2a2a"/>
        <path id="Trazado_128043" data-name="Trazado 128043" d="M158.021,22.521q1.764-1.233,3.588-2.377a.511.511,0,0,0,.18-.685.506.506,0,0,0-.684-.179q-1.824,1.143-3.589,2.378a.513.513,0,0,0-.179.684.5.5,0,0,0,.684.179" fill="#2a2a2a"/>
        <path id="Trazado_128044" data-name="Trazado 128044" d="M18.181,96.381H98.23S90.867,70.722,85.24,61.1a29.356,29.356,0,0,0-14.383-12c-11.35-4.1-24.578-4.9-36.548-4.036-5.589.4-11.387,1.219-16.52,3.531C11.45,51.452,7.445,56.4,5,63.147,1.2,73.645.647,82.49,0,96.381Z" fill="#efefef"/>
        <path id="Trazado_128045" data-name="Trazado 128045" d="M58.69,46.206a26.264,26.264,0,0,1,6.254,9.156c.151.384-.28.682-.615.614-1.326-.267-2.62-.651-3.915-1.04a12.018,12.018,0,0,0-1.925-.551c-.466-.054-.572.149-.834.476q-.268.334-.535.671c-1.473,1.854-2.914,3.754-4.556,5.465-.447.465-1.153-.243-.707-.707,1.819-1.9,3.393-4.016,5.033-6.064.346-.433.691-.879,1.3-.891a7,7,0,0,1,1.963.479c1.474.436,2.937.9,4.445,1.2l-.615.615a25.108,25.108,0,0,0-6-8.714c-.459-.452.248-1.159.707-.707" fill="#2a2a2a"/>
        <path id="Trazado_128046" data-name="Trazado 128046" d="M40.83,45.257a88.522,88.522,0,0,0-4.551,10.5l-.615-.615c1.762-.355,3.463-.93,5.191-1.416a2.443,2.443,0,0,1,1.931-.04,7.129,7.129,0,0,1,1.294.873c2.615,2.169,5.487,3.99,8.021,6.266.48.432-.229,1.137-.707.707-2.356-2.116-4.985-3.86-7.466-5.818a11.76,11.76,0,0,0-1.292-.965,2.162,2.162,0,0,0-.484-.267,3.671,3.671,0,0,0-1.459.332c-1.582.459-3.147.967-4.763,1.292-.336.068-.764-.23-.616-.616a90.834,90.834,0,0,1,4.653-10.734c.306-.566,1.17-.061.863.505" fill="#2a2a2a"/>
        <path id="Trazado_128047" data-name="Trazado 128047" d="M51.626,47.812q1.1,18.762.958,37.572-.036,5.283-.174,10.567a.5.5,0,0,1-1,0q.49-18.789-.266-37.583-.208-5.28-.518-10.556c-.038-.643.962-.641,1,0" fill="#2a2a2a"/>
        <path id="Trazado_128048" data-name="Trazado 128048" d="M65.094,10.1a8.157,8.157,0,0,1,4.673,2.082A7.2,7.2,0,0,1,72,16.259a4.7,4.7,0,0,1-.235,2.635c-.741,1.733-2.727,2.79-4.593,3.725Z" fill="#2a2a2a"/>
        <path id="Trazado_128049" data-name="Trazado 128049" d="M42.733,15.314C44.361,6.488,51.255,4.9,59.272,7.465s9.822,6.194,10.468,13.371a150.934,150.934,0,0,1,.445,17.893c-.154,2.286-3.185,6.9-9.274,4.5a31.476,31.476,0,0,1-12.987-9.337c-1.96-2.39-6.818-9.746-5.191-18.574" fill="#949494"/>
        <path id="Trazado_128050" data-name="Trazado 128050" d="M58.217,39.685l.119,6.506s-3.786,15.522-6.6,15.522c-2.023,0-9.291-16.888-9.291-16.888l2.431-18.967Z" fill="#949494"/>
        <path id="Trazado_128051" data-name="Trazado 128051" d="M65.7,23.265c.59,1.281,1.586.189,3.12.453,1.41.242,2.316.014,2.227-.753-.107-.926-1.549-1.878-3.5-1.679-1.826.186-2.277,1.045-1.847,1.979" fill="#2a2a2a"/>
        <path id="Trazado_128052" data-name="Trazado 128052" d="M63.335,23.264c-.424,1.345-1.549.388-3.038.843-1.368.419-2.3.306-2.3-.465-.01-.933,1.3-2.059,3.26-2.108,1.835-.046,2.391.749,2.082,1.73" fill="#2a2a2a"/>
        <path id="Trazado_128053" data-name="Trazado 128053" d="M66.1,26.354a9.1,9.1,0,0,0,.436,1.759c.2.565.5,1.087.714,1.647a2.271,2.271,0,0,1,.094,1.561,1.539,1.539,0,0,1-1.063,1.036c-.627.149-.894-.816-.267-.965a.635.635,0,0,0,.431-.625,2.6,2.6,0,0,0-.384-1.234,10.127,10.127,0,0,1-.926-2.913A.516.516,0,0,1,65.485,26a.5.5,0,0,1,.616.349" fill="#2a2a2a"/>
        <path id="Trazado_128054" data-name="Trazado 128054" d="M43.933,26.884c.69,1.279,2.863,5.866,3.505,5.866a6.069,6.069,0,0,0,4.908-3.155,9.214,9.214,0,0,0,.439-2.954c.692-2.185-.78-4.794-1.164-6.851a2.64,2.64,0,0,1,.677-2.628,3.007,3.007,0,0,1,2.154-.715c1.544.786,3.345,1.252,4.922.268a3.157,3.157,0,0,0,.859-.786c.376-.5.549-1.029,1.293-.774.981.337,1.823.941,2.843,1.214,1.623.435,4.136.439,4.822-1.471.658-1.835.512-2.429-.771-3.681-.028-.027-.265-.425-.294-.444A31.272,31.272,0,0,0,66.017,7.34C64.339,5.408,61.208,3.673,58.781,5.2a6.956,6.956,0,0,0-9.226-.682,3.3,3.3,0,0,0-2.84-.064c-1.577.726-2.182,2.629-2.224,4.238a7.741,7.741,0,0,1,.013,1.427c-.117.5-.576.673-.961.954a5.306,5.306,0,0,0-1.587,1.956,9.515,9.515,0,0,0-.411,6.036,51.971,51.971,0,0,0,2.388,7.822" fill="#2a2a2a"/>
        <path id="Trazado_128055" data-name="Trazado 128055" d="M43.933,26.884l-.3,8.653S49.717,35.027,51,31.5s-7.071-4.617-7.071-4.617" fill="#2a2a2a"/>
        <path id="Trazado_128056" data-name="Trazado 128056" d="M55.062,26.064a4.652,4.652,0,1,1-6.286-1.938,4.653,4.653,0,0,1,6.286,1.938" fill="#949494"/>
        <path id="Trazado_128057" data-name="Trazado 128057" d="M52.573,23.049S55.684,33.888,58.6,36.7c3.65,3.518,9.619,2.853,11.641.6a8.1,8.1,0,0,1-.1,6.033c-1.408,2.865-5.724,3.579-9.906,2.056-5.782-2.106-7.248-7.776-8.434-11.82s-2.929-11.1-2.929-11.1Z" fill="#2a2a2a"/>
        <path id="Trazado_128058" data-name="Trazado 128058" d="M75.876,76.733q.421,9.772.573,19.553a.5.5,0,0,1-1,0q-.165-9.78-.573-19.553c-.028-.643.972-.642,1,0" fill="#2a2a2a"/>
        <path id="Trazado_128059" data-name="Trazado 128059" d="M45.261,76.571c-4.346.022-8.7-.048-13.04.172-.643.032-.641-.968,0-1,4.343-.22,8.694-.15,13.04-.172a.5.5,0,0,1,0,1" fill="#2a2a2a"/>
        <path id="Trazado_128060" data-name="Trazado 128060" d="M45.761,76.071c-.031,1.935-.049,3.869-.08,5.8s-.129,4.018-1.555,5.508a7.363,7.363,0,0,1-4.649,1.976,7.487,7.487,0,0,1-5.451-1.31c-.505-.4.207-1.1.707-.707a6.687,6.687,0,0,0,4.922,1,5.807,5.807,0,0,0,4.123-2.1c1.046-1.494.892-3.5.916-5.237.023-1.645.04-3.29.067-4.935a.5.5,0,0,1,1,0" fill="#2a2a2a"/>
        <path id="Trazado_128061" data-name="Trazado 128061" d="M32.722,76.243a24.028,24.028,0,0,0,.117,5.8c.225,1.734.554,4.03,1.9,5.3.468.443-.24,1.149-.708.708-1.447-1.368-1.865-3.7-2.13-5.577a24.755,24.755,0,0,1-.174-6.23c.073-.632,1.074-.639,1,0" fill="#2a2a2a"/>
        <path id="Trazado_128062" data-name="Trazado 128062" d="M61.21,26.882c-.011-.01-.093-.077-.034-.031s-.013-.008-.023-.015c-.045-.031-.091-.061-.139-.088s-.1-.049-.146-.075.084.031.019.008l-.086-.032a2.649,2.649,0,0,0-.318-.082c-.066-.013,0-.008.024,0a.46.46,0,0,0-.091-.009q-.083-.006-.165-.006c-.049,0-.1,0-.147,0l-.091.008c-.071.006.093-.017.024,0a2.93,2.93,0,0,0-.32.079l-.085.03c-.062.022-.011-.005.018-.008a.5.5,0,0,0-.147.074c-.047.026-.094.055-.139.086,0,0-.061.041-.06.042.048-.037.058-.045.029-.021l-.042.035a.5.5,0,0,1-.707-.707,2.571,2.571,0,0,1,3.333,0,.5.5,0,0,1,0,.707.513.513,0,0,1-.707,0" fill="#2a2a2a"/>
        <path id="Trazado_128063" data-name="Trazado 128063" d="M69.471,26.57c-.011-.01-.093-.077-.034-.031s-.013-.008-.023-.015c-.045-.031-.091-.061-.139-.088s-.1-.049-.146-.075.084.031.019.007l-.086-.031a2.473,2.473,0,0,0-.318-.082c-.066-.013,0-.008.024,0a.4.4,0,0,0-.091-.009q-.083-.006-.165-.006c-.049,0-.1,0-.147,0l-.091.008c-.071.005.093-.017.024,0a2.93,2.93,0,0,0-.32.079l-.086.03c-.061.022-.01,0,.019-.008a.5.5,0,0,0-.147.074c-.047.026-.094.055-.139.086,0,0-.061.041-.06.042.048-.037.058-.045.029-.022l-.042.036a.5.5,0,1,1-.707-.707,2.571,2.571,0,0,1,3.333,0,.5.5,0,0,1,0,.707.513.513,0,0,1-.707,0" fill="#2a2a2a"/>
        <path id="Trazado_128064" data-name="Trazado 128064" d="M61.358,33.728c.879,3.512,5.288,3.452,6.41-.1Z" fill="#fff"/>
        <path id="Trazado_128065" data-name="Trazado 128065" d="M24.5,63.1a6.071,6.071,0,0,0,2.658,5.031c.533.355.033,1.221-.505.863A7.105,7.105,0,0,1,23.5,63.1a.5.5,0,0,1,1,0" fill="#999"/>
        <path id="Trazado_128066" data-name="Trazado 128066" d="M29.712,55.786a6.07,6.07,0,0,0-1.245-5.552c-.421-.482.289-1.187.714-.7a7.108,7.108,0,0,1,1.5,6.515.5.5,0,0,1-.965-.262" fill="#999"/>
        <path id="Trazado_128067" data-name="Trazado 128067" d="M65.729,78.5a6.071,6.071,0,0,0,2.841-4.93c.016-.64,1.016-.678,1-.033a7.1,7.1,0,0,1-3.307,5.809.5.5,0,0,1-.533-.846" fill="#999"/>
        <path id="Trazado_128068" data-name="Trazado 128068" d="M85.246,84.678a6.071,6.071,0,0,0-3.793,4.241c-.147.624-1.133.456-.985-.173A7.107,7.107,0,0,1,84.9,83.74a.5.5,0,0,1,.348.938" fill="#999"/>
        <path id="Trazado_128069" data-name="Trazado 128069" d="M6.817,80.836a6.068,6.068,0,0,0,5.32-2.017c.418-.486,1.216.118.8.607a7.1,7.1,0,0,1-6.238,2.4.5.5,0,0,1,.123-.992" fill="#999"/>
        <path id="Trazado_128070" data-name="Trazado 128070" d="M38.416,66.425a6.069,6.069,0,0,0,5.32-2.017c.418-.485,1.216.118.795.607a7.1,7.1,0,0,1-6.238,2.4.5.5,0,0,1,.123-.992" fill="#999"/>
        <path id="Trazado_128071" data-name="Trazado 128071" d="M12.482,64.427A6.068,6.068,0,0,0,7.24,66.641c-.4.5-1.219-.073-.816-.578a7.106,7.106,0,0,1,6.144-2.632.5.5,0,0,1-.086,1" fill="#999"/>
        <path id="Trazado_128072" data-name="Trazado 128072" d="M24.381,90.525a6.068,6.068,0,0,1,5.242,2.214c.4.5,1.219-.073.816-.578A7.106,7.106,0,0,0,24.3,89.529a.5.5,0,0,0,.086,1" fill="#999"/>
        <path id="Trazado_128073" data-name="Trazado 128073" d="M59.579,62.223a6.072,6.072,0,0,0-1.473,5.5c.15.623-.806.918-.957.29a7.106,7.106,0,0,1,1.7-6.466.5.5,0,0,1,.733.68" fill="#999"/>
        <path id="Trazado_128074" data-name="Trazado 128074" d="M64.078,90.791a6.068,6.068,0,0,0-5.6.993c-.5.4-1.174-.342-.668-.744a7.1,7.1,0,0,1,6.576-1.2.5.5,0,0,1-.306.952" fill="#999"/>
        <path id="Trazado_128075" data-name="Trazado 128075" d="M74.613,61.4a6.069,6.069,0,0,0,5,2.725c.64,0,.7,1,.056,1a7.1,7.1,0,0,1-5.884-3.171.5.5,0,0,1,.833-.552" fill="#999"/>
        <path id="Trazado_128076" data-name="Trazado 128076" d="M51.012,19.1a3.2,3.2,0,0,1-5.663.35l.684.179a2.2,2.2,0,0,1-3.316-1.373c-.1-.63.862-.9.965-.266a1.2,1.2,0,0,0,1.847.775.507.507,0,0,1,.684.18,2.265,2.265,0,0,0,2.114,1.047,2.3,2.3,0,0,0,1.822-1.4c.261-.586,1.123-.078.863.505" fill="#838383"/>
        <path id="Trazado_128077" data-name="Trazado 128077" d="M60.15,14.51a7.4,7.4,0,0,0-1.023-2.655,5.411,5.411,0,0,0-.914-1.14c-.426-.381-.888-.246-1.406-.174-1.935.27-3.493-1.092-4.771-2.36a.5.5,0,0,1,.707-.707,8.944,8.944,0,0,0,2.271,1.792,2.933,2.933,0,0,0,1.317.318,6.82,6.82,0,0,1,1.68-.092c.9.206,1.556,1.177,2.015,1.916a8.161,8.161,0,0,1,1.088,2.836c.115.629-.848.9-.964.266" fill="#838383"/>
        <path id="Trazado_128078" data-name="Trazado 128078" d="M50.343,13.211A5.549,5.549,0,0,0,46.037,11.1a.5.5,0,0,1,0-1A6.5,6.5,0,0,1,51.05,12.5a.516.516,0,0,1,0,.707.5.5,0,0,1-.707,0" fill="#838383"/>
        <path id="Trazado_128079" data-name="Trazado 128079" d="M21.691,77.3q-.481,9.435-.565,18.884a.5.5,0,0,1-1,0q.083-9.447.565-18.884c.033-.64,1.033-.644,1,0" fill="#2a2a2a"/>
        <path id="Trazado_128080" data-name="Trazado 128080" d="M84.581,49.94a3,3,0,1,1-3-3,3,3,0,0,1,3,3" fill="#fff"/>
        <path id="Trazado_128081" data-name="Trazado 128081" d="M74.581,49.94a3,3,0,1,1-3-3,3,3,0,0,1,3,3" fill="#fff"/>
        <path id="Trazado_128082" data-name="Trazado 128082" d="M82.011,36.292h33.724a5.832,5.832,0,0,1,5.815,5.814v3.268a5.832,5.832,0,0,1-5.815,5.815H82.011A5.832,5.832,0,0,1,76.2,45.374V42.106a5.831,5.831,0,0,1,5.814-5.814" fill="#efefef"/>
        <path id="Trazado_128083" data-name="Trazado 128083" d="M76.2,42.106V34.217a1,1,0,0,1,1.358-.933l7.856,3.008Z" fill="#efefef"/>
        <path id="Trazado_128084" data-name="Trazado 128084" d="M107.83,42.817a.924.924,0,0,1,0,1.846.924.924,0,0,1,0-1.846" fill="#2a2a2a"/>
        <path id="Trazado_128085" data-name="Trazado 128085" d="M98.855,42.817a.924.924,0,0,1,0,1.846.924.924,0,0,1,0-1.846" fill="#2a2a2a"/>
        <path id="Trazado_128086" data-name="Trazado 128086" d="M89.881,42.817a.924.924,0,0,1,0,1.846.924.924,0,0,1,0-1.846" fill="#2a2a2a"/>
      </g>
    </g>
  </g>
</svg>
