<svg xmlns="http://www.w3.org/2000/svg" width="245.026" height="183.469" viewBox="0 0 245.026 183.469">
  <g id="Grupo_157130" data-name="Grupo 157130" transform="translate(-285 -4122)">
    <g id="Image_Place_Holder" data-name="Image Place Holder" transform="translate(285 4189.469)">
      <rect id="Image_Place_Holder-2" data-name="Image Place Holder" width="245.027" height="116" rx="10" fill="#c9f0ee"/>
    </g>
    <g id="Grupo_156890" data-name="Grupo 156890">
      <g id="Grupo_156889" data-name="Grupo 156889">
        <g id="Grupo_156855" data-name="Grupo 156855" transform="translate(0)">
          <g id="Grupo_156848" data-name="Grupo 156848" transform="translate(328 4127)">
            <g id="Grupo_156853" data-name="Grupo 156853" transform="translate(0 0)">
              <path id="Trazado_128404" data-name="Trazado 128404" d="M.8,124.527a3.5,3.5,0,0,0,2.536,1.688c2.58.26,5.165.051,7.745.115.506.013,1.013-.006,1.519.006a3.414,3.414,0,0,1,1.446.2c.531,0,1.062.01,1.593.01q64.824.035,129.648.054c3.494.006,4.833-2.3,4.347-4.379a6.714,6.714,0,0,0-.715-1.66q-30.2-54.759-60.41-109.51c-.151-.274-.284-.559-.415-.845-.058-.033-.111-.076-.17-.109a8.217,8.217,0,0,1-1.957-2.855C82.749,1.1,76.772-1.225,70.318,1.173a10.921,10.921,0,0,0-5.677,4.839c-3.759,6.422-7.253,13-10.859,19.5Q45.942,39.663,38.145,53.834,30.657,67.4,23.163,80.955c-5.665,10.229-11.275,20.49-16.98,30.7-1.7,3.049-3.3,6.156-5.083,9.162-.259.438-.342,1.118-1.1,1.064v2.129c.458-.127.629.242.8.52m9.478-6.25q29.844-54.047,59.7-108.09c1.473-2.665,3.944-3.779,6.586-2.976a4.68,4.68,0,0,1,3.168,2.812q9.148,16.524,18.291,33.048,20.5,37.137,40.987,74.284c.339.613.669,1.23,1.022,1.877-.41.346-.827.207-1.2.207q-59.882.013-119.767.007c-.252,0-.5-.025-.755-.038H9.834c-.065-.5.253-.795.439-1.131" transform="translate(0 0.111)"/>
              <path id="Trazado_128405" data-name="Trazado 128405" d="M3.188,87.845c3.618-.121,7.237-.044,10.855-.019a3.391,3.391,0,0,0-1.446-.2c-.506-.012-1.013.007-1.519-.006-2.58-.064-5.165.146-7.745-.115A3.5,3.5,0,0,1,.8,85.82c-.167-.279-.338-.646-.8-.52.725,1.273,1.564,2.4,3.188,2.545" transform="translate(0 38.819)"/>
              <path id="Trazado_128406" data-name="Trazado 128406" d="M1.1,120.925c1.78-3.007,3.379-6.113,5.083-9.162,5.7-10.208,11.314-20.468,16.98-30.7q7.507-13.551,14.982-27.12,7.817-14.16,15.638-28.319c3.606-6.509,7.1-13.083,10.859-19.5a10.921,10.921,0,0,1,5.677-4.839c6.454-2.4,12.432-.068,15.647,6.065A8.217,8.217,0,0,0,87.922,10.2c.06.033.112.076.17.111-.077-.17-.154-.341-.234-.509-.608-1.045-1.233-2.08-1.82-3.135C83.647,2.379,80.035.022,75.091,0A12.086,12.086,0,0,0,63.834,6.693Q35.489,57.963,7.166,109.243c-2.357,4.267-4.776,8.5-7.166,12.748.758.054.841-.627,1.1-1.065" transform="translate(0 0)"/>
              <path id="Trazado_128407" data-name="Trazado 128407" d="M7.251,87.159c1.163.023,2.325.031,3.488.047a.409.409,0,0,0,0-.042c-1.164,0-2.327-.006-3.49,0" transform="translate(3.301 39.677)"/>
              <path id="Trazado_128408" data-name="Trazado 128408" d="M104.134,43.264q10.224,18.58,20.474,37.145c6.115,11.095,12.206,22.2,18.382,33.262.668,1.195,1.275,2.422,1.962,3.606a4.118,4.118,0,0,1-3.75,6.418c-10.693-.125-21.389-.045-32.083-.045-32.085,0-64.17.054-96.253-.06-1.013,0-2.027-.028-3.04-.041a2.978,2.978,0,0,1-.1,1.483c.391.335.866.179,1.3.179q68.79.011,137.582.006c1.853,0,1.895-.029.963-1.72q-5.206-9.452-10.417-18.9-7.31-13.324-14.638-26.639Q117.674,65.5,110.8,53.067q-7.256-13.182-14.491-26.373c-2.868-5.245-5.787-10.462-8.653-15.708a10.236,10.236,0,0,0-3.445-3.657,32.218,32.218,0,0,1,2.571,4.536q8.731,15.671,17.354,31.4" transform="translate(4.428 3.336)" fill="#29c4bb"/>
              <path id="Trazado_128409" data-name="Trazado 128409" d="M3.809,87.207c1.912.013,3.829.007,5.744.007q-3.68-.076-7.362-.173c.506.354,1.08.162,1.618.166" transform="translate(0.997 39.623)" fill="#e46976"/>
              <path id="Trazado_128410" data-name="Trazado 128410" d="M87.9,11.255c2.864,5.246,5.783,10.463,8.651,15.708q7.221,13.2,14.493,26.373,6.852,12.449,13.718,24.89,7.319,13.322,14.64,26.639,5.193,9.46,10.418,18.9c.93,1.691.889,1.72-.966,1.72q-68.79,0-137.58-.007c-.434,0-.907.156-1.3-.178a2.983,2.983,0,0,0,.1-1.484l-.212,0c.042.843-.723,1.291-.687,2.081H151.251c.048-.605-.338-.984-.575-1.412q-20.082-36.528-40.182-73.05Q99.335,31.144,88.172,10.852a8.547,8.547,0,0,0-4.489-4.114,7.869,7.869,0,0,1,.777.86A10.26,10.26,0,0,1,87.9,11.255" transform="translate(4.177 3.067)" fill="#29c4bb"/>
              <path id="Trazado_128411" data-name="Trazado 128411" d="M9.86,123.659c1.013.013,2.027.036,3.04.041,32.083.114,64.168.06,96.253.06,10.694,0,21.39-.08,32.083.045a4.118,4.118,0,0,0,3.75-6.418c-.685-1.185-1.294-2.411-1.96-3.606-6.177-11.06-12.269-22.168-18.384-33.262Q114.4,61.947,104.169,43.374q-8.646-15.716-17.352-31.4a32.324,32.324,0,0,0-2.573-4.537c-.18-.118-.355-.24-.543-.349.13.285.263.57.415.845q30.2,54.755,60.408,109.509a6.706,6.706,0,0,1,.715,1.66c.486,2.082-.851,4.385-4.347,4.38q-64.824-.092-129.647-.054c-.533,0-1.064-.007-1.595-.01a.48.48,0,0,1,.21.24" transform="translate(4.393 3.226)" fill="#29c4bb"/>
              <path id="Trazado_128412" data-name="Trazado 128412" d="M13.046,87.043c-3.618-.025-7.237-.1-10.855.019,2.454.06,4.908.122,7.363.172,1.163,0,2.325,0,3.49,0a.409.409,0,0,1,0,.042l.212,0a.494.494,0,0,0-.21-.24" transform="translate(0.997 39.603)" fill="#e46976"/>
              <path id="Trazado_128413" data-name="Trazado 128413" d="M60.608,7.247c.188.109.364.233.543.351a7.447,7.447,0,0,0-.777-.86c.08.169.157.339.234.509" transform="translate(27.484 3.067)" fill="#e46976"/>
              <path id="Trazado_128414" data-name="Trazado 128414" d="M69.723,12.381q-27.449,50-54.928,99.986c-.732,1.332-1.477,2.654-2.215,3.982.252.013.5.038.755.038q59.884,0,119.767-.006c.37,0,.786.14,1.2-.207-.352-.649-.683-1.266-1.022-1.879Q112.786,77.154,92.29,40.011,83.162,23.478,74,6.963c-2.011,1.345-3.151,3.363-4.278,5.418M69.407,102.3a6.22,6.22,0,0,1-6.364-6.313,6.311,6.311,0,0,1,6.3-6.26,6.375,6.375,0,0,1,6.374,6.356,6.234,6.234,0,0,1-6.31,6.217m6.084-43.773c.546,3.864-.1,7.676-.381,11.5-.294,4.086-.741,8.159-1.135,12.237a9.083,9.083,0,0,1-.9,3.2,4.041,4.041,0,0,1-4.051,2.379,3.945,3.945,0,0,1-3.744-2.6,13.99,13.99,0,0,1-.975-4.581c-.466-6.56-.86-13.125-1.281-19.689a16.12,16.12,0,0,1,.183-2.721,6.222,6.222,0,0,1,6.754-5.418c3.206.111,5.012,2.037,5.528,5.7" transform="translate(5.727 3.169)" fill="#29c4bb"/>
              <path id="Trazado_128415" data-name="Trazado 128415" d="M70.748,9.9c-4.059,7.131-7.935,14.363-11.9,21.551Q53.319,41.5,47.795,51.556,42.366,61.4,36.971,71.265q-5.525,10.054-11.051,20.1c-4.3,7.81-8.6,15.616-12.851,23.451-.252.463-.706.9-.469,1.528.739-1.327,1.484-2.65,2.216-3.982Q42.285,62.377,69.744,12.381c1.128-2.055,2.267-4.073,4.278-5.418C72.341,7.286,71.49,8.6,70.748,9.9" transform="translate(5.706 3.169)" fill="#fefefe"/>
              <path id="Trazado_128416" data-name="Trazado 128416" d="M47.428,43.9a15.977,15.977,0,0,0-.183,2.723c.421,6.563.813,13.128,1.281,19.688a13.99,13.99,0,0,0,.975,4.581,3.944,3.944,0,0,0,3.743,2.6,4.039,4.039,0,0,0,4.051-2.379,9.086,9.086,0,0,0,.9-3.2c.394-4.078.84-8.151,1.135-12.236.276-3.826.926-7.639.381-11.5-.518-3.663-2.323-5.59-5.528-5.7A6.222,6.222,0,0,0,47.428,43.9" transform="translate(21.507 17.514)"/>
              <path id="Trazado_128417" data-name="Trazado 128417" d="M53.555,63.836a6.308,6.308,0,0,0-6.3,6.259,6.337,6.337,0,0,0,12.672.1,6.374,6.374,0,0,0-6.374-6.356" transform="translate(21.513 29.06)"/>
            </g>
          </g>
          <rect id="Rectángulo_37264" data-name="Rectángulo 37264" width="176" height="142" transform="translate(320 4122)" fill="none"/>
        </g>
      </g>
      <g id="Grupo_156880" data-name="Grupo 156880" transform="translate(317 4092)">
        <path id="Trazado_126894" data-name="Trazado 126894" d="M19.994,132.814c-1.384.308-1.7-.344-1.691-1.637.035-3.239-.02-3.3-3.373-3.277-1.247.007-1.635-.379-1.611-1.614.023-1.15.233-1.685,1.56-1.68,3.363.013,3.449-.055,3.413-3.411-.016-1.518.729-1.546,1.855-1.558s1.709.176,1.709,1.525c0,3.4.069,3.46,3.389,3.446,1.284-.005,1.588.458,1.591,1.651s-.3,1.65-1.586,1.642c-3.385-.019-3.466.044-3.391,3.25.035,1.488-.514,1.924-1.864,1.662" transform="translate(-8.318 -24.997)" fill="#29c4bb"/>
        <path id="Trazado_126895" data-name="Trazado 126895" d="M217.019,151.2c1.239-.236,1.925.173,1.721,1.576-.171,1.173.235,1.827,1.534,1.626s1.736.269,1.747,1.636c.01,1.433-.575,1.764-1.8,1.6-1.167-.158-1.537.35-1.514,1.511.037,1.819-1.089,2.517-2.848,1.966-.835-.261-.652-.928-.6-1.455.146-1.438-.182-2.318-1.879-2.03-1.313.223-1.394-.6-1.39-1.608,0-.992.043-1.823,1.375-1.617,1.436.222,2.115-.3,1.877-1.82-.227-1.449.7-1.513,1.773-1.385" transform="translate(-45.658 -33.953)" fill="#29c4bb"/>
        <path id="Trazado_126896" data-name="Trazado 126896" d="M217.407,72.615c.32,1.382-.312,1.855-1.608,1.637-1.4-.236-1.976.339-1.728,1.733.24,1.35-.344,1.672-1.651,1.684-1.349.012-1.857-.386-1.622-1.7.251-1.4-.332-1.974-1.721-1.714-1.439.27-1.565-.482-1.619-1.692-.064-1.421.488-1.791,1.725-1.576,1.345.235,1.847-.322,1.618-1.636-.219-1.257.187-1.766,1.587-1.716,1.235.044,1.948.219,1.684,1.634s.35,1.948,1.73,1.716c1.3-.218,1.927.247,1.605,1.629" transform="translate(-69.45 3.711)" fill="#010000"/>
        <path id="Trazado_126897" data-name="Trazado 126897" d="M61.718,190.022c.3,1.289-.334,1.763-1.623,1.53-1.514-.274-1.871.514-1.654,1.789.241,1.418-.446,1.638-1.691,1.63-1.19-.007-1.83-.277-1.579-1.559.328-1.685-.514-2.1-1.965-1.85-1.489.254-1.419-.685-1.425-1.706,0-.988.021-1.827,1.366-1.561,1.809.358,2.271-.511,2.027-2.13-.234-1.55.947-1.1,1.736-1.151.835-.05,1.766-.158,1.522,1.187-.3,1.662.282,2.433,2.041,2.1,1.469-.282,1.289.742,1.245,1.725" transform="translate(-14.582 -24.322)" fill="#010000"/>
        <path id="Trazado_126898" data-name="Trazado 126898" d="M121.84,20.724c-.346-1.471.467-1.758,1.671-1.579,1.251.186,1.743-.332,1.553-1.564s.175-1.792,1.593-1.763c1.3.026,1.9.364,1.672,1.7-.232,1.372.4,1.818,1.687,1.625,1.192-.178,1.789.107,1.8,1.562.007,1.491-.555,1.891-1.854,1.684-1.373-.219-1.838.407-1.626,1.687.239,1.438-.533,1.6-1.742,1.628-1.293.026-1.714-.459-1.524-1.645.208-1.3-.273-1.895-1.63-1.667-1.325.222-1.891-.324-1.595-1.669" transform="translate(-84.601 17.184)" fill="#29c4bb"/>
      </g>
    </g>
  </g>
</svg>
