<svg xmlns="http://www.w3.org/2000/svg" xmlns:xlink="http://www.w3.org/1999/xlink" width="245.026" height="183.469" viewBox="0 0 245.026 183.469">
  <defs>
    <clipPath id="clip-path">
      <rect id="Rect치ngulo_37272" data-name="Rect치ngulo 37272" width="128.124" height="105.625" fill="none"/>
    </clipPath>
  </defs>
  <g id="_90" data-name="90" transform="translate(-285 -4461)">
    <g id="Image_Place_Holder" data-name="Image Place Holder" transform="translate(285 4528.469)">
      <rect id="Image_Place_Holder-2" data-name="Image Place Holder" width="245.027" height="116" rx="10" fill="#c9f0ee"/>
    </g>
    <g id="Grupo_156892" data-name="Grupo 156892" transform="translate(-1)">
      <g id="Grupo_156861" data-name="Grupo 156861" transform="translate(1)">
        <rect id="Rect치ngulo_37268" data-name="Rect치ngulo 37268" width="176" height="142" transform="translate(320 4461)" fill="none"/>
        <g id="Grupo_156860" data-name="Grupo 156860" transform="translate(344 4479)">
          <g id="Grupo_156859" data-name="Grupo 156859" clip-path="url(#clip-path)">
            <path id="Trazado_128511" data-name="Trazado 128511" d="M145.859,87.118c1.841,1.564,2.634,3.33,2.165,5.55-.1.495.177.816.4,1.183,3.139,5.181,3.4,10.51.383,15.765s-7.771,7.714-13.822,7.616a7.06,7.06,0,0,1-2.682-.394c-1.954-.865-3.747-.459-5.716.032a20.536,20.536,0,0,1-25.216-17.644,2.05,2.05,0,0,1-.041-.387c.119-1.42-.435-1.981-1.943-2.229a5.21,5.21,0,0,1,.972-10.251c.271-.021.832.295.762-.318-.075-.664-.619-.244-.922-.2-.64.084-1.261.3-1.9.414a1.524,1.524,0,0,1-1.981-1.2,1.424,1.424,0,0,1,1.359-1.835c1.294-.105,1.422-.75,1.429-1.859a99.266,99.266,0,0,1,.2-10.912,24.124,24.124,0,0,1,47.513-1.767,29.337,29.337,0,0,1,.521,6.464c0,3.251-.011,6.5.016,9.755.009,1.059-.245,1.9-1.5,2.222" transform="translate(-22.807 -11.844)"/>
            <path id="Trazado_128512" data-name="Trazado 128512" d="M47.184,84.985a13.037,13.037,0,0,1,2.719.5,5.272,5.272,0,0,1,3.112,5.235,5.081,5.081,0,0,1-4.159,4.7c-1.253.177-1.5.661-1.625,1.824-1.069,9.733-7.334,16.677-16.683,18.623A20.656,20.656,0,0,1,6.231,98.1c-.014-.129-.04-.258-.042-.387-.017-1.313-.213-2.186-1.954-2.378C2.064,95.1.468,92.839.319,90.577A5.069,5.069,0,0,1,3.6,85.472c1.033-.351.854-.765.543-1.47a47.7,47.7,0,0,1-4-13.243,12.549,12.549,0,0,1,.623-6.393,5.84,5.84,0,0,1,2.863-3.235,6.216,6.216,0,0,0,2.119-1.814A16.076,16.076,0,0,1,20.06,53.2a2.517,2.517,0,0,0,1.374-.215,9.138,9.138,0,0,1,8.028-.183,1.667,1.667,0,0,0,1.349.028A9.412,9.412,0,0,1,41.563,55.5a9.789,9.789,0,0,0,3.888,2.829c2.843,1.043,4.279,3.419,4.472,6.436.046.737.232,1,.941,1.2a5.243,5.243,0,0,1,3.627,7.124c-1.511,4.46-3.419,8.676-7.308,11.9" transform="translate(0 -12.416)"/>
            <path id="Trazado_128513" data-name="Trazado 128513" d="M75.836.006q9.559,0,19.116,0a6.851,6.851,0,0,1,7.215,7.159q.023,10.337,0,20.675a6.788,6.788,0,0,1-7.06,7.032c-6.242.014-12.484.03-18.726-.02-1.111-.009-1.489.2-1.567,1.433-.363,5.77-3.329,9.778-8.6,12.09-.753.33-1.556.656-2.331.041-.794-.631-.559-1.481-.41-2.285a18.82,18.82,0,0,0,.188-6.971c-.557-2.97-2.087-4.259-5.077-4.291a15.2,15.2,0,0,1-3.879-.226A6.748,6.748,0,0,1,49.61,28.2c-.033-7.151-.046-14.3,0-21.455A6.775,6.775,0,0,1,56.459.013C62.919-.012,69.377.006,75.836.006" transform="translate(-11.846 0)"/>
            <path id="Trazado_128514" data-name="Trazado 128514" d="M100.829,52.026c-1.951,0-3.9.01-5.854,0-1.294-.009-1.959-.554-1.959-1.559s.664-1.554,1.959-1.557c3.9-.01,7.805.006,11.707-.011,1.067,0,1.783.409,1.908,1.5.109.951-.692,1.611-1.907,1.621-1.951.017-3.9,0-5.854,0" transform="translate(-22.225 -11.683)"/>
            <path id="Trazado_128515" data-name="Trazado 128515" d="M87.179,52.029c-1.388,0-2.1-.511-2.12-1.534-.018-1.042.686-1.586,2.061-1.591,1.354-.005,2.126.546,2.146,1.532s-.753,1.588-2.088,1.592" transform="translate(-20.324 -11.685)" fill="#294369"/>
            <path id="Trazado_128516" data-name="Trazado 128516" d="M107.05,99.646c0-2.427.029-4.464-.017-6.5a1,1,0,0,1,.834-1.186c7.472-2.225,14.357-5.56,20.159-10.874.832-.762.983-.026,1.29.428,2.776,4.1,5.986,7.85,10.462,10.077,2.084,1.037,2.587,2.245,2.445,4.347-.248,3.669.246,7.367-.275,11.032a17.562,17.562,0,0,1-34.374,1.6c-.766-3.083-.422-6.206-.524-8.924" transform="translate(-25.574 -19.295)" fill="#fed7b6"/>
            <path id="Trazado_128517" data-name="Trazado 128517" d="M146.243,84.585a21.021,21.021,0,0,1-9.791-5.136,31.781,31.781,0,0,1-5.754-6.994,1.06,1.06,0,0,1,.119-1.462,31.578,31.578,0,0,0,4.592-7.649,1.768,1.768,0,0,0-.728-2.516c-.823-.386-1.674.1-2.164,1.306a28.433,28.433,0,0,1-7.5,10.467,45.162,45.162,0,0,1-14.237,8.386q-2.726,1.047-5.528,1.868c-.8.233-.961-.005-.948-.757.038-2.038.032-4.077,0-6.115-.009-.63.195-.877.833-1.038,1.674-.423,3.324-.944,4.968-1.471,1.228-.393,1.738-1.178,1.384-2.068-.446-1.124-1.276-1.256-2.338-.89-1.225.422-2.486.736-3.712,1.155-.755.258-.973-.009-.828-.7a21.1,21.1,0,0,1,9.894-14.3,20.882,20.882,0,0,1,11.9-3.008c1.015.037,1.211.278.765,1.208A29.041,29.041,0,0,1,114.926,67.9a7.6,7.6,0,0,0-1.121.648c-.677.556-1.158,1.217-.589,2.127a1.508,1.508,0,0,0,2.161.5,30.184,30.184,0,0,0,5.666-3.641,30.524,30.524,0,0,0,9.369-12.393c.252-.613.567-.7,1.2-.484,7.948,2.71,12.756,8.183,14.332,16.407.706,3.681.165,7.436.291,11.156.026.769,0,1.54,0,2.365" transform="translate(-24.921 -12.818)" fill="#6d7485"/>
            <path id="Trazado_128518" data-name="Trazado 128518" d="M147.771,128.734c-.532-.126-1.474.344-1.709-.287-.221-.594.753-.9,1.2-1.282a20.318,20.318,0,0,0,6.91-11.826,14.138,14.138,0,0,0,.406-2.668c.007-.833.336-1.163,1.094-1.255a2.154,2.154,0,0,0,.992-.257c1.318-.979,1.8-.2,2.27.938a12.11,12.11,0,0,1-11.166,16.637" transform="translate(-34.891 -26.453)" fill="#4a5160"/>
            <path id="Trazado_128519" data-name="Trazado 128519" d="M102.149,104.168a7.185,7.185,0,0,1-.008.906c-.05.4.247.96-.25,1.157a1.516,1.516,0,0,1-1.435-.4,2.117,2.117,0,0,1-.59-2.773,1.564,1.564,0,0,1,1.8-.942c.838.2.371.918.476,1.4a3.1,3.1,0,0,1,.008.646" transform="translate(-23.794 -24.388)" fill="#ecc396"/>
            <path id="Trazado_128520" data-name="Trazado 128520" d="M157.318,104.2a7.385,7.385,0,0,1,.007-.9c.053-.422-.254-1,.422-1.188a1.4,1.4,0,0,1,1.4.419,2.186,2.186,0,0,1-.46,3.5c-1.01.537-1.357.336-1.373-.8,0-.342,0-.686,0-1.029" transform="translate(-37.584 -24.385)" fill="#ebc296"/>
            <path id="Trazado_128521" data-name="Trazado 128521" d="M20.072,77.255a4.661,4.661,0,0,0,1.065-.733c1.491-1.821,3.174-1.773,5.315-1.1,3.63,1.132,7.2.381,10.577-1.272,1.244-.608,2.436-1.32,3.684-1.918,4.07-1.951,7.554.333,7.839,4.835.492,7.8.412,15.593.389,23.391A17.575,17.575,0,0,1,34.412,117.5a10.189,10.189,0,0,1-1.037.068c-2.8.673-4.83-.849-6.737-2.5a19.086,19.086,0,0,1-6.923-15.16,46.031,46.031,0,0,1,.125-6.206,20.642,20.642,0,0,0,.826-1.9,2,2,0,0,1,1.979-1.578,2.023,2.023,0,0,1,1.948,1.62,3.741,3.741,0,0,0,.272.728,1.1,1.1,0,0,0,1.251.7A1.115,1.115,0,0,0,27,92.145c.289-2.588-2.464-4.875-5.2-4.323-.607.122-1.229.544-1.84-.016a2.457,2.457,0,0,1-.291-1.368q-.026-3.862,0-7.726a2.287,2.287,0,0,1,.416-1.457" transform="translate(-4.694 -17.09)" fill="#fed7b6"/>
            <path id="Trazado_128522" data-name="Trazado 128522" d="M22.641,57.341a5.491,5.491,0,0,0,3.226-.674,5.593,5.593,0,0,1,5.595.186,2.776,2.776,0,0,0,2.916.031,6.3,6.3,0,0,1,7.213,1.179c.562.537,1.055,1.146,1.576,1.725a6.109,6.109,0,0,0,3.381,2.186,4.114,4.114,0,0,1,2.9,5.281c-.45,1.655.129,2.464,1.843,2.569a13.868,13.868,0,0,1,1.427.066c1.11.185,2.122,1.336,1.824,2.311-.919,3.008-1.908,6-4.007,8.618a7.384,7.384,0,0,1-.542-2.87c-.176-1.677-.228-3.368-.266-5.056a8.145,8.145,0,0,0-11.406-7.557,21.383,21.383,0,0,0-3.114,1.6c-5.041,3.024-10.036,2.686-15.011-.157-.451-.258-.906-.509-1.36-.762a1.468,1.468,0,0,0-2.134.543,1.442,1.442,0,0,0,.525,2.129c1.278.953,1.315,1.013-.132,1.788-1.514.811-3.083,1.581-4.9.941-1.209-2.8.261-7.078,2.962-8.43a5.444,5.444,0,0,0,1.849-1.546,18.147,18.147,0,0,1,3.845-3.633,1.844,1.844,0,0,1,1.788-.468" transform="translate(-2.812 -13.381)" fill="#c1684f"/>
            <path id="Trazado_128523" data-name="Trazado 128523" d="M18.227,95.427c0,2.206-.05,4.413,0,6.618.193,7.768,3.861,13.4,10.623,17.1.843.46,1.794.059,2.68.231a15.314,15.314,0,0,1-10.026-1.807c-6.124-3.29-9.382-8.489-9.506-15.45-.122-6.937-.011-13.877-.047-20.816,0-.9.176-1.163,1.135-1.094a10.666,10.666,0,0,0,5.14-1.15c0,3.142-.011,6.285,0,9.427,0,.413-.142.874.263,1.206.077.54-.4.714-.689.989a5.047,5.047,0,0,0-1.407,2.259c-.395,1.354-.017,1.986,1.381,2.286a.736.736,0,0,1,.451.206" transform="translate(-2.854 -18.889)" fill="#e4bca0"/>
            <path id="Trazado_128524" data-name="Trazado 128524" d="M20.8,57.7c-1.337.178-2.193,1.162-3.113,1.97A13.468,13.468,0,0,0,14.9,62.729a1.3,1.3,0,0,1-.658.6c-2.982,1.1-3.815,3.5-3.881,6.371-.016.693,0,1.387,0,2.08a6.493,6.493,0,0,1-3.335-.927,2.063,2.063,0,0,0-2.719.227c-.7-3.135.188-5.006,3-6.38a4.71,4.71,0,0,0,1.55-1.712c2.789-3.771,6.639-5.375,11.217-5.474a2.792,2.792,0,0,1,.734.19" transform="translate(-0.974 -13.741)" fill="#9f5847"/>
            <path id="Trazado_128525" data-name="Trazado 128525" d="M4.354,77.773c.87.44,1.536.81,2.23,1.116.534.237.454.675.455,1.1,0,1.989,0,3.977-.107,5.993a43.854,43.854,0,0,1-2.578-8.2" transform="translate(-1.04 -18.583)" fill="#9e5747"/>
            <path id="Trazado_128526" data-name="Trazado 128526" d="M7.078,101.9a3.079,3.079,0,0,1,0,.517c-.084.478.291,1.193-.267,1.392a1.656,1.656,0,0,1-1.791-.757,2.03,2.03,0,0,1-.212-2.41,1.586,1.586,0,0,1,1.674-.964c.938.133.514.918.594,1.448a5.155,5.155,0,0,1,.007.775" transform="translate(-1.076 -23.811)" fill="#ebc296"/>
            <path id="Trazado_128527" data-name="Trazado 128527" d="M62.239,101.822a7.393,7.393,0,0,1,.007-.909c.054-.428-.258-1.011.416-1.21a1.386,1.386,0,0,1,1.5.519,2.033,2.033,0,0,1,.24,2.625,1.724,1.724,0,0,1-1.83.973c-.687-.18-.22-.971-.331-1.478a2.459,2.459,0,0,1-.006-.519" transform="translate(-14.86 -23.808)" fill="#ebc296"/>
            <path id="Trazado_128528" data-name="Trazado 128528" d="M67.946,45.185a21.2,21.2,0,0,0-.42-6.4,7.423,7.423,0,0,0-7.691-6.048c-.823-.007-1.649.026-2.471-.009a3.637,3.637,0,0,1-3.643-3.656q-.055-10.6,0-21.2a3.654,3.654,0,0,1,3.82-3.751q19.319-.019,38.639,0a3.651,3.651,0,0,1,3.828,3.743q.065,10.6,0,21.2C100,31.3,98.376,32.728,96,32.732q-10.018.017-20.035.005c-2.379,0-3.223.814-3.209,3.2a10.8,10.8,0,0,1-3.669,8.675,7.912,7.912,0,0,1-.722.546c-.057.039-.159.015-.413.03" transform="translate(-12.829 -0.981)" fill="#29c4bb"/>
            <path id="Trazado_128529" data-name="Trazado 128529" d="M127.885,120.657a9.533,9.533,0,0,1-6.231-2.46c-.776-.7-1.112-1.5-.387-2.366s1.537-.706,2.382-.036c2.946,2.336,5.566,2.33,8.558-.016.853-.669,1.664-.8,2.38.071a1.52,1.52,0,0,1-.327,2.279,9.487,9.487,0,0,1-6.375,2.528" transform="translate(-28.879 -27.534)"/>
            <path id="Trazado_128530" data-name="Trazado 128530" d="M117.122,94.728a4.829,4.829,0,0,1,4.771,4.535c.031,1.011-.343,1.731-1.386,1.839a1.467,1.467,0,0,1-1.688-1.42c-.15-1.088-.639-1.83-1.794-1.809a1.659,1.659,0,0,0-1.679,1.651c-.129,1.091-.7,1.672-1.8,1.563-.958-.094-1.47-1.021-1.293-2.175a4.9,4.9,0,0,1,4.865-4.184" transform="translate(-26.813 -22.634)"/>
            <path id="Trazado_128531" data-name="Trazado 128531" d="M140.175,94.759A4.928,4.928,0,0,1,145,99.153c.091.988-.268,1.759-1.3,1.928a1.436,1.436,0,0,1-1.789-1.4c-.136-1.021-.636-1.75-1.71-1.781s-1.625.642-1.772,1.687c-.139.989-.689,1.642-1.732,1.521-1.127-.132-1.422-.949-1.347-1.992a4.85,4.85,0,0,1,4.823-4.355" transform="translate(-32.338 -22.641)"/>
            <path id="Trazado_128532" data-name="Trazado 128532" d="M32.85,118.248a9.514,9.514,0,0,1-6.263-2.48c-.782-.721-1.037-1.534-.3-2.379.7-.8,1.49-.641,2.293-.023,3.047,2.345,5.576,2.352,8.565.018.851-.664,1.667-.806,2.385.066a1.519,1.519,0,0,1-.326,2.279,9.5,9.5,0,0,1-6.353,2.518" transform="translate(-6.176 -26.962)"/>
            <path id="Trazado_128533" data-name="Trazado 128533" d="M45.129,92.332a4.9,4.9,0,0,1,4.815,4.379,1.636,1.636,0,0,1-1.39,1.985,1.51,1.51,0,0,1-1.718-1.523,1.672,1.672,0,0,0-1.76-1.7A1.623,1.623,0,0,0,43.4,97.1c-.139,1.03-.667,1.734-1.8,1.58-1.148-.157-1.374-1.006-1.3-2.024a4.811,4.811,0,0,1,4.831-4.32" transform="translate(-9.626 -22.061)"/>
            <path id="Trazado_128534" data-name="Trazado 128534" d="M19.476,98.631c-1.831.267-2.6-.585-2.2-2.386a5.426,5.426,0,0,1,2.465-3.354c2.977-1,5.36-.225,6.589,2.126a4.311,4.311,0,0,1,.5,2.254,1.519,1.519,0,0,1-2.964.4,7.491,7.491,0,0,1-.174-.76,1.7,1.7,0,0,0-3.353.043,2.441,2.441,0,0,1-.859,1.672" transform="translate(-4.103 -22.093)"/>
            <path id="Trazado_128535" data-name="Trazado 128535" d="M95.127,10.948c2.121,0,4.242.012,6.363-.005,1.084-.008,1.9.3,1.975,1.535.058,1.018-.627,1.585-1.912,1.588q-6.557.017-13.116,0c-1.284,0-1.97-.573-1.911-1.59.072-1.234.9-1.541,1.977-1.533,2.208.016,4.416,0,6.624,0" transform="translate(-20.673 -2.615)"/>
            <path id="Trazado_128536" data-name="Trazado 128536" d="M95.08,23.987c-2.208,0-4.416.01-6.624,0-1.289-.008-1.948-.558-1.941-1.569s.666-1.543,1.964-1.546c4.329-.01,8.658,0,12.987-.009,1.078,0,1.913.278,2,1.513.072,1.049-.642,1.606-2.019,1.613-2.121.01-4.242,0-6.363,0" transform="translate(-20.671 -4.984)"/>
            <path id="Trazado_128537" data-name="Trazado 128537" d="M94.986,30.781c2.164,0,4.329.012,6.493-.005,1.081-.008,1.909.291,1.983,1.526.064,1.049-.645,1.6-2.032,1.6q-6.428.01-12.857,0c-1.4,0-2.072-.533-2.058-1.584s.681-1.531,2.107-1.535c2.121-.007,4.242,0,6.363,0" transform="translate(-20.671 -7.353)"/>
            <path id="Trazado_128538" data-name="Trazado 128538" d="M74.057,30.781c.909,0,1.82-.033,2.726.009a1.468,1.468,0,0,1,1.585,1.528,1.439,1.439,0,0,1-1.541,1.565q-2.724.078-5.452,0A1.447,1.447,0,0,1,69.848,32.3a1.486,1.486,0,0,1,1.613-1.511c.865-.028,1.731-.006,2.6-.006" transform="translate(-16.689 -7.352)"/>
            <path id="Trazado_128539" data-name="Trazado 128539" d="M74.109,23.987H71.643c-1.074,0-1.8-.5-1.788-1.6.014-1.023.714-1.52,1.732-1.523,1.687,0,3.375-.011,5.063,0,1,.008,1.706.472,1.715,1.528.01,1.132-.734,1.579-1.79,1.588-.822.007-1.645,0-2.467,0" transform="translate(-16.691 -4.984)"/>
            <path id="Trazado_128540" data-name="Trazado 128540" d="M74.055,14.069c-.822,0-1.645,0-2.467,0-1.018-.006-1.71-.5-1.735-1.522a1.482,1.482,0,0,1,1.658-1.591c1.731-.023,3.462-.026,5.193,0,1.006.016,1.68.522,1.663,1.578s-.714,1.512-1.715,1.531c-.865.017-1.731,0-2.6,0" transform="translate(-16.69 -2.613)"/>
            <path id="Trazado_128541" data-name="Trazado 128541" d="M61.464,10.949c1.193.011,1.951.643,1.924,1.6s-.79,1.531-2.006,1.521c-1.241-.01-1.916-.583-1.892-1.6.024-1,.715-1.533,1.974-1.521" transform="translate(-14.214 -2.616)" fill="#2a4368"/>
            <path id="Trazado_128542" data-name="Trazado 128542" d="M61.447,30.781c1.2.007,1.957.628,1.941,1.587s-.762,1.543-1.989,1.537c-1.245,0-1.923-.569-1.909-1.587s.7-1.545,1.957-1.537" transform="translate(-14.214 -7.355)" fill="#2a4368"/>
            <path id="Trazado_128543" data-name="Trazado 128543" d="M61.362,23.989c-1.233-.014-1.908-.6-1.872-1.623.035-.995.73-1.518,1.993-1.5,1.184.017,1.945.665,1.9,1.623s-.809,1.516-2.025,1.5" transform="translate(-14.214 -4.985)" fill="#2a4368"/>
          </g>
        </g>
      </g>
      <g id="Grupo_156891" data-name="Grupo 156891" transform="translate(318 4433)">
        <path id="Trazado_126894" data-name="Trazado 126894" d="M19.994,132.814c-1.384.308-1.7-.344-1.691-1.637.035-3.239-.02-3.3-3.373-3.277-1.247.007-1.635-.379-1.611-1.614.023-1.15.233-1.685,1.56-1.68,3.363.013,3.449-.055,3.413-3.411-.016-1.518.729-1.546,1.855-1.558s1.709.176,1.709,1.525c0,3.4.069,3.46,3.389,3.446,1.284-.005,1.588.458,1.591,1.651s-.3,1.65-1.586,1.642c-3.385-.019-3.466.044-3.391,3.25.035,1.488-.514,1.924-1.864,1.662" transform="translate(-8.318 -24.997)" fill="#29c4bb"/>
        <path id="Trazado_126895" data-name="Trazado 126895" d="M217.019,151.2c1.239-.236,1.925.173,1.721,1.576-.171,1.173.235,1.827,1.534,1.626s1.736.269,1.747,1.636c.01,1.433-.575,1.764-1.8,1.6-1.167-.158-1.537.35-1.514,1.511.037,1.819-1.089,2.517-2.848,1.966-.835-.261-.652-.928-.6-1.455.146-1.438-.182-2.318-1.879-2.03-1.313.223-1.394-.6-1.39-1.608,0-.992.043-1.823,1.375-1.617,1.436.222,2.115-.3,1.877-1.82-.227-1.449.7-1.513,1.773-1.385" transform="translate(-45.658 -33.953)" fill="#29c4bb"/>
        <path id="Trazado_126896" data-name="Trazado 126896" d="M217.407,72.615c.32,1.382-.312,1.855-1.608,1.637-1.4-.236-1.976.339-1.728,1.733.24,1.35-.344,1.672-1.651,1.684-1.349.012-1.857-.386-1.622-1.7.251-1.4-.332-1.974-1.721-1.714-1.439.27-1.565-.482-1.619-1.692-.064-1.421.488-1.791,1.725-1.576,1.345.235,1.847-.322,1.618-1.636-.219-1.257.187-1.766,1.587-1.716,1.235.044,1.948.219,1.684,1.634s.35,1.948,1.73,1.716c1.3-.218,1.927.247,1.605,1.629" transform="translate(-69.45 3.711)" fill="#010000"/>
        <path id="Trazado_126897" data-name="Trazado 126897" d="M61.718,190.022c.3,1.289-.334,1.763-1.623,1.53-1.514-.274-1.871.514-1.654,1.789.241,1.418-.446,1.638-1.691,1.63-1.19-.007-1.83-.277-1.579-1.559.328-1.685-.514-2.1-1.965-1.85-1.489.254-1.419-.685-1.425-1.706,0-.988.021-1.827,1.366-1.561,1.809.358,2.271-.511,2.027-2.13-.234-1.55.947-1.1,1.736-1.151.835-.05,1.766-.158,1.522,1.187-.3,1.662.282,2.433,2.041,2.1,1.469-.282,1.289.742,1.245,1.725" transform="translate(39.97 -29.322)" fill="#010000"/>
        <path id="Trazado_126898" data-name="Trazado 126898" d="M121.84,20.724c-.346-1.471.467-1.758,1.671-1.579,1.251.186,1.743-.332,1.553-1.564s.175-1.792,1.593-1.763c1.3.026,1.9.364,1.672,1.7-.232,1.372.4,1.818,1.687,1.625,1.192-.178,1.789.107,1.8,1.562.007,1.491-.555,1.891-1.854,1.684-1.373-.219-1.838.407-1.626,1.687.239,1.438-.533,1.6-1.742,1.628-1.293.026-1.714-.459-1.524-1.645.208-1.3-.273-1.895-1.63-1.667-1.325.222-1.891-.324-1.595-1.669" transform="translate(-84.601 17.184)" fill="#29c4bb"/>
      </g>
    </g>
  </g>
</svg>
