<svg xmlns="http://www.w3.org/2000/svg" xmlns:xlink="http://www.w3.org/1999/xlink" width="245.026" height="183.469" viewBox="0 0 245.026 183.469">
  <defs>
    <clipPath id="clip-path">
      <rect id="Rect치ngulo_37148" data-name="Rect치ngulo 37148" width="82.736" height="117.437" fill="none"/>
    </clipPath>
  </defs>
  <g id="_91" data-name="91" transform="translate(-547 -4461)">
    <g id="Image_Place_Holder" data-name="Image Place Holder" transform="translate(547 4528.469)">
      <rect id="Image_Place_Holder-2" data-name="Image Place Holder" width="245.027" height="116" rx="10" fill="#c9f0ee"/>
    </g>
    <g id="Grupo_156894" data-name="Grupo 156894" transform="translate(-5 15)">
      <g id="Grupo_156865" data-name="Grupo 156865" transform="translate(5 -15)">
        <rect id="Rect치ngulo_37269" data-name="Rect치ngulo 37269" width="176" height="142" transform="translate(582 4461)" fill="none"/>
        <g id="Grupo_156864" data-name="Grupo 156864" transform="translate(629 4469.032)">
          <g id="Grupo_156617" data-name="Grupo 156617" clip-path="url(#clip-path)">
            <path id="Trazado_127344" data-name="Trazado 127344" d="M81,105.351c1.45.609,1.765,1.2,1.449,2.711A11.74,11.74,0,0,1,71.19,117.4q-29.781.074-59.563,0a11.715,11.715,0,0,1-11.6-11.335C0,105.646,0,105.228,0,104.811Q0,66.125,0,27.44c0-5.908,3.367-10.5,8.726-12a20.228,20.228,0,0,1,5.855-.369c.8.012.974-.23.956-.982-.05-2.131-.022-4.263-.016-6.4.005-1.753.575-2.34,2.318-2.344,4.682-.009,9.364-.019,14.045.012A1.556,1.556,0,0,0,33.463,4.5,9.179,9.179,0,0,1,49.257,4.5a1.56,1.56,0,0,0,1.573.864c4.639-.033,9.279-.02,13.919-.015,1.91,0,2.45.551,2.453,2.463,0,2.049.044,4.1-.019,6.144-.026.854.169,1.14,1.077,1.119a22.332,22.332,0,0,1,5,.2,11.884,11.884,0,0,1,9.453,11.04A1.927,1.927,0,0,1,81.461,28.4c-1.5.394-2.187,0-2.541-1.494-.145-.61-.221-1.234-.369-1.844a7.68,7.68,0,0,0-7.612-6.083q-29.528-.038-59.057,0C7.468,18.984,4.264,22.14,3.9,26.7c-.037.459-.03.918-.03,1.379q0,38.18,0,76.361a12.313,12.313,0,0,0,.194,2.494,7.843,7.843,0,0,0,7.993,6.58q18.119.025,36.237.006,10.909,0,21.817,0c4.531,0,7.165-1.955,8.522-6.291.534-1.7,1.059-2.121,2.364-1.873" transform="translate(0 0)"/>
            <path id="Trazado_127345" data-name="Trazado 127345" d="M82.041,110.861a2.03,2.03,0,0,0-2,1.868,8.186,8.186,0,0,1-8.353,6.686q-29.288.019-58.575,0a8.251,8.251,0,0,1-8.552-8.541q-.024-39.133,0-78.268A8.228,8.228,0,0,1,13.1,24.072q29.288-.019,58.576,0a8.258,8.258,0,0,1,8.552,7.762c.177,1.72.583,2.092,2.273,2.075-.5.308-.483.793-.48,1.3.015,2.143.01,4.288.012,6.431-1.3.95-1.416,2.292-1.395,3.773.059,4.133.07,8.268-.006,12.4-.028,1.487.187,2.716,1.625,3.443-.473,1-.184,2.052-.217,3.078-.049,1.541-.005,3.083,0,4.625-1.286.841-1.39,2.1-1.385,3.5q.054,13.565-.005,27.13c-.008,1.507.148,2.8,1.612,3.581-.47.909-.2,1.883-.221,2.824-.046,1.623-.007,3.248,0,4.873" transform="translate(-1.042 -5.51)" fill="#29c4bb"/>
            <path id="Trazado_127346" data-name="Trazado 127346" d="M104.742,116.494c-1.527-.135-2-.608-2.005-2.107q-.012-14.987-.012-29.974a1.875,1.875,0,0,1,1.8-2.127,1.966,1.966,0,0,1,1.729,2.22q-.016,14.922,0,29.845a1.912,1.912,0,0,1-1.5,2.143" transform="translate(-23.52 -18.84)"/>
            <path id="Trazado_127347" data-name="Trazado 127347" d="M104.736,66.471c-1.521-.137-2-.612-2-2.1-.012-5.082.018-10.165-.021-15.247a1.986,1.986,0,0,1,1.8-2.266,2.07,2.07,0,0,1,1.741,2.348c-.029,5-.021,10.006-.005,15.009,0,1.12-.328,1.961-1.512,2.258" transform="translate(-23.517 -10.728)"/>
            <path id="Trazado_127348" data-name="Trazado 127348" d="M57.692,10.384a5.756,5.756,0,1,1-5.66-5.811,5.8,5.8,0,0,1,5.66,5.811" transform="translate(-10.573 -1.047)" fill="#fee734"/>
            <path id="Trazado_127349" data-name="Trazado 127349" d="M39.71,17.672c-4.872,0-9.508-.008-14.145.009-.589,0-.923-.066-.9-.793.052-1.544.039-3.092,0-4.636-.014-.608.2-.786.793-.783,3.844.021,7.687.012,11.53.009.4,0,.751-.012.755.554a9.985,9.985,0,0,0,1.961,5.639" transform="translate(-5.647 -2.626)" fill="#9baeca"/>
            <path id="Trazado_127350" data-name="Trazado 127350" d="M63.109,17.672a10.03,10.03,0,0,0,1.962-5.641c.006-.567.364-.552.757-.552,3.844,0,7.687.012,11.53-.009.594,0,.806.178.793.783-.034,1.545-.047,3.093,0,4.637.025.728-.312.793-.9.791-4.636-.017-9.273-.009-14.146-.009" transform="translate(-14.449 -2.626)" fill="#9baeca"/>
            <path id="Trazado_127351" data-name="Trazado 127351" d="M77.788,72.8q0,19.247,0,38.494c0,3.853-1.812,5.649-5.685,5.649H14.55c-3.534,0-5.441-1.88-5.442-5.386q0-38.807,0-77.615c0-3.44,1.9-5.322,5.366-5.322q28.965,0,57.929,0c3.507,0,5.382,1.891,5.383,5.435q.006,19.372,0,38.745" transform="translate(-2.085 -6.553)"/>
            <path id="Trazado_127352" data-name="Trazado 127352" d="M75.319,73.71q0,19.312,0,38.625c0,1.889-.261,2.143-2.183,2.143H15.825c-1.9,0-2.158-.258-2.158-2.166q0-38.5,0-77c0-1.891.251-2.134,2.181-2.134H73.159c1.924,0,2.16.234,2.16,2.157q0,19.186,0,38.374" transform="translate(-3.129 -7.596)" fill="#f4f2f7"/>
            <path id="Trazado_127353" data-name="Trazado 127353" d="M66.008,46.827c3.3,0,6.595-.007,9.892,0,1.4,0,2.14.607,2.16,1.7.019,1.138-.77,1.805-2.205,1.807q-9.83.012-19.658,0c-1.436,0-2.238-.665-2.224-1.789s.762-1.715,2.27-1.718c3.255-.008,6.511,0,9.767,0" transform="translate(-12.357 -10.721)"/>
            <path id="Trazado_127354" data-name="Trazado 127354" d="M66.005,81.347c-3.3,0-6.594.006-9.891,0-1.4,0-2.133-.6-2.144-1.707-.011-1.085.763-1.791,2.1-1.794q9.953-.024,19.907,0c1.33,0,2.1.723,2.081,1.813S77.3,81.341,75.9,81.344c-3.3.009-6.594,0-9.891,0" transform="translate(-12.357 -17.82)" fill="#010101"/>
            <path id="Trazado_127355" data-name="Trazado 127355" d="M66.011,108.972q4.883,0,9.766,0c1.53,0,2.265.555,2.282,1.692s-.772,1.811-2.209,1.813q-9.828.016-19.658,0c-1.436,0-2.236-.679-2.221-1.8s.765-1.7,2.274-1.7q4.883-.007,9.766,0" transform="translate(-12.357 -24.95)"/>
            <path id="Trazado_127356" data-name="Trazado 127356" d="M65.988,61.793c-3.255,0-6.511.005-9.767,0-1.475,0-2.247-.615-2.25-1.745s.8-1.761,2.245-1.763q9.83-.008,19.658,0c1.426,0,2.221.682,2.185,1.819-.034,1.083-.79,1.683-2.18,1.687-3.3.009-6.595,0-9.892,0" transform="translate(-12.357 -13.343)"/>
            <path id="Trazado_127357" data-name="Trazado 127357" d="M66.021,92.893q-4.694,0-9.389,0a6.008,6.008,0,0,1-1.243-.08,1.6,1.6,0,0,1-1.4-1.782,1.582,1.582,0,0,1,1.578-1.619c.621-.055,1.251-.028,1.876-.028,6.134,0,12.268.008,18.4-.008,1.063,0,1.928.246,2.191,1.4.274,1.2-.615,2.1-2.122,2.112-3.3.023-6.593.007-9.889.008" transform="translate(-12.36 -20.463)" fill="#010101"/>
            <path id="Trazado_127358" data-name="Trazado 127358" d="M66.141,120.411q4.821,0,9.642,0c1.469,0,2.255.611,2.275,1.728.021,1.137-.757,1.778-2.212,1.78q-9.83.009-19.659,0c-1.452,0-2.235-.646-2.215-1.779.019-1.116.81-1.726,2.277-1.729q4.947-.008,9.892,0" transform="translate(-12.357 -27.569)"/>
            <path id="Trazado_127359" data-name="Trazado 127359" d="M23.947,51.64a2.5,2.5,0,0,1,1.988.914c.819.744,1.489,2.178,2.428,2.1.83-.067,1.561-1.379,2.33-2.146,1.628-1.623,3.248-3.255,4.881-4.872.972-.963,1.97-1.083,2.747-.362.857.8.795,1.8-.229,2.835q-4.11,4.137-8.249,8.244c-1.146,1.137-1.96,1.131-3.107,0-1.251-1.231-2.5-2.467-3.72-3.728a1.611,1.611,0,0,1-.362-1.953,1.681,1.681,0,0,1,1.293-1.036" transform="translate(-5.144 -10.718)"/>
            <path id="Trazado_127360" data-name="Trazado 127360" d="M38.663,79.456a2.151,2.151,0,0,1-.732,1.665c-2.8,2.8-5.589,5.615-8.407,8.4A1.791,1.791,0,0,1,26.6,89.51q-1.837-1.789-3.626-3.627a1.775,1.775,0,1,1,2.463-2.517,21.621,21.621,0,0,1,1.849,1.864c.554.666.921.672,1.542.029,2.2-2.279,4.467-4.5,6.71-6.735a1.728,1.728,0,0,1,2.039-.483,1.813,1.813,0,0,1,1.088,1.416" transform="translate(-5.099 -17.832)"/>
            <path id="Trazado_127361" data-name="Trazado 127361" d="M38.419,110.766a1.79,1.79,0,0,1-.666,1.365c-2.834,2.833-5.656,5.679-8.509,8.494a1.75,1.75,0,0,1-2.834-.018q-1.847-1.783-3.637-3.624a1.8,1.8,0,0,1-.164-2.746c.76-.715,1.716-.627,2.653.244.061.057.116.121.179.175.84.728,1.492,2.173,2.442,2.113.822-.052,1.574-1.349,2.342-2.111q2.577-2.558,5.139-5.134a1.751,1.751,0,0,1,2.063-.413,1.61,1.61,0,0,1,.993,1.654" transform="translate(-5.048 -24.943)"/>
          </g>
        </g>
      </g>
      <g id="Grupo_156893" data-name="Grupo 156893" transform="translate(584 4418)">
        <path id="Trazado_126894" data-name="Trazado 126894" d="M19.994,132.814c-1.384.308-1.7-.344-1.691-1.637.035-3.239-.02-3.3-3.373-3.277-1.247.007-1.635-.379-1.611-1.614.023-1.15.233-1.685,1.56-1.68,3.363.013,3.449-.055,3.413-3.411-.016-1.518.729-1.546,1.855-1.558s1.709.176,1.709,1.525c0,3.4.069,3.46,3.389,3.446,1.284-.005,1.588.458,1.591,1.651s-.3,1.65-1.586,1.642c-3.385-.019-3.466.044-3.391,3.25.035,1.488-.514,1.924-1.864,1.662" transform="translate(-8.318 -24.997)" fill="#29c4bb"/>
        <path id="Trazado_126895" data-name="Trazado 126895" d="M217.019,151.2c1.239-.236,1.925.173,1.721,1.576-.171,1.173.235,1.827,1.534,1.626s1.736.269,1.747,1.636c.01,1.433-.575,1.764-1.8,1.6-1.167-.158-1.537.35-1.514,1.511.037,1.819-1.089,2.517-2.848,1.966-.835-.261-.652-.928-.6-1.455.146-1.438-.182-2.318-1.879-2.03-1.313.223-1.394-.6-1.39-1.608,0-.992.043-1.823,1.375-1.617,1.436.222,2.115-.3,1.877-1.82-.227-1.449.7-1.513,1.773-1.385" transform="translate(-45.658 -33.953)" fill="#29c4bb"/>
        <path id="Trazado_126896" data-name="Trazado 126896" d="M217.407,72.615c.32,1.382-.312,1.855-1.608,1.637-1.4-.236-1.976.339-1.728,1.733.24,1.35-.344,1.672-1.651,1.684-1.349.012-1.857-.386-1.622-1.7.251-1.4-.332-1.974-1.721-1.714-1.439.27-1.565-.482-1.619-1.692-.064-1.421.488-1.791,1.725-1.576,1.345.235,1.847-.322,1.618-1.636-.219-1.257.187-1.766,1.587-1.716,1.235.044,1.948.219,1.684,1.634s.35,1.948,1.73,1.716c1.3-.218,1.927.247,1.605,1.629" transform="translate(-69.45 3.711)" fill="#010000"/>
        <path id="Trazado_126897" data-name="Trazado 126897" d="M61.718,190.022c.3,1.289-.334,1.763-1.623,1.53-1.514-.274-1.871.514-1.654,1.789.241,1.418-.446,1.638-1.691,1.63-1.19-.007-1.83-.277-1.579-1.559.328-1.685-.514-2.1-1.965-1.85-1.489.254-1.419-.685-1.425-1.706,0-.988.021-1.827,1.366-1.561,1.809.358,2.271-.511,2.027-2.13-.234-1.55.947-1.1,1.736-1.151.835-.05,1.766-.158,1.522,1.187-.3,1.662.282,2.433,2.041,2.1,1.469-.282,1.289.742,1.245,1.725" transform="translate(39.97 -29.322)" fill="#010000"/>
        <path id="Trazado_126898" data-name="Trazado 126898" d="M121.84,20.724c-.346-1.471.467-1.758,1.671-1.579,1.251.186,1.743-.332,1.553-1.564s.175-1.792,1.593-1.763c1.3.026,1.9.364,1.672,1.7-.232,1.372.4,1.818,1.687,1.625,1.192-.178,1.789.107,1.8,1.562.007,1.491-.555,1.891-1.854,1.684-1.373-.219-1.838.407-1.626,1.687.239,1.438-.533,1.6-1.742,1.628-1.293.026-1.714-.459-1.524-1.645.208-1.3-.273-1.895-1.63-1.667-1.325.222-1.891-.324-1.595-1.669" transform="translate(-84.601 17.184)" fill="#29c4bb"/>
      </g>
    </g>
  </g>
</svg>
