<svg xmlns="http://www.w3.org/2000/svg" width="400" height="232" viewBox="0 0 400 232">
  <g id="Grupo_156722" data-name="Grupo 156722" transform="translate(-182 -6219)">
    <rect id="WEB-AdobeStock_425318986" width="400" height="232" rx="6" transform="translate(182 6219)" fill="#29c4bb"/>
    <g id="AdobeStock_297993411_Convertido_" data-name="AdobeStock_297993411 [Convertido]" transform="translate(-655.208 6184.993)">
      <g id="BG" transform="translate(906.207 34.007)">
        <g id="Grupo_156679" data-name="Grupo 156679" transform="translate(0 0)" opacity="0.5">
          <path id="Trazado_127625" data-name="Trazado 127625" d="M1130.725,141.9a109.465,109.465,0,1,0,109.464,109.465A109.465,109.465,0,0,0,1130.725,141.9Zm0,214.163a104.7,104.7,0,1,1,104.7-104.7A104.7,104.7,0,0,1,1130.725,356.063Z" transform="translate(-1007.451 -128.951)" fill="#f2ede3" opacity="0.15"/>
          <g id="Grupo_156672" data-name="Grupo 156672" transform="translate(10.993 10.462)" opacity="0.15">
            <path id="Trazado_127626" data-name="Trazado 127626" d="M1022.384,159.454A114.324,114.324,0,0,0,997.8,195.918l.6.256a114.453,114.453,0,0,1,60.7-60.7l-.256-.6A114.322,114.322,0,0,0,1022.384,159.454Z" transform="translate(-997.8 -133.227)" fill="#f2ede3"/>
            <path id="Trazado_127627" data-name="Trazado 127627" d="M2381.07,145.764a114.32,114.32,0,0,0-36.465-24.584l-.255.6a114.453,114.453,0,0,1,60.7,60.7l.605-.256A114.324,114.324,0,0,0,2381.07,145.764Z" transform="translate(-2182.737 -121.18)" fill="#f2ede3"/>
          </g>
          <g id="Grupo_156674" data-name="Grupo 156674" transform="translate(81.196 14.921)">
            <g id="Grupo_156673" data-name="Grupo 156673">
              <path id="Trazado_127628" data-name="Trazado 127628" d="M1589.3,171.479a6.575,6.575,0,1,1,6.575-6.575A6.582,6.582,0,0,1,1589.3,171.479Zm0-13.023a6.449,6.449,0,1,0,6.449,6.449A6.456,6.456,0,0,0,1589.3,158.456Z" transform="translate(-1582.73 -158.33)" fill="#f2ede3"/>
            </g>
            <circle id="Elipse_4823" data-name="Elipse 4823" cx="5.01" cy="5.01" r="5.01" transform="translate(1.565 1.565)" fill="#f2ede3" opacity="0.5"/>
          </g>
          <g id="Grupo_156676" data-name="Grupo 156676" transform="translate(212.583 69.672)">
            <g id="Grupo_156675" data-name="Grupo 156675" transform="translate(0.512 0.507)">
              <path id="Trazado_127629" data-name="Trazado 127629" d="M2688.275,631.879a6.575,6.575,0,1,1,6.575-6.575A6.582,6.582,0,0,1,2688.275,631.879Zm0-13.023a6.449,6.449,0,1,0,6.449,6.449A6.456,6.456,0,0,0,2688.275,618.856Z" transform="translate(-2681.7 -618.73)" fill="#f2ede3"/>
            </g>
            <circle id="Elipse_4824" data-name="Elipse 4824" cx="5.01" cy="5.01" r="5.01" transform="translate(0 7.085) rotate(-45)" fill="#f2ede3" opacity="0.5"/>
          </g>
          <g id="Grupo_156678" data-name="Grupo 156678" transform="translate(48.96 199.817)">
            <g id="Grupo_156677" data-name="Grupo 156677">
              <path id="Trazado_127630" data-name="Trazado 127630" d="M1320.715,1712.02a6.575,6.575,0,1,1,6.575-6.575A6.582,6.582,0,0,1,1320.715,1712.02Zm0-13.025a6.449,6.449,0,1,0,6.448,6.449A6.456,6.456,0,0,0,1320.715,1698.995Z" transform="translate(-1314.14 -1698.87)" fill="#f2ede3"/>
            </g>
            <circle id="Elipse_4825" data-name="Elipse 4825" cx="5.01" cy="5.01" r="5.01" transform="translate(0.036 3.865) rotate(-22.5)" fill="#f2ede3" opacity="0.5"/>
          </g>
          <circle id="Elipse_4826" data-name="Elipse 4826" cx="2.794" cy="2.794" r="2.794" transform="translate(171.024 13.777) rotate(-80.782)" fill="#f2ede3"/>
          <path id="Trazado_127631" data-name="Trazado 127631" d="M1302.523,572.392l-1.564-1,1-1.564a.24.24,0,0,0-.4-.259l-1,1.564-1.564-1a.24.24,0,1,0-.259.4l1.564,1-1,1.564a.24.24,0,1,0,.4.259l1-1.564,1.564,1a.241.241,0,0,0,.331-.072A.239.239,0,0,0,1302.523,572.392Z" transform="translate(-1251.525 -505.192)" fill="#fff"/>
          <path id="Trazado_127632" data-name="Trazado 127632" d="M2813.017,376.558l-1.564-1,1-1.564a.24.24,0,0,0-.4-.259l-1,1.564-1.564-1a.24.24,0,1,0-.259.4l1.564,1-1,1.564a.24.24,0,0,0,.4.259l1-1.564,1.564,1a.24.24,0,0,0,.259-.4Z" transform="translate(-2580.73 -332.862)" fill="#fff"/>
          <path id="Trazado_127633" data-name="Trazado 127633" d="M1643.513,36.942l-1.564-1,1-1.564a.24.24,0,0,0-.4-.259l-1,1.564-1.564-1a.24.24,0,1,0-.259.4l1.564,1-1,1.564a.24.24,0,0,0,.4.259l1-1.564,1.564,1a.24.24,0,1,0,.259-.4Z" transform="translate(-1551.589 -34.007)" fill="#fff"/>
          <circle id="Elipse_4827" data-name="Elipse 4827" cx="0.953" cy="0.953" r="0.953" transform="translate(151.705 57.344) rotate(-45)" fill="#fff"/>
          <circle id="Elipse_4828" data-name="Elipse 4828" cx="0.953" cy="0.953" r="0.953" transform="translate(0 112.239) rotate(-45)" fill="#fff"/>
          <circle id="Elipse_4829" data-name="Elipse 4829" cx="0.953" cy="0.953" r="0.953" transform="translate(25.642 25.621) rotate(-45)" fill="#fff"/>
          <circle id="Elipse_4830" data-name="Elipse 4830" cx="0.953" cy="0.953" r="0.953" transform="translate(260.071 108.697) rotate(-76.714)" fill="#fff"/>
        </g>
      </g>
      <g id="Design__x26__Icons" transform="translate(907.863 61.934)">
        <ellipse id="Elipse_4831" data-name="Elipse 4831" cx="63.11" cy="3.611" rx="63.11" ry="3.611" transform="translate(66.392 166.964)" fill="#556589" opacity="0.25"/>
        <rect id="Rectángulo_37163" data-name="Rectángulo 37163" width="42.356" height="21.014" transform="translate(108.443 144.61)" fill="#004b7f"/>
        <rect id="Rectángulo_37164" data-name="Rectángulo 37164" width="42.356" height="10.507" transform="translate(108.443 144.61)" fill="#00385f"/>
        <rect id="Rectángulo_37165" data-name="Rectángulo 37165" width="57.461" height="5.089" transform="translate(100.891 165.624)" fill="#bbe2f2"/>
        <path id="Trazado_127634" data-name="Trazado 127634" d="M1370.048,381.97a1.969,1.969,0,0,0-1.969-1.97H1173.039a1.969,1.969,0,0,0-1.969,1.97V495.414h198.979V381.97Z" transform="translate(-1140.936 -366.401)" fill="#004b7f"/>
        <rect id="Rectángulo_37166" data-name="Rectángulo 37166" width="182.562" height="98.998" transform="translate(38.342 21.808)" fill="#d6eef7"/>
        <path id="Trazado_127635" data-name="Trazado 127635" d="M1171.06,1341.62v13.626a1.969,1.969,0,0,0,1.969,1.969h195.039a1.969,1.969,0,0,0,1.969-1.969V1341.62Z" transform="translate(-1140.928 -1212.607)" fill="#bbe2f2"/>
        <g id="Grupo_156681" data-name="Grupo 156681" transform="translate(54.969 38.684)">
          <g id="Grupo_156680" data-name="Grupo 156680">
            <path id="Trazado_127636" data-name="Trazado 127636" d="M1421.687,610.844A21.844,21.844,0,1,1,1399.844,589,21.833,21.833,0,0,1,1421.687,610.844Z" transform="translate(-1378 -589)" fill="#00a1d9"/>
            <path id="Trazado_127637" data-name="Trazado 127637" d="M1498.973,704.244h-8.183a4.79,4.79,0,0,1-4.79-4.79V687.79a4.79,4.79,0,0,1,4.79-4.79h8.183a4.79,4.79,0,0,1,4.79,4.79v11.664A4.79,4.79,0,0,1,1498.973,704.244Z" transform="translate(-1473.038 -671.718)" fill="#ffd6c2"/>
            <ellipse id="Elipse_4832" data-name="Elipse 4832" cx="2.1" cy="2.58" rx="2.1" ry="2.58" transform="translate(10.922 18.483)" fill="#ffd6c2"/>
            <ellipse id="Elipse_4833" data-name="Elipse 4833" cx="2.1" cy="2.58" rx="2.1" ry="2.58" transform="translate(28.685 18.483)" fill="#ffd6c2"/>
            <path id="Trazado_127638" data-name="Trazado 127638" d="M1479.524,890.069v2.74a21.862,21.862,0,0,1-23.524-.923v-1.817a2.069,2.069,0,0,1,2.069-2.069h19.386A2.069,2.069,0,0,1,1479.524,890.069Z" transform="translate(-1446.638 -852.114)" fill="#f34a53"/>
            <rect id="Rectángulo_37167" data-name="Rectángulo 37167" width="5.881" height="9.842" transform="translate(18.363 28.325)" fill="#ffd6c2"/>
            <path id="Trazado_127639" data-name="Trazado 127639" d="M1446.179,638.443c-2.3-1.953-4.037-5.6-2.881-8.761,1.283-3.5,5.443-4.54,6.961-4.921,6.352-1.589,15.116,1.131,18.123,7.8,2.9,6.44-.617,14.219-2.04,14.162-1.548-.061-.979-9.422-4.681-10.442-2.908-.8-5.193,4.442-10.442,4.2A8.556,8.556,0,0,1,1446.179,638.443Z" transform="translate(-1435.137 -620.08)" fill="#ffbf2a"/>
          </g>
        </g>
        <path id="Trazado_127640" data-name="Trazado 127640" d="M1963.821,671.733h-81.347a2.474,2.474,0,0,1-2.474-2.474V598.474a2.474,2.474,0,0,1,2.474-2.474h81.347a2.474,2.474,0,0,1,2.474,2.474v70.786A2.474,2.474,0,0,1,1963.821,671.733Z" transform="translate(-1764.78 -556.476)" fill="#556589" opacity="0.25"/>
        <path id="Trazado_127641" data-name="Trazado 127641" d="M1995.821,630.733h-81.347a2.474,2.474,0,0,1-2.474-2.474V557.474a2.474,2.474,0,0,1,2.474-2.474h81.347a2.474,2.474,0,0,1,2.474,2.474v70.786A2.474,2.474,0,0,1,1995.821,630.733Z" transform="translate(-1792.94 -520.397)" fill="#e6f5fa"/>
        <g id="Grupo_156687" data-name="Grupo 156687" transform="translate(52.73 88.731)">
          <g id="Grupo_156682" data-name="Grupo 156682" transform="translate(41.287)">
            <path id="Trazado_127642" data-name="Trazado 127642" d="M1706.48,1005.99l.742,2.282h2.4l-1.941,1.41.742,2.28-1.941-1.409-1.941,1.409.742-2.28-1.941-1.41h2.4Z" transform="translate(-1703.34 -1005.99)" fill="#f2c12e"/>
          </g>
          <g id="Grupo_156683" data-name="Grupo 156683" transform="translate(30.965)">
            <path id="Trazado_127643" data-name="Trazado 127643" d="M1620.48,1005.99l.742,2.282h2.4l-1.941,1.41.742,2.28-1.941-1.409-1.941,1.409.742-2.28-1.941-1.41h2.4Z" transform="translate(-1617.34 -1005.99)" fill="#f2c12e"/>
          </g>
          <g id="Grupo_156684" data-name="Grupo 156684" transform="translate(20.643)">
            <path id="Trazado_127644" data-name="Trazado 127644" d="M1534.48,1005.99l.742,2.282h2.4l-1.941,1.41.742,2.28-1.941-1.409-1.941,1.409.742-2.28-1.941-1.41h2.4Z" transform="translate(-1531.34 -1005.99)" fill="#f2c12e"/>
          </g>
          <g id="Grupo_156685" data-name="Grupo 156685" transform="translate(10.322)">
            <path id="Trazado_127645" data-name="Trazado 127645" d="M1448.48,1005.99l.742,2.282h2.4l-1.941,1.41.742,2.28-1.941-1.409-1.941,1.409.742-2.28-1.941-1.41h2.4Z" transform="translate(-1445.34 -1005.99)" fill="#f2c12e"/>
          </g>
          <g id="Grupo_156686" data-name="Grupo 156686">
            <path id="Trazado_127646" data-name="Trazado 127646" d="M1362.48,1005.99l.742,2.282h2.4l-1.941,1.41.742,2.28-1.941-1.409-1.941,1.409.742-2.28-1.941-1.41h2.4Z" transform="translate(-1359.34 -1005.99)" fill="#f2c12e"/>
          </g>
        </g>
        <g id="Grupo_156688" data-name="Grupo 156688" transform="translate(60.01 99.414)">
          <rect id="Rectángulo_37168" data-name="Rectángulo 37168" width="33.246" height="1.2" fill="#99b5c1"/>
          <rect id="Rectángulo_37169" data-name="Rectángulo 37169" width="33.246" height="1.2" transform="translate(0 2.4)" fill="#99b5c1"/>
        </g>
        <g id="Grupo_156689" data-name="Grupo 156689" transform="translate(60.01 104.215)">
          <rect id="Rectángulo_37170" data-name="Rectángulo 37170" width="33.246" height="1.2" fill="#99b5c1"/>
          <rect id="Rectángulo_37171" data-name="Rectángulo 37171" width="33.246" height="1.2" transform="translate(0 2.4)" fill="#99b5c1"/>
        </g>
        <g id="Grupo_156690" data-name="Grupo 156690" transform="translate(127.111 43.639)">
          <path id="Trazado_127647" data-name="Trazado 127647" d="M1982.987,643.166a8.986,8.986,0,0,1,8.3-8.958V630.29a12.892,12.892,0,0,0-7.261,23.027l2.254-3.2A8.963,8.963,0,0,1,1982.987,643.166Z" transform="translate(-1979.08 -630.29)" fill="#f25252"/>
          <path id="Trazado_127648" data-name="Trazado 127648" d="M2093.82,634.337a8.99,8.99,0,0,1,7.2,5.006l3.633-1.453a12.892,12.892,0,0,0-10.833-7.47Z" transform="translate(-2080.049 -630.404)" fill="#f29d35"/>
          <path id="Trazado_127649" data-name="Trazado 127649" d="M2046.3,706.247a8.985,8.985,0,0,1-13.039,10.311l-2.26,3.208a12.9,12.9,0,0,0,18.942-14.976Z" transform="translate(-2024.769 -695.849)" fill="#14a697"/>
        </g>
        <g id="Grupo_156691" data-name="Grupo 156691" transform="translate(193.893 57.827)">
          <rect id="Rectángulo_37172" data-name="Rectángulo 37172" width="3.361" height="10.562" fill="#f29d35"/>
        </g>
        <g id="Grupo_156692" data-name="Grupo 156692" transform="translate(188.012 48.885)">
          <rect id="Rectángulo_37173" data-name="Rectángulo 37173" width="3.361" height="19.503" fill="#14a697"/>
        </g>
        <g id="Grupo_156693" data-name="Grupo 156693" transform="translate(182.131 55.247)">
          <rect id="Rectángulo_37174" data-name="Rectángulo 37174" width="3.361" height="13.142" fill="#f25252"/>
        </g>
        <g id="Grupo_156694" data-name="Grupo 156694" transform="translate(176.25 42.164)">
          <rect id="Rectángulo_37175" data-name="Rectángulo 37175" width="3.361" height="26.224" fill="#f29d35"/>
        </g>
        <g id="Grupo_156695" data-name="Grupo 156695" transform="translate(170.369 52.726)">
          <rect id="Rectángulo_37176" data-name="Rectángulo 37176" width="3.361" height="15.663" fill="#14a697"/>
        </g>
        <g id="Grupo_156696" data-name="Grupo 156696" transform="translate(164.488 46.485)">
          <rect id="Rectángulo_37177" data-name="Rectángulo 37177" width="3.361" height="21.904" fill="#f25252"/>
        </g>
        <g id="Grupo_156697" data-name="Grupo 156697" transform="translate(158.607 63.408)">
          <rect id="Rectángulo_37178" data-name="Rectángulo 37178" width="3.361" height="4.981" fill="#f29d35"/>
        </g>
        <rect id="Rectángulo_37179" data-name="Rectángulo 37179" width="71.532" height="1.56" transform="translate(127.101 73.49)" fill="#d6e1e6"/>
        <path id="Trazado_127650" data-name="Trazado 127650" d="M1978.611,970.043h71.532V953s-12.464,12.362-18.963,12.362c-6.841,0-15.387-12.309-21.124-10.8-5.14,1.351-5.4,13.442-19.2,9.122S1978.611,970.043,1978.611,970.043Z" transform="translate(-1851.51 -870.629)" fill="#00a1d9"/>
        <g id="Grupo_156698" data-name="Grupo 156698" transform="translate(181.623 75.941)">
          <circle id="Elipse_4834" data-name="Elipse 4834" cx="13.313" cy="13.313" r="13.313" transform="translate(3.353 3.352)" fill="#66dbff" opacity="0.3"/>
          <path id="Trazado_127651" data-name="Trazado 127651" d="M2438.146,904.3a16.664,16.664,0,1,0,23.567,0A16.665,16.665,0,0,0,2438.146,904.3Zm21.2,21.2a13.313,13.313,0,1,1,0-18.828A13.311,13.311,0,0,1,2459.344,925.5Z" transform="translate(-2433.265 -899.421)" fill="#003056"/>
          <rect id="Rectángulo_37180" data-name="Rectángulo 37180" width="3.352" height="4.693" transform="translate(25.974 28.347) rotate(-45)" fill="#003056"/>
          <rect id="Rectángulo_37181" data-name="Rectángulo 37181" width="6.512" height="19.825" transform="translate(28.175 32.784) rotate(-45)" fill="#ffb142"/>
          <rect id="Rectángulo_37182" data-name="Rectángulo 37182" width="1.629" height="19.825" transform="translate(28.175 32.784) rotate(-45)" fill="#ffd54a"/>
          <rect id="Rectángulo_37183" data-name="Rectángulo 37183" width="6.512" height="1.245" transform="translate(30.004 34.613) rotate(-45)" fill="#ffd54a"/>
          <rect id="Rectángulo_37184" data-name="Rectángulo 37184" width="6.512" height="1.245" transform="translate(38.807 43.417) rotate(-45)" fill="#ffd54a"/>
        </g>
        <g id="Grupo_156708" data-name="Grupo 156708" transform="translate(0 78.891)">
          <path id="Trazado_127652" data-name="Trazado 127652" d="M943.284,955.565h-22.8a.48.48,0,0,1-.48-.48V924.48a.48.48,0,0,1,.48-.48h22.8a.48.48,0,0,1,.48.48v30.605A.48.48,0,0,1,943.284,955.565Z" transform="translate(-920 -924)" fill="#e6f5fa"/>
          <g id="Grupo_156707" data-name="Grupo 156707" transform="translate(4.201 4.921)">
            <g id="Grupo_156699" data-name="Grupo 156699" transform="translate(0 19.323)">
              <rect id="Rectángulo_37185" data-name="Rectángulo 37185" width="14.883" height="1.08" fill="#d6e1e6"/>
            </g>
            <g id="Grupo_156700" data-name="Grupo 156700" transform="translate(0 16.563)">
              <rect id="Rectángulo_37186" data-name="Rectángulo 37186" width="14.883" height="1.08" fill="#d6e1e6"/>
            </g>
            <g id="Grupo_156701" data-name="Grupo 156701" transform="translate(0 13.802)">
              <rect id="Rectángulo_37187" data-name="Rectángulo 37187" width="14.883" height="1.08" fill="#d6e1e6"/>
            </g>
            <g id="Grupo_156702" data-name="Grupo 156702" transform="translate(0 11.042)">
              <rect id="Rectángulo_37188" data-name="Rectángulo 37188" width="14.883" height="1.08" fill="#d6e1e6"/>
            </g>
            <g id="Grupo_156703" data-name="Grupo 156703" transform="translate(0 8.281)">
              <rect id="Rectángulo_37189" data-name="Rectángulo 37189" width="14.883" height="1.08" fill="#d6e1e6"/>
            </g>
            <g id="Grupo_156704" data-name="Grupo 156704" transform="translate(0 5.521)">
              <rect id="Rectángulo_37190" data-name="Rectángulo 37190" width="14.883" height="1.08" fill="#d6e1e6"/>
            </g>
            <g id="Grupo_156705" data-name="Grupo 156705" transform="translate(0 2.76)">
              <rect id="Rectángulo_37191" data-name="Rectángulo 37191" width="14.883" height="1.08" fill="#d6e1e6"/>
            </g>
            <g id="Grupo_156706" data-name="Grupo 156706">
              <rect id="Rectángulo_37192" data-name="Rectángulo 37192" width="14.883" height="1.08" fill="#d6e1e6"/>
            </g>
          </g>
        </g>
        <path id="Trazado_127653" data-name="Trazado 127653" d="M1094.566,1254.56h-15.6a1.56,1.56,0,1,0-3.121,0H1060.96a.96.96,0,0,0-.96.96v49.688a.96.96,0,0,0,.96.96h33.606a.96.96,0,0,0,.96-.96V1255.52A.96.96,0,0,0,1094.566,1254.56Z" transform="translate(-1043.197 -1134.623)" fill="#556589" opacity="0.25"/>
        <g id="Grupo_156713" data-name="Grupo 156713" transform="translate(13.202 120.778)">
          <path id="Trazado_127654" data-name="Trazado 127654" d="M1064.566,1337.609H1030.96a.96.96,0,0,1-.96-.96V1286.96a.96.96,0,0,1,.96-.96h33.606a.96.96,0,0,1,.96.96v49.688A.96.96,0,0,1,1064.566,1337.609Z" transform="translate(-1030 -1284.44)" fill="#00385f"/>
          <rect id="Rectángulo_37193" data-name="Rectángulo 37193" width="46.808" height="30.725" transform="translate(33.126 3.961) rotate(90)" fill="#e6f5fa"/>
          <rect id="Rectángulo_37194" data-name="Rectángulo 37194" width="9.602" height="4.921" transform="translate(12.602 1.56)" fill="#adcf4f"/>
          <rect id="Rectángulo_37195" data-name="Rectángulo 37195" width="9.602" height="2.4" transform="translate(12.602 4.081)" fill="#bdd972"/>
          <circle id="Elipse_4835" data-name="Elipse 4835" cx="1.56" cy="1.56" r="1.56" transform="translate(15.843)" fill="#adcf4f"/>
          <g id="Grupo_156709" data-name="Grupo 156709" transform="translate(6.481 9.602)">
            <rect id="Rectángulo_37196" data-name="Rectángulo 37196" width="7.321" height="7.321" fill="#d6e1e6"/>
            <rect id="Rectángulo_37197" data-name="Rectángulo 37197" width="13.562" height="0.6" transform="translate(8.882 2.28)" fill="#d6e1e6"/>
            <rect id="Rectángulo_37198" data-name="Rectángulo 37198" width="13.562" height="0.6" transform="translate(8.882 3.481)" fill="#d6e1e6"/>
            <rect id="Rectángulo_37199" data-name="Rectángulo 37199" width="13.562" height="0.6" transform="translate(8.882 4.801)" fill="#d6e1e6"/>
          </g>
          <g id="Grupo_156710" data-name="Grupo 156710" transform="translate(6.481 18.843)">
            <rect id="Rectángulo_37200" data-name="Rectángulo 37200" width="7.321" height="7.321" fill="#d6e1e6"/>
            <rect id="Rectángulo_37201" data-name="Rectángulo 37201" width="13.562" height="0.6" transform="translate(8.882 2.28)" fill="#d6e1e6"/>
            <rect id="Rectángulo_37202" data-name="Rectángulo 37202" width="13.562" height="0.6" transform="translate(8.882 3.481)" fill="#d6e1e6"/>
            <rect id="Rectángulo_37203" data-name="Rectángulo 37203" width="13.562" height="0.6" transform="translate(8.882 4.801)" fill="#d6e1e6"/>
          </g>
          <g id="Grupo_156711" data-name="Grupo 156711" transform="translate(6.481 28.805)">
            <rect id="Rectángulo_37204" data-name="Rectángulo 37204" width="7.321" height="7.321" fill="#d6e1e6"/>
            <rect id="Rectángulo_37205" data-name="Rectángulo 37205" width="13.562" height="0.6" transform="translate(8.882 2.28)" fill="#d6e1e6"/>
            <rect id="Rectángulo_37206" data-name="Rectángulo 37206" width="13.562" height="0.6" transform="translate(8.882 3.481)" fill="#d6e1e6"/>
            <rect id="Rectángulo_37207" data-name="Rectángulo 37207" width="13.562" height="0.6" transform="translate(8.882 4.801)" fill="#d6e1e6"/>
          </g>
          <g id="Grupo_156712" data-name="Grupo 156712" transform="translate(6.481 38.046)">
            <rect id="Rectángulo_37208" data-name="Rectángulo 37208" width="7.321" height="7.321" fill="#d6e1e6"/>
            <rect id="Rectángulo_37209" data-name="Rectángulo 37209" width="13.562" height="0.6" transform="translate(8.882 2.28)" fill="#d6e1e6"/>
            <rect id="Rectángulo_37210" data-name="Rectángulo 37210" width="13.562" height="0.6" transform="translate(8.882 3.481)" fill="#d6e1e6"/>
            <rect id="Rectángulo_37211" data-name="Rectángulo 37211" width="13.562" height="0.6" transform="translate(8.882 4.801)" fill="#d6e1e6"/>
          </g>
        </g>
        <g id="Grupo_156714" data-name="Grupo 156714" transform="translate(207.634 1.42)">
          <path id="Trazado_127655" data-name="Trazado 127655" d="M2696.09,297.572h-45.136a.964.964,0,0,1-.964-.964V279.484a.964.964,0,0,1,.964-.964h45.136a.964.964,0,0,1,.964.964v17.126A.963.963,0,0,1,2696.09,297.572Z" transform="translate(-2649.99 -278.52)" fill="#fff"/>
          <path id="Trazado_127656" data-name="Trazado 127656" d="M2702.232,311.732a5.971,5.971,0,1,1-5.97-5.972A5.97,5.97,0,0,1,2702.232,311.732Z" transform="translate(-2685.453 -302.491)" fill="#293c61"/>
          <circle id="Elipse_4836" data-name="Elipse 4836" cx="1.848" cy="1.848" r="1.848" transform="translate(8.19 9.244) rotate(-45)" fill="#f25252"/>
          <path id="Trazado_127657" data-name="Trazado 127657" d="M2723.838,373.923v1.584a5.983,5.983,0,0,1-5.118,0v-1.584a1.823,1.823,0,0,1,1.823-1.823h1.472A1.823,1.823,0,0,1,2723.838,373.923Z" transform="translate(-2710.471 -360.868)" fill="#f25252"/>
          <rect id="Rectángulo_37212" data-name="Rectángulo 37212" width="21.754" height="1.138" transform="translate(19.622 6.966)" fill="#d4d8df"/>
          <rect id="Rectángulo_37213" data-name="Rectángulo 37213" width="21.754" height="1.138" transform="translate(19.622 9.242)" fill="#d4d8df"/>
          <rect id="Rectángulo_37214" data-name="Rectángulo 37214" width="21.754" height="1.138" transform="translate(19.622 11.516)" fill="#d4d8df"/>
        </g>
        <g id="Grupo_156715" data-name="Grupo 156715" transform="translate(207.634 22.747)">
          <path id="Trazado_127658" data-name="Trazado 127658" d="M2696.09,475.272h-45.136a.964.964,0,0,1-.964-.964V457.184a.964.964,0,0,1,.964-.964h45.136a.964.964,0,0,1,.964.964v17.126A.963.963,0,0,1,2696.09,475.272Z" transform="translate(-2649.99 -456.22)" fill="#fff"/>
          <path id="Trazado_127659" data-name="Trazado 127659" d="M2702.232,489.432a5.971,5.971,0,1,1-5.97-5.972A5.97,5.97,0,0,1,2702.232,489.432Z" transform="translate(-2685.453 -480.191)" fill="#293c61"/>
          <circle id="Elipse_4837" data-name="Elipse 4837" cx="1.848" cy="1.848" r="1.848" transform="translate(8.19 9.243) rotate(-45)" fill="#14a697"/>
          <path id="Trazado_127660" data-name="Trazado 127660" d="M2723.838,551.623v1.584a5.983,5.983,0,0,1-5.118,0v-1.584a1.823,1.823,0,0,1,1.823-1.823h1.472A1.823,1.823,0,0,1,2723.838,551.623Z" transform="translate(-2710.471 -538.569)" fill="#14a697"/>
          <rect id="Rectángulo_37215" data-name="Rectángulo 37215" width="21.754" height="1.138" transform="translate(19.622 6.966)" fill="#d4d8df"/>
          <rect id="Rectángulo_37216" data-name="Rectángulo 37216" width="21.754" height="1.138" transform="translate(19.622 9.242)" fill="#d4d8df"/>
          <rect id="Rectángulo_37217" data-name="Rectángulo 37217" width="21.754" height="1.138" transform="translate(19.622 11.516)" fill="#d4d8df"/>
        </g>
        <g id="Grupo_156716" data-name="Grupo 156716" transform="translate(207.634 44.074)">
          <path id="Trazado_127661" data-name="Trazado 127661" d="M2696.09,652.963h-45.136a.964.964,0,0,1-.964-.964V634.874a.964.964,0,0,1,.964-.964h45.136a.964.964,0,0,1,.964.964V652A.963.963,0,0,1,2696.09,652.963Z" transform="translate(-2649.99 -633.91)" fill="#fff"/>
          <path id="Trazado_127662" data-name="Trazado 127662" d="M2702.232,667.132a5.971,5.971,0,1,1-5.97-5.972A5.972,5.972,0,0,1,2702.232,667.132Z" transform="translate(-2685.453 -657.89)" fill="#293c61"/>
          <circle id="Elipse_4838" data-name="Elipse 4838" cx="1.848" cy="1.848" r="1.848" transform="translate(8.594 10.637) rotate(-76.714)" fill="#f29d35"/>
          <path id="Trazado_127663" data-name="Trazado 127663" d="M2723.838,729.323v1.584a5.982,5.982,0,0,1-5.118,0v-1.584a1.823,1.823,0,0,1,1.823-1.823h1.472A1.823,1.823,0,0,1,2723.838,729.323Z" transform="translate(-2710.471 -716.267)" fill="#f29d35"/>
          <rect id="Rectángulo_37218" data-name="Rectángulo 37218" width="21.754" height="1.138" transform="translate(19.622 6.967)" fill="#d4d8df"/>
          <rect id="Rectángulo_37219" data-name="Rectángulo 37219" width="21.754" height="1.138" transform="translate(19.622 9.243)" fill="#d4d8df"/>
          <rect id="Rectángulo_37220" data-name="Rectángulo 37220" width="21.754" height="1.138" transform="translate(19.622 11.517)" fill="#d4d8df"/>
        </g>
        <g id="Grupo_156717" data-name="Grupo 156717" transform="translate(237.558 79.46)">
          <circle id="Elipse_4839" data-name="Elipse 4839" cx="4.534" cy="4.534" r="4.534" transform="translate(0 8.952) rotate(-80.782)" fill="#adcf4f"/>
          <path id="Trazado_127664" data-name="Trazado 127664" d="M2935.91,960.12V963l2.491-1.439Z" transform="translate(-2931.518 -956.354)" fill="#e7eff0"/>
        </g>
        <g id="Grupo_156718" data-name="Grupo 156718" transform="translate(12.277 61.347)">
          <circle id="Elipse_4840" data-name="Elipse 4840" cx="3.706" cy="3.706" r="3.706" transform="translate(0.855 0.855)" fill="#2e3c61"/>
          <circle id="Elipse_4841" data-name="Elipse 4841" cx="1.781" cy="1.781" r="1.781" transform="translate(2.04 4.561) rotate(-45)" fill="#9facf2"/>
          <path id="Trazado_127665" data-name="Trazado 127665" d="M1050.919,777.83q-.225.934-.449,1.869a5.048,5.048,0,0,0,2.357,0q-.225-.934-.449-1.869Z" transform="translate(-1047.088 -777.83)" fill="#2e3c61"/>
          <path id="Trazado_127666" data-name="Trazado 127666" d="M1029.12,785.683l1,1.638a5.054,5.054,0,0,0,1.667-1.667l-1.638-1Z" transform="translate(-1028.3 -783.831)" fill="#2e3c61"/>
          <path id="Trazado_127667" data-name="Trazado 127667" d="M1022.29,807.918l1.869.449a5.051,5.051,0,0,0,0-2.357l-1.869.449Z" transform="translate(-1022.29 -802.628)" fill="#2e3c61"/>
          <path id="Trazado_127668" data-name="Trazado 127668" d="M1030.143,827.412l1.638-1a5.052,5.052,0,0,0-1.667-1.667l-1,1.638Z" transform="translate(-1028.292 -819.11)" fill="#2e3c61"/>
          <path id="Trazado_127669" data-name="Trazado 127669" d="M1052.378,839.106q.225-.934.449-1.869a5.048,5.048,0,0,0-2.357,0q.225.934.449,1.869Z" transform="translate(-1047.088 -829.984)" fill="#2e3c61"/>
          <path id="Trazado_127670" data-name="Trazado 127670" d="M1071.872,826.388l-1-1.638a5.053,5.053,0,0,0-1.667,1.667l1.638,1Z" transform="translate(-1063.57 -819.119)" fill="#2e3c61"/>
          <path id="Trazado_127671" data-name="Trazado 127671" d="M1083.566,806.459l-1.869-.449a5.048,5.048,0,0,0,0,2.357l1.869-.449Z" transform="translate(-1074.444 -802.628)" fill="#2e3c61"/>
          <path id="Trazado_127672" data-name="Trazado 127672" d="M1070.848,784.66l-1.638,1a5.054,5.054,0,0,0,1.667,1.667l1-1.638Z" transform="translate(-1063.579 -783.84)" fill="#2e3c61"/>
        </g>
        <g id="Grupo_156719" data-name="Grupo 156719" transform="translate(209.803 136.072)">
          <path id="Trazado_127673" data-name="Trazado 127673" d="M2668.06,1525.43l14.582,10.682,14.583-10.682H2668.06Z" transform="translate(-2668.06 -1510.427)" fill="#f29f05"/>
          <rect id="Rectángulo_37221" data-name="Rectángulo 37221" width="24.124" height="31.565" transform="translate(2.52)" fill="#f2f2f2"/>
          <path id="Trazado_127674" data-name="Trazado 127674" d="M2682.642,1536.112l-14.582-10.682v20.283h29.165V1525.43Z" transform="translate(-2668.06 -1510.427)" fill="#004b7f"/>
          <rect id="Rectángulo_37222" data-name="Rectángulo 37222" width="19.683" height="6.841" transform="translate(4.561 4.081)" fill="#d6e1e6"/>
          <rect id="Rectángulo_37223" data-name="Rectángulo 37223" width="6.841" height="5.161" transform="translate(4.561 11.882)" fill="#d6e1e6"/>
          <rect id="Rectángulo_37224" data-name="Rectángulo 37224" width="11.522" height="0.6" transform="translate(12.722 12.842)" fill="#c4e1f2"/>
          <rect id="Rectángulo_37225" data-name="Rectángulo 37225" width="11.522" height="0.6" transform="translate(12.722 13.922)" fill="#c4e1f2"/>
          <rect id="Rectángulo_37226" data-name="Rectángulo 37226" width="11.522" height="0.6" transform="translate(12.722 15.123)" fill="#c4e1f2"/>
        </g>
        <g id="Grupo_156720" data-name="Grupo 156720" transform="translate(16.083 29.202)">
          <path id="Trazado_127675" data-name="Trazado 127675" d="M1054,534.283V510.922a.922.922,0,0,1,.922-.922h30.2a.922.922,0,0,1,.922.922v23.362a.922.922,0,0,1-.922.922h-30.2A.924.924,0,0,1,1054,534.283Z" transform="translate(-1054 -510)" fill="#25495c"/>
          <rect id="Rectángulo_37227" data-name="Rectángulo 37227" width="27.245" height="20.403" transform="translate(2.4 2.4)" fill="#c4e1f2"/>
          <path id="Trazado_127676" data-name="Trazado 127676" d="M1075.2,531.2h26.044V530H1074v20.4h1.2Z" transform="translate(-1071.599 -527.6)" fill="#f6f6f6" opacity="0.5"/>
          <path id="Trazado_127677" data-name="Trazado 127677" d="M1170.48,591.47V597.2l4.958-2.862Z" transform="translate(-1156.5 -581.692)" fill="#ff4559"/>
        </g>
        <g id="Grupo_156721" data-name="Grupo 156721" transform="translate(80.181)">
          <path id="Trazado_127678" data-name="Trazado 127678" d="M1617.346,297.77h-25.693a3.594,3.594,0,0,0-3.593,3.593V318.2a3.593,3.593,0,0,0,3.593,3.593h2.936v5.6l3.177-5.6h19.58a3.593,3.593,0,0,0,3.593-3.593v-16.83A3.593,3.593,0,0,0,1617.346,297.77Z" transform="translate(-1588.06 -294.04)" fill="#adcf4f"/>
          <path id="Trazado_127679" data-name="Trazado 127679" d="M1825.58,266.69h-10.317a1.442,1.442,0,0,0-1.443,1.443v6.76a1.442,1.442,0,0,0,1.443,1.443h1.179v2.248l1.276-2.248h7.863a1.442,1.442,0,0,0,1.443-1.443v-6.76A1.442,1.442,0,0,0,1825.58,266.69Z" transform="translate(-1786.724 -266.69)" fill="#fff"/>
          <circle id="Elipse_4842" data-name="Elipse 4842" cx="2.099" cy="2.099" r="2.099" transform="translate(7.056 14.252) rotate(-22.5)" fill="#f2f2f2"/>
          <circle id="Elipse_4843" data-name="Elipse 4843" cx="2.099" cy="2.099" r="2.099" transform="translate(14.272 16.963) rotate(-76.714)" fill="#f2f2f2"/>
          <circle id="Elipse_4844" data-name="Elipse 4844" cx="2.099" cy="2.099" r="2.099" transform="translate(20.815 15.391) rotate(-45)" fill="#f2f2f2"/>
        </g>
      </g>
    </g>
  </g>
</svg>
