<svg xmlns="http://www.w3.org/2000/svg" xmlns:xlink="http://www.w3.org/1999/xlink" width="70" height="85" viewBox="0 0 70 85">
  <defs>
    <clipPath id="clip-path">
      <rect id="Rect치ngulo_37277" data-name="Rect치ngulo 37277" width="49.074" height="48.992" fill="none"/>
    </clipPath>
  </defs>
  <g id="_102" data-name="102" transform="translate(-301 -1551)">
    <g id="Grupo_156382" data-name="Grupo 156382" transform="translate(-239 -156)">
      <rect id="Rect치ngulo_36766" data-name="Rect치ngulo 36766" width="70" height="85" rx="12" transform="translate(540 1707)" fill="#1169e3"/>
    </g>
    <g id="Grupo_156875" data-name="Grupo 156875" transform="translate(311.915 1568.921)">
      <g id="Grupo_156874" data-name="Grupo 156874" clip-path="url(#clip-path)">
        <path id="Trazado_128652" data-name="Trazado 128652" d="M47.9,43.462l-.04-.009c-.011.021-.02.041-.028.062.023-.018.043-.035.069-.053" transform="translate(-32.964 -29.949)"/>
        <path id="Trazado_128653" data-name="Trazado 128653" d="M51.856,43.225h-.012l.006.009.006-.009" transform="translate(-35.732 -29.791)"/>
        <path id="Trazado_128654" data-name="Trazado 128654" d="M46.466,28.44A2.372,2.372,0,0,0,49,25.908q0-11.677,0-23.353A2.374,2.374,0,0,0,46.439,0Q36.366,0,26.293,0a2.381,2.381,0,0,0-2.578,2.582q0,3.653,0,7.307v.788l-.2-.291c-2.929-4.36-6.992-6.235-12.195-5.441a11.772,11.772,0,0,0-9.712,11.18c-.064,4.393-.028,8.788-.011,13.182a3.918,3.918,0,0,0,3.2,3.795c.617.122,1.239.03,1.95.1l-.356.252a14.5,14.5,0,0,0-6.2,9.85A39.617,39.617,0,0,0,0,48.434c-.016.442.1.559.55.558q12.641-.023,25.282-.011c1.041,0,1.046,0,1.04-1.034a25.314,25.314,0,0,0-.235-5.02,14.477,14.477,0,0,0-9-10.982c-.212-.09-.365-.178-.408-.426-.09-.518-.2-1.031-.308-1.546a.277.277,0,0,1,.191-.375,5.455,5.455,0,0,0,3.34-4.1c.034-.165.094-.226.252-.216a4.422,4.422,0,0,0,3.015-.8c0,.6-.009,1.1,0,1.612a2.369,2.369,0,0,0,2.363,2.35c.428.009.856,0,1.284,0,1.086,0,1.1,0,1.088,1.082a1.927,1.927,0,0,0,3.382,1.4c.719-.725,1.451-1.435,2.158-2.171a.966.966,0,0,1,.771-.319q5.851.016,11.7.006M5.286,31.578a2.291,2.291,0,0,1-2.1-2.186c-.036-1.61-.009-3.221-.009-4.915a4.181,4.181,0,0,0,2.809.8c.274-.016.414.02.484.361A5.264,5.264,0,0,0,8.425,28.8c.232.182.272.272.056.513a2.308,2.308,0,0,0-.454,2.279c-.935,0-1.841.048-2.74-.012M6.332,21.36c0,.674,0,1.348,0,2.022,0,.127.071.278-.174.326a2.439,2.439,0,1,1,.007-4.752c.246.053.165.209.166.333.008.69,0,1.381,0,2.071M9.257,47.411c-.822-.028-1.646-.028-2.468,0-.356.011-.472-.066-.467-.45.023-1.81,0-3.62.02-5.429,0-.369-.087-.466-.458-.459-1.131.021-1.132,0-1.132,1.158,0,1.6-.007,3.192.006,4.788,0,.288-.049.4-.372.393-.822-.025-1.646-.012-2.468-.006-.2,0-.323-.006-.334-.277A14.194,14.194,0,0,1,3.655,38.5a13.3,13.3,0,0,1,4.027-4c.288-.184.393-.148.534.154.59,1.26,1.205,2.508,1.853,3.847l1.015-1.152c.245.488.426.87.628,1.243a.739.739,0,0,1,.016.572c-.652,2.612-1.308,5.224-1.95,7.839-.074.3-.191.419-.521.408m4.9-17.134c-.045-.194,0-.244.2-.261.951-.078.953-.084,1.139.834.224,1.109.224,1.109-.784,1.609-.323.16-.652.311-.966.487a.459.459,0,0,1-.663-.1,2.351,2.351,0,0,0,1.071-2.573m-.9,5c.137-.116.234-.17.36-.009.02.025.048.045.069.07.279.316.85.582.809.925a5.35,5.35,0,0,1-.694,1.549c-.085.173-.257.1-.489.128-.1.018-.217-.059-.285-.242a4.17,4.17,0,0,0-.194-.4c-.587-1.173-.584-1.17.424-2.024M11.945,31.59c-.292.029-.589.006-.884.006-.278,0-.558.02-.834,0a.776.776,0,0,1-.731-.78.761.761,0,0,1,.729-.779,15.014,15.014,0,0,1,1.718,0,.729.729,0,0,1,.7.749.764.764,0,0,1-.7.8M9.568,33.521c.269-.087.51-.342.827-.187.557.271,1.109.554,1.64.82L10.478,35.71c-.3-.622-.624-1.281-.946-1.938-.046-.095-.082-.213.036-.251M11.3,47.38c.471-1.886.934-3.746,1.4-5.6.171-.684.349-1.365.517-2.05.035-.144.074-.235.25-.227s.172.115.2.227c.638,2.542,1.276,5.084,1.922,7.656ZM18.648,34.7c.158-.341.268-.4.6-.18a12.959,12.959,0,0,1,5.972,9.693c.112.953.051,1.906.084,2.859.009.259-.067.338-.329.332-.822-.016-1.646-.022-2.468,0-.318.009-.377-.1-.374-.39.013-1.826,0-3.653.014-5.479,0-.349-.055-.479-.446-.471-1.142.023-1.142,0-1.142,1.149,0,1.6-.01,3.192.008,4.788,0,.331-.1.409-.412.4-.872-.021-1.744-.016-2.616,0a.336.336,0,0,1-.4-.307q-.994-4.017-2-8.028a.632.632,0,0,1,.039-.477c.2-.374.383-.756.638-1.265l1,1.181c.646-1.331,1.259-2.561,1.836-3.807m-1.3-1.141c.154.136-.064.321-.134.474-.26.564-.535,1.121-.829,1.734l-1.555-1.6c.577-.288,1.154-.613,1.762-.862.259-.106.559.085.757.26m3.029-17.77A6.8,6.8,0,0,0,19.1,13.257c-.28-.364-.479-.374-.74-.018a2.537,2.537,0,0,1-.273.276c-.421.29-.427.547-.076.959a4.137,4.137,0,0,1,.954,2.736c.01,2.435.019,4.87,0,7.3a3.914,3.914,0,0,1-3.93,3.917,22.686,22.686,0,0,1-3.94-.084A3.863,3.863,0,0,1,7.921,24.6q-.037-3.627,0-7.255a3.169,3.169,0,0,1,3.357-3.128.521.521,0,0,1,.438.249,4.488,4.488,0,0,1,.922,2.556c.011.316.11.41.4.363a.579.579,0,0,1,.1,0c1.2,0,1.2,0,1-1.217a6.978,6.978,0,0,0-1.183-2.73h0a1.822,1.822,0,0,0-1.633-.817A4.859,4.859,0,0,0,6.51,16.086h0l-.106.436a1.177,1.177,0,0,1,.014-.841,7.031,7.031,0,0,1,5.034-5.913,7.126,7.126,0,0,1,8.978,5.476,4.341,4.341,0,0,1,.039.442h0c.119.171.071.356.09.627a.983.983,0,0,1-.182-.521M20.7,23.7c-.2-.056-.145-.188-.146-.3-.006-.69,0-1.38,0-2.071s0-1.38,0-2.071c0-.139-.038-.269.2-.306a2.482,2.482,0,0,1,2.959,2.5A2.514,2.514,0,0,1,20.7,23.7m2.962-5.561a4.284,4.284,0,0,0-1.33-.63c-.308-.071-.2-.3-.2-.471a9.115,9.115,0,0,0-.76-3.983A8.7,8.7,0,0,0,4.758,17.084c.015.273-.053.42-.339.478a4.28,4.28,0,0,0-1.217.581c-.309-4.238,1.007-7.752,4.6-10.1A9.753,9.753,0,0,1,18.872,7.9a10.308,10.308,0,0,1,4.793,10.24M36.827,25.4c-.154.223-.26.65-.455.633-.282-.025-.337-.446-.563-.725h1.033a.4.4,0,0,1-.016.093m-.491-1.7h-.1c-1.552,0-1.547,0-2.274-1.357-.1-.188-.091-.279.085-.394a2.16,2.16,0,0,0,.887-1.206c.064-.208.168-.224.356-.221.707.015,1.414.021,2.12,0,.226-.007.313.054.378.261a2.1,2.1,0,0,0,.867,1.162c.211.137.207.263.065.432a.172.172,0,0,0-.024.043A1.8,1.8,0,0,1,36.336,23.7m7.591,3.164c-2.017-.008-4.034,0-6.145,0,.88-1.408,1.707-2.726,2.526-4.05a.273.273,0,0,1,.4-.135,5.244,5.244,0,0,1,3.434,3.879c.043.175.054.31-.21.309M27.7,15.666a3.431,3.431,0,0,1-.051,4.282,3.9,3.9,0,0,0-.216,4.411.525.525,0,0,1,.03.542,5.84,5.84,0,0,0-.5,1.694c-.013.094,0,.193-.113.252a1.086,1.086,0,0,1-1.561-.99q0-10.614,0-21.228c0-.691,0-1.382,0-2.073s.28-.975,1-.975q10.072,0,20.144,0c.7,0,.981.28.981.99q0,5.85,0,11.7,0,5.776,0,11.552a1.072,1.072,0,0,1-1.529,1.033c-.151-.057-.131-.17-.147-.276a6.128,6.128,0,0,0-.5-1.694.483.483,0,0,1,.019-.5A3.99,3.99,0,0,0,45,19.848a3.332,3.332,0,0,1-.65-2.829,3.571,3.571,0,0,1,.518-1.109,5.173,5.173,0,0,0,.314-5.551c-.476-.936-.906-1.9-1.427-2.809a8.085,8.085,0,0,0-7.434-4.367,8.081,8.081,0,0,0-7.374,4.383c-.574,1.013-1.085,2.064-1.572,3.121a4.878,4.878,0,0,0,.328,4.98m1.539-.485a3.775,3.775,0,0,1-.228-4.262,28.466,28.466,0,0,1,1.843-3.425,6.871,6.871,0,0,1,11.532.839c.52.97,1.005,1.959,1.482,2.952a3.458,3.458,0,0,1-.233,3.608,4.766,4.766,0,0,0,.052,5.83,2.487,2.487,0,0,1,.418,2.374,6.785,6.785,0,0,0-2.637-1.826c-.477-.173-.972-.3-1.463-.43a1.019,1.019,0,0,1-.619-.371c-.195-.278-.224-.5.105-.74a3.839,3.839,0,0,0,1.6-3.274c0-1.6-.022-3.192.012-4.787.011-.495-.112-.7-.615-.61a.825.825,0,0,1-.2-.01c-.781.032-.781.032-.781.813,0,1.53,0,3.06,0,4.59a2.373,2.373,0,0,1-2.5,2.509c-.494,0-.987.01-1.481,0A2.356,2.356,0,0,1,33.2,16.627c-.018-1.332-.013-2.665,0-4a1.448,1.448,0,0,1,1.095-1.467c.442-.1.552-.293.484-.687a.857.857,0,0,1,.011-.2c-.038-.9-.079-.929-.95-.659a3.148,3.148,0,0,0-2.218,2.952c-.017,1.382-.028,2.764,0,4.145a3.759,3.759,0,0,0,1.482,2.938c.489.394.419.88-.186,1.112a6.653,6.653,0,0,1-.76.2,6.945,6.945,0,0,0-3.512,2.085,2.077,2.077,0,0,1,.247-2.133,6.229,6.229,0,0,0,1.052-2.26,4.485,4.485,0,0,0-.7-3.481m3.424,12.659c-.617.661-1.273,1.285-1.915,1.922-.135.134-.258.319-.5.21-.225-.1-.218-.3-.218-.5,0-.724-.025-1.448.011-2.17.02-.391-.118-.486-.47-.444-.211.025-.429-.012-.64.009-.326.032-.437-.055-.344-.4a5.261,5.261,0,0,1,3.326-3.751c.186-.073.338-.149.491.1.811,1.329,1.643,2.645,2.468,3.965,0,.051,0,.1,0,.152-1.048-.369-1.615.275-2.208.912" transform="translate(0 -0.001)"/>
        <path id="Trazado_128655" data-name="Trazado 128655" d="M125.7,96.573q-6.714.016-13.43,0c-.322,0-.408.081-.4.4.019,1.3.024,2.6,0,3.9-.007.372.089.457.456.454,2.222-.019,4.444-.01,6.665-.01,2.238,0,4.477-.007,6.715.008.323,0,.408-.082.4-.4q-.028-1.974,0-3.949c0-.324-.085-.4-.4-.4m-2.305,3.167c-3.159,0-6.318-.008-9.476.011-.4,0-.479-.119-.472-.489.022-1.1.006-1.1,1.131-1.1h4.442c1.695,0,3.389.012,5.083-.009.358,0,.426.1.422.438-.015,1.151,0,1.151-1.131,1.151" transform="translate(-77.097 -66.56)"/>
        <path id="Trazado_128656" data-name="Trazado 128656" d="M120.912,127.069c-2.616.018-5.233.01-7.85.01-1.2,0-1.187,0-1.195,1.185,0,.322.083.407.4.4,1.431-.018,2.863-.008,4.3-.008h3.653c1.142,0,1.124,0,1.147-1.135.007-.37-.087-.457-.455-.454" transform="translate(-77.101 -87.578)"/>
        <path id="Trazado_128657" data-name="Trazado 128657" d="M136.239,116.907c-1.448.018-2.9.008-4.344.008h-3.6c-1.17,0-1.155,0-1.172,1.159,0,.345.08.432.429.43,2.633-.016,5.266-.009,7.9-.009,1.182,0,1.17,0,1.171-1.208,0-.3-.071-.384-.378-.38" transform="translate(-87.612 -80.574)"/>
        <path id="Trazado_128658" data-name="Trazado 128658" d="M112.871,118.5h.79c1.3,0,1.292,0,1.232-1.291-.009-.19-.021-.3-.26-.294-.888.013-1.776.007-2.665,0-.15,0-.222.023-.246.206-.175,1.275-.1,1.376,1.15,1.376" transform="translate(-76.952 -80.58)"/>
        <path id="Trazado_128659" data-name="Trazado 128659" d="M149.384,127.1h-.839c-1.309,0-1.3,0-1.186,1.339.017.2.075.246.26.245.888-.008,1.777-.005,2.665,0,.148,0,.223-.019.249-.2.178-1.267.091-1.378-1.148-1.378" transform="translate(-101.529 -87.599)"/>
        <path id="Trazado_128660" data-name="Trazado 128660" d="M133.01,137.268c-.777,0-.777,0-.777.754,0,.826,0,.826.8.826.777,0,.777,0,.777-.754,0-.826,0-.826-.8-.826" transform="translate(-91.137 -94.607)"/>
        <path id="Trazado_128661" data-name="Trazado 128661" d="M143.252,137.268c-.85,0-.85,0-.85.829,0,.751,0,.751.731.751.85,0,.85,0,.85-.829,0-.751,0-.751-.731-.751" transform="translate(-98.146 -94.607)"/>
        <path id="Trazado_128662" data-name="Trazado 128662" d="M153.369,137.268c-.8,0-.8,0-.8.783s0,.8.783.8.8,0,.8-.783,0-.8-.783-.8" transform="translate(-105.155 -94.607)"/>
        <path id="Trazado_128663" data-name="Trazado 128663" d="M85.039,11.07a8.453,8.453,0,0,1,14.808-.016c.521.91.951,1.873,1.427,2.809a5.173,5.173,0,0,1-.314,5.551,3.578,3.578,0,0,0-.518,1.109,3.331,3.331,0,0,0,.65,2.829,3.99,3.99,0,0,1,.257,4.54.483.483,0,0,0-.019.5,6.128,6.128,0,0,1,.5,1.694c.016.106,0,.219.147.276a1.072,1.072,0,0,0,1.528-1.033q0-5.776,0-11.552,0-5.85,0-11.7c0-.71-.277-.99-.981-.99q-10.072,0-20.144,0c-.716,0-.991.273-1,.975s0,1.382,0,2.073q0,10.614,0,21.228a1.086,1.086,0,0,0,1.561.99c.11-.059.1-.159.113-.252a5.831,5.831,0,0,1,.5-1.694.525.525,0,0,0-.03-.542,3.9,3.9,0,0,1,.216-4.411,3.431,3.431,0,0,0,.052-4.282,4.878,4.878,0,0,1-.328-4.98c.487-1.057,1-2.108,1.572-3.121" transform="translate(-56.091 -3.505)" fill="#e5e8ec"/>
        <path id="Trazado_128664" data-name="Trazado 128664" d="M92,31.446a2.077,2.077,0,0,0-.247,2.133,6.945,6.945,0,0,1,3.512-2.085,6.653,6.653,0,0,0,.76-.2c.6-.232.675-.718.186-1.112a3.761,3.761,0,0,1-1.482-2.938c-.032-1.381-.021-2.763,0-4.145a3.148,3.148,0,0,1,2.218-2.952c.871-.27.912-.241.95.659h1.554c.034-.8.034-.8.852-.8.72,0,.72,0,.755.8.51,0,1.02-.013,1.53-.006s.741.228.818.775a.825.825,0,0,0,.2.01c.5-.093.626.115.615.61-.034,1.595-.016,3.191-.012,4.787a3.839,3.839,0,0,1-1.6,3.274c-.329.243-.3.463-.1.74a1.018,1.018,0,0,0,.619.371c.491.133.986.257,1.463.43a6.784,6.784,0,0,1,2.637,1.826,2.487,2.487,0,0,0-.418-2.374,4.766,4.766,0,0,1-.052-5.83,3.457,3.457,0,0,0,.233-3.608c-.476-.993-.962-1.982-1.482-2.952a6.871,6.871,0,0,0-11.532-.839,28.485,28.485,0,0,0-1.843,3.425,3.774,3.774,0,0,0,.229,4.262,4.486,4.486,0,0,1,.7,3.481A6.223,6.223,0,0,1,92,31.446" transform="translate(-63.105 -10.524)" fill="#656d78"/>
        <path id="Trazado_128665" data-name="Trazado 128665" d="M33.651,43.189l-.006.009a7.073,7.073,0,0,1,1.27,3.34c.043.434-.013.679-.534.6-.32-.046-.717.088-.958-.059s-.095-.571-.154-.871a4.075,4.075,0,0,0-.89-1.991c-.338-.377-.332-.634.013-.9.008-.021.018-.041.028-.062a10.058,10.058,0,0,0-1.941-.071,6.983,6.983,0,0,1,1.182,2.73c.2,1.22.2,1.22-1,1.217a.612.612,0,0,0-.1,0c-.288.048-.387-.046-.4-.363a4.487,4.487,0,0,0-.922-2.555.52.52,0,0,0-.438-.25A3.17,3.17,0,0,0,25.445,47.1q-.028,3.627,0,7.255A3.863,3.863,0,0,0,28.625,58.1a22.66,22.66,0,0,0,3.94.084,3.914,3.914,0,0,0,3.93-3.917c.02-2.435.011-4.869,0-7.3a4.138,4.138,0,0,0-.954-2.736c-.351-.411-.345-.669.076-.959a8.883,8.883,0,0,0-1.967-.081m.507,5.529a.788.788,0,1,1-.815.8.794.794,0,0,1,.815-.8m-6.333,0a.788.788,0,1,1-.8.759.793.793,0,0,1,.8-.759m3.039,7.9a4.051,4.051,0,0,1-3.852-4.5c.03-.3.2-.235.368-.235,1.2,0,2.4,0,3.6,0,1.183,0,2.367.013,3.549-.008.329-.006.388.1.4.409a4.006,4.006,0,0,1-4.066,4.339" transform="translate(-17.527 -29.755)" fill="#efcfb3"/>
        <path id="Trazado_128666" data-name="Trazado 128666" d="M15.18,114.851c-.2-.372-.383-.755-.628-1.243l-1.015,1.152c-.648-1.339-1.264-2.587-1.853-3.847-.141-.3-.246-.339-.534-.154a13.3,13.3,0,0,0-4.027,4,14.192,14.192,0,0,0-2.071,8.625c.011.271.132.278.334.277.823-.006,1.646-.019,2.468.006.323.01.374-.1.372-.393-.013-1.6-.006-3.192-.006-4.788,0-1.155,0-1.137,1.132-1.158.371-.007.462.09.458.459-.021,1.81,0,3.62-.02,5.429,0,.384.111.462.467.45.822-.027,1.646-.028,2.468,0,.33.011.447-.107.521-.408.642-2.615,1.3-5.226,1.95-7.839a.737.737,0,0,0-.016-.572" transform="translate(-3.468 -76.26)" fill="#75b0f1"/>
        <path id="Trazado_128667" data-name="Trazado 128667" d="M49.31,113.6c-.255.509-.439.892-.638,1.265a.63.63,0,0,0-.039.477q1,4.014,2,8.028a.335.335,0,0,0,.4.307c.872-.015,1.744-.019,2.616,0,.315.007.416-.071.412-.4-.018-1.6-.008-3.192-.008-4.788,0-1.146,0-1.125,1.142-1.149.391-.008.449.122.446.471-.017,1.826,0,3.653-.014,5.479,0,.292.056.4.374.39.822-.025,1.646-.019,2.468,0,.262.005.338-.073.329-.332-.033-.953.028-1.906-.084-2.859a12.959,12.959,0,0,0-5.972-9.693c-.328-.219-.439-.161-.6.179-.578,1.246-1.191,2.476-1.836,3.807l-1-1.181" transform="translate(-33.498 -76.272)" fill="#75b0f1"/>
        <path id="Trazado_128668" data-name="Trazado 128668" d="M25.876,21.764a9.752,9.752,0,0,0-11.068.14c-3.6,2.346-4.911,5.861-4.6,10.1a4.289,4.289,0,0,1,1.217-.581c.285-.057.354-.2.339-.477A8.7,8.7,0,0,1,28.382,26.92a9.115,9.115,0,0,1,.761,3.983c0,.169-.113.4.2.471a4.278,4.278,0,0,1,1.33.63,10.307,10.307,0,0,0-4.793-10.24" transform="translate(-7.004 -13.861)" fill="#a9b1bc"/>
        <path id="Trazado_128669" data-name="Trazado 128669" d="M112.557,33.2a1.8,1.8,0,0,1-1.007-.089c0,.677-.018,1.355-.007,2.032,0,.237-.07.295-.3.3-1.283.053-1.281.06-1.283-1.189,0-.382-.008-.764-.012-1.146-.008.007-.012.016-.021.022a2.254,2.254,0,0,1-1.533-.056.861.861,0,0,0-.011.2c.068.393-.042.586-.484.687a1.448,1.448,0,0,0-1.095,1.467c-.012,1.333-.017,2.666,0,4a2.357,2.357,0,0,0,2.329,2.331c.493.012.987.006,1.481,0a2.373,2.373,0,0,0,2.5-2.509c.005-1.53,0-3.06,0-4.59,0-.781,0-.781.781-.813a1.259,1.259,0,0,0-1.341-.648" transform="translate(-73.601 -22.795)" fill="#efcfb3"/>
        <path id="Trazado_128670" data-name="Trazado 128670" d="M123.637,33.049c-.51-.007-1.02,0-1.53.006,0,.011,0,.021,0,.032a1.8,1.8,0,0,0,1.007.089,1.26,1.26,0,0,1,1.342.648c-.078-.547-.3-.768-.818-.775" transform="translate(-84.158 -22.777)" fill="#efcfb3"/>
        <path id="Trazado_128671" data-name="Trazado 128671" d="M113.47,33.13a.286.286,0,0,0,.021-.022c0-.011,0-.023,0-.034h-1.554a2.255,2.255,0,0,0,1.533.056" transform="translate(-77.149 -22.795)" fill="#efcfb3"/>
        <path id="Trazado_128672" data-name="Trazado 128672" d="M34.7,36.713h0a4.431,4.431,0,0,0-.039-.442,7.126,7.126,0,0,0-8.978-5.476,7.032,7.032,0,0,0-5.035,5.913c.044.132-.034.291.092.4a4.859,4.859,0,0,1,4.809-3.469,1.822,1.822,0,0,1,1.633.817,2.983,2.983,0,0,1,1.946-.035c.009.012.029.032.025.039-.013.023-.019.044-.03.067l.041.009a.369.369,0,0,0,.077-.052c.546-.6.546-.6,1.1-.028h.012a.464.464,0,0,1,.079-.089,5.83,5.83,0,0,1,1.556-.046c.137,0,.3.017.332.215a2.565,2.565,0,0,0,.273-.276c.261-.356.46-.347.74.018a6.794,6.794,0,0,1,1.272,2.535l.093-.105h0" transform="translate(-14.232 -21.026)" fill="#b17946"/>
        <path id="Trazado_128673" data-name="Trazado 128673" d="M53.517,42.728a5.84,5.84,0,0,0-1.556.046.476.476,0,0,0-.079.089,8.864,8.864,0,0,1,1.967.081c-.027-.2-.2-.211-.332-.216" transform="translate(-35.758 -29.429)" fill="#b17946"/>
        <path id="Trazado_128674" data-name="Trazado 128674" d="M43.613,42.895c.011-.022.017-.044.03-.067,0-.006-.017-.026-.025-.039a2.985,2.985,0,0,0-1.946.035,10.108,10.108,0,0,1,1.941.071" transform="translate(-28.721 -29.391)" fill="#b17946"/>
        <path id="Trazado_128675" data-name="Trazado 128675" d="M98.211,76.982c-.825-1.321-1.657-2.637-2.468-3.965-.153-.25-.306-.174-.491-.1a5.259,5.259,0,0,0-3.326,3.751c-.093.349.018.436.344.4.212-.021.43.017.641-.008.352-.043.49.053.47.444-.037.722-.009,1.447-.012,2.17,0,.2-.007.4.218.5.242.109.364-.076.5-.21.642-.637,1.3-1.261,1.915-1.922.594-.636,1.16-1.28,2.208-.912,0-.051,0-.1,0-.152" transform="translate(-63.335 -50.206)" fill="#b3dc7e"/>
        <path id="Trazado_128676" data-name="Trazado 128676" d="M38.528,127.089c-.176-.008-.215.084-.25.227-.167.685-.345,1.366-.516,2.05-.465,1.859-.928,3.719-1.4,5.6h4.287c-.645-2.571-1.284-5.113-1.922-7.656-.028-.112-.036-.219-.2-.227" transform="translate(-25.061 -87.592)" fill="#fbd670"/>
        <path id="Trazado_128677" data-name="Trazado 128677" d="M124.492,72.886a.273.273,0,0,0-.4.135c-.819,1.323-1.646,2.642-2.526,4.049,2.111,0,4.128,0,6.145,0,.264,0,.253-.135.21-.309a5.244,5.244,0,0,0-3.434-3.879" transform="translate(-83.788 -50.21)" fill="#b3dc7e"/>
        <path id="Trazado_128678" data-name="Trazado 128678" d="M13.2,60.872a2.439,2.439,0,1,0-.007,4.752c.245-.048.173-.2.174-.326.007-.674,0-1.348,0-2.022,0-.691,0-1.381,0-2.071,0-.124.08-.281-.166-.333" transform="translate(-7.037 -41.918)" fill="#efcfb3"/>
        <path id="Trazado_128679" data-name="Trazado 128679" d="M66.323,60.909c-.235.037-.2.168-.2.307,0,.69,0,1.381,0,2.071s0,1.381,0,2.071c0,.114-.057.246.146.3a2.514,2.514,0,0,0,3.008-2.251,2.482,2.482,0,0,0-2.959-2.5" transform="translate(-45.572 -41.955)" fill="#efcfb3"/>
        <path id="Trazado_128680" data-name="Trazado 128680" d="M113.873,67.922a.163.163,0,0,1,.025-.043c.142-.169.145-.295-.066-.432a2.1,2.1,0,0,1-.867-1.162c-.065-.207-.152-.269-.378-.261-.706.023-1.414.016-2.12,0-.188,0-.292.012-.356.221a2.162,2.162,0,0,1-.887,1.206c-.176.116-.185.207-.085.394.727,1.355.722,1.357,2.274,1.357h.1a1.8,1.8,0,0,0,2.362-1.284" transform="translate(-75.176 -45.505)" fill="#efcfb3"/>
        <path id="Trazado_128681" data-name="Trazado 128681" d="M33,96.587a15.012,15.012,0,0,0-1.718,0,.761.761,0,0,0-.729.779.776.776,0,0,0,.731.78c.276.024.556,0,.834,0,.295,0,.592.022.884-.006a.764.764,0,0,0,.7-.8.729.729,0,0,0-.7-.749" transform="translate(-21.058 -66.551)" fill="#a9b1bc"/>
        <path id="Trazado_128682" data-name="Trazado 128682" d="M42.1,99.34a.459.459,0,0,0,.663.1c.315-.176.643-.327.966-.487,1.008-.5,1.008-.5.784-1.609-.186-.918-.188-.913-1.139-.835-.2.017-.249.067-.2.261A2.35,2.35,0,0,1,42.1,99.34" transform="translate(-29.013 -66.492)" fill="#eecfb3"/>
        <path id="Trazado_128683" data-name="Trazado 128683" d="M40.407,115.272a4.176,4.176,0,0,1,.194.4c.068.183.186.26.285.242.231-.03.4.045.489-.128a5.354,5.354,0,0,0,.694-1.549c.041-.343-.53-.609-.808-.925-.022-.025-.049-.044-.07-.07-.125-.161-.223-.107-.36.009-1.008.854-1.011.851-.424,2.024" transform="translate(-27.576 -77.977)" fill="#fec629"/>
        <path id="Trazado_128684" data-name="Trazado 128684" d="M30.574,107.585c.322.658.642,1.316.946,1.938l1.557-1.557c-.532-.267-1.083-.549-1.64-.82-.317-.154-.558.1-.827.187-.117.038-.082.157-.036.251" transform="translate(-21.042 -73.813)" fill="#5c9bea"/>
        <path id="Trazado_128685" data-name="Trazado 128685" d="M49.476,107.086c-.608.249-1.184.574-1.762.862l1.555,1.6c.295-.612.569-1.169.829-1.734.07-.152.288-.338.134-.474-.2-.175-.5-.366-.757-.26" transform="translate(-32.885 -73.785)" fill="#5c9bea"/>
        <path id="Trazado_128686" data-name="Trazado 128686" d="M115.786,82.152c.195.017.3-.41.455-.633a.394.394,0,0,0,.016-.092h-1.034c.226.28.281.7.563.725" transform="translate(-79.414 -56.121)" fill="#f6e2a1"/>
        <path id="Trazado_128687" data-name="Trazado 128687" d="M20.46,50.456a1.179,1.179,0,0,0-.014.841l.106-.437c-.236-.088-.1-.26-.092-.4" transform="translate(-14.043 -34.775)" fill="#8e6138"/>
        <path id="Trazado_128688" data-name="Trazado 128688" d="M20.635,50.86c-.126-.113-.048-.273-.092-.4-.011.145-.145.316.092.4" transform="translate(-14.126 -34.775)" fill="#8e6138"/>
        <path id="Trazado_128689" data-name="Trazado 128689" d="M65.656,50.474c.045.1,0,.121-.093.105a.988.988,0,0,0,.182.521c-.019-.27.029-.456-.09-.627" transform="translate(-45.187 -34.788)" fill="#8c5f37"/>
        <path id="Trazado_128690" data-name="Trazado 128690" d="M65.656,50.473h0l-.093.105c.088.016.138,0,.093-.105" transform="translate(-45.187 -34.787)" fill="#8c5f37"/>
        <path id="Trazado_128691" data-name="Trazado 128691" d="M127.607,101.651c-1.694.021-3.389.009-5.083.009h-4.442c-1.124,0-1.109,0-1.131,1.1-.007.37.07.491.472.489,3.159-.019,6.318-.011,9.476-.011,1.129,0,1.116,0,1.13-1.151,0-.334-.064-.442-.422-.438" transform="translate(-80.604 -70.059)" fill="#e5e8ec"/>
        <path id="Trazado_128692" data-name="Trazado 128692" d="M117.138,33.057a.7.7,0,0,0,1.079.7c.2-.084.19-.25.2-.409.014-.392,0-.784.009-1.177a.748.748,0,0,1,.139-.57l-.016-.008a.767.767,0,0,1-.052-.081c-.1-.175.016-.468-.239-.547a2.079,2.079,0,0,0-.917-.015c-.131.019-.174.131-.2.248a.729.729,0,0,1-.145.4.675.675,0,0,1,.143.527c.011.31,0,.621,0,.931" transform="translate(-80.632 -21.303)"/>
        <path id="Trazado_128693" data-name="Trazado 128693" d="M117.1,30.924c.025-.117.069-.229.2-.248a2.079,2.079,0,0,1,.917.015c.256.079.138.372.24.547a.7.7,0,0,0,.052.081l.016.008c.007-.007.013-.015.021-.022-.034-.8-.034-.8-.755-.8-.818,0-.818,0-.852.8.007.005.011.011.017.017a.73.73,0,0,0,.145-.4" transform="translate(-80.595 -21.025)"/>
        <path id="Trazado_128694" data-name="Trazado 128694" d="M118.385,33.7c-.012.392.005.785-.009,1.177-.006.159,0,.324-.2.409a.7.7,0,0,1-1.079-.7c0-.311.007-.621,0-.932a.677.677,0,0,0-.143-.527.21.21,0,0,1-.016.017c0,.382.012.764.012,1.146,0,1.25,0,1.242,1.283,1.189.233-.01.307-.067.3-.3-.011-.677,0-1.355.007-2.032l-.021-.01a.75.75,0,0,0-.139.571" transform="translate(-80.596 -22.832)"/>
        <path id="Trazado_128695" data-name="Trazado 128695" d="M122.06,33.106c0-.011,0-.021,0-.032-.008.007-.014.015-.021.022l.021.01" transform="translate(-84.111 -22.795)"/>
        <path id="Trazado_128696" data-name="Trazado 128696" d="M116.938,33.108a.017.017,0,0,0,0-.034c0,.011,0,.023,0,.034" transform="translate(-80.596 -22.795)"/>
        <path id="Trazado_128697" data-name="Trazado 128697" d="M37.984,71.149c-1.183.021-2.366.008-3.549.008-1.2,0-2.4,0-3.6,0-.164,0-.337-.069-.368.236a4.051,4.051,0,0,0,3.852,4.5,4.006,4.006,0,0,0,4.066-4.339c-.015-.312-.074-.415-.4-.409m-1.468,1.907a2.367,2.367,0,0,1-4.179,0c-.163-.278-.052-.327.216-.322.624.011,1.25,0,1.874,0s1.25.008,1.875,0c.269,0,.376.044.214.322" transform="translate(-20.984 -49.037)"/>
        <path id="Trazado_128698" data-name="Trazado 128698" d="M48.05,44.447a4.245,4.245,0,0,1,.691,1.977c.034.37.163.509.544.505.841-.008.855-.018.735-.862a5.89,5.89,0,0,0-.9-2.419c-.1-.156-.306-.326-.174-.533l-.006-.009a2.057,2.057,0,0,0-1.179.08c-.026.018-.046.035-.069.053-.194.473.1.822.361,1.209" transform="translate(-32.825 -29.672)"/>
        <path id="Trazado_128699" data-name="Trazado 128699" d="M48.673,43.788a5.891,5.891,0,0,1,.9,2.419c.12.843.106.854-.735.862-.381,0-.51-.135-.544-.505a4.246,4.246,0,0,0-.691-1.977c-.258-.387-.554-.736-.361-1.209-.345.266-.351.523-.013.9a4.078,4.078,0,0,1,.89,1.991c.059.3-.077.731.154.872s.637.013.958.059c.52.075.576-.171.534-.6a7.072,7.072,0,0,0-1.27-3.34c-.131.208.073.378.174.533" transform="translate(-32.381 -29.812)"/>
        <path id="Trazado_128700" data-name="Trazado 128700" d="M49.227,42.279h0c-.557-.574-.557-.573-1.1.028a.385.385,0,0,1-.077.052,2.055,2.055,0,0,1,1.179-.08" transform="translate(-33.115 -28.845)"/>
        <path id="Trazado_128701" data-name="Trazado 128701" d="M51.673,62.591a.788.788,0,1,0-.784-.779.8.8,0,0,0,.784.779" transform="translate(-35.073 -42.053)" fill="#020202"/>
        <path id="Trazado_128702" data-name="Trazado 128702" d="M31.345,62.592a.788.788,0,1,0-.8-.816.8.8,0,0,0,.8.816" transform="translate(-21.055 -42.054)" fill="#020202"/>
        <path id="Trazado_128703" data-name="Trazado 128703" d="M40.325,76.248c-.625.012-1.25,0-1.875,0s-1.25.007-1.874,0c-.268,0-.379.044-.216.322a2.367,2.367,0,0,0,4.179,0c.162-.278.055-.327-.214-.322" transform="translate(-25.008 -52.551)" fill="#fe816d"/>
      </g>
    </g>
    <g id="Grupo_156899" data-name="Grupo 156899" transform="translate(301.089 1528.999)">
      <path id="Trazado_126894" data-name="Trazado 126894" d="M17.182,127.264c-.8.178-.987-.2-.979-.947.02-1.875-.011-1.908-1.952-1.9-.722,0-.946-.22-.932-.934.013-.666.135-.975.9-.972,1.946.007,2-.032,1.975-1.974-.009-.879.422-.9,1.073-.9s.989.1.989.883c0,1.967.04,2,1.962,1.995.743,0,.919.265.921.955s-.174.955-.918.951c-1.959-.011-2.006.025-1.963,1.881.02.861-.3,1.113-1.079.962" transform="translate(-8.318 -57.79)" fill="#29c4bb"/>
      <path id="Trazado_126895" data-name="Trazado 126895" d="M214.9,151.177c.717-.137,1.114.1,1,.912-.1.679.136,1.058.888.941s1,.155,1.011.947c.006.83-.333,1.021-1.04.926-.675-.091-.89.2-.876.875.021,1.053-.63,1.457-1.649,1.138-.483-.151-.378-.537-.347-.842.085-.832-.105-1.341-1.087-1.175-.76.129-.807-.347-.8-.931s.025-1.055.8-.936c.831.128,1.224-.175,1.086-1.053-.132-.839.406-.875,1.026-.8" transform="translate(-153.33 -78.505)" fill="#29c4bb"/>
      <path id="Trazado_126896" data-name="Trazado 126896" d="M213.215,70.517c.185.8-.181,1.073-.931.947-.812-.137-1.144.2-1,1,.139.781-.2.968-.956.975-.781.007-1.075-.223-.939-.983.145-.809-.192-1.143-1-.992-.833.156-.906-.279-.937-.98-.037-.822.282-1.037,1-.912.779.136,1.069-.186.937-.947-.127-.728.108-1.022.919-.993.715.025,1.127.127.975.946s.2,1.127,1,.993c.751-.126,1.116.143.929.943" transform="translate(-158.216 -16.577)" fill="#010000"/>
      <path id="Trazado_126897" data-name="Trazado 126897" d="M57.532,187.9c.175.746-.193,1.02-.939.886-.876-.158-1.083.3-.957,1.035.139.821-.258.948-.979.943-.689,0-1.059-.16-.914-.9.19-.975-.3-1.214-1.138-1.071-.862.147-.822-.4-.825-.987,0-.572.012-1.057.791-.9,1.047.207,1.315-.3,1.173-1.233-.136-.9.548-.639,1-.666.483-.029,1.022-.091.881.687-.174.962.163,1.408,1.181,1.213.85-.163.746.43.721,1" transform="translate(-17.924 -94.219)" fill="#010000"/>
      <path id="Trazado_126898" data-name="Trazado 126898" d="M121.806,18.657c-.2-.852.271-1.017.967-.914.724.107,1.009-.192.9-.905s.1-1.037.922-1.02c.754.015,1.1.211.968.985-.134.794.232,1.052.977.94.69-.1,1.035.062,1.039.9,0,.863-.321,1.095-1.073.975-.795-.127-1.064.235-.941.977.138.832-.308.928-1.008.942-.748.015-.992-.266-.882-.952.12-.753-.158-1.1-.943-.965-.767.128-1.094-.187-.923-.966" transform="translate(-106.064 17.184)" fill="#29c4bb"/>
    </g>
  </g>
</svg>
