<svg xmlns="http://www.w3.org/2000/svg" xmlns:xlink="http://www.w3.org/1999/xlink" width="70" height="85" viewBox="0 0 70 85">
  <defs>
    <clipPath id="clip-path">
      <rect id="Rect치ngulo_37328" data-name="Rect치ngulo 37328" width="47.326" height="47.32" fill="none"/>
    </clipPath>
  </defs>
  <g id="_103" data-name="103" transform="translate(-301 -1551)">
    <g id="Grupo_156382" data-name="Grupo 156382" transform="translate(-239 -156)">
      <rect id="Rect치ngulo_36766" data-name="Rect치ngulo 36766" width="70" height="85" rx="12" transform="translate(540 1707)" fill="#1169e3"/>
    </g>
    <g id="Grupo_156899" data-name="Grupo 156899" transform="translate(301.089 1528.999)">
      <path id="Trazado_126894" data-name="Trazado 126894" d="M17.182,127.264c-.8.178-.987-.2-.979-.947.02-1.875-.011-1.908-1.952-1.9-.722,0-.946-.22-.932-.934.013-.666.135-.975.9-.972,1.946.007,2-.032,1.975-1.974-.009-.879.422-.9,1.073-.9s.989.1.989.883c0,1.967.04,2,1.962,1.995.743,0,.919.265.921.955s-.174.955-.918.951c-1.959-.011-2.006.025-1.963,1.881.02.861-.3,1.113-1.079.962" transform="translate(-8.318 -57.79)" fill="#29c4bb"/>
      <path id="Trazado_126895" data-name="Trazado 126895" d="M214.9,151.177c.717-.137,1.114.1,1,.912-.1.679.136,1.058.888.941s1,.155,1.011.947c.006.83-.333,1.021-1.04.926-.675-.091-.89.2-.876.875.021,1.053-.63,1.457-1.649,1.138-.483-.151-.378-.537-.347-.842.085-.832-.105-1.341-1.087-1.175-.76.129-.807-.347-.8-.931s.025-1.055.8-.936c.831.128,1.224-.175,1.086-1.053-.132-.839.406-.875,1.026-.8" transform="translate(-153.33 -78.505)" fill="#29c4bb"/>
      <path id="Trazado_126896" data-name="Trazado 126896" d="M213.215,70.517c.185.8-.181,1.073-.931.947-.812-.137-1.144.2-1,1,.139.781-.2.968-.956.975-.781.007-1.075-.223-.939-.983.145-.809-.192-1.143-1-.992-.833.156-.906-.279-.937-.98-.037-.822.282-1.037,1-.912.779.136,1.069-.186.937-.947-.127-.728.108-1.022.919-.993.715.025,1.127.127.975.946s.2,1.127,1,.993c.751-.126,1.116.143.929.943" transform="translate(-158.216 -16.577)" fill="#010000"/>
      <path id="Trazado_126897" data-name="Trazado 126897" d="M57.532,187.9c.175.746-.193,1.02-.939.886-.876-.158-1.083.3-.957,1.035.139.821-.258.948-.979.943-.689,0-1.059-.16-.914-.9.19-.975-.3-1.214-1.138-1.071-.862.147-.822-.4-.825-.987,0-.572.012-1.057.791-.9,1.047.207,1.315-.3,1.173-1.233-.136-.9.548-.639,1-.666.483-.029,1.022-.091.881.687-.174.962.163,1.408,1.181,1.213.85-.163.746.43.721,1" transform="translate(-17.924 -94.219)" fill="#010000"/>
      <path id="Trazado_126898" data-name="Trazado 126898" d="M121.806,18.657c-.2-.852.271-1.017.967-.914.724.107,1.009-.192.9-.905s.1-1.037.922-1.02c.754.015,1.1.211.968.985-.134.794.232,1.052.977.94.69-.1,1.035.062,1.039.9,0,.863-.321,1.095-1.073.975-.795-.127-1.064.235-.941.977.138.832-.308.928-1.008.942-.748.015-.992-.266-.882-.952.12-.753-.158-1.1-.943-.965-.767.128-1.094-.187-.923-.966" transform="translate(-106.064 17.184)" fill="#29c4bb"/>
    </g>
    <g id="Grupo_157117" data-name="Grupo 157117" transform="translate(309.857 1567.36)">
      <g id="Grupo_157117-2" data-name="Grupo 157117" transform="translate(2.48 2.479)" clip-path="url(#clip-path)">
        <path id="Trazado_128754" data-name="Trazado 128754" d="M42.471,0c.592.114,1.187.213,1.775.344a14.2,14.2,0,0,1,1.822,27.191c-.63.23-.924.136-1.237-.4-.255-.426-.081-.882.464-1.118.38-.165.766-.314,1.146-.481a12.862,12.862,0,0,0,2.1-1.236.852.852,0,0,0,.382-.734,5.818,5.818,0,0,0-1.5-4.32,5.929,5.929,0,0,0-1.85-1.346.591.591,0,0,0-.681.106,7.11,7.11,0,0,1-3.406,1.042,6.663,6.663,0,0,1-3.837-.96,1.044,1.044,0,0,0-1.227,0,5.764,5.764,0,0,0-2.977,5.58.772.772,0,0,0,.367.6A12.46,12.46,0,0,0,36.792,25.9a1.413,1.413,0,0,1,.689.439c.166.233.3.477.093.758-.368.574-.643.684-1.268.434-5.219-2.09-8.386-5.891-9.172-11.465A14.123,14.123,0,0,1,38.733.2,4.447,4.447,0,0,0,39.883,0h.462a.119.119,0,0,0,.185,0h1.386A.119.119,0,0,0,42.1,0Z" transform="translate(-17.512 0.001)"/>
        <path id="Trazado_128755" data-name="Trazado 128755" d="M84.915,74.555c-.457-.714-.235-1.264.592-1.394q2-.314,4.016-.578a.621.621,0,0,0,.543-.4c.575-1.188,1.178-2.362,1.754-3.549a1.458,1.458,0,0,1,2.755.007c.578,1.185,1.182,2.358,1.756,3.546a.615.615,0,0,0,.544.391c1.219.159,2.432.377,3.653.511a1.879,1.879,0,0,1,1.735,1.118v.739a3.67,3.67,0,0,1-.842,1.067c-.883.837-1.751,1.69-2.634,2.528a.538.538,0,0,0-.181.561c.243,1.3.459,2.6.686,3.908a1.467,1.467,0,0,1-2.26,1.623c-1.178-.631-2.37-1.234-3.549-1.864a.539.539,0,0,0-.585,0c-1.192.635-2.394,1.254-3.6,1.872-.777.4-1.269.114-1.34-.773a.641.641,0,0,1,.4-.62c1.441-.8,2.908-1.551,4.38-2.291a1.107,1.107,0,0,1,1.06.063c1.221.618,2.42,1.281,3.655,1.889.121-.1.039-.227.022-.337-.194-1.248-.427-2.489-.642-3.734a1.081,1.081,0,0,1,.326-1.045c.929-.9,1.8-1.864,2.771-2.717.077-.067.208-.121.166-.249s-.176-.106-.279-.12c-1.144-.156-2.283-.353-3.431-.477a1.677,1.677,0,0,1-1.485-1.052c-.523-1.131-1.1-2.238-1.668-3.347-.2.02-.2.189-.261.3-.553,1.084-1.1,2.169-1.63,3.266a1.276,1.276,0,0,1-1.051.785c-1.556.216-3.11.442-4.665.663a.639.639,0,0,1-.716-.3" transform="translate(-54.938 -43.896)"/>
        <path id="Trazado_128756" data-name="Trazado 128756" d="M65.192,0c-.062.094-.124.115-.185,0Z" transform="translate(-42.174 0.001)" fill="#3d3d3d"/>
        <path id="Trazado_128757" data-name="Trazado 128757" d="M69.665,0c-.061.12-.123.1-.185,0Z" transform="translate(-45.076 0.001)" fill="#4d4d4d"/>
        <path id="Trazado_128758" data-name="Trazado 128758" d="M48.425,75.973c.749,1.513,1.506,3.022,2.238,4.543a.556.556,0,0,0,.5.319q2.011.282,4.022.559a2.206,2.206,0,0,1,2.777,1.541,1.383,1.383,0,0,1-.046.684,2.847,2.847,0,0,1-1.4,1.562c-1.026.975-2.048,1.954-3.081,2.922a.478.478,0,0,0-.115.5q.44,2.5.879,5a1.636,1.636,0,0,1-1.146,2.1,1.673,1.673,0,0,1-1.24-.208c-1.523-.8-3.054-1.581-4.571-2.389a.748.748,0,0,0-.8-.009c-1.5.8-3.023,1.571-4.528,2.37a1.632,1.632,0,0,1-1.9-.051,1.666,1.666,0,0,1-.555-1.787q.447-2.5.88-5a.518.518,0,0,0-.124-.544c-1.033-.968-2.053-1.949-3.078-2.927A2.383,2.383,0,0,1,35.7,83.1a1.438,1.438,0,0,1,.632-1.262A2.974,2.974,0,0,1,38.47,81.4c1.338-.188,2.676-.373,4.013-.567.187-.027.37-.037.484-.272.747-1.544,1.516-3.077,2.278-4.613a1.465,1.465,0,0,1,1.1-1.213,1.6,1.6,0,0,1,1.689.423,1.358,1.358,0,0,1,.224.29c.078.168.208.319.165.525" transform="translate(-23.162 -48.424)"/>
        <path id="Trazado_128759" data-name="Trazado 128759" d="M54.136,59.835a1.643,1.643,0,0,0-2.959.436,15.73,15.73,0,0,1-2.021-.423c-.009-.652-.123-.817-.747-1.053a12.514,12.514,0,0,1-3.259-1.8.533.533,0,0,1-.274-.392,6.068,6.068,0,0,1,3.273-5.993.866.866,0,0,1,.96.026,6.89,6.89,0,0,0,7.077.145c.081-.043.166-.079.249-.118.192-.09.323.024.45.139a6.642,6.642,0,0,1,2.281,4.909,5.253,5.253,0,0,0,.006.645,1.424,1.424,0,0,1-.749,1.49,15.4,15.4,0,0,1-3.4,1.812,1.5,1.5,0,0,1-.885.178" transform="translate(-29.094 -32.747)" fill="#ee314c"/>
        <path id="Trazado_128760" data-name="Trazado 128760" d="M18.569,80.257c-.44.067-.881.131-1.32.2a1.575,1.575,0,0,0-.919,2.646c.294.312.606.607.91.91.133.815.26,1.632.4,2.445a1.174,1.174,0,0,1-.084.846c.011.038.007.065-.014.07a.1.1,0,0,1-.11-.063,1.778,1.778,0,0,0-.977-.806c-1.2-.59-2.37-1.248-3.569-1.845a1.109,1.109,0,0,0-1.135.006c-1.005.568-2.055,1.051-3.062,1.617a2.471,2.471,0,0,1-.286.15c-.192.077-.39.283-.593.127-.185-.142-.051-.376-.02-.565.2-1.246.413-2.491.644-3.731a.991.991,0,0,0-.323-.991C7.22,80.428,6.408,79.5,5.463,78.7c-.191-.161-.509-.339-.42-.605s.447-.209.7-.245c1.158-.166,2.313-.351,3.474-.489a1.3,1.3,0,0,0,1.093-.78c.571-1.091,1.119-2.194,1.676-3.292a1.625,1.625,0,0,1,.163-.279c.135-.171.27-.191.4,0a3.187,3.187,0,0,1,.221.405c.546,1.087,1.1,2.171,1.629,3.265a1.062,1.062,0,0,0,.877.649c1.539.215,3.079.43,4.615.665.252.038.475-.154.721-.046a.8.8,0,0,1-.336.625q-.856.838-1.709,1.68" transform="translate(-3.261 -47.28)" fill="#fdc008"/>
        <path id="Trazado_128761" data-name="Trazado 128761" d="M88.721,84.07c.28-.282.558-.566.84-.846a1.541,1.541,0,0,0,.427-1.684,1.52,1.52,0,0,0-1.326-1.056c-.424-.059-.847-.133-1.27-.2q-.863-.845-1.727-1.689a.77.77,0,0,1-.321-.622,1.33,1.33,0,0,0,1.018.132q2.213-.338,4.431-.637a1.01,1.01,0,0,0,.84-.62c.641-1.309,1.3-2.61,1.952-3.918.176.085.2.25.265.382.58,1.153,1.165,2.3,1.728,3.466a1.118,1.118,0,0,0,.934.706c1.388.18,2.771.4,4.157.6.054.008.109.019.178.032-.068.22-.239.311-.366.435q-1.374,1.338-2.759,2.664a1.033,1.033,0,0,0-.339,1.031c.268,1.431.5,2.869.757,4.376-1.278-.667-2.5-1.273-3.693-1.941a1.489,1.489,0,0,0-1.629-.01c-1.246.7-2.525,1.341-3.8,1.992a1.252,1.252,0,0,0-.627.636.986.986,0,0,1-.08-.794c.139-.81.273-1.622.408-2.433" transform="translate(-55.366 -47.314)" fill="#fdc008"/>
        <path id="Trazado_128762" data-name="Trazado 128762" d="M17.352,74.573a1.382,1.382,0,0,1-1.064.116c-1.459-.221-2.92-.434-4.384-.63a1.01,1.01,0,0,1-.838-.622c-.642-1.31-1.3-2.612-1.952-3.917-.168.061-.185.214-.245.332-.6,1.193-1.205,2.386-1.795,3.585a1.013,1.013,0,0,1-.838.622c-1.462.2-2.921.422-4.385.636-.009.175.14.231.232.32.938.913,1.875,1.826,2.826,2.725a1.133,1.133,0,0,1,.39,1.145c-.271,1.414-.492,2.837-.745,4.327,1.343-.7,2.629-1.349,3.9-2.037a1.192,1.192,0,0,1,1.255,0c1.325.715,2.662,1.407,4,2.094a1.107,1.107,0,0,1,.592.66c-.081.851-.574,1.128-1.33.737-1.186-.614-2.372-1.227-3.55-1.857A.616.616,0,0,0,8.75,82.8C7.574,83.43,6.38,84.029,5.2,84.656a1.461,1.461,0,0,1-2.231-1.623c.229-1.3.442-2.607.687-3.906a.572.572,0,0,0-.2-.6c-.97-.924-1.926-1.862-2.894-2.788a1.441,1.441,0,0,1,.814-2.576c1.356-.185,2.709-.4,4.065-.581a.549.549,0,0,0,.477-.35c.586-1.2,1.194-2.388,1.779-3.588a1.458,1.458,0,0,1,2.756.008c.574,1.188,1.176,2.363,1.756,3.548a.574.574,0,0,0,.5.378c1.341.172,2.68.371,4.015.582.865.136,1.092.672.625,1.41" transform="translate(0 -43.901)"/>
        <path id="Trazado_128763" data-name="Trazado 128763" d="M71.294,59.773a14.658,14.658,0,0,0,3.235-1.434,17.751,17.751,0,0,0,1.5-1.07.427.427,0,0,0,.18-.348,7.4,7.4,0,0,0-1.11-4.8,4.442,4.442,0,0,0-1.5-1.518.6.6,0,0,1,.812-.112,6.05,6.05,0,0,1,3.39,6.049.529.529,0,0,1-.261.4,12.6,12.6,0,0,1-3.3,1.811c-.6.22-.761.492-.661,1.074l-2.056.411-.221-.461" transform="translate(-46.252 -32.685)" fill="#ba193b"/>
        <path id="Trazado_128764" data-name="Trazado 128764" d="M53.228,23.84a7.709,7.709,0,0,0-3.191-4.162c-.561-.354-.545-.346-.167-.922a6.832,6.832,0,0,0,.363-7.542A6.837,6.837,0,0,0,43.6,7.6a7.435,7.435,0,0,0-3.113.922c-.307.141-.623.26-.935.388a6.009,6.009,0,0,0-3.965,5.016,6,6,0,0,0,1.9,5.3c.313.308.3.467-.1.634A6.693,6.693,0,0,0,33.657,23.5c-.049.112-.094.23-.227.274a11.2,11.2,0,0,1-1.823-4.727A12.549,12.549,0,0,1,38.2,5.884a12.253,12.253,0,0,1,9.258-.978,1.776,1.776,0,0,1,.211.087A10.561,10.561,0,0,1,50.8,7.064a12.842,12.842,0,0,1,3.774,5.861,13.311,13.311,0,0,1-1.036,10.626c-.069.128-.115.3-.315.289" transform="translate(-20.401 -2.866)" fill="#02a8f3"/>
        <path id="Trazado_128765" data-name="Trazado 128765" d="M57.916,28.954a5.253,5.253,0,0,1-5.431-2.433,5.151,5.151,0,0,1,0-6.02,5.25,5.25,0,0,1,5.433-2.429A4.175,4.175,0,0,1,59.9,19.729a6.074,6.074,0,0,1,1.257,3.693,6.224,6.224,0,0,1-1.607,4.3,3.5,3.5,0,0,1-1.632,1.229" transform="translate(-33.42 -11.683)" fill="#fedfb1"/>
        <path id="Trazado_128766" data-name="Trazado 128766" d="M83.193,24.9a12.562,12.562,0,0,0,1.754-5.088,13.249,13.249,0,0,0-1.365-7.855,13.461,13.461,0,0,0-5.726-5.745,2.074,2.074,0,0,1-.221-.158,10.177,10.177,0,0,1,3.828,1.864,12.332,12.332,0,0,1,5.175,10.186,12.3,12.3,0,0,1-3.133,8.34L83.193,24.9" transform="translate(-50.366 -3.93)" fill="#0377bb"/>
        <path id="Trazado_128767" data-name="Trazado 128767" d="M37.094,31.356a6.637,6.637,0,0,1,3.921-4.024c.214-.085.429-.144.112-.413a5.867,5.867,0,0,1-1.982-3.633,6.016,6.016,0,0,1,1.2-4.8A6.1,6.1,0,0,1,44.148,16.1a7.268,7.268,0,0,0-3.083,3.725,6.925,6.925,0,0,0,1.014,6.716c.224.307.2.409-.117.6a7.531,7.531,0,0,0-3.687,5.829,7.872,7.872,0,0,1-1.181-1.613" transform="translate(-24.065 -10.444)" fill="#0377bb"/>
        <path id="Trazado_128768" data-name="Trazado 128768" d="M69.741,29.073a6.25,6.25,0,0,0,3-4.328,6.084,6.084,0,0,0-1.554-5.353,6.146,6.146,0,0,0-1.444-1.2,5.5,5.5,0,0,1,0,10.882" transform="translate(-45.245 -11.802)" fill="#dec39b"/>
        <path id="Trazado_128769" data-name="Trazado 128769" d="M52.719,87.73a1.151,1.151,0,0,0,1.031.639c1.332.182,2.661.382,3.991.576.361.206.408.5.073.845-.693.717-1.378,1.446-2.132,2.1-.719.626-1.358,1.335-2.04,2a.683.683,0,0,0-.136.685q.367,2.064.718,4.13a1.017,1.017,0,0,1,.024.411c-.027.111-.1.145-.2.073-1.052-.537-2.119-1.045-3.149-1.621a1.491,1.491,0,0,0-1.626-.011c-1.531.847-3.1,1.629-4.65,2.436-.107.056-.22.1-.4.18.143-.849.272-1.645.41-2.44.2-1.135.4-2.27.6-3.4a1.053,1.053,0,0,0-.362-1.027c-1.392-1.326-2.772-2.666-4.156-4-.01-.01-.013-.027-.027-.056.052-.108.169-.1.263-.111,1.795-.257,3.588-.525,5.386-.757a1.335,1.335,0,0,0,1.153-.831c.578-1.218,1.213-2.409,1.825-3.611.261,0,.293.236.377.4q.675,1.307,1.314,2.633a.89.89,0,0,0,.78.544,1.961,1.961,0,0,1,.927.22" transform="translate(-26.4 -54.453)" fill="#fedb00"/>
        <path id="Trazado_128770" data-name="Trazado 128770" d="M77.353,108.44c.261-.074.09-.274.073-.377q-.374-2.237-.792-4.465a.558.558,0,0,1,.239-.552q2.046-2,4.093-4c.271-.264.43-.531.085-.853l1.55.21c-.6.665-1.214,1.392-1.876,2.074-.695.717-1.427,1.4-2.156,2.08a1.067,1.067,0,0,0-.344,1.072c.334,1.811.64,3.627.954,5.441.015.089.013.18.025.364l-1.851-1" transform="translate(-49.71 -63.705)" fill="#fdc008"/>
        <path id="Trazado_128771" data-name="Trazado 128771" d="M68.653,84.812l-1.131-.126a.772.772,0,0,1-.641-.493c-.534-1.063-1.006-2.157-1.627-3.176L66,79.438l2.65,5.374" transform="translate(-42.335 -51.536)" fill="#fdc008"/>
        <path id="Trazado_128772" data-name="Trazado 128772" d="M53.792,97.051c-.581.02-.915-.237-.963-.677a.777.777,0,0,1,.731-.89c.7-.105,1.4-.207,2.1-.291a.615.615,0,0,0,.554-.393c.294-.641.622-1.267.942-1.9.271-.533.677-.712,1.112-.5a.8.8,0,0,1,.31,1.181c-.413.841-.841,1.674-1.255,2.514a.857.857,0,0,1-.647.533c-.988.149-1.977.289-2.886.422" transform="translate(-34.269 -59.891)"/>
      </g>
    </g>
  </g>
</svg>
