<svg xmlns="http://www.w3.org/2000/svg" xmlns:xlink="http://www.w3.org/1999/xlink" width="70" height="85" viewBox="0 0 70 85">
  <defs>
    <clipPath id="clip-path">
      <rect id="Rect치ngulo_37331" data-name="Rect치ngulo 37331" width="46.846" height="47.591" transform="translate(0 0)" fill="none"/>
    </clipPath>
  </defs>
  <g id="_105" data-name="105" transform="translate(-301 -1551)">
    <g id="Grupo_156382" data-name="Grupo 156382" transform="translate(-239 -156)">
      <rect id="Rect치ngulo_36766" data-name="Rect치ngulo 36766" width="70" height="85" rx="12" transform="translate(540 1707)" fill="#1169e3"/>
    </g>
    <g id="Grupo_156899" data-name="Grupo 156899" transform="translate(301.089 1528.999)">
      <path id="Trazado_126894" data-name="Trazado 126894" d="M17.182,127.264c-.8.178-.987-.2-.979-.947.02-1.875-.011-1.908-1.952-1.9-.722,0-.946-.22-.932-.934.013-.666.135-.975.9-.972,1.946.007,2-.032,1.975-1.974-.009-.879.422-.9,1.073-.9s.989.1.989.883c0,1.967.04,2,1.962,1.995.743,0,.919.265.921.955s-.174.955-.918.951c-1.959-.011-2.006.025-1.963,1.881.02.861-.3,1.113-1.079.962" transform="translate(-8.318 -57.79)" fill="#29c4bb"/>
      <path id="Trazado_126895" data-name="Trazado 126895" d="M214.9,151.177c.717-.137,1.114.1,1,.912-.1.679.136,1.058.888.941s1,.155,1.011.947c.006.83-.333,1.021-1.04.926-.675-.091-.89.2-.876.875.021,1.053-.63,1.457-1.649,1.138-.483-.151-.378-.537-.347-.842.085-.832-.105-1.341-1.087-1.175-.76.129-.807-.347-.8-.931s.025-1.055.8-.936c.831.128,1.224-.175,1.086-1.053-.132-.839.406-.875,1.026-.8" transform="translate(-153.33 -78.505)" fill="#29c4bb"/>
      <path id="Trazado_126896" data-name="Trazado 126896" d="M213.215,70.517c.185.8-.181,1.073-.931.947-.812-.137-1.144.2-1,1,.139.781-.2.968-.956.975-.781.007-1.075-.223-.939-.983.145-.809-.192-1.143-1-.992-.833.156-.906-.279-.937-.98-.037-.822.282-1.037,1-.912.779.136,1.069-.186.937-.947-.127-.728.108-1.022.919-.993.715.025,1.127.127.975.946s.2,1.127,1,.993c.751-.126,1.116.143.929.943" transform="translate(-158.216 -16.577)" fill="#010000"/>
      <path id="Trazado_126897" data-name="Trazado 126897" d="M57.532,187.9c.175.746-.193,1.02-.939.886-.876-.158-1.083.3-.957,1.035.139.821-.258.948-.979.943-.689,0-1.059-.16-.914-.9.19-.975-.3-1.214-1.138-1.071-.862.147-.822-.4-.825-.987,0-.572.012-1.057.791-.9,1.047.207,1.315-.3,1.173-1.233-.136-.9.548-.639,1-.666.483-.029,1.022-.091.881.687-.174.962.163,1.408,1.181,1.213.85-.163.746.43.721,1" transform="translate(-17.924 -94.219)" fill="#010000"/>
      <path id="Trazado_126898" data-name="Trazado 126898" d="M121.806,18.657c-.2-.852.271-1.017.967-.914.724.107,1.009-.192.9-.905s.1-1.037.922-1.02c.754.015,1.1.211.968.985-.134.794.232,1.052.977.94.69-.1,1.035.062,1.039.9,0,.863-.321,1.095-1.073.975-.795-.127-1.064.235-.941.977.138.832-.308.928-1.008.942-.748.015-.992-.266-.882-.952.12-.753-.158-1.1-.943-.965-.767.128-1.094-.187-.923-.966" transform="translate(-106.064 17.184)" fill="#29c4bb"/>
    </g>
    <g id="Grupo_157120" data-name="Grupo 157120" transform="translate(312.577 1572.557)">
      <g id="Grupo_157120-2" data-name="Grupo 157120" transform="translate(0 0)" clip-path="url(#clip-path)">
        <path id="Trazado_128859" data-name="Trazado 128859" d="M19.608,47.591a9.314,9.314,0,0,0-1.924-.347,21.081,21.081,0,0,1-10.343-5A21.024,21.024,0,0,1,.311,29.712,21.505,21.505,0,0,1,16.648,5.107a1.115,1.115,0,0,1,.179-.047c.348-.02.383-.125.2-.44A3.081,3.081,0,0,1,21.8.833,21.442,21.442,0,0,1,25.328,4.7a.569.569,0,0,0,.409.254,20.966,20.966,0,0,1,5.248,1.78.471.471,0,0,0,.544-.066c1.029-.687,2.053-1.38,3.095-2.047a3.42,3.42,0,0,1,5.291,2.169,3.149,3.149,0,0,1-.194,1.955c-.108.245-.067.309.192.4a3.409,3.409,0,0,1,2.1,4.535c-.06.162-.191.279.122.4a3.388,3.388,0,0,1,2.1,4.709,1.2,1.2,0,0,0-.035.145A3.405,3.405,0,0,1,46.744,21.5a3.352,3.352,0,0,1-1.4,3.616c-.646.452-1.305.885-1.972,1.306a.667.667,0,0,0-.358.626,19.824,19.824,0,0,1-.291,2.767c-.063.392-.21.715-.656.791-.565.216-.927-.25-.922-.76a12.612,12.612,0,0,1,.155-1.335c.017-.148.1-.336-.047-.433-.132-.087-.254.066-.363.14-1.958,1.333-3.967,2.586-5.921,3.924-.567.348-1.1.751-1.676,1.085a4.7,4.7,0,0,1-3.022.652,3.849,3.849,0,0,0-3.012.787c-.221.176-.321.318-.209.618a2.1,2.1,0,0,1-.9,2.692c-3.4,2.237-6.776,4.514-10.188,6.735a1.361,1.361,0,0,0-.438.35,18.952,18.952,0,0,0,4.451.867,14.221,14.221,0,0,0,2.685.034,19.922,19.922,0,0,0,5.482-1.11A19.718,19.718,0,0,0,35.638,40.1a20.618,20.618,0,0,0,3.9-5.5c.246-.5.425-1.029.643-1.541a1.239,1.239,0,0,1,.535-.678.476.476,0,0,1,.636.046c.484.36.571.581.363,1.1A21.377,21.377,0,0,1,25.123,47.3c-.656.131-1.336.107-1.984.294h-.279c-.056-.061-.13-.044-.2-.048H22.5c-.069,0-.143-.013-.2.048h-.929a.713.713,0,0,0-.558,0h-.465a.211.211,0,0,0-.278,0Z" transform="translate(0 0)"/>
        <path id="Trazado_128860" data-name="Trazado 128860" d="M68.276,69.948c-.63-.085-.814.052-1.1.776A20.077,20.077,0,0,1,47.294,83.607a3.539,3.539,0,0,1-.408-.065.266.266,0,0,1,.241-.116,8.3,8.3,0,0,0,3.562-1.1A20.711,20.711,0,0,0,61.633,70.016a1.4,1.4,0,0,1,.229-.45l5.656-3.777a1.769,1.769,0,0,1,.271-.176c.19-.082.358-.381.545-.243.146.108.038.409.013.621-.046.383-.121.762-.165,1.145-.08.7.113.925.81.989-.115.083-.284.075-.328.27-.117.52-.258,1.035-.389,1.553" transform="translate(-26.925 -37.519)" fill="#7570d5"/>
        <path id="Trazado_128861" data-name="Trazado 128861" d="M65.734,17.507a1.729,1.729,0,0,1,1.289,1.422,1.839,1.839,0,0,1-.777,1.988c-.677.483-1.384.923-2.075,1.386s-.7.966-.023,1.447a2.04,2.04,0,0,0,1.506-.19c.6-.305,1.18-.655,1.788-.951a1.225,1.225,0,0,1,.517-.179A1.737,1.737,0,0,1,69.321,23.9a1.854,1.854,0,0,1-.856,2.007c-1.5,1.006-3.015,2-4.523,3-2.346,1.554-4.7,3.1-7.036,4.667a3.7,3.7,0,0,1-2.714.679,5.008,5.008,0,0,0-3.9,1.134c-.305.235-.44.2-.655-.125q-3.823-5.814-7.681-11.607a.835.835,0,0,1-.139-.725c.707-3.008,1.432-6.013,2.071-9.036a10.242,10.242,0,0,0-1.367-7.664A2.156,2.156,0,0,1,42.1,5.219a1.537,1.537,0,0,1,.865-1.563,1.494,1.494,0,0,1,1.774.2,16.5,16.5,0,0,1,5.088,7.071c.178.527.378,1.045.575,1.565.264.7.714.847,1.337.436q3.793-2.506,7.581-5.021a2,2,0,0,1,1.664-.364,1.855,1.855,0,0,1,1.456,1.461,1.819,1.819,0,0,1-.718,1.976c-.686.5-1.4.968-2.121,1.417a.891.891,0,0,0-.466,1.09c-.137.579.043.774.682.739a1.877,1.877,0,0,0,.784-.257c.777-.413,1.543-.847,2.333-1.238a.858.858,0,0,1,.564-.155,1.767,1.767,0,0,1,1.265,1.55,1.824,1.824,0,0,1-.812,1.845c-.679.479-1.384.921-2.075,1.383-.527.353-.6.565-.4,1.163-.229.28-.089.432.184.545a1.366,1.366,0,0,0,1.236-.15c.814-.439,1.625-.883,2.449-1.3.119-.06.232-.158.384-.108" transform="translate(-23.998 -1.984)" fill="#fcd6bc"/>
        <path id="Trazado_128862" data-name="Trazado 128862" d="M14.2,60.087c-.414.483-.423.7-.041,1.273q3.861,5.759,7.731,11.511c.229.338.207.475-.138.7-1.868,1.21-3.72,2.445-5.569,3.684a.552.552,0,0,1-.625.046A20.013,20.013,0,0,1,4.163,62.594a.439.439,0,0,1,.232-.528q3.4-2.218,6.773-4.468c.242-.16.38-.2.534.093.143.272.355.507.509.774a.884.884,0,0,0,1.049.476.129.129,0,0,1,.166-.025,1.916,1.916,0,0,1,.771,1.17" transform="translate(-2.381 -33.005)" fill="#86dafe"/>
        <path id="Trazado_128863" data-name="Trazado 128863" d="M18.6,28.3a2.144,2.144,0,0,0-2.941-.021L3.972,36.011c-.126.083-.256.159-.445.275a17.535,17.535,0,0,1-.04-2.546A20.092,20.092,0,0,1,18.635,15.291c1.415-.349,1.413-.348,1.744,1.1a10.449,10.449,0,0,1-.157,4.913c-.573,2.309-1.079,4.635-1.621,6.987" transform="translate(-1.987 -8.671)" fill="#927de1"/>
        <path id="Trazado_128864" data-name="Trazado 128864" d="M25.863,54.75c-.3-.393-.467-.893-.937-1.145.523-.434.568-.706.2-1.265-.194-.3-.383-.6-.593-.886-.125-.17-.088-.258.075-.365,1.409-.923,2.811-1.858,4.223-2.777.373-.242.619-.15.913.293q2.513,3.788,5.022,7.577Q37.1,59.7,39.426,63.221c.406.615.372.772-.255,1.188-1.25.829-2.509,1.644-3.745,2.492-.312.214-.437.154-.631-.136q-3.872-5.807-7.766-11.6c-.358-.534-.565-.6-1.166-.415" transform="translate(-14.048 -27.669)" fill="#6fc6fe"/>
        <path id="Trazado_128865" data-name="Trazado 128865" d="M55.569,75.275a18.687,18.687,0,0,1-2.77,5.812,20.691,20.691,0,0,1-6.857,6.287,23.114,23.114,0,0,1-4.063,1.775,6.868,6.868,0,0,1-1.286.1,16.453,16.453,0,0,1-4.665-.936c.051-.143.189-.188.3-.258q5.1-3.381,10.2-6.757c1.347-.891,1.563-1.508,1.016-3.024-.062-.173.016-.213.115-.29a4.215,4.215,0,0,1,3.4-1,4.244,4.244,0,0,0,2.888-.622c.583-.347,1.148-.725,1.721-1.089" transform="translate(-20.632 -43.228)" fill="#927de1"/>
        <path id="Trazado_128866" data-name="Trazado 128866" d="M62.182,15.63a18.4,18.4,0,0,1,3.323,1.157l-2.243,1.49c-.35-.876-.636-1.736-1.08-2.647" transform="translate(-35.709 -8.976)" fill="#746fd5"/>
        <path id="Trazado_128867" data-name="Trazado 128867" d="M86.466,24.679c-.991.527-1.978,1.061-2.976,1.576a1.462,1.462,0,0,1-1.414.051c-.313-.162-.449-.32-.075-.565.047-.031.069-.1.1-.151.463.493.708.525,1.273.157.463-.3.915-.62,1.385-.909a1.725,1.725,0,0,1,1.7-.158" transform="translate(-46.961 -14.082)" fill="#f8c3a9"/>
        <path id="Trazado_128868" data-name="Trazado 128868" d="M91.869,36.286c-1,.546-2,1.106-3.007,1.631a1.217,1.217,0,0,1-1.24-.027c-.425-.254-.43-.307-.006-.589.473.392.7.411,1.2.087.464-.3.92-.62,1.389-.914a1.763,1.763,0,0,1,1.668-.187" transform="translate(-50.134 -20.763)" fill="#f8c4a9"/>
        <path id="Trazado_128869" data-name="Trazado 128869" d="M98.118,47.872A23.208,23.208,0,0,1,95.4,49.308a1.142,1.142,0,0,1-1.1-.116,1.13,1.13,0,0,0,.868-.228q.662-.469,1.354-.9a1.719,1.719,0,0,1,1.588-.2" transform="translate(-54.158 -27.425)" fill="#f8c3a9"/>
      </g>
    </g>
  </g>
</svg>
