<svg xmlns="http://www.w3.org/2000/svg" width="99" height="99" viewBox="0 0 99 99">
  <g id="Grupo_156599" data-name="Grupo 156599" transform="translate(6399 6571)">
    <circle id="Elipse_4762" data-name="Elipse 4762" cx="49.5" cy="49.5" r="49.5" transform="translate(-6399 -6571)" fill="#1169e3"/>
    <g id="Grupo_156597" data-name="Grupo 156597" transform="translate(-6378 -6550)">
      <g id="Grupo_156598" data-name="Grupo 156598">
        <path id="Trazado_127124" data-name="Trazado 127124" d="M59.455,8.164a6.432,6.432,0,0,1,.537,1.477c-.024.284-.275.277-.455.336A15.7,15.7,0,0,0,48.6,23.006a14.965,14.965,0,0,0,.773,7.194,1.631,1.631,0,0,1-.217,1.518c-.82,1.339-1.585,2.71-2.406,4.048a6.546,6.546,0,0,0-.466.874c-.32.757.052,1.283.88,1.218a14.331,14.331,0,0,0,1.649-.274,1.229,1.229,0,0,1,.79.007c.192.472-.008.926-.675,1.325,1.743-.357,3.363-.641,4.979-.948a3.737,3.737,0,0,1,1.043-.087,1.3,1.3,0,0,1,.617.258A14.9,14.9,0,0,0,59.5,40.011c.265.087.571.12.732.4q-.006.723-.011,1.446a.346.346,0,0,1-.255.16c-.51.035-.563.37-.559.782.01,1.281.008,2.562,0,3.843a5.157,5.157,0,0,1-5.314,5.337q-8.491.014-16.983,0c-1.106,0-1.2-.158-.649-1.105.777-1.341,1.543-2.687,2.333-4.02a1.211,1.211,0,0,1,.422-.522c.137-.047.208.032.267.136.2,2.477,1.734,3.34,3.909,3.174.925-.07,1.859,0,2.789-.015a2.794,2.794,0,1,0,.008-5.581c-1.2-.015-2.4,0-3.6-.006a3.134,3.134,0,0,0-1.817.521c-.182.121-.379.322-.613.17s-.127-.411-.114-.631a3.807,3.807,0,0,0-2.133-3.93A3.7,3.7,0,0,0,33.2,41.459c-1.033,1.6-1.929,3.276-2.877,4.923a4.393,4.393,0,0,1-.5.782c-.231.257-.422.242-.507-.126a2.694,2.694,0,0,1-.037-.618q0-17.576,0-35.151a5.142,5.142,0,0,1,5.306-5.281q9.734-.01,19.466,0a5.045,5.045,0,0,1,4.179,1.924c.4.513.818.167,1.218.255" transform="translate(-20.448 -4.179)" fill="#29c4bb"/>
        <path id="Trazado_127125" data-name="Trazado 127125" d="M39.007,3.984c-.831.417-.826.411-1.455-.291A4.771,4.771,0,0,0,33.9,2q-9.977-.024-19.955,0A4.9,4.9,0,0,0,9.024,6.93Q9,24.778,9.017,42.626v.46c.257-.092.3-.289.381-.435,1.027-1.765,2.023-3.549,3.079-5.3a3.735,3.735,0,0,1,3.948-1.869,3.791,3.791,0,0,1,3.21,2.734,5.087,5.087,0,0,1,.089,2.369c1.008-1.037,2.27-.915,3.508-.9.888.008,1.777-.01,2.665.005a2.971,2.971,0,0,1,.022,5.943c-1.259.022-2.52.008-3.78.005a2.976,2.976,0,0,1-3.182-3.34c.036-.077.045-.192,0-.227s-.065.1-.133.111l-3.08,5.364a1.075,1.075,0,0,0,.629.072q8.554.006,17.109,0A4.981,4.981,0,0,0,38.777,42.3c0-1.3.03-2.6-.014-3.9-.019-.562.133-.792.7-.694a1.349,1.349,0,0,0,.308-.017c.99.05,1.008.05.986,1.073a38.1,38.1,0,0,1-.1,4.95A6.858,6.858,0,0,1,33.831,49.6c-4.979.028-9.957.008-14.936.008H15.813a3.176,3.176,0,0,0,.576,1.077,8.594,8.594,0,0,1,1.565,5.606c-.059.947-.02,1.9,0,2.85,0,.285-.06.405-.372.389-.536-.029-1.074-.016-1.61-.021a.969.969,0,0,1-.18-.76c-.006-1.095-.019-2.19,0-3.284A5.215,5.215,0,0,0,15,52.577c-.614-1-1.2-2.029-1.826-3.023a1.6,1.6,0,0,1-.024-1.845q2.086-3.589,4.149-7.192a1.854,1.854,0,0,0,.061-2.049,1.776,1.776,0,0,0-2.736-.347,3.072,3.072,0,0,0-.548.745c-1.275,2.221-2.563,4.435-3.835,6.658-.113.2-.226.395-.356.581a1.167,1.167,0,0,1-2.138-.06,6.66,6.66,0,0,1-.889-3.378q0-6.5,0-13c0-.082-.106.009-.026-.012.033-.009.048.007.04.046a12.026,12.026,0,0,1-1.038,2.442c-.928,2.05-1.883,4.089-2.806,6.142a8.94,8.94,0,0,0-.785,3.729q.012,8.273,0,16.546c0,.322.075.668-.176.948-.637,0-1.45.226-1.86-.081C-.182,59.137.1,58.272.094,57.661c-.01-5.167,0-10.334-.011-15.5a11.8,11.8,0,0,1,1.11-5.091q2.151-4.622,4.265-9.261a3.1,3.1,0,0,1,1.334-1.575c.34-.177.237-.446.237-.69.005-6.159-.016-12.318.013-18.476a6.781,6.781,0,0,1,4-6.4,6.294,6.294,0,0,1,2.87-.66c6.675,0,13.351-.024,20.026.011a6.753,6.753,0,0,1,5.51,2.86c.337.44.4.721-.187.932a1.214,1.214,0,0,0-.253.172" transform="translate(0 0)"/>
        <path id="Trazado_127126" data-name="Trazado 127126" d="M6.848,127.535c0-5.744.015-11.488,0-17.232a10.29,10.29,0,0,1,.981-4.49c1.312-2.793,2.588-5.6,3.987-8.4v.572q0,6.292,0,12.583a7,7,0,0,0,.828,3.389c.5.932,1.373.961,1.906.047,1.454-2.495,2.892-5,4.338-7.5a1.918,1.918,0,0,1,2.08-1.019,1.854,1.854,0,0,1,1.571,1.4,2.093,2.093,0,0,1-.28,1.717c-1.36,2.335-2.682,4.692-4.07,7.01a1.667,1.667,0,0,0,0,2.039c.629.917,1.153,1.906,1.738,2.854a5.368,5.368,0,0,1,.819,2.936c-.014,1.364,0,2.727,0,4.091l-13.9,0" transform="translate(-4.78 -68.026)" fill="#fec377"/>
        <path id="Trazado_127127" data-name="Trazado 127127" d="M98.832,47.7a18.363,18.363,0,0,1-5.2-2.392,2.557,2.557,0,0,1-1-.6,1.232,1.232,0,0,0-1.154-.268c-.745.173-1.506.262-2.251.432a2.934,2.934,0,0,1-1.094.067l-2.069.357c-.5.087-1,.125-1.339-.37a1.129,1.129,0,0,1,.117-1.324c.99-1.666,1.967-3.34,2.961-5a.842.842,0,0,0,.1-.8,15.821,15.821,0,0,1,10.467-20.76,1.321,1.321,0,0,0,.214-.112,23.684,23.684,0,0,1,3.919-.51A15.876,15.876,0,0,1,105.4,47.946a17.136,17.136,0,0,1-6.573-.248" transform="translate(-59.048 -11.461)"/>
        <path id="Trazado_127128" data-name="Trazado 127128" d="M40.733,54.9a4.9,4.9,0,0,1-4.219-3.832,4.952,4.952,0,0,1,7.042-5.559.7.7,0,0,0,.983-.164c1.111-1.151,1.116-1.129,2.2.032.233.249.228.409-.025.587-.961.676-1.384,1.466-.627,2.574a2.557,2.557,0,0,1,.22.766,4.044,4.044,0,0,1-.807,3.6,4.834,4.834,0,0,1-3.552,2.129,2.418,2.418,0,0,1-1.217-.135" transform="translate(-25.389 -31.074)"/>
        <path id="Trazado_127129" data-name="Trazado 127129" d="M69.97,15.13c-1.154,0-2.309-.016-3.462.009-.38.008-.481-.094-.483-.478-.006-1.515-.022-1.515,1.477-1.515,1.979,0,3.957.014,5.935-.011.432-.005.551.1.546.542-.016,1.453,0,1.453-1.478,1.453H69.97" transform="translate(-46.106 -9.173)"/>
        <path id="Trazado_127130" data-name="Trazado 127130" d="M50.861,66.038a5.07,5.07,0,0,0,4.317-1.662,5.216,5.216,0,0,0,1.258-3.934,3.957,3.957,0,0,1-5.575,5.6" transform="translate(-35.518 -42.209)" fill="#3d99e1"/>
        <path id="Trazado_127131" data-name="Trazado 127131" d="M77.833,54.6c-.514,0-1.029-.013-1.542.005-.3.01-.426-.043-.439-.393-.058-1.6-.071-1.6,1.514-1.6.679,0,1.358.011,2.036-.005.3-.007.426.044.439.393.058,1.6.071,1.6-1.514,1.6h-.494" transform="translate(-52.956 -36.741)"/>
        <path id="Trazado_127132" data-name="Trazado 127132" d="M77.942,65.652c.164,0,.33-.01.494,0,.464.035,1.164-.214,1.338.1.235.43.074,1.075.091,1.627.008.242-.141.252-.319.252-1.111,0-2.222-.006-3.332,0-.237,0-.345-.076-.317-.317a.841.841,0,0,0,0-.123c-.049-1.547-.049-1.547,1.491-1.547Z" transform="translate(-52.99 -45.806)"/>
        <path id="Trazado_127133" data-name="Trazado 127133" d="M95.174,109.2q1.9-.37,3.8-.742a.557.557,0,0,1,.508.141c.389.333.791.65,1.187.974-1.845.149-3.632.633-5.45.938a.984.984,0,0,1-.586.012c.158-.269.322-.526.461-.794.083-.161.326-.314.078-.529" transform="translate(-66.085 -75.733)" fill="#3d99e1"/>
        <path id="Trazado_127134" data-name="Trazado 127134" d="M52.909,14.122c0-.951,0-.951.971-.951,1.013,0,1.013,0,1.013,1.033,0,.951,0,.951-.972.951-1.012,0-1.012,0-1.012-1.033" transform="translate(-36.948 -9.198)"/>
        <path id="Trazado_127135" data-name="Trazado 127135" d="M62.406,139.2c.023-.116.125-.3.164-.269.156.115.069.262-.033.385l-.131-.116" transform="translate(-43.58 -97.015)" fill="#284c66"/>
        <path id="Trazado_127136" data-name="Trazado 127136" d="M72.335,140.1c-.618,0-1.236.008-1.853,0a1,1,0,0,1-1.119-.974.989.989,0,0,1,1.086-1q1.884-.018,3.769,0a.991.991,0,0,1,1.089,1,1,1,0,0,1-1.118.976c-.618.01-1.236,0-1.853,0" transform="translate(-48.438 -96.448)" fill="#1169e3"/>
        <path id="Trazado_127137" data-name="Trazado 127137" d="M94.365,47.577c.793-1.343,1.517-2.614,2.286-3.857a1.62,1.62,0,0,0,.126-1.623,13.875,13.875,0,1,1,12,8.646,13.4,13.4,0,0,1-8.249-3.408,1.979,1.979,0,0,0-1.95-.557c-1.359.32-2.745.527-4.213.8" transform="translate(-65.898 -16.049)" fill="#fee734"/>
        <path id="Trazado_127138" data-name="Trazado 127138" d="M47.283,53.028c-.881.87-1.73,1.737-2.614,2.568-.306.288-.273.445.007.723,1.052,1.043,1.042,1.053,2.073.022q.9-.9,1.8-1.792a.553.553,0,0,1,.1-.065c.669.8.349,2.579-.716,3.457a2.972,2.972,0,0,1-4.4-3.9,2.894,2.894,0,0,1,3.748-1.009" transform="translate(-30.058 -36.811)" fill="#fee734"/>
        <path id="Trazado_127139" data-name="Trazado 127139" d="M122.017,53.7c-1.873-.116-2.958-.911-3.279-2.422a3.882,3.882,0,0,1-.062-.8q-.005-5.667,0-11.334c0-1.019.314-1.335,1.321-1.338.619,0,1.243-.045,1.857.012.63.058.842-.12.8-.783a3.959,3.959,0,0,1,5.719-3.76,3.809,3.809,0,0,1,2.193,3.415c.059,1.115.041,1.116,1.193,1.116.578,0,1.157-.013,1.734,0a.982.982,0,0,1,1.045,1.051c.021.639.017,1.279.024,1.918a1.232,1.232,0,0,1,.172.83c0,2.969.012,5.938,0,8.907a3.2,3.2,0,0,1-3.353,3.352c-2.845.014-5.691.005-8.536,0a1.294,1.294,0,0,1-.832-.171" transform="translate(-82.874 -22.925)"/>
        <path id="Trazado_127140" data-name="Trazado 127140" d="M129.756,72.1q4.582-.011,9.163-.022a3.028,3.028,0,0,0,3.367-3.364q.009-4.767.02-9.535a3.78,3.78,0,0,0,.434,0c.387-.042.548.085.546.51-.014,3.821,0,7.641-.014,11.462a1.958,1.958,0,0,1-1.9,1.912q-5.049.024-10.1,0a1.518,1.518,0,0,1-1.52-.959" transform="translate(-90.612 -41.323)" fill="#eabe00"/>
        <path id="Trazado_127141" data-name="Trazado 127141" d="M131.178,63.827c-1.8,0-3.6-.011-5.393.008-.4,0-.577-.049-.571-.519.026-2.314.019-4.628,0-6.942,0-.365.073-.492.471-.494,1.5-.008,1.513-.025,1.511,1.483,0,.39.084.525.5.524,1.475,0,1.491.015,1.478-1.452,0-.423.09-.57.538-.554.991.036,1.984.031,2.975,0,.4-.012.525.122.467.491a.514.514,0,0,0,0,.124c.039.446-.2,1.134.1,1.284a4.23,4.23,0,0,0,1.635.1c.246.008.249-.151.248-.326,0-.434.011-.868,0-1.3-.009-.261.068-.395.347-.357a.773.773,0,0,0,.124,0c1.518-.036,1.518-.036,1.518,1.474,0,1.963-.015,3.926.011,5.888.006.452-.092.595-.57.586-1.8-.032-3.6-.013-5.393-.013" transform="translate(-87.44 -39.021)" fill="#3d99e1"/>
        <path id="Trazado_127142" data-name="Trazado 127142" d="M131.025,88.746c1.818,0,3.636.013,5.454-.01.4-.005.515.1.51.509-.015,1.2-.28,1.485-1.5,1.485H126.44a1.292,1.292,0,0,1-1.368-1.793c.087-.331.332-.182.5-.183,1.818-.012,3.636-.008,5.454-.008" transform="translate(-87.289 -61.957)" fill="#d0d2d3"/>
        <path id="Trazado_127143" data-name="Trazado 127143" d="M140.327,42.461c-.515,0-1.031-.021-1.543.008-.341.019-.4-.114-.405-.424a2.6,2.6,0,0,1,.482-1.861,1.96,1.96,0,0,1,2.125-.592,1.989,1.989,0,0,1,1.366,1.8c.06,1.07.06,1.07-.975,1.07h-1.05" transform="translate(-96.633 -27.575)" fill="#fed322"/>
      </g>
    </g>
    <g id="Grupo_156595" data-name="Grupo 156595" transform="translate(-6384 -6554)">
      <path id="Trazado_127053" data-name="Trazado 127053" d="M15.562,123.96c.454.1.559-.113.555-.537-.012-1.063.007-1.081,1.106-1.075.409,0,.536-.124.528-.529-.007-.377-.077-.553-.512-.551-1.1,0-1.131-.018-1.119-1.119.005-.5-.239-.507-.608-.511s-.56.058-.56.5c0,1.115-.023,1.135-1.112,1.131-.421,0-.521.15-.522.541s.1.541.52.539c1.11-.006,1.137.014,1.112,1.066-.012.488.169.631.611.545" transform="translate(50.059 -80.637)" fill="#29c4bb"/>
      <path id="Trazado_127054" data-name="Trazado 127054" d="M213.635,151.161c-.406-.078-.632.057-.565.517.056.385-.077.6-.5.533s-.57.088-.573.537c0,.47.189.578.589.525.383-.052.5.115.5.5-.012.6.357.826.934.645.274-.086.214-.3.2-.477-.048-.472.06-.76.616-.666.431.073.457-.2.456-.527s-.014-.6-.451-.53c-.471.073-.694-.1-.616-.6.075-.475-.23-.5-.582-.454" transform="translate(-211.994 -100.761)" fill="#29c4bb"/>
      <path id="Trazado_127055" data-name="Trazado 127055" d="M207.481,69.268c-.1.453.1.608.527.537.46-.078.648.111.567.569s.113.548.542.553.609-.127.532-.557c-.082-.459.109-.648.565-.562.472.089.513-.158.531-.555.021-.466-.16-.588-.566-.517-.441.077-.606-.106-.531-.537.072-.412-.061-.579-.521-.563-.4.014-.639.072-.552.536s-.115.639-.567.563c-.425-.072-.632.081-.526.534" transform="translate(-204.164 -61.349)" fill="#010000"/>
      <path id="Trazado_127056" data-name="Trazado 127056" d="M51.8,186.64c-.1.423.11.578.532.5.5-.09.614.169.543.587-.079.465.146.537.555.535.39,0,.6-.091.518-.511-.108-.553.169-.688.645-.607s.466-.225.467-.559-.007-.6-.448-.512c-.593.117-.745-.168-.665-.7.077-.508-.311-.362-.569-.377-.274-.016-.579-.052-.5.389.1.545-.092.8-.67.687-.482-.092-.423.243-.409.566" transform="translate(0.255 -122.041)" fill="#010000"/>
      <path id="Trazado_127057" data-name="Trazado 127057" d="M125.03,17.426c.114-.483-.153-.577-.548-.518-.41.061-.572-.109-.509-.513s-.058-.588-.522-.578c-.427.009-.623.119-.548.558s-.131.6-.553.533c-.391-.059-.587.035-.589.513s.182.62.608.553c.45-.072.6.133.533.553-.078.472.175.526.572.534.424.009.562-.151.5-.54-.068-.427.09-.622.535-.547s.62-.106.523-.547" transform="translate(-92.465 -15.816)" fill="#29c4bb"/>
    </g>
  </g>
</svg>
