<svg xmlns="http://www.w3.org/2000/svg" xmlns:xlink="http://www.w3.org/1999/xlink" width="90.773" height="90.773" viewBox="0 0 90.773 90.773">
  <defs>
    <clipPath id="clip-path">
      <rect id="Rectángulo_37152" data-name="Rectángulo 37152" width="51.665" height="51.666" fill="none"/>
    </clipPath>
  </defs>
  <g id="_34" data-name="34" transform="translate(6399 6571.146)">
    <circle id="Elipse_4762" data-name="Elipse 4762" cx="45.387" cy="45.387" r="45.387" transform="translate(-6399 -6571.146)" fill="#b0c8cb"/>
    <g id="Grupo_156595" data-name="Grupo 156595" transform="translate(-6385.246 -6555.413)">
      <path id="Trazado_127053" data-name="Trazado 127053" d="M15.375,123.6c.416.093.513-.1.509-.492-.011-.974.006-.992,1.015-.986.375,0,.492-.114.485-.485-.007-.346-.07-.507-.469-.505-1.011,0-1.037-.017-1.026-1.026,0-.457-.219-.465-.558-.469s-.514.053-.514.459c0,1.022-.021,1.041-1.019,1.037-.386,0-.478.138-.479.5s.091.5.477.494c1.018-.006,1.042.013,1.02.978-.011.448.155.579.561.5" transform="translate(44.792 -83.878)" fill="#29c4bb"/>
      <path id="Trazado_127054" data-name="Trazado 127054" d="M213.5,151.159c-.373-.071-.579.052-.518.474.051.353-.071.55-.461.489s-.522.081-.525.492c0,.431.173.53.54.481.351-.047.462.105.455.455-.011.547.328.757.857.591.251-.079.2-.279.18-.437-.044-.432.055-.7.565-.611.395.067.419-.181.418-.484s-.013-.548-.414-.486c-.432.067-.636-.091-.564-.547.068-.436-.211-.455-.533-.417" transform="translate(-211.994 -104.948)" fill="#29c4bb"/>
      <path id="Trazado_127055" data-name="Trazado 127055" d="M207.478,69.132c-.1.416.094.558.484.492.422-.071.594.1.52.521s.1.5.5.507.558-.116.488-.511c-.075-.42.1-.594.518-.515s.471-.145.487-.509c.019-.427-.147-.539-.519-.474-.4.071-.555-.1-.487-.492.066-.378-.056-.531-.477-.516-.371.013-.586.066-.506.491s-.105.586-.52.516c-.39-.066-.58.074-.483.49" transform="translate(-204.437 -61.871)" fill="#010000"/>
      <path id="Trazado_127056" data-name="Trazado 127056" d="M51.8,186.5c-.091.388.1.53.488.46.455-.082.563.155.5.538-.072.426.134.493.509.49.358,0,.55-.083.475-.469-.1-.507.155-.631.591-.556s.427-.206.428-.513-.006-.549-.411-.47c-.544.108-.683-.154-.61-.641.07-.466-.285-.332-.522-.346s-.531-.047-.458.357c.09.5-.085.732-.614.63-.442-.085-.388.223-.375.519" transform="translate(-4.069 -127.272)" fill="#010000"/>
      <path id="Trazado_127057" data-name="Trazado 127057" d="M124.759,17.292c.1-.443-.141-.529-.5-.475s-.524-.1-.467-.47-.053-.539-.479-.53c-.392.008-.571.109-.5.512s-.121.547-.507.489c-.358-.054-.538.032-.54.47s.167.569.558.507c.413-.066.553.122.489.507-.072.432.16.482.524.49.389.008.516-.138.458-.495-.062-.391.082-.57.49-.5s.569-.1.48-.5" transform="translate(-94.9 -15.817)" fill="#29c4bb"/>
    </g>
    <g id="Grupo_156639" data-name="Grupo 156639" transform="translate(-6379 -6551.146)">
      <g id="Grupo_156639-2" data-name="Grupo 156639" clip-path="url(#clip-path)">
        <path id="Trazado_127484" data-name="Trazado 127484" d="M41.855,0c.559.131,1.124.24,1.675.4a9.878,9.878,0,0,1,6.157,13.789c-.188.386-.086.483.244.627A8.021,8.021,0,0,1,52.9,17.092c.381.458.367.727-.03,1.187-.369.394-.775.36-1.206-.131a7.791,7.791,0,0,0-1.266-1.2,3.822,3.822,0,0,0-.728-.433c-.046-.021-.09-.045-.135-.067-.807-.41-.825-.364-1.434.283a9.769,9.769,0,0,1-5.8,3.067,7.6,7.6,0,0,1-1.4.112c-.11,0-.258-.031-.3.111s.075.211.161.288A8.077,8.077,0,0,0,46.3,22.579a14.36,14.36,0,0,1,2.3.179,5.635,5.635,0,0,1,4.173,2.923c.1.127.1.382.29.363.174-.017.2-.247.255-.4a6.886,6.886,0,0,0,.009-4.147,3.166,3.166,0,0,1-.143-.635.7.7,0,0,1,.578-.785c.667-.073.9.065,1.078.689a9.181,9.181,0,0,1,.233,4.823,4.733,4.733,0,0,1-.706,1.6c-.1.149-.138.242.049.353,1.9,1.128,1.73,3.8.147,5.195a3.424,3.424,0,0,1-1.788.862.544.544,0,0,0-.447.333,15.625,15.625,0,0,1-3.586,4.383.574.574,0,0,0-.251.592c.089.547.156,1.1.192,1.651a.379.379,0,0,0,.348.4,3.286,3.286,0,0,1,.337.1c.442.148.828.283,1.257-.153a1.348,1.348,0,0,1,1.386-.177c.786.237,1.576.463,2.36.705a6.989,6.989,0,0,1,5.138,5.972,28.072,28.072,0,0,0,.6,3.148v.605c-.223.3-.467.578-.9.489a.847.847,0,0,1-.651-.793,1.876,1.876,0,0,1-.293-.948,31.393,31.393,0,0,0-.7-3.455,5.051,5.051,0,0,0-3.2-3.265c-.709-.264-1.439-.464-2.16-.689-.7-.218-.71-.207-.775.525a28.119,28.119,0,0,1-1.176,5.811,5.059,5.059,0,0,1-.923,2.039,2.25,2.25,0,0,0-.125.215.788.788,0,0,1-.843.563.77.77,0,0,1-.687-.792c-.117-.215.02-.387.1-.565a23.656,23.656,0,0,0,1.79-6.722,1.6,1.6,0,0,0,.01-.2c0-.225.082-.468-.215-.6a.5.5,0,0,0-.686.208,4.9,4.9,0,0,1-4.715,3.05.813.813,0,0,1-.825-.531c-.166-.672.123-1.057.862-1.119a4.348,4.348,0,0,0,2-.581A2.408,2.408,0,0,0,47.1,42.354a8.3,8.3,0,0,0-.151-2.34c-.011-.153-.106-.2-.247-.148a1.576,1.576,0,0,0-.184.08,6.338,6.338,0,0,1-5.668.018c-.167-.077-.408-.3-.475.113-.039.384-.059.774-.134,1.147a2.378,2.378,0,0,0,.808,2.393.776.776,0,0,1,.1,1.179c-.526.405-.789.4-1.281-.025a3.14,3.14,0,0,1-1.152-1.731c-.116-.616-.4-.546-.8-.343-.263.25-.18.563-.133.853a33.674,33.674,0,0,0,1.689,6.406c.119.316.355.627.17,1a.778.778,0,0,1-.742.7c-.5.025-.683-.344-.846-.726a1.3,1.3,0,0,1-.373-.7,34.985,34.985,0,0,1-1.8-7.381c-.064-.527-.1-.553-.6-.4-.785.246-1.586.446-2.354.743a5.123,5.123,0,0,0-3.347,3.86c-.24,1.083-.4,2.181-.6,3.272a.987.987,0,0,1-.23.6c-.2.577-.541.827-.972.707s-.617-.5-.51-1.1c.227-1.255.405-2.521.68-3.766a6.853,6.853,0,0,1,4.766-5.26c.839-.29,1.7-.507,2.551-.768A1.573,1.573,0,0,1,37,41.114c.225.235.414.128.633.063,1.005-.3.925-.318,1.13-1.346a1.947,1.947,0,0,0-.768-2.1A12.794,12.794,0,0,1,35,33.9a.554.554,0,0,0-.468-.3,3.628,3.628,0,0,1-2.88-4.4,2.9,2.9,0,0,1,.919-1.414c.12-.1.275-.15.129-.387a8.232,8.232,0,0,1-.563-7.4,1.131,1.131,0,0,0,.028-.176h-7.63a3.185,3.185,0,0,1-.927,3.014,3.077,3.077,0,0,1-2.388.876,3.21,3.21,0,0,1-2.9-3.906,10.35,10.35,0,0,1-3.391-.624,10.27,10.27,0,0,1-2.181-1.133c-.507-.346-.577-.592-.354-1.2a.743.743,0,0,1,1.057-.3c.266.132.5.314.76.469a8.276,8.276,0,0,0,4.591,1.1,1.378,1.378,0,0,0,.691-.277,3.264,3.264,0,0,1,3.871.007,1.623,1.623,0,0,0,.945.277c5.63,0,11.26.02,16.89-.016a7.55,7.55,0,0,0,4.84-1.89A7.807,7.807,0,0,0,48.83,11.6a8.112,8.112,0,0,0-1.494-6.676,8.056,8.056,0,0,0-6.517-3.271c-1.243-.025-2.487,0-3.731-.009-.634-.007-.845-.171-1.081-.779a.837.837,0,0,1,.6-.87Z" transform="translate(-8.449)"/>
        <path id="Trazado_127485" data-name="Trazado 127485" d="M2.5,15.421a.938.938,0,0,1-1.15-.552A9.893,9.893,0,0,1,8.636.093C8.7.083,8.767.078,8.791,0H25.133a.77.77,0,0,1,.612.883.946.946,0,0,1-.984.77c-.2.01-.4.007-.6.007q-7.1,0-14.207,0a8.252,8.252,0,0,0-8.265,8.712,7.827,7.827,0,0,0,1.02,3.5,2.337,2.337,0,0,1,.281.644.709.709,0,0,1-.488.9" transform="translate(0)"/>
        <path id="Trazado_127486" data-name="Trazado 127486" d="M81.157.807A1.047,1.047,0,0,0,80.642,0h3.027a1.2,1.2,0,0,0-.493.808,2.8,2.8,0,0,1-2.018,0" transform="translate(-55.508)" fill="#fdfdfd"/>
        <path id="Trazado_127487" data-name="Trazado 127487" d="M29.054,2.589h2.018a.933.933,0,0,0,1.05.716A34.8,34.8,0,0,1,37,3.4,7.915,7.915,0,0,1,42.37,6.6a7.408,7.408,0,0,1,.353,5.263,9.368,9.368,0,0,1-8.184,7.028,14.537,14.537,0,0,1-1.658.09q-6.5,0-13,0a1.548,1.548,0,0,1-.97-.2c-.067-.049-.146-.1-.139-.2.009-.126.122-.147.215-.17.229-.055.471,0,.7-.074a4.875,4.875,0,0,0,2.741-1.489,2.948,2.948,0,0,0,.726-1.359c.117-.524.263-.588.708-.259A9.743,9.743,0,0,0,26.2,16.608a5.86,5.86,0,0,0,3.408.365,2.189,2.189,0,0,1,1.277.123,6.159,6.159,0,0,0,7.308-2.646,5,5,0,0,0-1.436-6.556,5.317,5.317,0,0,0-1.609-.824,1.226,1.226,0,0,1-.735-.569,10.562,10.562,0,0,0-.966-1.353,1.91,1.91,0,0,0-.317-.323.57.57,0,0,0-.782,0,.561.561,0,0,0-.108.773,6.5,6.5,0,0,0,.418.569c.09.12.214.245.146.406-.079.185-.273.178-.438.179a11.036,11.036,0,0,0-2.917.531,6.61,6.61,0,0,0-1.135.415.514.514,0,0,1-.729-.2A6.549,6.549,0,0,0,20.94,5.09a3.962,3.962,0,0,0-2.072.978A.984.984,0,0,1,17.9,6.3a6.059,6.059,0,0,0-4.951.924,4.949,4.949,0,0,0-1.482,1.56,3.216,3.216,0,0,1-.217.34c-.082.106-.168.24-.315.218-.172-.026-.216-.194-.26-.34A2.088,2.088,0,0,1,10.65,7.96c.137-.665.006-.985-.4-1.071s-.7.226-.828.877a3.083,3.083,0,0,0,1.074,3.118.859.859,0,0,1,.319.6,4.785,4.785,0,0,0,3.652,4.327,1.529,1.529,0,0,1,1,.756,2.684,2.684,0,0,0,.857.909c.147.109.376.19.309.456a.631.631,0,0,1-.472.137,3.925,3.925,0,0,0-2.05.615,2.187,2.187,0,0,1-1.153.3c-1.025-.007-2.051-.005-3.076,0a2.235,2.235,0,0,1-.839-.14,4.477,4.477,0,0,1-.47-.275.842.842,0,0,0-1.215.052C6.8,18.22,6.487,17.576,5.9,17.2c.484-.47.517-.689.191-1.274A8.372,8.372,0,0,1,11.744,3.446a8.814,8.814,0,0,1,1.8-.153c4.82,0,9.64,0,14.46.009.542,0,.913-.159,1.047-.713" transform="translate(-3.406 -1.782)" fill="#f9f7f7"/>
        <path id="Trazado_127488" data-name="Trazado 127488" d="M65.176,144.075c.232-1.322.415-2.655.707-3.963a5.261,5.261,0,0,1,3.486-3.931c.861-.325,1.762-.544,2.643-.815.219-.067.38-.1.408.223a33.442,33.442,0,0,0,2.034,8.39.679.679,0,0,1,.02.1l-9.3,0" transform="translate(-44.863 -93.146)" fill="#f4dd46"/>
        <path id="Trazado_127489" data-name="Trazado 127489" d="M131.215,145.584a25.235,25.235,0,0,0,1.914-7.6,2.14,2.14,0,0,1,.069-.291.541.541,0,0,1,.571-.033c.4.134.8.231,1.2.366a6.139,6.139,0,0,1,4.252,4.787c.158.72.275,1.447.413,2.171a.6.6,0,0,1-.07.572l-8.35.025" transform="translate(-90.32 -94.713)" fill="#f4dd46"/>
        <path id="Trazado_127490" data-name="Trazado 127490" d="M108.526,130.73a2.45,2.45,0,0,1-1.66,1.795,3.964,3.964,0,0,1-1.465.32c-.731.036-.944.265-.939.993-.112-.123-.223-.264-.4-.269a7.3,7.3,0,0,1-1.589-.428.849.849,0,0,0-.258-1.153,2.255,2.255,0,0,1-.817-2.29c.073-.429.117-.863.175-1.295.19-.13.355-.01.515.064a6.417,6.417,0,0,0,5.021.316c.758-.271,1.038-.064,1.168.722a4.217,4.217,0,0,0,.253,1.223" transform="translate(-69.761 -88.346)" fill="#f1d0a4"/>
        <path id="Trazado_127491" data-name="Trazado 127491" d="M56.374,72.854a2.27,2.27,0,1,1,2.268-2.284,2.28,2.28,0,0,1-2.268,2.284" transform="translate(-37.242 -47.023)"/>
        <path id="Trazado_127492" data-name="Trazado 127492" d="M143.942,144.073c-.333-1.926-.431-3.922-1.8-5.52a6.242,6.242,0,0,0-3.313-2.027,4.142,4.142,0,0,0-1.255-.315c0-.88,0-.88.855-.624.561.169,1.119.343,1.682.5a5.408,5.408,0,0,1,4.09,4.478c.223,1.167.41,2.34.612,3.511l-.872-.007" transform="translate(-94.697 -93.226)" fill="#f2d232"/>
        <path id="Trazado_127493" data-name="Trazado 127493" d="M126.147,136.858c.083-.16-.1-.491.274-.462.563.044.825.262.786.629a22.1,22.1,0,0,1-1.941,7.387,3.216,3.216,0,0,0-.118.33c-.25.011-.458,0-.27-.345a19.432,19.432,0,0,0,1.765-5.669,10.573,10.573,0,0,0,.132-1.14.6.6,0,0,0-.628-.73" transform="translate(-85.908 -93.885)" fill="#eee7e4"/>
        <path id="Trazado_127494" data-name="Trazado 127494" d="M95.546,145.256c-.389-1.228-.8-2.45-1.163-3.685a25.856,25.856,0,0,1-.893-4.175c-.036-.3.049-.407.33-.4.186,1.18.328,2.366.579,3.538a16.34,16.34,0,0,0,1.458,4.242c.223.423.113.528-.311.481" transform="translate(-64.347 -94.298)" fill="#eee7e4"/>
        <path id="Trazado_127495" data-name="Trazado 127495" d="M136.449,56.365a.873.873,0,0,0-.372,1.164,7.608,7.608,0,0,1,.265,3.759,3.26,3.26,0,0,1-.652,1.479l-.337-.756c-.02-.488.146-.952.166-1.441a9.271,9.271,0,0,0-2.784-7.276c-.155-.154-.394-.283-.32-.574a5.67,5.67,0,0,1,2.006,1.623.77.77,0,0,0,1.134.224l.895,1.8" transform="translate(-91.135 -36.289)" fill="#685e68"/>
        <path id="Trazado_127496" data-name="Trazado 127496" d="M91.1,71.219c.168-.341.258-.85.526-.972.243-.111.559.372.864.564.154.1.293.215.439.323a8.806,8.806,0,0,0,4.994,1.777c.755.024,1.507.082,2.259.137a3.735,3.735,0,0,1,1.841.616,3.093,3.093,0,0,1,1.326,2.326,18.456,18.456,0,0,1-.209,4.215,4.251,4.251,0,0,1-.452,1.328,13.5,13.5,0,0,1-4.521,4.911,5.084,5.084,0,0,1-6.142-.328,14.248,14.248,0,0,1-3.8-4.183,5.485,5.485,0,0,1-.76-2.322,23.951,23.951,0,0,1-.085-3.519,4.644,4.644,0,0,1,1.888-2.519A5.761,5.761,0,0,0,91.1,71.219" transform="translate(-60.129 -48.342)" fill="#f1d0a4"/>
        <path id="Trazado_127497" data-name="Trazado 127497" d="M18.068,27.712q2.041-.007,4.082-.013a1.109,1.109,0,0,0,.632-.122,4.431,4.431,0,0,1,2.748-.8c.043,0,.089-.04.135-.061.172-.113.326-.016.471.055a4.052,4.052,0,0,0,1.952.385c.241-.008.509-.065.707.155-.275.191-.592.036-.911.119a.815.815,0,0,0,.685.269c4.753,0,9.507.067,14.258-.025a9.07,9.07,0,0,0,7.394-3.937,8.725,8.725,0,0,0,1.666-5.771,11.5,11.5,0,0,0-.487-2.5,7.759,7.759,0,0,1,1.743,5.174,8.337,8.337,0,0,1-8.388,8.274c-5.576.014-11.152,0-16.728.007a.947.947,0,0,1-.636-.213,3.1,3.1,0,0,0-3.948-.007.973.973,0,0,1-.634.222,8.144,8.144,0,0,1-4.742-1.21" transform="translate(-12.437 -10.646)" fill="#efe8e5"/>
        <path id="Trazado_127498" data-name="Trazado 127498" d="M111.677,51.717a21.945,21.945,0,0,1,1.739,2.069,9.625,9.625,0,0,1,1.49,4.731,5.252,5.252,0,0,1-.29,2.491,5.843,5.843,0,0,0-5.168-2.95A10.923,10.923,0,0,1,105.2,57.4a10.6,10.6,0,0,1-2.746-1.845c-.116-.1-.229-.222-.156-.388s.236-.092.359-.093a9.756,9.756,0,0,0,7.679-3.577c.2-.233.372-.3.637-.156.233.13.47.252.706.377" transform="translate(-70.398 -35.286)" fill="#7a6d79"/>
        <path id="Trazado_127499" data-name="Trazado 127499" d="M80.14,70.506a2.446,2.446,0,0,1-.772-1.175,7.287,7.287,0,0,1,.2-5.444.624.624,0,0,1,.677-.444c1.309.026,2.618.009,3.927.011.48,0,.648.152.514.591a5.142,5.142,0,0,1-2.036,3.135,5.245,5.245,0,0,0-2.511,3.326" transform="translate(-54.334 -43.67)" fill="#796d78"/>
        <path id="Trazado_127500" data-name="Trazado 127500" d="M36.634,63.166a1.637,1.637,0,0,1,2.391-2.208.578.578,0,0,1,.079.522,2.587,2.587,0,0,1-1.9,1.794.675.675,0,0,1-.569-.108" transform="translate(-24.991 -41.675)" fill="#f9f7f7"/>
        <path id="Trazado_127501" data-name="Trazado 127501" d="M108.991,129.885a.346.346,0,0,1-.3-.4,8.284,8.284,0,0,0-.112-.942c-.041-.537-.269-.7-.8-.53a7.508,7.508,0,0,1-2.143.448,6.974,6.974,0,0,1-3.185-.738c-.135-.064-.277-.112-.415-.167-.024-.352-.043-.59.455-.329a6.074,6.074,0,0,0,5.956-.015c.339-.179.412-.113.435.241.033.5.123,1,.168,1.5a1.551,1.551,0,0,1-.057.932" transform="translate(-70.226 -87.5)" fill="#f0ba87"/>
        <path id="Trazado_127502" data-name="Trazado 127502" d="M37.356,64.076a2.285,2.285,0,0,0,2.391-2.208A1.5,1.5,0,0,1,40.3,63.51,1.561,1.561,0,0,1,39,64.749a1.523,1.523,0,0,1-1.649-.673" transform="translate(-25.713 -42.586)" fill="#eee7e5"/>
        <path id="Trazado_127503" data-name="Trazado 127503" d="M114.344,75.658a13.689,13.689,0,0,0-4.378-.618,8.168,8.168,0,0,1-4.572-1.711.827.827,0,0,1-.143-.2c2,1.289,4.263,1.454,6.552,1.523a3.529,3.529,0,0,1,2.541,1.006" transform="translate(-72.448 -50.337)" fill="#f0b987"/>
        <path id="Trazado_127504" data-name="Trazado 127504" d="M80.242,95.266a1.835,1.835,0,0,1-.784-2.947c.155-.13.346-.3.526-.242.207.065.082.32.092.488.027.451.012.9.039,1.355s.082.885.127,1.346" transform="translate(-54.362 -63.372)" fill="#efb986"/>
        <path id="Trazado_127505" data-name="Trazado 127505" d="M142.974,95.36a22.78,22.78,0,0,0,.193-2.991c.006-.284.11-.3.333-.193a1.393,1.393,0,0,1,.724,1.52,2.137,2.137,0,0,1-1.25,1.664" transform="translate(-98.414 -63.406)" fill="#efb886"/>
        <path id="Trazado_127506" data-name="Trazado 127506" d="M91.161,73.4a3.883,3.883,0,0,1-1.534,2.277,5.889,5.889,0,0,0-2.042,2.4,1.4,1.4,0,0,1-.146.2,3.018,3.018,0,0,1,1.452-2.651,7.58,7.58,0,0,0,2.27-2.221" transform="translate(-60.187 -50.526)" fill="#f0b987"/>
        <path id="Trazado_127507" data-name="Trazado 127507" d="M29.117,22.68a5.439,5.439,0,0,1-3.13-.594,3.737,3.737,0,0,1-1.507-1.578c-.1-.234-.326-.208-.508-.262a5.015,5.015,0,0,1-3.849-3.839A3.256,3.256,0,0,0,19.3,14.74a3.076,3.076,0,0,1-.533-3.258.754.754,0,1,1,1.435.459,2.133,2.133,0,0,0,.072,1.6.17.17,0,0,0,.161-.113,6.036,6.036,0,0,1,6.912-3.012.679.679,0,0,0,.746-.18,4.6,4.6,0,0,1,2.888-1.16,7.117,7.117,0,0,1,5.243,1.629,3.16,3.16,0,0,1,.393.39c.233.276.414.733.691.8s.663-.25,1.009-.371a11.892,11.892,0,0,1,3.784-.709,2.476,2.476,0,0,0-.544-.769.761.761,0,0,1,.025-1.121.747.747,0,0,1,1.11.124,8.348,8.348,0,0,1,1.163,1.578,1.1,1.1,0,0,0,.667.538,5.232,5.232,0,0,1,3.778,4.46,5.017,5.017,0,0,1-2.184,4.852,6.072,6.072,0,0,1-6.179.879.868.868,0,0,0-.531-.1,7.2,7.2,0,0,1-6.24-1.653c-.129-.1-.263-.19-.416-.3a4.189,4.189,0,0,1-3.634,3.373" transform="translate(-12.759 -6.014)"/>
        <path id="Trazado_127508" data-name="Trazado 127508" d="M60.013,73.435a.653.653,0,0,1,.467.853.684.684,0,0,1-.718.569.7.7,0,0,1-.746-.7,3.05,3.05,0,0,0,1-.726" transform="translate(-40.622 -50.548)" fill="#ede6e3"/>
        <path id="Trazado_127509" data-name="Trazado 127509" d="M60.013,73.32c-.209.413-.449.781-1,.726q.086-.978,1-.726" transform="translate(-40.622 -50.433)" fill="#f4f2f2"/>
        <path id="Trazado_127510" data-name="Trazado 127510" d="M110.944,109c.083,0,.218.007.352.017.549.04.877.341.857.787a.784.784,0,0,1-.914.723,3.568,3.568,0,0,0-1.627.248,3.968,3.968,0,0,0-1.006.659.768.768,0,0,1-1.158-.015.746.746,0,0,1,.157-1.109,4.794,4.794,0,0,1,3.339-1.31" transform="translate(-73.834 -75.028)"/>
        <path id="Trazado_127511" data-name="Trazado 127511" d="M109.871,100.812a1.891,1.891,0,0,1-1.092-.308.758.758,0,0,1-.321-.994.727.727,0,0,1,.976-.343,1,1,0,0,0,.906,0,.726.726,0,0,1,.978.333.747.747,0,0,1-.305,1,1.923,1.923,0,0,1-1.141.312" transform="translate(-74.601 -68.21)" fill="#010000"/>
        <path id="Trazado_127512" data-name="Trazado 127512" d="M101.029,89.766c0-.218-.015-.438,0-.655a.737.737,0,0,1,.766-.71.706.706,0,0,1,.729.692,11.152,11.152,0,0,1,0,1.411.74.74,0,0,1-.764.714.754.754,0,0,1-.735-.746c-.016-.234,0-.47,0-.706" transform="translate(-69.538 -60.848)"/>
        <path id="Trazado_127513" data-name="Trazado 127513" d="M120.45,89.793c0-.218-.013-.438,0-.655a.754.754,0,0,1,.736-.744.739.739,0,0,1,.763.714,11.153,11.153,0,0,1,0,1.411.707.707,0,0,1-.73.692.737.737,0,0,1-.764-.712c-.02-.234,0-.47,0-.706" transform="translate(-82.906 -60.844)"/>
        <path id="Trazado_127514" data-name="Trazado 127514" d="M80.437,23.567a9.732,9.732,0,0,0-.1-1.892c-.06-.248.052-.359.262-.453a10.127,10.127,0,0,1,4.688-.91.409.409,0,0,1,.424.323,5.394,5.394,0,0,1-3.21,6.819.485.485,0,0,1-.5-.1,3.193,3.193,0,0,1-1.555-2.717c-.014-.4,0-.805,0-1.071" transform="translate(-55.284 -13.974)" fill="#f9f7f7"/>
        <path id="Trazado_127515" data-name="Trazado 127515" d="M56.051,20.167a15.039,15.039,0,0,0-1.226-2.808,5.855,5.855,0,0,0-1.545-1.839c-.3-.22-.237-.318.046-.463a5.02,5.02,0,0,1,4.056-.119,4.036,4.036,0,0,1,2.17,1.554c.1.152.226.285,0,.46A36.415,36.415,0,0,0,56.2,20.081a.774.774,0,0,1-.146.086" transform="translate(-36.538 -10.029)" fill="#f9f7f7"/>
        <path id="Trazado_127516" data-name="Trazado 127516" d="M96.484,22.429A3.582,3.582,0,0,1,97.821,27.6a4.7,4.7,0,0,1-4.108,2.134c-.079,0-.17.014-.222-.076,2.835-2.654,3.2-3.543,2.994-7.226" transform="translate(-64.352 -15.439)" fill="#f9f7f7"/>
        <path id="Trazado_127517" data-name="Trazado 127517" d="M37.011,23.823a4.548,4.548,0,0,0-4.187-.223,3.171,3.171,0,0,0-2.132,3.006c-.022.468-.146.481-.507.291a3.539,3.539,0,0,1-2.012-2.589,6.878,6.878,0,0,0,4.533-1.284,7.905,7.905,0,0,0,1.928-1.832c.225-.306.365-.262.614-.054a6.884,6.884,0,0,1,1.763,2.686" transform="translate(-19.392 -14.435)" fill="#f9f7f7"/>
        <path id="Trazado_127518" data-name="Trazado 127518" d="M68.435,26.882c.08,1.034-.027,1.988.1,2.937a4.781,4.781,0,0,0,1.244,2.6,7.991,7.991,0,0,1-4.649-2.372c1.09-1.038,2.09-2.146,3.3-3.161" transform="translate(-44.832 -18.504)" fill="#f9f7f7"/>
        <path id="Trazado_127519" data-name="Trazado 127519" d="M41.806,35.662c-.771.015-.8-.017-.773-.661.061-1.23.636-1.785,2.235-2.04a3.466,3.466,0,0,1,2.769,1.067c.268.218.007.268-.1.344a6.875,6.875,0,0,1-3.259,1.207c-.333.038-.668.064-.871.084" transform="translate(-28.24 -22.666)" fill="#f9f7f7"/>
        <path id="Trazado_127520" data-name="Trazado 127520" d="M33.892,18.474A6.272,6.272,0,0,1,29.361,21c-.174.009-.42.092-.513-.068-.11-.189.088-.376.191-.536a4.387,4.387,0,0,1,3.321-2.011,3.857,3.857,0,0,1,1.532.09" transform="translate(-19.835 -12.628)" fill="#f9f7f7"/>
        <path id="Trazado_127521" data-name="Trazado 127521" d="M43.653,43.23a9.125,9.125,0,0,0,4.86-1.512,2.182,2.182,0,0,1-1.489,1.891,3.358,3.358,0,0,1-3.371-.379" transform="translate(-30.048 -28.716)" fill="#f8f6f6"/>
      </g>
    </g>
  </g>
</svg>
