<svg xmlns="http://www.w3.org/2000/svg" xmlns:xlink="http://www.w3.org/1999/xlink" width="108" height="131" viewBox="0 0 108 131">
  <defs>
    <clipPath id="clip-path">
      <rect id="Rectángulo_37229" data-name="Rectángulo 37229" width="71.892" height="81.685" fill="none"/>
    </clipPath>
    <clipPath id="clip-path-2">
      <rect id="Rectángulo_37228" data-name="Rectángulo 37228" width="18.279" height="16.235" fill="none"/>
    </clipPath>
  </defs>
  <g id="_40" data-name="40" transform="translate(-363 -1421)">
    <g id="Grupo_156725" data-name="Grupo 156725" transform="translate(193 -302)">
      <g id="Grupo_156723" data-name="Grupo 156723" transform="translate(170 1723)">
        <rect id="Rectángulo_36766" data-name="Rectángulo 36766" width="108" height="131" rx="12" fill="#1169e3"/>
      </g>
      <g id="Grupo_156739" data-name="Grupo 156739" transform="translate(2.139 -0.256)">
        <g id="Grupo_156735" data-name="Grupo 156735" transform="translate(174.861 1741.257)">
          <path id="Trazado_126894" data-name="Trazado 126894" d="M16.7,126.306c-.7.156-.863-.174-.856-.828.018-1.639-.01-1.668-1.707-1.658-.631,0-.828-.192-.815-.817.012-.582.118-.853.79-.85,1.7.006,1.745-.028,1.727-1.726-.008-.768.369-.783.939-.789s.865.089.865.772c0,1.72.035,1.751,1.715,1.744.65,0,.8.232.805.835s-.152.835-.8.831c-1.713-.01-1.754.022-1.716,1.645.018.753-.26.974-.943.841" transform="translate(-13.318 -64.386)" fill="#29c4bb"/>
          <path id="Trazado_126895" data-name="Trazado 126895" d="M214.537,151.172c.627-.12.974.088.871.8-.086.594.119.925.776.823s.879.136.884.828c.005.725-.291.893-.909.809-.591-.08-.778.177-.766.765.019.92-.551,1.274-1.442,1-.423-.132-.33-.47-.3-.736.074-.728-.092-1.173-.951-1.027-.664.113-.705-.3-.7-.814s.022-.923.7-.818c.727.112,1.071-.153.95-.921-.115-.734.355-.766.9-.7" transform="translate(-123.762 -79.668)" fill="#29c4bb"/>
          <path id="Trazado_126896" data-name="Trazado 126896" d="M212.491,70.155c.162.7-.158.939-.814.828-.71-.12-1,.172-.874.877.121.683-.174.846-.836.852-.683.006-.94-.2-.821-.86.127-.708-.168-1-.871-.867-.728.137-.792-.244-.819-.857-.032-.719.247-.907.873-.8.681.119.935-.163.819-.828-.111-.636.095-.894.8-.868.625.022.986.111.852.827s.177.986.875.868c.656-.11.975.125.812.824" transform="translate(-120.908 -40.273)" fill="#010000"/>
          <path id="Trazado_126897" data-name="Trazado 126897" d="M56.81,187.537c.153.653-.169.892-.821.774-.766-.139-.947.26-.837.905.122.718-.226.829-.856.825-.6,0-.926-.14-.8-.789.166-.853-.26-1.062-.995-.936-.754.129-.718-.347-.721-.863,0-.5.011-.924.691-.79.916.181,1.15-.259,1.026-1.078-.118-.784.479-.559.878-.582.423-.025.894-.08.77.6-.152.841.143,1.231,1.033,1.06.743-.143.652.376.63.873" transform="translate(-34.699 -95.677)" fill="#010000"/>
          <path id="Trazado_126898" data-name="Trazado 126898" d="M121.8,18.3c-.175-.745.237-.89.846-.8.633.094.882-.168.786-.792s.089-.907.806-.892c.659.013.961.184.846.861-.117.695.2.92.854.822.6-.09.905.054.909.791,0,.755-.281.957-.938.852-.695-.111-.93.206-.823.854.121.728-.27.811-.882.824-.654.013-.868-.233-.771-.833.105-.658-.138-.959-.825-.844-.67.112-.957-.164-.807-.845" transform="translate(-73.6 -15.816)" fill="#29c4bb"/>
        </g>
        <g id="Grupo_156751" data-name="Grupo 156751" transform="translate(185.861 1748.256)">
          <g id="Grupo_156751-2" data-name="Grupo 156751" clip-path="url(#clip-path)">
            <path id="Trazado_127702" data-name="Trazado 127702" d="M3.6,55.637c-.189-.721.121-1.11.8-1.337a4.371,4.371,0,0,1,2.694-.048c.1-.723.024-1.417.181-2.1a6.63,6.63,0,0,1,3.058-4.315c.965-.6,1.953-1.161,2.947-1.711a2.163,2.163,0,0,1,3.14.835q.807,1.314,1.539,2.671c.206.379.365.5.778.224a21.081,21.081,0,0,1,2.247-1.3c.473-.235.422-.449.236-.862a15.952,15.952,0,0,1,.016-13.746c.172-.376.224-.584-.215-.808-.795-.4-1.565-.861-2.318-1.337-.368-.232-.525-.152-.719.2-.491.9-1.008,1.791-1.541,2.67a2.173,2.173,0,0,1-3.195.85c-.853-.468-1.69-.965-2.533-1.454a6.661,6.661,0,0,1-3.576-6.206c0-.107,0-.215-.009-.323,0-.025-.022-.049-.056-.12-2.27.723-3.977-.552-5.6-1.789a4.028,4.028,0,0,1-.8-5.361,4.135,4.135,0,0,1,5.2-1.59,17.881,17.881,0,0,1,2.456,1.415,4.146,4.146,0,0,1,1.6,2.481,6.879,6.879,0,0,1,7.913-.012c.732.461,1.509.85,2.243,1.307a2.173,2.173,0,0,1,.818,3.088c-.489.9-1.007,1.792-1.545,2.668-.23.374-.243.582.195.807.769.394,1.518.833,2.249,1.3.384.243.57.174.829-.191a16.132,16.132,0,0,1,10.526-6.736c.08-.015.16-.037.239-.048.561-.074,1.409.046,1.616-.263.292-.439.126-1.193.129-1.812.009-1.832,0-1.831-1.843-1.833-.7,0-1.412.021-2.114-.022a1.977,1.977,0,0,1-1.9-1.7,17.227,17.227,0,0,1,.118-5.342A6.676,6.676,0,0,1,33.2,9.17c-1.624-1.385-1.517-3.251-1.44-5.094a4.209,4.209,0,0,1,3.9-4.067,4.083,4.083,0,0,1,4.407,3.566c.246,1.966.392,3.987-1.346,5.6.229.122.407.2.574.306a6.672,6.672,0,0,1,3.41,5.658c.052,1.136.05,2.278.013,3.416a2.175,2.175,0,0,1-2.375,2.3c-.949.013-1.9.05-2.847-.013-.646-.044-.776.19-.738.774a18.9,18.9,0,0,1,0,2.358c-.029.493.125.626.61.67a16.056,16.056,0,0,1,9.559,4.2,13.318,13.318,0,0,1,2.3,2.626c.319.5.575.485,1.02.2.7-.453,1.441-.859,2.177-1.26.338-.184.39-.35.18-.691-.525-.851-1.014-1.725-1.5-2.6a2.223,2.223,0,0,1,.857-3.324c.44-.267.906-.489,1.333-.775a.99.99,0,0,1,1.386.121c.375.584.148,1.023-.344,1.386-.263.193-.566.32-.845.487-1.091.654-1.123.7-.453,1.815,1.005,1.672,1.933,3.389,2.94,5.059.336.557.631,1.137.98,1.687.215.34.483.552.87.317a18.281,18.281,0,0,0,3.562-2.247,4.9,4.9,0,0,0-1.284-8.03,2.294,2.294,0,0,1-.575-.3c-.3-.277-.607-.569-.257-1.018a.956.956,0,0,1,1.432-.415c.409.209.814.426,1.313.688.375-2.036,2.033-2.844,3.634-3.7a4.188,4.188,0,0,1,4.188,7.254c-.275.172-.56.329-.841.491a4.794,4.794,0,0,1-4.183.857,17.929,17.929,0,0,1-.176,2.083,6.576,6.576,0,0,1-2.107,3.576,20.984,20.984,0,0,1-4.29,2.6,2.057,2.057,0,0,1-2.673-.906c-.574-.917-1.1-1.861-1.628-2.807-.187-.339-.328-.463-.713-.217-.774.495-1.577.949-2.39,1.376-.361.19-.345.367-.195.691a15.92,15.92,0,0,1-.007,13.96c-.126.273-.18.459.152.64q1.282.7,2.529,1.461c.343.209.444.034.591-.224.505-.894,1.018-1.785,1.549-2.665a2.166,2.166,0,0,1,3.243-.878c.947.522,1.89,1.053,2.809,1.624a6.479,6.479,0,0,1,3.262,5.8c0,.561.132.705.655.544a2.391,2.391,0,0,1,1.6.04c2.064.833,4.217,1.6,4.769,4.159a4.13,4.13,0,0,1-5.329,4.8,8.2,8.2,0,0,1-3.658-2.321,5.93,5.93,0,0,1-.838-1.7,6.606,6.606,0,0,1-6.563.672,31.222,31.222,0,0,1-3.741-2.107,2.107,2.107,0,0,1-.659-2.936q.753-1.391,1.583-2.739c.225-.365.191-.544-.192-.747-.788-.418-1.569-.856-2.318-1.337-.382-.245-.542-.124-.769.193a16.063,16.063,0,0,1-11.885,6.922c-.5.052-.691.178-.658.711a19.432,19.432,0,0,1,0,2.438c-.036.564.183.67.689.654q1.584-.05,3.172,0A2,2,0,0,1,42.64,62.6a17.46,17.46,0,0,1-.1,5.184A6.661,6.661,0,0,1,38.748,72.5c1.8,1.775,1.619,3.97,1.219,6.116a4.05,4.05,0,0,1-4.173,3.067,4.114,4.114,0,0,1-3.91-3.3,8.593,8.593,0,0,1,.152-4.179,4.539,4.539,0,0,1,1.128-1.693,6.987,6.987,0,0,1-3.984-6.984c.029-.785-.018-1.573.01-2.358a2.191,2.191,0,0,1,2.424-2.336c.976-.01,1.952-.021,2.928.006.432.012.632-.074.611-.566-.039-.893-.032-1.789,0-2.683.013-.389-.108-.493-.488-.53a16.084,16.084,0,0,1-12.091-7.009c-.225-.32-.4-.323-.72-.125-.758.471-1.534.914-2.322,1.332-.374.2-.434.37-.2.743.517.824.988,1.677,1.467,2.524A2.216,2.216,0,0,1,19.92,57.9c-1.551.861-2.973,1.986-4.785,2.33a6.927,6.927,0,0,1-5.214-1.143c-.428,2.141-2.171,2.973-3.849,3.826a4.156,4.156,0,0,1-5.8-2.328C.041,59.93.141,59.476.813,59.21c.745-.286.947.31,1.194.768a2.291,2.291,0,0,0,2.48,1.452,5,5,0,0,0,3.3-2.044,2.211,2.211,0,0,0-.09-2.455,2.275,2.275,0,0,0-2.421-.947c-.6.132-1.276.529-1.676-.347" transform="translate(0 0)"/>
            <path id="Trazado_127703" data-name="Trazado 127703" d="M85.864,33.558a1.087,1.087,0,0,0,.787,1.092,4.871,4.871,0,0,1,3.074,4.319,4.954,4.954,0,0,1-2.6,4.866c-.831.5-1.693.959-2.519,1.47-.522.323-.884.265-1.2-.282q-2.133-3.728-4.293-7.441a.728.728,0,0,1,.349-1.18c.384-.2.739-.452,1.128-.638a1.054,1.054,0,0,0,.681-1.366l1.417-.68c.894.521.894.521,1.64-.3a4.1,4.1,0,0,1,1.536.14" transform="translate(-26.605 -11.256)" fill="#fb5d3d"/>
            <path id="Trazado_127704" data-name="Trazado 127704" d="M4.01,83.92a1.115,1.115,0,0,0,1.25.245,2.545,2.545,0,0,1,3.307,1.366,2.581,2.581,0,0,1-1.23,3.31c-.44.263-.88.528-1.33.773a2.546,2.546,0,0,1-3.79-1.328,1.039,1.039,0,0,0-.991-.792C1.263,85.609,2.5,84.659,4.01,83.92" transform="translate(-0.413 -28.283)" fill="#fdb59e"/>
            <path id="Trazado_127705" data-name="Trazado 127705" d="M86.233,33.07a.87.87,0,0,1-.691.888.833.833,0,0,1-.949-.588c0-.464.1-.871.629-.983.56-.118.823.235,1.011.683" transform="translate(-28.51 -10.908)" fill="#050302"/>
            <path id="Trazado_127706" data-name="Trazado 127706" d="M32.144,54.142a14.644,14.644,0,1,1,14.6,14.664,14.665,14.665,0,0,1-14.6-14.664" transform="translate(-10.833 -13.319)" fill="#72c1e8"/>
            <path id="Trazado_127707" data-name="Trazado 127707" d="M51.587,24.434c-1.381,0-2.763-.025-4.143.011-.691.018-1.007-.225-.987-.929.032-1.136-.037-2.28.067-3.408a5.105,5.105,0,0,1,10.169-.034c.109,1.183.052,2.38.065,3.571.007.579-.286.806-.865.8-1.435-.023-2.871-.007-4.306-.007" transform="translate(-15.657 -5.205)" fill="#fb5d3d"/>
            <path id="Trazado_127708" data-name="Trazado 127708" d="M51.617,94.2c1.435,0,2.871.016,4.306-.008.6-.01.849.259.839.821-.021,1.218.075,2.438-.066,3.653a5.074,5.074,0,0,1-5.084,4.524,5.023,5.023,0,0,1-5.066-4.531c-.117-1.208-.061-2.433-.079-3.651-.009-.566.249-.827.843-.817,1.435.024,2.871.008,4.306.008" transform="translate(-15.661 -31.746)" fill="#fb5d3d"/>
            <path id="Trazado_127709" data-name="Trazado 127709" d="M13.217,39.711a5.107,5.107,0,0,1,7.349-4.552c1.043.51,2.022,1.152,3.036,1.722a.685.685,0,0,1,.264,1.085q-2.172,3.763-4.34,7.529a.681.681,0,0,1-1.081.274c-.977-.581-1.983-1.115-2.939-1.728a5,5,0,0,1-2.29-4.331" transform="translate(-4.454 -11.672)" fill="#fb5d3d"/>
            <path id="Trazado_127710" data-name="Trazado 127710" d="M18.5,82.837a5.238,5.238,0,0,1-5.072-3.584,5.114,5.114,0,0,1,2.024-5.8c.974-.634,2.009-1.175,3.009-1.769a.679.679,0,0,1,1.07.307q2.165,3.767,4.339,7.529c.192.335.284.722-.1.932-1.533.841-2.908,2.009-4.7,2.32-.239.042-.484.053-.569.061" transform="translate(-4.445 -24.11)" fill="#fb5d3d"/>
            <path id="Trazado_127711" data-name="Trazado 127711" d="M89.751,77.064c-.032,4.443-3.967,6.9-7.356,5.242-1.044-.509-2.022-1.151-3.037-1.721a.681.681,0,0,1-.264-1.083q2.177-3.76,4.343-7.527a.682.682,0,0,1,1.08-.279c.978.581,1.993,1.1,2.938,1.732a4.738,4.738,0,0,1,2.3,3.636" transform="translate(-26.602 -24.11)" fill="#fb5d3d"/>
            <path id="Trazado_127712" data-name="Trazado 127712" d="M55.461,5.951a8.719,8.719,0,0,1-.009,1.214,2.563,2.563,0,0,1-5.1-.107,12.949,12.949,0,0,1,0-2.267,2.566,2.566,0,0,1,2.566-2.334A2.6,2.6,0,0,1,55.477,4.9c.029.349,0,.7,0,1.053h-.021" transform="translate(-16.954 -0.828)" fill="#fdb59e"/>
            <path id="Trazado_127713" data-name="Trazado 127713" d="M55.488,113.727c0,.324.017.65,0,.973a2.572,2.572,0,0,1-5.143.005,18.664,18.664,0,0,1,0-1.945,2.572,2.572,0,0,1,5.142-.005c.021.323,0,.648,0,.973" transform="translate(-16.958 -37.153)" fill="#fdb59e"/>
            <path id="Trazado_127714" data-name="Trazado 127714" d="M5.369,30.134a6.129,6.129,0,0,1,3.442,2.149,2.45,2.45,0,0,1-.2,2.942,2.506,2.506,0,0,1-2.93.729A14.448,14.448,0,0,1,3.511,34.7a2.5,2.5,0,0,1-.876-2.891,2.665,2.665,0,0,1,2.734-1.679" transform="translate(-0.838 -10.156)" fill="#fdb59e"/>
            <path id="Trazado_127715" data-name="Trazado 127715" d="M99.678,90.016a6.151,6.151,0,0,1-3.449-2.16,2.447,2.447,0,0,1,.2-2.942,2.513,2.513,0,0,1,2.933-.719,14.488,14.488,0,0,1,2.17,1.25,2.51,2.51,0,0,1,.87,2.894,2.674,2.674,0,0,1-2.727,1.677" transform="translate(-32.296 -28.305)" fill="#fdb59e"/>
            <path id="Trazado_127716" data-name="Trazado 127716" d="M99.69,30.13a2.655,2.655,0,0,1,2.722,1.71,2.5,2.5,0,0,1-.906,2.881,14.969,14.969,0,0,1-2.1,1.208,2.5,2.5,0,0,1-2.944-.665,2.44,2.44,0,0,1-.214-3.005A6.072,6.072,0,0,1,99.69,30.13" transform="translate(-32.295 -10.155)" fill="#fdb59e"/>
            <path id="Trazado_127717" data-name="Trazado 127717" d="M48.057,58.028c1.855-1.87,3.625-3.664,5.407-5.446a2.72,2.72,0,0,1,2.989-.689,2.692,2.692,0,0,1,1.884,2.419A2.724,2.724,0,0,1,57.5,56.6c-2.449,2.459-4.892,4.925-7.366,7.358A2.8,2.8,0,0,1,46,63.908q-1.775-1.733-3.508-3.508a2.846,2.846,0,1,1,4.018-4.024c.522.51,1,1.065,1.551,1.652" transform="translate(-14.006 -17.428)"/>
            <path id="Trazado_127718" data-name="Trazado 127718" d="M64.2,56.707A13.035,13.035,0,0,1,52.958,69.684a13.429,13.429,0,0,1-6.895-.906c-.5-.192-1.065-.459-.819-1.172.2-.593.715-.678,1.51-.319a11.373,11.373,0,0,0,12.2-2.19,11.162,11.162,0,0,0,3.606-8.627,10.776,10.776,0,0,0-2.934-7.27c-.111-.119-.235-.227-.335-.354-.343-.437-.437-.862.053-1.275s.886-.179,1.212.171a13.077,13.077,0,0,1,3.489,7.082,8.591,8.591,0,0,1,.158,1.882" transform="translate(-15.228 -15.961)" fill="#c4e4fd"/>
            <path id="Trazado_127719" data-name="Trazado 127719" d="M42.289,74.856a.7.7,0,0,1-.7.811c-.524.037-1.592-.92-1.567-1.431a.809.809,0,0,1,.825-.826c.532-.029,1.441.912,1.446,1.445" transform="translate(-13.487 -24.741)" fill="#c3e4fd"/>
            <path id="Trazado_127720" data-name="Trazado 127720" d="M48.929,64.006a1.12,1.12,0,0,1-.937-.4c-1.168-1.17-2.347-2.33-3.505-3.51a1.187,1.187,0,0,1-.1-1.8,1.232,1.232,0,0,1,1.809.076c.647.617,1.265,1.265,1.9,1.891.68.668.959.675,1.629.009q2.769-2.752,5.52-5.521a1.425,1.425,0,0,1,1.294-.522,1.117,1.117,0,0,1,.935.795,1.16,1.16,0,0,1-.319,1.263c-.8.811-1.606,1.614-2.411,2.419q-2.386,2.387-4.772,4.773a1.28,1.28,0,0,1-1.048.522" transform="translate(-14.836 -18.272)" fill="#13be6d"/>
          </g>
        </g>
      </g>
    </g>
    <g id="Grupo_156743" data-name="Grupo 156743" transform="translate(-4 3)">
      <path id="Trazado_127700" data-name="Trazado 127700" d="M15,0A15,15,0,1,1,0,15,15,15,0,0,1,15,0Z" transform="translate(433 1505)" fill="#fee734"/>
      <g id="Grupo_156742" data-name="Grupo 156742" transform="translate(439 1512)">
        <g id="Grupo_156741" data-name="Grupo 156741" transform="translate(0 0)" clip-path="url(#clip-path-2)">
          <path id="Trazado_127699" data-name="Trazado 127699" d="M5.12,8.859c2.616-2.62,5.2-5.2,7.775-7.8A3.071,3.071,0,0,1,15.859.074a3.038,3.038,0,0,1,1.6,5.048c-.684.746-1.424,1.441-2.139,2.157q-3.9,3.9-7.795,7.794a3.118,3.118,0,0,1-4.851.005c-.549-.548-1.1-1.093-1.643-1.644A3.033,3.033,0,0,1,.685,9.243,3.086,3.086,0,0,1,4.87,8.7c.065.042.131.082.25.156M3.049,10a4.08,4.08,0,0,0-.87.735.891.891,0,0,0,.177,1.146c.58.6,1.175,1.183,1.765,1.771.744.74,1.206.739,1.959-.015q4.8-4.8,9.6-9.6a3.187,3.187,0,0,0,.4-.442.979.979,0,0,0-.139-1.3,1,1,0,0,0-1.307-.06,3.928,3.928,0,0,0-.389.368L6.157,10.684c-.867.866-1.244.857-2.131.01a8.706,8.706,0,0,0-.977-.7" transform="translate(0 0)"/>
        </g>
      </g>
    </g>
  </g>
</svg>
