<svg xmlns="http://www.w3.org/2000/svg" xmlns:xlink="http://www.w3.org/1999/xlink" width="250" height="192" viewBox="0 0 250 192">
  <defs>
    <clipPath id="clip-path">
      <rect id="Rectángulo_37243" data-name="Rectángulo 37243" width="195.596" height="158.132" fill="none"/>
    </clipPath>
  </defs>
  <g id="_58" data-name="58" transform="translate(-518 -7057)">
    <rect id="Rectángulo_37247" data-name="Rectángulo 37247" width="250" height="192" transform="translate(518 7057)" fill="none"/>
    <g id="Grupo_156784" data-name="Grupo 156784" transform="translate(545 7074)">
      <rect id="Rectángulo_37241" data-name="Rectángulo 37241" width="55.773" height="86.646" transform="translate(139.823 21.691)" fill="#454545"/>
      <g id="Grupo_156783" data-name="Grupo 156783">
        <g id="Grupo_156782" data-name="Grupo 156782" clip-path="url(#clip-path)">
          <path id="Trazado_128175" data-name="Trazado 128175" d="M219.88,74.427H195.274a3.035,3.035,0,0,1-3.032-3.032V70.028A3.035,3.035,0,0,1,195.274,67H219.88a3.036,3.036,0,0,1,3.033,3.033v1.367a3.035,3.035,0,0,1-3.033,3.032m-24.606-6.639a2.242,2.242,0,0,0-2.239,2.24v1.367a2.241,2.241,0,0,0,2.239,2.239H219.88a2.242,2.242,0,0,0,2.24-2.239V70.028a2.243,2.243,0,0,0-2.24-2.24Z" transform="translate(-39.867 -13.893)" fill="#fff"/>
          <path id="Trazado_128176" data-name="Trazado 128176" d="M211.413,49.843h-1.3a2.5,2.5,0,0,1-2.5-2.5V45.706a2.5,2.5,0,0,1,2.5-2.5h1.3a2.5,2.5,0,0,1,2.5,2.5V47.34a2.5,2.5,0,0,1-2.5,2.5" transform="translate(-43.054 -8.959)" fill="#fff"/>
          <path id="Trazado_128177" data-name="Trazado 128177" d="M220.8,84.542H195.569a.4.4,0,1,1,0-.793H220.8a.4.4,0,1,1,0,.793" transform="translate(-40.475 -17.368)" fill="#fff"/>
          <path id="Trazado_128178" data-name="Trazado 128178" d="M220.8,92.918H195.569a.4.4,0,1,1,0-.793H220.8a.4.4,0,1,1,0,.793" transform="translate(-40.475 -19.105)" fill="#fff"/>
          <path id="Trazado_128179" data-name="Trazado 128179" d="M220.8,101.295H195.569a.4.4,0,1,1,0-.793H220.8a.4.4,0,1,1,0,.793" transform="translate(-40.475 -20.842)" fill="#fff"/>
          <path id="Trazado_128180" data-name="Trazado 128180" d="M202.058,115.091a.4.4,0,0,1,0-.793L217,114.244h0a.4.4,0,0,1,0,.793l-14.943.055Z" transform="translate(-41.82 -23.692)" fill="#919191"/>
          <rect id="Rectángulo_37242" data-name="Rectángulo 37242" width="57.1" height="72.592" transform="translate(73.418 18.059)" fill="#fff"/>
          <path id="Trazado_128181" data-name="Trazado 128181" d="M149.622,32.012a.41.41,0,0,1-.411-.4.383.383,0,0,1,.38-.4h.031a.4.4,0,1,1,0,.793m-1.616,0h-1.585a.4.4,0,1,1,0-.793h1.585a.4.4,0,0,1,0,.793m-3.171,0H143.25a.4.4,0,0,1,0-.793h1.585a.4.4,0,1,1,0,.793m-3.17,0H140.08a.4.4,0,0,1,0-.793h1.585a.4.4,0,1,1,0,.793m-3.17,0h-1.585a.4.4,0,1,1,0-.793h1.585a.4.4,0,1,1,0,.793m-3.17,0h-1.585a.4.4,0,0,1,0-.793h1.585a.4.4,0,0,1,0,.793m-3.171,0h-1.585a.4.4,0,1,1,0-.793h1.585a.4.4,0,1,1,0,.793m-3.17,0H127.4a.4.4,0,0,1,0-.793h1.585a.4.4,0,1,1,0,.793m-3.17,0h-1.585a.4.4,0,0,1,0-.793h1.585a.4.4,0,1,1,0,.793m-3.17,0h-1.585a.4.4,0,0,1,0-.793h1.585a.4.4,0,0,1,0,.793m-3.17,0h-1.585a.4.4,0,1,1,0-.793h1.585a.4.4,0,0,1,0,.793m-3.17,0h-1.585a.4.4,0,0,1,0-.793H116.3a.4.4,0,1,1,0,.793m-3.17,0h-1.585a.4.4,0,0,1,0-.793h1.585a.4.4,0,0,1,0,.793m-3.17,0h-1.585a.4.4,0,0,1,0-.793h1.585a.4.4,0,0,1,0,.793m-3.17,0h-1.585a.4.4,0,1,1,0-.793h1.585a.4.4,0,0,1,0,.793m-3.17,0h-1.585a.4.4,0,0,1,0-.793h1.585a.4.4,0,1,1,0,.793m-3.17,0H98.864a.4.4,0,0,1,0-.793h1.585a.4.4,0,0,1,0,.793m-3.17,0H95.694a.4.4,0,0,1,0-.793h1.585a.4.4,0,0,1,0,.793m-3.17,0H92.523a.4.4,0,1,1,0-.793h1.585a.4.4,0,0,1,0,.793" transform="translate(-19.105 -6.474)" fill="#a8a8a8"/>
          <path id="Trazado_128182" data-name="Trazado 128182" d="M143.086,39.551H103.691a.4.4,0,1,1,0-.793h39.395a.4.4,0,1,1,0,.793" transform="translate(-21.421 -8.038)" fill="#454545"/>
          <path id="Trazado_128183" data-name="Trazado 128183" d="M128.811,50.441h-25.12a.4.4,0,0,1,0-.793h25.12a.4.4,0,0,1,0,.793" transform="translate(-21.421 -10.296)" fill="#a8a8a8"/>
          <path id="Trazado_128184" data-name="Trazado 128184" d="M122.5,57.979H103.691a.4.4,0,1,1,0-.793H122.5a.4.4,0,1,1,0,.793" transform="translate(-21.421 -11.859)" fill="#a8a8a8"/>
          <path id="Trazado_128185" data-name="Trazado 128185" d="M128.811,65.518h-25.12a.4.4,0,0,1,0-.793h25.12a.4.4,0,0,1,0,.793" transform="translate(-21.421 -13.423)" fill="#a8a8a8"/>
          <path id="Trazado_128186" data-name="Trazado 128186" d="M115.864,73.057H103.691a.4.4,0,1,1,0-.793h12.172a.4.4,0,1,1,0,.793" transform="translate(-21.421 -14.986)" fill="#a8a8a8"/>
          <path id="Trazado_128187" data-name="Trazado 128187" d="M125.824,80.6H103.692a.4.4,0,1,1,0-.793h22.132a.4.4,0,1,1,0,.793" transform="translate(-21.421 -16.55)" fill="#a8a8a8"/>
          <path id="Trazado_128188" data-name="Trazado 128188" d="M151.83,50.441h-5.976a.4.4,0,1,1,0-.793h5.976a.4.4,0,0,1,0,.793" transform="translate(-30.165 -10.296)" fill="#a8a8a8"/>
          <path id="Trazado_128189" data-name="Trazado 128189" d="M151.83,57.979h-5.976a.4.4,0,1,1,0-.793h5.976a.4.4,0,0,1,0,.793" transform="translate(-30.165 -11.859)" fill="#a8a8a8"/>
          <path id="Trazado_128190" data-name="Trazado 128190" d="M151.83,65.518h-5.976a.4.4,0,1,1,0-.793h5.976a.4.4,0,0,1,0,.793" transform="translate(-30.165 -13.423)" fill="#a8a8a8"/>
          <path id="Trazado_128191" data-name="Trazado 128191" d="M151.83,73.057h-5.976a.4.4,0,1,1,0-.793h5.976a.4.4,0,0,1,0,.793" transform="translate(-30.165 -14.986)" fill="#a8a8a8"/>
          <path id="Trazado_128192" data-name="Trazado 128192" d="M151.83,80.6h-5.976a.4.4,0,1,1,0-.793h5.976a.4.4,0,0,1,0,.793" transform="translate(-30.165 -16.55)" fill="#a8a8a8"/>
          <path id="Trazado_128193" data-name="Trazado 128193" d="M149.622,100.142a.41.41,0,0,1-.411-.4.383.383,0,0,1,.38-.4h.031a.4.4,0,1,1,0,.793m-1.616,0h-1.585a.4.4,0,1,1,0-.793h1.585a.4.4,0,0,1,0,.793m-3.171,0H143.25a.4.4,0,0,1,0-.793h1.585a.4.4,0,1,1,0,.793m-3.17,0H140.08a.4.4,0,0,1,0-.793h1.585a.4.4,0,1,1,0,.793m-3.17,0h-1.585a.4.4,0,0,1,0-.793h1.585a.4.4,0,1,1,0,.793m-3.17,0h-1.585a.4.4,0,0,1,0-.793h1.585a.4.4,0,0,1,0,.793m-3.171,0h-1.585a.4.4,0,0,1,0-.793h1.585a.4.4,0,0,1,0,.793m-3.17,0H127.4a.4.4,0,0,1,0-.793h1.585a.4.4,0,1,1,0,.793m-3.17,0h-1.585a.4.4,0,0,1,0-.793h1.585a.4.4,0,1,1,0,.793m-3.17,0h-1.585a.4.4,0,0,1,0-.793h1.585a.4.4,0,0,1,0,.793m-3.17,0h-1.585a.4.4,0,0,1,0-.793h1.585a.4.4,0,0,1,0,.793m-3.17,0h-1.585a.4.4,0,0,1,0-.793H116.3a.4.4,0,0,1,0,.793m-3.17,0h-1.585a.4.4,0,0,1,0-.793h1.585a.4.4,0,0,1,0,.793m-3.17,0h-1.585a.4.4,0,0,1,0-.793h1.585a.4.4,0,0,1,0,.793m-3.17,0h-1.585a.4.4,0,0,1,0-.793h1.585a.4.4,0,0,1,0,.793m-3.17,0h-1.585a.4.4,0,0,1,0-.793h1.585a.4.4,0,0,1,0,.793m-3.17,0H98.864a.4.4,0,0,1,0-.793h1.585a.4.4,0,0,1,0,.793m-3.17,0H95.694a.4.4,0,0,1,0-.793h1.585a.4.4,0,0,1,0,.793m-3.17,0H92.523a.4.4,0,1,1,0-.793h1.585a.4.4,0,0,1,0,.793" transform="translate(-19.105 -20.603)" fill="#a8a8a8"/>
          <path id="Trazado_128194" data-name="Trazado 128194" d="M96.87,115.808l3.48,1.944,3.476-1.944,3.474,1.944,3.474-1.944,3.475,1.944,3.475-1.944,3.475,1.944,3.473-1.944,3.471,1.944,3.474-1.944,3.47,1.944,3.472-1.944,3.469,1.944,3.472-1.944,4.233,1.571v-5.338H92.627v5.341Z" transform="translate(-19.209 -23.235)" fill="#fff"/>
          <path id="Trazado_128195" data-name="Trazado 128195" d="M131.811,107.245a12.262,12.262,0,0,1-2.566-.293,4.617,4.617,0,0,1-2.5-1.285,8.984,8.984,0,0,1-3.308,1.038,4.158,4.158,0,0,1-1.875-.887c-.985-.643-2.212-1.443-3.138-1.177a15.119,15.119,0,0,0-1.793.687,10.493,10.493,0,0,1-4.206,1.12,3.23,3.23,0,0,1-2.934-1.689c-1.426,1.561-4.18,3.408-6.767,1.619a2.067,2.067,0,0,1-.836-1.233c-1.676.769-3.007,1.229-3.164,1.282l-.255-.75a33.5,33.5,0,0,0,3.334-1.367,5.86,5.86,0,0,1,.388-1.84c1.068-2.936,4.181-6.568,6.03-6.4.388.036,1.068.273,1.267,1.462.506,3.031-3.577,5.662-6.862,7.26a1.348,1.348,0,0,0,.55.93c2.977,2.06,5.991-1.8,6.118-1.963l.5-.652.2.8a2.44,2.44,0,0,0,2.433,1.748,9.728,9.728,0,0,0,3.893-1.055,15.855,15.855,0,0,1,1.888-.722c1.276-.361,2.669.545,3.789,1.275a4.546,4.546,0,0,0,1.442.759,8.074,8.074,0,0,0,2.865-.9,1.881,1.881,0,0,1-.163-.557.929.929,0,0,1,.426-1,.839.839,0,0,1,.995.269.872.872,0,0,1,.218.984,1.451,1.451,0,0,1-.375.5,3.909,3.909,0,0,0,2.009.972c3.339.715,4.807-.192,4.822-.2l.436.662a5.418,5.418,0,0,1-2.859.607m-4.887-3.028a.776.776,0,0,0,.041.315.535.535,0,0,0,.08-.128c.013-.033.021-.053-.046-.121a.777.777,0,0,0-.075-.066M108.079,96.86c-1.266,0-4.084,2.964-5.143,5.88a5.987,5.987,0,0,0-.3,1.164c3.155-1.594,6.463-3.907,6.075-6.24-.127-.762-.451-.792-.558-.8-.022,0-.045,0-.069,0" transform="translate(-20.42 -19.922)" fill="#454545"/>
          <path id="Trazado_128196" data-name="Trazado 128196" d="M46.948,27.477a108.179,108.179,0,0,1-3.8-11.511c-.718-3.553,1.7-6.366,5.648-9.819s3.474-2.741,2.016-3.158S52.921.051,58.553,0,73.94,1.773,71.867,12.148,51.176,35.725,46.948,27.477" transform="translate(-8.922 0)" fill="#111"/>
          <path id="Trazado_128197" data-name="Trazado 128197" d="M46.515,25.514c1.782-.97,4.344.231,6.023,2.7-.013-.368-.041-.8-.059-1.29-.078-2.024.824-6,2.39-7.168s-.908-7.071-2.551-7.923,5.357-.7,9.783-1.789,6.084-2.037,9.389.945,4.737,7.008,5.292,11.4a85.447,85.447,0,0,1-.51,17.171c-.529,2.222-.326,3.684-3.888,4.981-.755.274-1.807,1.551-1.749,4.4.1,4.84,1.559,20.747.426,23.447-.68,1.62-2.316,2.621-5.777,2.873-8.865.645-12.406-3.044-13.62-3.923l-.6-30.223a6.813,6.813,0,0,0-.839-4.512,7.232,7.232,0,0,1-4.312-3.724c-1.633-3-1.364-6.3.6-7.367" transform="translate(-9.3 -1.865)" fill="#e0e0e0"/>
          <path id="Trazado_128198" data-name="Trazado 128198" d="M55.739,45.917s4.568,4.765,7.047,5.781S73,51.53,75.673,51.177s-.931-.38-5.88,3.75-10.821,10.96-11.92,8.338-3-7.476-2.865-9.592.731-7.756.731-7.756" transform="translate(-11.406 -9.522)" fill="silver"/>
          <path id="Trazado_128199" data-name="Trazado 128199" d="M77.191,32.9a.793.793,0,0,1-.2-1.561,4.918,4.918,0,0,0,2.369-1.675l-3.922-6.925a.793.793,0,1,1,1.379-.782L81,29.332a.793.793,0,0,1-.022.819,6.852,6.852,0,0,1-3.588,2.723.806.806,0,0,1-.2.025" transform="translate(-15.624 -4.47)" fill="silver"/>
          <path id="Trazado_128200" data-name="Trazado 128200" d="M63.322,21.925a.793.793,0,0,1-.566-1.348C65,18.3,66.722,18.669,68.39,19.028c.245.053.5.107.754.154a.792.792,0,0,1-.281,1.56c-.277-.05-.545-.107-.808-.164-1.53-.331-2.541-.549-4.168,1.11a.792.792,0,0,1-.566.237" transform="translate(-12.967 -3.89)" fill="#010101"/>
          <path id="Trazado_128201" data-name="Trazado 128201" d="M78.352,20.395a.793.793,0,0,1-.215-1.556,3.72,3.72,0,0,0,1.017-.571,4.991,4.991,0,0,1,1.494-.8,3.357,3.357,0,0,1,3.342,1.251.792.792,0,0,1-1.34.847A1.84,1.84,0,0,0,81.079,19a3.716,3.716,0,0,0-1.018.572,5.009,5.009,0,0,1-1.494.8.813.813,0,0,1-.216.03" transform="translate(-16.084 -3.606)" fill="#010101"/>
          <path id="Trazado_128202" data-name="Trazado 128202" d="M70.636,26.2c.128.755-.208,1.443-.751,1.535s-1.088-.444-1.217-1.2.208-1.443.751-1.535,1.088.444,1.218,1.2" transform="translate(-14.234 -5.183)" fill="#010101"/>
          <path id="Trazado_128203" data-name="Trazado 128203" d="M83.765,23.961c.129.755-.207,1.443-.751,1.535s-1.088-.444-1.217-1.2.207-1.443.751-1.535,1.088.444,1.217,1.2" transform="translate(-16.957 -4.718)" fill="#010101"/>
          <path id="Trazado_128204" data-name="Trazado 128204" d="M78.62,39.314s-5.028.422-5.663.967S73.7,43.8,75.142,43.7s3.492-.888,3.477-4.382" transform="translate(-15.097 -8.153)" fill="#fff"/>
          <path id="Trazado_128205" data-name="Trazado 128205" d="M50.693,37.6a.792.792,0,0,1-.779-.946c.317-1.607-.291-2.417-.908-2.624a.792.792,0,1,1,.5-1.5c1.323.442,2.442,1.985,1.96,4.432a.794.794,0,0,1-.777.64" transform="translate(-10.051 -6.736)" fill="silver"/>
          <path id="Trazado_128206" data-name="Trazado 128206" d="M43.727,164.331s18.483,11.1,31.3,6.061c8.844-3.478,12.223-9.242,12.223-9.242S78.707,83.241,75.924,77.675s-5.963-7.552-5.963-7.552L67.179,83.241l-16-17.788s2.883,38.855,4.472,46.805-3.179,47.3-11.924,52.073" transform="translate(-9.068 -13.574)" fill="#bdbdbd"/>
          <path id="Trazado_128207" data-name="Trazado 128207" d="M43.225,64.7s7.466,42.912,7.466,49,0,37.129-6.492,43.216-11.036,10.042-11.036,10.042l-5.843-5.173s4.869-21.912,5.843-21.912-5.195-12.478-5.195-12.478.961-23.638-8.281-31.091C10.746,89.092,6.867,87.83,6.867,87.83Z" transform="translate(-1.424 -13.417)" fill="#3c3c3c"/>
          <path id="Trazado_128208" data-name="Trazado 128208" d="M5.812,93.662s14.609,5.962,18.783,15.8,3.874,13.714,3.874,13.714l-8.38,31.355L.342,169.14Z" transform="translate(-0.071 -19.423)" fill="#2c2c2c"/>
          <path id="Trazado_128209" data-name="Trazado 128209" d="M77.578,72.222s14.608,60.818,14.608,72.446,8.348-57.539,8.348-57.539Z" transform="translate(-16.088 -14.977)" fill="#2c2c2c"/>
          <path id="Trazado_128210" data-name="Trazado 128210" d="M56.163,121.279c-.289-10.108-12.876-31-13-31.213l-.422-.7,5.3-3.026-6.65-1.791,4.069-15.96,1.536.392L43.309,83.429l8.852,2.383-7.229,4.13c2.255,3.815,12.542,21.72,12.815,31.291Z" transform="translate(-8.583 -14.225)" fill="#919191"/>
          <path id="Trazado_128211" data-name="Trazado 128211" d="M91.373,118.344l-1.581-.108,2.039-30.012L85.657,86.99l2.389-6.823,1.5.524-1.786,5.1,5.751,1.149Z" transform="translate(-17.763 -16.625)" fill="#919191"/>
          <path id="Trazado_128212" data-name="Trazado 128212" d="M70.54,90.539,69.579,89.5C63.473,82.928,54.1,72.925,53.309,72.324l.893-1.309c.835.556,11.142,11.6,15.578,16.377l2.9-10.269,1.526.43Z" transform="translate(-11.055 -14.727)" fill="#fff"/>
          <path id="Trazado_128213" data-name="Trazado 128213" d="M72.472,129.49a1.627,1.627,0,0,0-2.33,2.273L84.93,146.912a1.627,1.627,0,0,0,2.33-2.273Z" transform="translate(-14.45 -26.752)"/>
          <path id="Trazado_128214" data-name="Trazado 128214" d="M27.131,161.24l31.343-2.5,9.342-14.794,15.758,5.368S69.3,162.026,59.556,167.394s-32.462,12.173-37.331,7.574c-4.317-4.076,4.906-13.728,4.906-13.728" transform="translate(-4.37 -29.851)" fill="#e2e2e2"/>
          <path id="Trazado_128215" data-name="Trazado 128215" d="M91.167,152.4a.771.771,0,0,1-.147-.013l-7.868-1.475a.793.793,0,1,1,.292-1.558l7.867,1.475a.793.793,0,0,1-.145,1.572" transform="translate(-17.11 -30.969)" fill="silver"/>
          <path id="Trazado_128216" data-name="Trazado 128216" d="M111.1,127.787l-1.521-2.351L76.663,156.045l1.352,1.967Z" transform="translate(-15.898 -26.013)"/>
          <path id="Trazado_128217" data-name="Trazado 128217" d="M119.616,127.741l-1.429-2.3,29.456.092,1.014,1.89Z" transform="translate(-24.509 -26.013)"/>
          <path id="Trazado_128218" data-name="Trazado 128218" d="M140.478,127.918H111.222L78.524,158.4l29.994.491Z" transform="translate(-16.284 -26.527)"/>
          <path id="Trazado_128219" data-name="Trazado 128219" d="M134.741,142.111s-12.79,2.316-14.965,3.474-1.114,3.656-1.114,3.656-4.393-.163-4.958,3.636c-3.5,3.029.808,3.556.808,3.556s-1.28,1.835,1.859,2.263c3.556.485,8.659,1.028,10.57.6s1.91-3.474,1.91-3.474,3.609-.671,4.3-2.743-.371-2.681.8-3.656,3.82-3.413,4.139-5.668a20.164,20.164,0,0,0-.159-5.12Z" transform="translate(-23.295 -28.75)" fill="#e2e2e2"/>
          <path id="Trazado_128220" data-name="Trazado 128220" d="M133.55,151.013l-12.364.589Z" transform="translate(-25.131 -31.317)" fill="#fff"/>
          <path id="Trazado_128221" data-name="Trazado 128221" d="M120.978,152.187a.793.793,0,0,1-.037-1.584l12.364-.589a.8.8,0,0,1,.829.755.792.792,0,0,1-.754.829l-12.363.589h-.039" transform="translate(-24.924 -31.11)" fill="silver"/>
          <path id="Trazado_128222" data-name="Trazado 128222" d="M127.467,156.706l-12.082,0Z" transform="translate(-23.928 -32.497)" fill="#fff"/>
          <path id="Trazado_128223" data-name="Trazado 128223" d="M127.26,157.291H115.177a.793.793,0,0,1,0-1.585H127.26a.793.793,0,1,1,0,1.585" transform="translate(-23.721 -32.29)" fill="silver"/>
          <path id="Trazado_128224" data-name="Trazado 128224" d="M123.343,160.867l-7.788-.067Z" transform="translate(-23.964 -33.346)" fill="#fff"/>
          <path id="Trazado_128225" data-name="Trazado 128225" d="M123.136,161.452h-.007l-7.788-.067a.793.793,0,0,1,.013-1.585l7.789.067a.793.793,0,0,1-.007,1.585" transform="translate(-23.756 -33.139)" fill="silver"/>
          <path id="Trazado_128226" data-name="Trazado 128226" d="M49.4,162.949l-40.4,2.238L.579,180.979a4.869,4.869,0,0,0,5.548,6.97L51.938,176.38Z" transform="translate(0 -33.792)" fill="#2c2c2c"/>
        </g>
      </g>
    </g>
  </g>
</svg>
