<svg xmlns="http://www.w3.org/2000/svg" xmlns:xlink="http://www.w3.org/1999/xlink" width="67.811" height="66.223" viewBox="0 0 67.811 66.223">
  <defs>
    <clipPath id="clip-path">
      <rect id="Rectángulo_37258" data-name="Rectángulo 37258" width="57.448" height="59.346" fill="none"/>
    </clipPath>
  </defs>
  <g id="_81" data-name="81" transform="translate(6384 6554)">
    <g id="Grupo_156595" data-name="Grupo 156595" transform="translate(-6384 -6554)">
      <path id="Trazado_127053" data-name="Trazado 127053" d="M15.562,123.96c.454.1.559-.113.555-.537-.012-1.063.007-1.081,1.106-1.075.409,0,.536-.124.528-.529-.007-.377-.077-.553-.512-.551-1.1,0-1.131-.018-1.119-1.119.005-.5-.239-.507-.608-.511s-.56.058-.56.5c0,1.115-.023,1.135-1.112,1.131-.421,0-.521.15-.522.541s.1.541.52.539c1.11-.006,1.137.014,1.112,1.066-.012.488.169.631.611.545" transform="translate(50.059 -80.637)" fill="#29c4bb"/>
      <path id="Trazado_127054" data-name="Trazado 127054" d="M213.635,151.161c-.406-.078-.632.057-.565.517.056.385-.077.6-.5.533s-.57.088-.573.537c0,.47.189.578.589.525.383-.052.5.115.5.5-.012.6.357.826.934.645.274-.086.214-.3.2-.477-.048-.472.06-.76.616-.666.431.073.457-.2.456-.527s-.014-.6-.451-.53c-.471.073-.694-.1-.616-.6.075-.475-.23-.5-.582-.454" transform="translate(-211.994 -100.761)" fill="#29c4bb"/>
      <path id="Trazado_127055" data-name="Trazado 127055" d="M207.481,69.268c-.1.453.1.608.527.537.46-.078.648.111.567.569s.113.548.542.553.609-.127.532-.557c-.082-.459.109-.648.565-.562.472.089.513-.158.531-.555.021-.466-.16-.588-.566-.517-.441.077-.606-.106-.531-.537.072-.412-.061-.579-.521-.563-.4.014-.639.072-.552.536s-.115.639-.567.563c-.425-.072-.632.081-.526.534" transform="translate(-204.164 -61.349)" fill="#010000"/>
      <path id="Trazado_127056" data-name="Trazado 127056" d="M51.8,186.64c-.1.423.11.578.532.5.5-.09.614.169.543.587-.079.465.146.537.555.535.39,0,.6-.091.518-.511-.108-.553.169-.688.645-.607s.466-.225.467-.559-.007-.6-.448-.512c-.593.117-.745-.168-.665-.7.077-.508-.311-.362-.569-.377-.274-.016-.579-.052-.5.389.1.545-.092.8-.67.687-.482-.092-.423.243-.409.566" transform="translate(0.255 -122.041)" fill="#010000"/>
      <path id="Trazado_127057" data-name="Trazado 127057" d="M125.03,17.426c.114-.483-.153-.577-.548-.518-.41.061-.572-.109-.509-.513s-.058-.588-.522-.578c-.427.009-.623.119-.548.558s-.131.6-.553.533c-.391-.059-.587.035-.589.513s.182.62.608.553c.45-.072.6.133.533.553-.078.472.175.526.572.534.424.009.562-.151.5-.54-.068-.427.09-.622.535-.547s.62-.106.523-.547" transform="translate(-92.465 -15.816)" fill="#29c4bb"/>
    </g>
    <g id="Grupo_156832" data-name="Grupo 156832" transform="translate(-6380.094 -6550.15)">
      <g id="Grupo_156832-2" data-name="Grupo 156832" clip-path="url(#clip-path)">
        <path id="Trazado_128358" data-name="Trazado 128358" d="M37.328,59.331H18.079c-.824,0-.824,0-.821-.854A17.311,17.311,0,0,1,30.425,41.587c.327-.083.659-.151.991-.211a.512.512,0,0,0,.461-.448c.248-.981.266-.977-.676-1.324a9.2,9.2,0,0,1-3.566-2.325c-.249-.264-.4-.3-.723-.088a16.912,16.912,0,0,1-20.9-1.225C.822,31.383-1.088,25.518.6,18.808,2.265,12.163,6.677,7.973,13.329,6.233A15.544,15.544,0,0,1,20.958,6.2a.644.644,0,0,0,.779-.317A13.864,13.864,0,0,1,33,.015a19.432,19.432,0,0,1,9.452,1.807,32.357,32.357,0,0,1,4.7,3.158,3.548,3.548,0,0,0,3.771.433A3.5,3.5,0,0,0,52.3,4.306c.36-.477.713-.959,1.079-1.43A2.232,2.232,0,0,1,57.43,4.267a12.671,12.671,0,0,1-1.63,6.159,2.179,2.179,0,0,0-.285,1.128q.015,6.038.005,12.076A4.769,4.769,0,0,1,50.434,28.7c-.555,0-.692.149-.662.68a10.233,10.233,0,0,1-1.442,6.29,9.421,9.421,0,0,1-5.218,4.045c-.411.13-.538.246-.434.724a1.169,1.169,0,0,0,1.035,1.038c7.319,1.8,11.771,6.434,13.428,13.764a16.668,16.668,0,0,1,.307,3.446c.007.5-.081.658-.631.656-5.639-.026-11.278-.016-16.918-.016Z" transform="translate(0 0)"/>
        <path id="Trazado_128359" data-name="Trazado 128359" d="M4.894,34.523A15.3,15.3,0,1,1,20.188,49.854,15.33,15.33,0,0,1,4.894,34.523" transform="translate(-2.942 -11.569)" fill="#fee9a6"/>
        <path id="Trazado_128360" data-name="Trazado 128360" d="M59.8,118.451l3.667-2.437c0,.944.062,1.809-.016,2.661A2.413,2.413,0,0,0,64.4,121a16.078,16.078,0,0,1,1.654,1.639c.219.232.349.221.566,0q1.163-1.2,2.365-2.367a.783.783,0,0,0,.221-.641c0-1.17,0-2.339,0-3.615l3.654,2.426c.1-.955.2-1.83.284-2.707.177-1.783.362-3.565.514-5.35.043-.509.18-.629.679-.427a15.32,15.32,0,0,1,10.118,13.124c.043.349-.075.417-.373.391-.178-.015-.359,0-.538,0q-17.331,0-34.661.013c-.574,0-.725-.093-.638-.7a15.332,15.332,0,0,1,10.092-12.825c.507-.2.63-.069.676.431.244,2.652.514,5.3.786,8.067" transform="translate(-28.993 -66.05)" fill="#b3dc7e"/>
        <path id="Trazado_128361" data-name="Trazado 128361" d="M75.819,36.4c5.1,2.129,10.167,3.414,15.612,2.287v.881q0,6.335,0,12.669a7.654,7.654,0,0,1-7.952,7.93c-1.853,0-3.706.021-5.558-.008a7.6,7.6,0,0,1-5.264-2.2c-.265-.252-.264-.385,0-.65a17.026,17.026,0,0,0,3.332-20.539c-.036-.07-.068-.142-.174-.367" transform="translate(-43.564 -21.887)" fill="#efcfb3"/>
        <path id="Trazado_128362" data-name="Trazado 128362" d="M80.652,18.2a28.265,28.265,0,0,1-11.327-2.223c-1.136-.479-2.287-.924-3.44-1.36a1.444,1.444,0,0,1-.558-.424A16.919,16.919,0,0,0,59.3,9.991c-.443-.183-.484-.3-.181-.67A11.847,11.847,0,0,1,67.77,4.833,18.51,18.51,0,0,1,75.6,5.78a22.625,22.625,0,0,1,5.629,3.447,5.546,5.546,0,0,0,6.721.353,8.246,8.246,0,0,0,1.98-2.135c.106-.144.208-.292.321-.431s.24-.345.486-.246.219.305.213.507a10.806,10.806,0,0,1-2.054,6.194A10.648,10.648,0,0,1,80.652,18.2" transform="translate(-35.428 -2.87)" fill="#b17946"/>
        <path id="Trazado_128363" data-name="Trazado 128363" d="M88.193,100.784c.974,0,1.948.012,2.921-.008.27-.005.414.059.434.335a.173.173,0,0,0,.019.056,1.589,1.589,0,0,1-.517,2.1,27.517,27.517,0,0,0-2.494,2.476c-.34.366-.522.293-.826-.022-.951-.987-1.917-1.962-2.911-2.906a.858.858,0,0,1-.262-.983c.283-1.039.263-1.044,1.312-1.044h2.325Z" transform="translate(-50.804 -60.588)" fill="#efcfb3"/>
        <path id="Trazado_128364" data-name="Trazado 128364" d="M124.818,55.563c0-.816,0-1.632,0-2.448,0-.151-.1-.339.2-.4a2.953,2.953,0,1,1,.006,5.754c-.3-.059-.207-.243-.209-.4-.008-.836,0-1.672,0-2.508" transform="translate(-75.036 -31.654)" fill="#efcfb3"/>
        <path id="Trazado_128365" data-name="Trazado 128365" d="M128.609,40.344a5.119,5.119,0,0,0-3.422-.938c-.3.019-.371-.108-.366-.382.013-.8.01-1.594,0-2.391a.441.441,0,0,1,.274-.468,12.927,12.927,0,0,0,3.514-2.482Z" transform="translate(-75.044 -20.249)" fill="#b17846"/>
        <path id="Trazado_128366" data-name="Trazado 128366" d="M80.1,108.288c.19-.03.284.113.394.223,1.026,1.024,2.045,2.057,3.081,3.07.223.218.2.319-.047.48q-1.4.909-2.775,1.848c-.328.225-.392.089-.422-.225-.156-1.64-.325-3.278-.481-4.918-.019-.2-.117-.467.25-.477" transform="translate(-47.991 -65.102)" fill="#9fd368"/>
        <path id="Trazado_128367" data-name="Trazado 128367" d="M101.554,108.687c-.165,1.7-.328,3.364-.487,5.023-.026.276-.079.424-.39.212q-1.4-.957-2.823-1.881c-.225-.147-.246-.242-.047-.438,1.061-1.045,2.112-2.1,3.161-3.158a.407.407,0,0,1,.479-.13c.2.087.09.274.107.372" transform="translate(-58.721 -65.1)" fill="#9fd368"/>
        <path id="Trazado_128368" data-name="Trazado 128368" d="M93.126,123.493a8.669,8.669,0,0,0,.012,1.312,1.632,1.632,0,0,1-.694,1.586c-.2.17-.3.226-.529.024a1.785,1.785,0,0,1-.721-1.578c.072-1.03.018-2.069.019-3.1,0-.465.585-1.15.971-1.138s.942.682.942,1.166q0,.866,0,1.732" transform="translate(-54.824 -72.503)" fill="#e5e8ec"/>
        <path id="Trazado_128369" data-name="Trazado 128369" d="M23.714,38.438c4.905.184,9.315,2.714,12.578,7.341a.461.461,0,0,1-.008.631c-3.473,4.852-8.115,7.561-14.154,7.282-5.406-.25-9.561-2.918-12.641-7.321a.437.437,0,0,1,.008-.579,16.706,16.706,0,0,1,14.217-7.355" transform="translate(-5.641 -23.109)"/>
        <path id="Trazado_128370" data-name="Trazado 128370" d="M103.729,50.432a2.868,2.868,0,1,1-2.881,2.825,2.879,2.879,0,0,1,2.881-2.825" transform="translate(-60.631 -30.32)"/>
        <path id="Trazado_128371" data-name="Trazado 128371" d="M87.219,80.638c-.9,0-1.792-.015-2.688.008-.363.009-.511-.054-.509-.473.008-1.447-.011-1.448,1.438-1.448,1.374,0,2.748,0,4.121,0a1.939,1.939,0,0,0,2.081-1.586c.036-.138-.031-.333.229-.328.5.01,1,0,1.493.005.357.007.2.285.187.44a3.827,3.827,0,0,1-3.666,3.375c-.9.024-1.792,0-2.688,0Z" transform="translate(-50.515 -46.179)"/>
        <path id="Trazado_128372" data-name="Trazado 128372" d="M40.36,48.977a5.738,5.738,0,1,1-5.734-5.742,5.759,5.759,0,0,1,5.734,5.742" transform="translate(-17.365 -25.993)" fill="#69d5f3"/>
        <path id="Trazado_128373" data-name="Trazado 128373" d="M19.78,55.445a13.8,13.8,0,0,1-4.462-3.712.273.273,0,0,1,0-.408,14.986,14.986,0,0,1,4.584-3.84A8.181,8.181,0,0,0,18.756,51.5a8.421,8.421,0,0,0,1.023,3.948" transform="translate(-9.153 -28.548)" fill="#e5e8ec"/>
        <path id="Trazado_128374" data-name="Trazado 128374" d="M59.734,47.791A13.9,13.9,0,0,1,64.2,51.51a.273.273,0,0,1,0,.409,14.987,14.987,0,0,1-4.573,3.831,7.889,7.889,0,0,0,.112-7.959" transform="translate(-35.846 -28.733)" fill="#e5e8ec"/>
        <path id="Trazado_128375" data-name="Trazado 128375" d="M107.554,56.213a.953.953,0,1,1-.91-.981.96.96,0,0,1,.91.981" transform="translate(-63.517 -33.206)" fill="#818d99"/>
      </g>
    </g>
  </g>
</svg>
