<svg xmlns="http://www.w3.org/2000/svg" xmlns:xlink="http://www.w3.org/1999/xlink" width="67.811" height="66.223" viewBox="0 0 67.811 66.223">
  <defs>
    <clipPath id="clip-path">
      <rect id="Rectángulo_37259" data-name="Rectángulo 37259" width="61.153" height="61.154" fill="none"/>
    </clipPath>
  </defs>
  <g id="_82" data-name="82" transform="translate(6384 6554)">
    <g id="Grupo_156595" data-name="Grupo 156595" transform="translate(-6384 -6554)">
      <path id="Trazado_127053" data-name="Trazado 127053" d="M15.562,123.96c.454.1.559-.113.555-.537-.012-1.063.007-1.081,1.106-1.075.409,0,.536-.124.528-.529-.007-.377-.077-.553-.512-.551-1.1,0-1.131-.018-1.119-1.119.005-.5-.239-.507-.608-.511s-.56.058-.56.5c0,1.115-.023,1.135-1.112,1.131-.421,0-.521.15-.522.541s.1.541.52.539c1.11-.006,1.137.014,1.112,1.066-.012.488.169.631.611.545" transform="translate(50.059 -80.637)" fill="#29c4bb"/>
      <path id="Trazado_127054" data-name="Trazado 127054" d="M213.635,151.161c-.406-.078-.632.057-.565.517.056.385-.077.6-.5.533s-.57.088-.573.537c0,.47.189.578.589.525.383-.052.5.115.5.5-.012.6.357.826.934.645.274-.086.214-.3.2-.477-.048-.472.06-.76.616-.666.431.073.457-.2.456-.527s-.014-.6-.451-.53c-.471.073-.694-.1-.616-.6.075-.475-.23-.5-.582-.454" transform="translate(-211.994 -100.761)" fill="#29c4bb"/>
      <path id="Trazado_127055" data-name="Trazado 127055" d="M207.481,69.268c-.1.453.1.608.527.537.46-.078.648.111.567.569s.113.548.542.553.609-.127.532-.557c-.082-.459.109-.648.565-.562.472.089.513-.158.531-.555.021-.466-.16-.588-.566-.517-.441.077-.606-.106-.531-.537.072-.412-.061-.579-.521-.563-.4.014-.639.072-.552.536s-.115.639-.567.563c-.425-.072-.632.081-.526.534" transform="translate(-204.164 -61.349)" fill="#010000"/>
      <path id="Trazado_127056" data-name="Trazado 127056" d="M51.8,186.64c-.1.423.11.578.532.5.5-.09.614.169.543.587-.079.465.146.537.555.535.39,0,.6-.091.518-.511-.108-.553.169-.688.645-.607s.466-.225.467-.559-.007-.6-.448-.512c-.593.117-.745-.168-.665-.7.077-.508-.311-.362-.569-.377-.274-.016-.579-.052-.5.389.1.545-.092.8-.67.687-.482-.092-.423.243-.409.566" transform="translate(0.255 -122.041)" fill="#010000"/>
      <path id="Trazado_127057" data-name="Trazado 127057" d="M125.03,17.426c.114-.483-.153-.577-.548-.518-.41.061-.572-.109-.509-.513s-.058-.588-.522-.578c-.427.009-.623.119-.548.558s-.131.6-.553.533c-.391-.059-.587.035-.589.513s.182.62.608.553c.45-.072.6.133.533.553-.078.472.175.526.572.534.424.009.562-.151.5-.54-.068-.427.09-.622.535-.547s.62-.106.523-.547" transform="translate(-92.465 -15.816)" fill="#29c4bb"/>
    </g>
    <g id="Grupo_156833" data-name="Grupo 156833" transform="translate(-6381 -6550.342)">
      <g id="Grupo_156833-2" data-name="Grupo 156833" clip-path="url(#clip-path)">
        <path id="Trazado_128376" data-name="Trazado 128376" d="M17.951,40.386c.757,1.516,1.4,2.971,2.19,4.343a16.092,16.092,0,0,1,1.771,5.519c.782,4.7,1.634,9.4,2.464,14.092.186,1.054-.185,1.52-1.258,1.522q-2.738,0-5.477,0c-.909,0-1.176-.2-1.364-1.072q-1.394-6.46-2.784-12.921c-.072-.33-.022-.743-.494-.933-.246,1.2-.5,2.38-.726,3.562a3.691,3.691,0,0,1-.325.958Q9.574,60.2,7.2,64.941c-.518,1.033-.965,1.16-1.965.561Q3,64.165.766,62.822c-.825-.5-.94-.855-.553-1.73C1.267,58.712,2.263,56.3,3.4,53.964a27.15,27.15,0,0,0,1.557-5.872c.083-.35.131-.709.221-1.057.286-1.113.492-2.143-.442-3.157a3.662,3.662,0,0,1-.667-2.535c0-2.845.037-5.69-.008-8.534a8.34,8.34,0,0,1,4.33-7.789A7.119,7.119,0,0,1,5.1,18.854a6.785,6.785,0,0,1,2.182-4.99,7.088,7.088,0,0,1,10.319.453,7.171,7.171,0,0,1-1.542,10.715,8.888,8.888,0,0,1,2.421,1.991,8.1,8.1,0,0,1,1.884,5.657c-.02.482.116.594.588.588a18.2,18.2,0,0,1,3.242.056,5.025,5.025,0,0,1,4.3,4.6c.039.373.156.436.489.433,1.443-.016,2.887-.009,4.33-.007.892,0,1.138.2,1.36,1.087.239.951.239.951,1.2.951,7.388,0,14.775-.008,22.163.014.611,0,.963-.116.962-.782a1.254,1.254,0,0,1,.078-.307c.082-.313-.156-.846.143-.918A6.524,6.524,0,0,1,61,38.364c.208.01.122.233.132.365a9.74,9.74,0,0,1-.514,2.928q-1.736,7.457-3.506,14.906c-.228.965-.468,1.146-1.443,1.147-5.434,0-10.869.008-16.3-.012-.51,0-.706.089-.664.642.056.718.011,1.443.014,2.164.005.92.356,1.248,1.261,1.291a1.274,1.274,0,0,0,1.351-.685,2.965,2.965,0,0,1,5.139.251.685.685,0,0,0,.719.434c1.125-.022,2.25-.026,3.375,0a.763.763,0,0,0,.815-.489A2.978,2.978,0,0,1,55.1,59.958a3.049,3.049,0,0,1-1.26,5.895,2.853,2.853,0,0,1-2.46-1.565.765.765,0,0,0-.827-.471c-1.125.022-2.25.018-3.375,0a.633.633,0,0,0-.682.39,3,3,0,0,1-5.346.015.627.627,0,0,0-.673-.407,4.8,4.8,0,0,1-1.579-.113,2.86,2.86,0,0,1-2.179-2.745c.334-4.14-1-8-1.867-11.936-.589-2.667-1.255-5.318-1.862-7.982-.108-.472-.248-.676-.806-.673-4.606.032-9.213.018-13.82.018h-.408" transform="translate(0 -4.709)" fill="#171526"/>
        <path id="Trazado_128377" data-name="Trazado 128377" d="M70.819,43.028c-3.693,0-7.386-.01-11.079.012-.476,0-.6-.11-.589-.588.028-1.462.005-1.46,1.484-1.464.506,0,1.181.172,1.473-.084.346-.3.093-.994.108-1.516.022-.785,0-1.571.008-2.356A1.025,1.025,0,0,1,63.372,35.9c1.167-.011,2.335-.017,3.5.006.368.007.454-.109.451-.462-.017-1.783-.01-3.565-.007-5.348,0-1,.336-1.33,1.337-1.332q2.26,0,4.521,0c.913,0,1.252.359,1.279,1.268.017.585-.26,1.366.119,1.7.325.287,1.089.083,1.659.088.7.005,1.4,0,2.1,0,.831.009,1.208.375,1.21,1.2.006,2.462.015,4.924-.01,7.385,0,.465.091.627.582.594.7-.048,1.4,0,2.1-.019.3-.009.383.083.4.389.067,1.656.077,1.656-1.542,1.656H70.819" transform="translate(-23.502 -11.427)" fill="#171526"/>
        <path id="Trazado_128378" data-name="Trazado 128378" d="M42.634,7.277q0-2.992,0-5.985c0-.92.353-1.275,1.262-1.278C45.022.008,46.147.025,47.271,0c.346-.006.463.073.468.446.022,1.6.036,1.589-1.536,1.606-.5,0-1.164-.231-1.454.108-.243.286-.077.929-.077,1.414,0,3.438-.011,6.877.008,10.315a1.777,1.777,0,0,1-.589,1.4c-.83.791-1.62,1.622-2.443,2.419a.638.638,0,0,0-.19.765,3.043,3.043,0,1,1-5.883,1.538,3.057,3.057,0,0,1,2.431-3.653,2.575,2.575,0,0,1,1.5.122.513.513,0,0,0,.658-.16q1.088-1.117,2.209-2.2a.905.905,0,0,0,.263-.735c-.009-2.037,0-4.075,0-6.112" transform="translate(-14.104 -0.002)" fill="#171526"/>
        <path id="Trazado_128379" data-name="Trazado 128379" d="M65.754,22.338c-2.037,0-4.074-.011-6.111.011-.4,0-.487-.1-.488-.492,0-1.556-.016-1.556,1.515-1.556,3.734,0,7.468.009,11.2-.011.451,0,.559.114.553.557-.02,1.491,0,1.491-1.516,1.491H65.754" transform="translate(-23.504 -8.062)" fill="#171526"/>
        <path id="Trazado_128380" data-name="Trazado 128380" d="M87.2,8.812c-1.846,0-3.691-.013-5.537.01-.41,0-.528-.1-.526-.518.008-1.529-.009-1.53,1.542-1.53,3.373,0,6.747.011,10.12-.011.47,0,.6.1.591.585-.029,1.465-.005,1.465-1.48,1.465Z" transform="translate(-32.237 -2.687)" fill="#171526"/>
        <path id="Trazado_128381" data-name="Trazado 128381" d="M72.045,13.538c1.867,0,3.734.013,5.6-.01.417,0,.524.108.523.523-.008,1.525.008,1.526-1.545,1.526-3.373,0-6.747-.011-10.12.012-.477,0-.6-.112-.588-.588.028-1.462.005-1.462,1.483-1.462h4.646" transform="translate(-26.189 -5.375)" fill="#171526"/>
        <path id="Trazado_128382" data-name="Trazado 128382" d="M64.828,6.775c1.676,0,3.352.013,5.028-.009.4-.005.532.087.53.514-.009,1.533.009,1.533-1.539,1.533-3.033,0-6.067-.011-9.1.011-.463,0-.605-.091-.6-.581.031-1.468.006-1.469,1.477-1.469h4.2" transform="translate(-23.501 -2.688)" fill="#171526"/>
        <path id="Trazado_128383" data-name="Trazado 128383" d="M74.34,2.049c-1.527,0-3.055-.011-4.582.008-.36,0-.453-.1-.457-.456-.02-1.59-.033-1.59,1.543-1.59,2.715,0,5.431.01,8.146-.01.415,0,.524.106.522.521-.008,1.527.008,1.527-1.543,1.527H74.34" transform="translate(-27.532 0)" fill="#171526"/>
        <path id="Trazado_128384" data-name="Trazado 128384" d="M93.163,2.048c-1.039,0-2.079-.016-3.117.008-.363.008-.451-.1-.456-.458C89.57.01,89.558.01,91.133.01c1.7,0,3.394.015,5.09-.01.419-.006.522.112.52.524-.008,1.525.008,1.525-1.545,1.525H93.163" transform="translate(-35.594 0)" fill="#171526"/>
        <path id="Trazado_128385" data-name="Trazado 128385" d="M93.168,13.539c1.039,0,2.079.015,3.118-.008.357-.008.454.093.459.454.02,1.592.033,1.592-1.54,1.592-1.7,0-3.394-.014-5.09.01-.413.006-.527-.1-.525-.52.008-1.528-.008-1.528,1.542-1.528h2.036" transform="translate(-35.596 -5.376)" fill="#171526"/>
        <path id="Trazado_128386" data-name="Trazado 128386" d="M61.1,2.052h-.445c-1.691,0-1.684,0-1.537-1.719C59.142.09,59.2.008,59.45.01q1.717.015,3.434,0c.246,0,.355.075.321.324a.377.377,0,0,0,0,.064c.085,1.655.085,1.655-1.529,1.655Z" transform="translate(-23.466 -0.004)" fill="#171526"/>
        <path id="Trazado_128387" data-name="Trazado 128387" d="M60.135,15.582c-.961,0-.961,0-.961-.95,0-1.088,0-1.088,1.077-1.088.961,0,.961,0,.961.95,0,1.088,0,1.088-1.078,1.088" transform="translate(-23.511 -5.381)" fill="#171526"/>
        <path id="Trazado_128388" data-name="Trazado 128388" d="M86.574,21.353c0,.993,0,.993-.982.993-1.057,0-1.057,0-1.057-1.046,0-.993,0-.993.982-.993,1.057,0,1.057,0,1.057,1.045" transform="translate(-33.588 -8.069)" fill="#171526"/>
        <path id="Trazado_128389" data-name="Trazado 128389" d="M93.337,21.373c0,.973,0,.973-1,.973-1.037,0-1.037,0-1.037-1.065,0-.973,0-.973,1-.973,1.037,0,1.037,0,1.037,1.065" transform="translate(-36.275 -8.069)" fill="#171526"/>
        <path id="Trazado_128390" data-name="Trazado 128390" d="M100.1,21.357c0,.988,0,.988-.986.988-1.052,0-1.052,0-1.052-1.049,0-.988,0-.988.986-.988,1.052,0,1.052,0,1.052,1.049" transform="translate(-38.962 -8.069)" fill="#171526"/>
        <path id="Trazado_128391" data-name="Trazado 128391" d="M24.734,47.743q-2.516,0-5.031,0c-1.094,0-1.412-.312-1.413-1.387,0-1.741-.013-3.482.008-5.222.005-.409-.1-.535-.524-.535-1.523,0-1.523-.016-1.523,1.5,0,1.486,0,2.972,0,4.458a3.037,3.037,0,0,0,3.057,3.213.589.589,0,0,1,.577.377c1.128,2.28,2.311,4.534,3.385,6.838A14.19,14.19,0,0,1,24,60.522c.733,4.024,1.426,8.055,2.146,12.081.077.429.074.655-.483.629-1-.048-2-.031-2.992,0-.395.01-.529-.111-.612-.507-.891-4.23-1.815-8.452-2.711-12.68a1.755,1.755,0,0,0-.7-1.086c-2.4-1.854-4.787-3.73-7.189-5.584a3.246,3.246,0,0,1-1.331-2.745c.013-3.015-.014-6.029.011-9.044A6.106,6.106,0,0,1,22.17,40.118a13.161,13.161,0,0,1,.193,3.229c.016,1,.338,1.335,1.337,1.337,1.253,0,2.505-.01,3.758,0a3.089,3.089,0,0,1,3.021,2.517c.083.416-.012.551-.459.545-1.762-.024-3.524-.01-5.286-.01" transform="translate(-4.026 -14.104)" fill="#4bbde4"/>
        <path id="Trazado_128392" data-name="Trazado 128392" d="M22.02,20.338a5.093,5.093,0,1,1-5.1-5.1,5.107,5.107,0,0,1,5.1,5.1" transform="translate(-4.701 -6.055)" fill="#4bbde4"/>
        <path id="Trazado_128393" data-name="Trazado 128393" d="M81.718,62.571c-.225.959-.446,1.86-.642,2.766-.054.248-.184.3-.4.292-.106-.006-.212,0-.318,0-6.747,0-13.494-.007-20.242.014-.5,0-.713-.131-.8-.618a15.523,15.523,0,0,0-.456-1.98c-.142-.454.026-.512.4-.476.168.017.339,0,.509,0H81.718Z" transform="translate(-23.368 -24.856)" fill="#fca12e"/>
        <path id="Trazado_128394" data-name="Trazado 128394" d="M7.186,86.243c-.151-.083-.282-.15-.409-.225-.837-.5-1.663-1.019-2.513-1.5-.323-.181-.321-.341-.182-.649q1.669-3.709,3.3-7.434a22.183,22.183,0,0,0,.943-4c.2-.864.36-1.74.518-2.614.064-.358.171-.367.44-.154,1.064.841,2.138,1.669,3.214,2.5a.507.507,0,0,1,.227.588c-.3,1.407-.562,2.822-.85,4.231a2.493,2.493,0,0,1-.23.589q-2.041,4.1-4.093,8.19c-.089.178-.14.4-.368.483" transform="translate(-1.587 -27.623)" fill="#3c7daf"/>
        <path id="Trazado_128395" data-name="Trazado 128395" d="M60.733,71.071H81.269c-.215.935-.43,1.836-.629,2.74-.091.415-.409.29-.658.29q-6.271.008-12.542,0c-1.741,0-3.481-.024-5.22.014-.579.013-.877-.1-.964-.735-.1-.768-.338-1.52-.523-2.312" transform="translate(-24.13 -28.238)" fill="#fca12e"/>
        <path id="Trazado_128396" data-name="Trazado 128396" d="M71.9,79.477c2.779,0,5.559.019,8.338-.015.618-.008.705.151.531.7a16.315,16.315,0,0,0-.453,1.915c-.068.359-.218.471-.588.466-1.76-.021-3.521-.009-5.283-.009-3.479,0-6.959-.01-10.438.011-.428,0-.593-.131-.668-.53a15.5,15.5,0,0,0-.435-1.854c-.177-.551-.086-.708.531-.7,2.821.034,5.643.015,8.465.015" transform="translate(-24.96 -31.571)" fill="#fca12e"/>
        <path id="Trazado_128397" data-name="Trazado 128397" d="M72.01,96.741a1.016,1.016,0,1,1,1.035-.979,1.021,1.021,0,0,1-1.035.979" transform="translate(-28.216 -37.629)" fill="#faa02e"/>
        <path id="Trazado_128398" data-name="Trazado 128398" d="M89.954,95.747a1.016,1.016,0,1,1-.978-1.037,1.023,1.023,0,0,1,.978,1.037" transform="translate(-34.933 -37.63)" fill="#faa02e"/>
        <path id="Trazado_128399" data-name="Trazado 128399" d="M79.135,37.228c0,1.528-.016,3.056.01,4.583.007.425-.126.541-.535.523-.7-.031-1.4-.023-2.1,0-.322.01-.441-.075-.439-.421q.018-4.678,0-9.357c0-.342.109-.435.436-.425.7.021,1.4.039,2.1,0,.483-.03.543.174.537.586-.022,1.506-.008,3.012-.008,4.519" transform="translate(-30.224 -12.762)" fill="#4bbde4"/>
        <path id="Trazado_128400" data-name="Trazado 128400" d="M84.529,40.743c0-1.019.011-2.037-.006-3.056-.005-.33.043-.5.438-.486.741.03,1.485.02,2.228,0,.3-.007.4.078.4.391q-.017,3.183,0,6.366c0,.316-.112.395-.406.388-.721-.017-1.444-.026-2.164,0-.383.015-.515-.084-.5-.489.03-1.039.01-2.079.01-3.119" transform="translate(-33.58 -14.78)" fill="#fca12e"/>
        <path id="Trazado_128401" data-name="Trazado 128401" d="M69.185,43.98c1.5,0,1.5,0,1.5,1.51,0,1.548,0,1.548-1.526,1.548s-1.531,0-1.531-1.542c0-1.516,0-1.516,1.557-1.516" transform="translate(-26.87 -17.474)" fill="#f72f45"/>
        <path id="Trazado_128402" data-name="Trazado 128402" d="M40.92,31.452A1.015,1.015,0,1,1,39.9,30.46a1.02,1.02,0,0,1,1.022.992" transform="translate(-15.452 -12.102)" fill="#f52f44"/>
      </g>
    </g>
  </g>
</svg>
