<svg xmlns="http://www.w3.org/2000/svg" xmlns:xlink="http://www.w3.org/1999/xlink" width="245.026" height="183.469" viewBox="0 0 245.026 183.469">
  <defs>
    <clipPath id="clip-path">
      <rect id="Rect치ngulo_37262" data-name="Rect치ngulo 37262" width="161.356" height="128.224" fill="none"/>
    </clipPath>
  </defs>
  <g id="_87" data-name="87" transform="translate(-547 -4122)">
    <g id="Image_Place_Holder" data-name="Image Place Holder" transform="translate(547 4189.469)">
      <rect id="Image_Place_Holder-2" data-name="Image Place Holder" width="245.027" height="116" rx="10" fill="#c9f0ee"/>
    </g>
    <g id="Grupo_156888" data-name="Grupo 156888">
      <g id="Grupo_156887" data-name="Grupo 156887" transform="translate(-1)">
        <g id="Grupo_156856" data-name="Grupo 156856" transform="translate(0)">
          <g id="Grupo_156850" data-name="Grupo 156850" transform="translate(589 4129)">
            <g id="Grupo_156849" data-name="Grupo 156849" clip-path="url(#clip-path)">
              <path id="Trazado_128418" data-name="Trazado 128418" d="M0,.929C1.013-.185,2.016-.119,3.313.623,15.5,7.591,27.737,14.486,39.934,21.444a2.221,2.221,0,0,0,2.547-.015Q60.968,10.854,79.492.344a2.147,2.147,0,0,1,2.349.01c12.292,7,24.6,13.969,36.875,21a2.6,2.6,0,0,0,2.969-.052Q139.636,11.056,157.631.886a10.87,10.87,0,0,1,1.382-.743A1.623,1.623,0,0,1,161.271,1.4a8.768,8.768,0,0,1,.046,1.572q0,49.942.038,99.883a3.47,3.47,0,0,1-2.025,3.477q-19.043,10.71-38.014,21.549a2.142,2.142,0,0,1-2.345,0q-18.51-10.536-37.023-21.066a2.222,2.222,0,0,0-2.544-.014Q60.914,117.36,42.379,127.852a2.138,2.138,0,0,1-2.343.042Q20.979,117.046,1.909,106.223c-.668-.381-1.274-.871-1.909-1.31V.929" transform="translate(0 0)"/>
              <path id="Trazado_128419" data-name="Trazado 128419" d="M178.841,64.7c1.3,4.348-1.022,6.566-4.647,8.186a37.7,37.7,0,0,0-4.994,2.967,1.27,1.27,0,0,1-1.881-.175q-6.507-6.167-13.1-12.239c-.645-.6-.557-1.088-.234-1.784a19.071,19.071,0,0,0,2.25-9.043,15.971,15.971,0,0,0-5.827-11.9c-.944-.8-1.132-1.25.08-1.873,1.4-.718,2.777-1.479,4.112-2.3a1.08,1.08,0,0,1,1.6.2q10.984,11.045,22.02,22.038a2.1,2.1,0,0,1,.63,1.682c-.032,1.415-.01,2.832-.01,4.248" transform="translate(-27.605 -6.69)" fill="#43d177"/>
              <path id="Trazado_128420" data-name="Trazado 128420" d="M40.165,124.694,19.129,112.764c-4.6-2.611-9.2-5.242-13.824-7.814a1.932,1.932,0,0,1-1.177-1.936q.039-48.052.024-96.1c0-.351.041-.7.074-1.234,1.446.813,2.759,1.546,4.065,2.288,9.936,5.639,19.849,11.319,29.83,16.876,1.586.882,2.408,1.816,2.053,3.63a5.96,5.96,0,0,0-.01,1.107c-.71.188-1.118-.327-1.579-.587q-13.828-7.8-27.634-15.649c-2.429-1.377-3.495-.758-3.5,2.027q0,19.85,0,39.7c0,15.019.02,30.037-.029,45.054a3.25,3.25,0,0,0,1.9,3.245c9.968,5.581,19.89,11.246,29.842,16.854a1.572,1.572,0,0,1,1.019,1.7c-.085.824-.018,1.664-.018,2.765" transform="translate(-0.762 -1.047)" fill="#f0f1f1"/>
              <path id="Trazado_128421" data-name="Trazado 128421" d="M185.49,5.618V7.434q0,47.566.027,95.132a2.5,2.5,0,0,1-1.478,2.55c-11.054,6.209-22.066,12.493-33.1,18.743-.435.247-.817.673-1.526.581,0-.827.049-1.66-.014-2.483a1.486,1.486,0,0,1,.947-1.577c10.042-5.652,20.056-11.354,30.1-17a3.157,3.157,0,0,0,1.839-3.11q-.06-42.526-.03-85.051c0-2.692-1.14-3.339-3.521-1.99Q164.912,21.061,151.09,28.9c-.486.276-.992.519-1.673.873,0-1.121.026-2.049-.009-2.974a1.107,1.107,0,0,1,.68-1.106C161.8,19.061,173.5,12.419,185.49,5.618" transform="translate(-27.56 -1.036)" fill="#f0f1f1"/>
              <path id="Trazado_128422" data-name="Trazado 128422" d="M52.587,78.581V63.194c0-7.606.021-15.211-.024-22.817a2.131,2.131,0,0,1,1.3-2.2c2.774-1.478,5.5-3.048,8.2-4.662a1.934,1.934,0,0,1,2.282.063c3.039,1.859,6.09,3.7,9.18,5.475.861.5,1.022.84.5,1.764q-8.386,14.94-16.68,29.931-2.207,3.968-4.419,7.934l-.334-.1" transform="translate(-9.697 -6.119)" fill="#43d177"/>
              <path id="Trazado_128423" data-name="Trazado 128423" d="M52.592,129.8c0-7.291,0-14.529.007-21.768a1.682,1.682,0,0,1,.163-.9c4.348-6.251,7.509-13.185,11.356-19.723C66,84.2,67.775,80.927,69.545,77.654c.458-.847.846-1.061,1.8-.616C76.705,79.546,82.1,81.987,87.5,84.41a1.568,1.568,0,0,1,1.059,1.673q-.044,11.254,0,22.509a1.749,1.749,0,0,1-1,1.751q-16.907,9.549-33.793,19.134a1.434,1.434,0,0,1-1.174.327" transform="translate(-9.702 -14.17)" fill="#43d177"/>
              <path id="Trazado_128424" data-name="Trazado 128424" d="M106.547,85.657c.481-.435.835-.206,1.189.2q7.074,8.106,14.16,16.2c3.352,3.818,6.732,7.61,10.092,11.421.408.462,1.006.794,1.08,1.5.8,2.461.356,4.983.3,7.476-.025,1.1-.834.8-1.488.483-2.124-1.034-4.137-2.27-6.178-3.449-5.81-3.357-11.682-6.6-17.5-9.942a2.941,2.941,0,0,1-1.75-2.861c.051-2.774.057-5.552-.115-8.328.16-3.61.033-7.221.067-10.831a6.732,6.732,0,0,1,.148-1.87" transform="translate(-19.616 -15.758)" fill="#2f7877"/>
              <path id="Trazado_128425" data-name="Trazado 128425" d="M122.055,54.561a12.885,12.885,0,0,1,25.61-1.926,12.334,12.334,0,0,1-1.156,7.164c-2.821,6.48-6.858,12.231-10.952,17.942-.511.713-.831.552-1.268-.056-4.221-5.877-8.384-11.79-11.2-18.513a10.509,10.509,0,0,1-1.031-4.611" transform="translate(-22.514 -7.705)" fill="#fb3349"/>
              <path id="Trazado_128426" data-name="Trazado 128426" d="M125.492,36.236c-2.291,1.359-4.6,2.707-6.219,4.9-3.715,5.053-4.6,10.5-2.173,16.378a17.806,17.806,0,0,0,1.209,2.714c.763,1.213.262,1.536-.891,1.764-3.62.718-7.227,1.5-10.839,2.257a2.76,2.76,0,0,1-.19-1.386c.051-6.921-.056-13.842.055-20.761q-.037-7.2,0-14.409c.012-2.168.538-2.462,2.4-1.456,1.378.744,2.709,1.573,4.11,2.271,3.765,2.272,7.62,4.394,11.43,6.6.457.264,1.159.342,1.1,1.128" transform="translate(-19.625 -4.739)" fill="#2f7877"/>
              <path id="Trazado_128427" data-name="Trazado 128427" d="M18.448,95.388c3.069,1.47,5.963,3.255,8.914,4.935q5.318,3.026,10.63,6.063c.251,3.716.055,7.438.1,11.156.025,1.939.065,3.881-.024,5.819-.07,1.514-.564,1.814-1.884,1.065Q27.7,119.621,19.2,114.858a2.44,2.44,0,0,1-1.215-2.377c0-2.725-.013-5.452,0-8.18q-.088-3.431-.04-6.862a2.569,2.569,0,0,1,.509-2.051" transform="translate(-3.307 -17.597)" fill="#2f7877"/>
              <path id="Trazado_128428" data-name="Trazado 128428" d="M149.614,81.227c5.29,4.946,10.464,9.7,15.532,14.576a2.606,2.606,0,0,0,3.728.369c3.19-1.992,6.443-3.885,9.651-5.807.427.4.273.783.273,1.118q.017,10.552.008,21.1c0,2.125-1.48,3.278-3.605,2.769q-7.785-1.867-15.563-3.768c-2.8-.679-5.589-1.384-8.392-2.04a2.037,2.037,0,0,1-1.794-2.193q.009-12.756.01-25.513a3.62,3.62,0,0,1,.153-.615" transform="translate(-27.57 -14.984)" fill="#43d177"/>
              <path id="Trazado_128429" data-name="Trazado 128429" d="M50.835,87.935c2.538-4.639,5.051-9.292,7.618-13.914Q67.882,57.049,77.35,40.1c1.205-2.163,1.076-2.621-1.037-3.886L66.092,30.094c1.085-.617,1.991-1.089,2.849-1.636.6-.384.98.015,1.413.272,3.879,2.294,7.733,4.634,11.65,6.862,1.056.6,1.079,1.06.52,2.052-3.78,6.712-7.5,13.459-11.229,20.2-1.088,1.963-.886,2.6,1.119,3.521q8.778,4.022,17.562,8.035A3.3,3.3,0,0,1,89.93,72.9c-3.742-1.335-7.246-3.212-10.88-4.794-2.732-1.189-5.428-2.46-8.141-3.694-2.376-1.081-2.738-.965-3.968,1.247Q59.393,79.239,51.83,92.809c-.237.425-.289,1.038-.927,1.156a8.092,8.092,0,0,1-.068-6.031" transform="translate(-9.276 -5.22)" fill="#fbbe49"/>
              <path id="Trazado_128430" data-name="Trazado 128430" d="M93.316,15.246v3.937q0,20.8,0,41.593c0,1.692-.007,1.691-1.576.98q-5.085-2.307-10.17-4.614c-1.757-.8-1.744-.806-.775-2.552q5.423-9.769,10.831-19.546c1.134-2.055.987-2.55-1.057-3.763q-5.685-3.373-11.385-6.719c-.661-.387-1.109-.7-.133-1.249,4.652-2.621,9.3-5.255,14.265-8.066" transform="translate(-14.479 -2.813)" fill="#43d177"/>
              <path id="Trazado_128431" data-name="Trazado 128431" d="M17.38,106.034c.007,2.726.024,5.453.011,8.179a1.593,1.593,0,0,0,.829,1.674c5.808,3.229,11.588,6.508,17.38,9.767.264.149.557.249,1.033.458v-6.085c0-3.513-.009-7.026.009-10.538,0-.55-.207-1.169.32-1.625,4.7,2.4,4.7,2.4,4.7,7.543v19.529c-3.291-1.854-6.381-3.587-9.464-5.334-6.2-3.508-12.379-7.04-18.595-10.514a2.031,2.031,0,0,1-1.273-2.055c.081-4.3.06-8.595.075-12.893a3,3,0,0,1,4.648.868,6.557,6.557,0,0,0,.326,1.027" transform="translate(-2.274 -19.073)" fill="#43c7b7"/>
              <path id="Trazado_128432" data-name="Trazado 128432" d="M105.575,101.077c.62,2.69.244,5.419.267,8.128a2.4,2.4,0,0,0,1.468,2.417c7.24,4.053,14.423,8.208,21.631,12.318.944.537,1.927,1.006,3.114,1.621v-8.1c1.915,1.22,2.709,3.615,4.837,4.634.163.078.17.577.171.88.011,3.618.007,7.235.007,11.152-2.143-1.187-4.124-2.264-6.086-3.375q-8.739-4.949-17.466-9.919c-3.958-2.248-7.909-4.507-11.885-6.722a1.5,1.5,0,0,1-.8-1.545c.024-4.564.03-9.128.042-13.692,1.17.1,2.4-.17,3.467.576.586.41,1.3.721,1.229,1.628" transform="translate(-18.602 -18.24)" fill="#20506d"/>
              <path id="Trazado_128433" data-name="Trazado 128433" d="M12.433,45.211V19.8c2.522,1.417,4.931,2.761,7.33,4.12q10.332,5.855,20.661,11.714c.7.395,1.287.714,1.281,1.732-.057,9.343-.055,18.685-.071,28.029-.282,1.287-1.027,1.37-2.018.762a3,3,0,0,1-1.339-1.21,7.029,7.029,0,0,1-.184-2.337c-.006-6.967-.069-13.935.036-20.9A4.384,4.384,0,0,0,35.569,37.2C29.982,34.211,24.532,30.971,19,27.886c-1.054-.587-2.056-.913-2.8.434a3.8,3.8,0,0,0-.224,1.848q-.011,7.206-.006,14.414a7.038,7.038,0,0,1-.092,1.56c-.144.637-.535.882-1.152.639a4.679,4.679,0,0,1-2.288-1.57" transform="translate(-2.294 -3.653)" fill="#43c7b7"/>
              <path id="Trazado_128434" data-name="Trazado 128434" d="M98.9,81.3q.023-1.752.046-3.5l16.9-3.522c.256-.054.511-.114.768-.163,2.94-.555,2.941-.555,4.34,2.5-2.065.444-4.1.884-6.131,1.318-2.71.577-3.106,1.721-1.258,3.822q12.311,14.005,24.646,27.99c.346.392.674.8,1.01,1.2.158,1.152.409,2.312-.268,3.4a3.308,3.308,0,0,1-2.346-1.37Q122.62,96.978,108.623,81a2.89,2.89,0,0,0-3.29-1.068c-2.121.55-4.288.922-6.435,1.368" transform="translate(-18.244 -13.62)" fill="#fb6a35"/>
              <path id="Trazado_128435" data-name="Trazado 128435" d="M112.175,27.038a26.627,26.627,0,0,1-4.967-2.649c-1.03-.6-1.31-.448-1.3.752.025,4.925-.016,9.851-.032,14.776a2.857,2.857,0,0,1-1.841,2.152c-2.087.724-3.054.092-3.014-2.075a69.849,69.849,0,0,1,.123-7.334c-.407-5.21-.178-10.431-.234-15.646-.006-.559,0-1.118,0-2.05l15.386,8.883c.573,2.426-1.38,3.94-4.117,3.19" transform="translate(-18.612 -2.761)" fill="#43c7b7"/>
              <path id="Trazado_128436" data-name="Trazado 128436" d="M180.927,53.639c-2.414-2.444-4.5-4.573-6.607-6.686q-6.393-6.416-12.814-12.805c-.683-.676-.864-1.038.158-1.539,1.454-.713,2.906-2.271,4.236-2.147,1.222.113,2.3,1.96,3.409,3.069,3.571,3.558,7.115,7.144,10.707,10.679a2.709,2.709,0,0,1,.932,2.187c-.063,2.251-.02,4.506-.02,7.242" transform="translate(-29.69 -5.618)" fill="#fbbe49"/>
              <path id="Trazado_128437" data-name="Trazado 128437" d="M137.051,146.2c-1.637-.923-3.039-1.709-4.436-2.5q-15.236-8.644-30.47-17.292c-1.024-.581-1.809-3.108-1.207-4.063.418-.661.841.011,1.152.183,3.8,2.119,7.564,4.283,11.344,6.429,7.2,4.084,14.364,8.219,21.617,12.2,1.535.842,2.331,1.722,2.011,3.473a10.645,10.645,0,0,0-.011,1.573" transform="translate(-18.582 -22.517)" fill="#f0f1f1"/>
              <path id="Trazado_128438" data-name="Trazado 128438" d="M137.073,29.716a3.328,3.328,0,0,1-1.794-.76c-10.8-6.107-21.559-12.27-32.4-18.3-1.577-.877-2.24-1.826-1.973-3.534a8.021,8.021,0,0,0,.01-1.222,2.821,2.821,0,0,1,1.668.67c10.838,6.14,21.646,12.332,32.522,18.4,1.544.861,2.272,1.784,1.976,3.506a7.6,7.6,0,0,0-.01,1.237" transform="translate(-18.604 -1.089)" fill="#f0f1f1"/>
              <path id="Trazado_128439" data-name="Trazado 128439" d="M52.74,29.905c-.886-2.765.243-4.119,2.567-5.4C66,18.622,76.564,12.514,87.182,6.5c.392-.222.746-.591,1.265-.532a2.634,2.634,0,0,1,.1.307c.443,2.33-.383,3.7-2.589,4.918C75.173,17.115,64.515,23.261,53.812,29.328c-.354.2-.717.387-1.072.577" transform="translate(-9.674 -1.099)" fill="#f0f1f1"/>
              <path id="Trazado_128440" data-name="Trazado 128440" d="M88.479,122.256c.036.147.066.246.086.348.444,2.3-.466,3.583-2.586,4.752-10.639,5.861-21.16,11.936-31.723,17.933-.489.278-.992.529-1.716.913,0-1.174.034-2.144-.012-3.11a1.082,1.082,0,0,1,.679-1.1q17.508-9.885,35.007-19.784c.035-.02.1.015.266.043" transform="translate(-9.69 -22.544)" fill="#f0f1f1"/>
              <path id="Trazado_128441" data-name="Trazado 128441" d="M43.825,97.907q.033,3.015.068,6.031l-28.88-16.3-.138-.076c-2.819-1.623-2.819-1.623-2.378-5.209,2.6,1.469,5.138,2.9,7.675,4.341,6.79,3.853,13.592,7.686,20.356,11.583,1.284.74,2.321.848,3.3-.374" transform="translate(-2.266 -15.193)" fill="#fb6a35"/>
              <path id="Trazado_128442" data-name="Trazado 128442" d="M178.861,80.793c.069.3.095.4.113.5.458,2.4-.365,3.932-2.685,5.039a89.3,89.3,0,0,0-7.977,4.7,1.1,1.1,0,0,1-1.6-.137c-5.213-4.937-10.464-9.834-15.7-14.752-.31-.292-.885-.53-.457-1.131.535-.751.742-1.753,1.562-2.251.136-.082.718.512,1.059.832,4.318,4.053,8.666,8.076,12.922,12.194a2.62,2.62,0,0,0,3.735.4c2.918-1.833,5.912-3.545,9.022-5.395" transform="translate(-27.747 -13.422)" fill="#fbbe49"/>
              <path id="Trazado_128443" data-name="Trazado 128443" d="M182.8,19.791V37.965c-.49.173-.641-.27-.868-.5-3.345-3.326-6.662-6.68-10.024-9.989-.712-.7-.923-1.073.148-1.655,3.534-1.919,7.016-3.932,10.743-6.036" transform="translate(-31.604 -3.651)" fill="#2a92fe"/>
              <path id="Trazado_128444" data-name="Trazado 128444" d="M101.125,36.665q.012,3.538.024,7.076c0,2.051,1.344,2.775,3.194,1.741a6.81,6.81,0,0,0,1.514-1.562q.01,10.429.024,20.856a2.446,2.446,0,0,1-.331,1.5c-1.225.263-2.465.47-3.667.81-.838.237-1.049-.068-1.01-.811.013-.261,0-.524,0-.785q-.013-13.511-.017-27.022c0-.6-.224-1.264.269-1.8" transform="translate(-18.596 -6.764)" fill="#2fa98f"/>
              <path id="Trazado_128445" data-name="Trazado 128445" d="M12.385,47.042c1.1.171,1.854,1.106,3.09,1.448V41.384c0-3.391,0-6.781.007-10.172,0-.5-.153-1.054.276-1.486a2.261,2.261,0,0,1,.514,1.908c-.024,8.765.055,17.531-.079,26.3-.037,2.355.117,4.721.091,7.082-.014,1.192.864,1.863,1.355,2.765a5.536,5.536,0,0,1,.166,2.433c-.052.48-.044,1.068-.761,1.13-1.532-.893-3.614-1.446-4.438-2.778-.78-1.26-.273-3.338-.272-5.056,0-5.488.032-10.976.051-16.464" transform="translate(-2.245 -5.484)" fill="#2fa98f"/>
              <path id="Trazado_128446" data-name="Trazado 128446" d="M135.909,98.435c-1.762-1.928-3.552-3.832-5.281-5.789-2.773-3.139-5.484-6.333-8.272-9.458-.675-.757-.668-1.09.351-1.291,1.228-.242,2.451-.515,3.678-.764.8-.161,1.231.3,1.663.9,1.744,2.418,3.544,4.8,5.294,7.21a1.82,1.82,0,0,0,2.568.715,1.492,1.492,0,0,1,.46,1.124q.121,3.114,0,6.23a1.487,1.487,0,0,1-.461,1.123" transform="translate(-22.485 -14.961)" fill="#2f7776"/>
              <path id="Trazado_128447" data-name="Trazado 128447" d="M149.455,139.592c0-3.676.006-7.067,0-10.459,0-.689.219-.924.947-.747,4.259,1.038,8.528,2.041,13.235,3.161l-14.177,8.045" transform="translate(-27.57 -23.674)" fill="#43d176"/>
              <path id="Trazado_128448" data-name="Trazado 128448" d="M114.727,29.047c2.93-.081,3.682-.664,4.117-3.19l15.834,8.831a30.4,30.4,0,0,0-7.647,1.578q-5.176-2.984-10.349-5.973c-.668-.387-1.3-.829-1.955-1.246" transform="translate(-21.164 -4.77)" fill="#2fa98f"/>
              <path id="Trazado_128449" data-name="Trazado 128449" d="M148,122.733c.123-1.13-.316-2.3.268-3.4l23.668,5.736c-2.27,1.258-3.924,2.707-6.705,1.9-5.677-1.644-11.48-2.852-17.231-4.24" transform="translate(-27.294 -22.015)" fill="#fbbe49"/>
              <path id="Trazado_128450" data-name="Trazado 128450" d="M139.08,98.966q0-4.239,0-8.477l4.943-6.51v20.63a60.715,60.715,0,0,1-4.944-5.643" transform="translate(-25.657 -15.492)" fill="#20506d"/>
              <path id="Trazado_128451" data-name="Trazado 128451" d="M18.147,79.925c.687-1.116.132-2.357.356-3.519.7-.392,1.193.122,1.722.413C25.552,79.754,30.79,82.85,36.1,85.81c.76.423,1.757.388,2.308,1.2-.5,1.261.089,2.72-.718,3.923L18.147,79.925" transform="translate(-3.348 -14.069)" fill="#2f7776"/>
              <path id="Trazado_128452" data-name="Trazado 128452" d="M42.1,90.76c.266-1.344-.627-2.872.646-4.056,1.352-2.847.55-5.882.769-8.827.064-.868-.207-1.8.478-2.554a8.607,8.607,0,0,1,1.172.706c.834.7,1.443.516,1.93-.391V93.712L42.1,90.76" transform="translate(-7.756 -13.895)" fill="#2fa98f"/>
              <path id="Trazado_128453" data-name="Trazado 128453" d="M105.58,98.648c-.944-1.215-2.013-2.161-3.716-1.629-.566.177-.711-.289-.98-.576,0-2.834.034-5.67-.019-8.5-.019-.98.317-1.43,1.289-1.566,1.137-.157,2.257-.438,3.384-.665a1.058,1.058,0,0,1,.349.984q0,5.559,0,11.117a.892.892,0,0,1-.306.838" transform="translate(-18.607 -15.811)" fill="#2fa98f"/>
              <path id="Trazado_128454" data-name="Trazado 128454" d="M17.383,103.947c-1.576-2.365-2.575-2.746-4.975-1.894-.015-3.028-.009-6.057-.06-9.084-.016-.983.319-1.089,1.069-.612a37.244,37.244,0,0,1,4,2.422l-.037,9.169" transform="translate(-2.278 -16.987)" fill="#2fa98f"/>
              <path id="Trazado_128455" data-name="Trazado 128455" d="M86.083,98.588c0,2.833-.038,5.667.019,8.5a2.435,2.435,0,0,1-1.375,2.415c-8.446,4.761-16.872,9.555-25.321,14.309-1.495.842-2.641.193-2.659-1.5-.041-3.882,0-7.765-.009-11.647a3.51,3.51,0,0,1,.608-1.752Q64.331,96.338,71.3,83.755a1.951,1.951,0,0,1,2.961-.961c3.408,1.614,6.851,3.154,10.3,4.69A2.334,2.334,0,0,1,86.1,89.931c-.059,2.885-.019,5.771-.019,8.657" transform="translate(-10.465 -15.212)" fill="#302d3d"/>
              <path id="Trazado_128456" data-name="Trazado 128456" d="M135.983,63.984a8.06,8.06,0,0,1-8.2-8.278,8.234,8.234,0,1,1,8.2,8.278" transform="translate(-23.572 -8.763)" fill="#302d3d"/>
              <path id="Trazado_128457" data-name="Trazado 128457" d="M153.442,101c0-1.733.009-3.466,0-5.2-.007-1.032.027-2.037,1.183-2.5,1.05-.42,1.657.318,2.307.926,3.068,2.867,6.158,5.712,9.186,8.62a1.39,1.39,0,0,0,2.031.25c1.632-1.049,3.313-2.023,4.993-2.995,1.791-1.037,2.969-.374,2.982,1.685q.032,4.883,0,9.768c-.013,1.678-.8,2.292-2.418,1.912-6.116-1.432-12.227-2.889-18.343-4.323a2.234,2.234,0,0,1-1.921-2.472c.026-1.89.007-3.782.007-5.672" transform="translate(-28.305 -17.189)" fill="#302d3d"/>
              <path id="Trazado_128458" data-name="Trazado 128458" d="M39.287,66.657c-.014,3.02-.053,6.04-.028,9.059a2.273,2.273,0,0,1-1.219,2.323c-1.816.088-3.1-1.125-4.533-1.918-4.885-2.713-9.721-5.512-14.58-8.272a5.167,5.167,0,0,0-.724-.282c-1.368-.724-1.693-1.852-1.685-3.374.065-11.573.04-23.147.042-34.721.709-1.289,1.678-1.391,2.893-.7Q28.666,34.012,37.9,39.214a2.615,2.615,0,0,1,1.342,2.608c-.022,7.65-.012,15.3-.009,22.951,0,.628.033,1.256.051,1.884" transform="translate(-3.047 -5.23)" fill="#302d3d"/>
              <path id="Trazado_128459" data-name="Trazado 128459" d="M60.756,120.572c0-2.973-.024-5.632.024-8.29a3.053,3.053,0,0,1,.5-1.3c4.191-7.557,8.4-15.1,12.576-22.666.454-.824.8-1.164,1.78-.668,2.195,1.107,4.45,2.1,6.7,3.078a1.514,1.514,0,0,1,1.115,1.609c-.051,4.773-.027,9.547-.02,14.321,0,.594-.022,1.083-.658,1.441-7.25,4.083-14.484,8.2-22.025,12.47" transform="translate(-11.207 -16.127)" fill="#fdd8b6"/>
              <path id="Trazado_128460" data-name="Trazado 128460" d="M141.619,56.5a4.9,4.9,0,0,1-4.951,4.984,4.989,4.989,0,0,1-4.868-4.946,4.914,4.914,0,0,1,4.911-4.865,4.808,4.808,0,0,1,4.908,4.828" transform="translate(-24.314 -9.532)" fill="#fefefe"/>
              <path id="Trazado_128461" data-name="Trazado 128461" d="M157.623,99.984c2.9,2.687,5.614,5.112,8.216,7.653a2.475,2.475,0,0,0,3.6.323c1.073-.74,2.23-1.359,3.341-2.045.589-.365.865-.237.837.469,0,.052,0,.1,0,.157-.02,1.411.506,3.324-.206,4.1-.775.84-2.56-.26-3.888-.552-3.621-.8-7.217-1.7-10.832-2.531-.772-.177-1.124-.475-1.091-1.346.073-1.966.023-3.937.023-6.224" transform="translate(-29.073 -18.445)" fill="#fcd8b6"/>
              <path id="Trazado_128462" data-name="Trazado 128462" d="M36.549,49.167c-1.826-1.028-3.454-1.939-5.078-2.858-3.283-1.858-6.554-3.738-9.854-5.566a1.825,1.825,0,0,1-1.109-1.867c.064-1.308.037-2.623.01-3.933-.015-.752.212-.967.9-.572Q28.657,38.5,35.9,42.613a1.158,1.158,0,0,1,.658,1.135c-.026,1.717-.01,3.435-.01,5.418" transform="translate(-3.782 -6.305)" fill="#4395a3"/>
              <path id="Trazado_128463" data-name="Trazado 128463" d="M36.545,58c-.122.634.387,1.716-.232,2.083s-1.37-.5-2.035-.873c-4.01-2.26-7.977-4.6-12.036-6.77a2.854,2.854,0,0,1-1.764-3.048c.13-3.054.046-3.074,2.708-1.572,3.736,2.108,7.455,4.246,11.186,6.364,2.168,1.231,2.172,1.223,2.172,3.816" transform="translate(-3.777 -8.642)" fill="#4395a3"/>
              <path id="Trazado_128464" data-name="Trazado 128464" d="M36.534,71.46,25.517,65.228a11.882,11.882,0,0,0-2.195-1.214c-2.937-.9-3.056-3.116-2.83-5.594.083-.905.38-.943,1.074-.546q7.09,4.059,14.2,8.077a1.366,1.366,0,0,1,.772,1.39c-.029,1.255-.009,2.513-.009,4.118" transform="translate(-3.767 -10.632)" fill="#4395a3"/>
              <path id="Trazado_128465" data-name="Trazado 128465" d="M36.362,80.88c-3.446-1.943-6.85-3.859-10.251-5.779a38.15,38.15,0,0,0-3.691-2.068,2.964,2.964,0,0,1-1.95-3.43c.094-1.162.356-1.192,1.251-.674,3.664,2.125,7.351,4.208,11.03,6.306.5.285,1,.57,1.5.847,2.626,1.443,2.627,1.442,2.107,4.8" transform="translate(-3.772 -12.656)" fill="#4395a3"/>
            </g>
          </g>
          <rect id="Rect치ngulo_37265" data-name="Rect치ngulo 37265" width="176" height="142" transform="translate(582 4122)" fill="none"/>
        </g>
      </g>
      <g id="Grupo_156881" data-name="Grupo 156881" transform="translate(578 4091)">
        <path id="Trazado_126894" data-name="Trazado 126894" d="M19.994,132.814c-1.384.308-1.7-.344-1.691-1.637.035-3.239-.02-3.3-3.373-3.277-1.247.007-1.635-.379-1.611-1.614.023-1.15.233-1.685,1.56-1.68,3.363.013,3.449-.055,3.413-3.411-.016-1.518.729-1.546,1.855-1.558s1.709.176,1.709,1.525c0,3.4.069,3.46,3.389,3.446,1.284-.005,1.588.458,1.591,1.651s-.3,1.65-1.586,1.642c-3.385-.019-3.466.044-3.391,3.25.035,1.488-.514,1.924-1.864,1.662" transform="translate(-8.318 -24.997)" fill="#29c4bb"/>
        <path id="Trazado_126895" data-name="Trazado 126895" d="M217.019,151.2c1.239-.236,1.925.173,1.721,1.576-.171,1.173.235,1.827,1.534,1.626s1.736.269,1.747,1.636c.01,1.433-.575,1.764-1.8,1.6-1.167-.158-1.537.35-1.514,1.511.037,1.819-1.089,2.517-2.848,1.966-.835-.261-.652-.928-.6-1.455.146-1.438-.182-2.318-1.879-2.03-1.313.223-1.394-.6-1.39-1.608,0-.992.043-1.823,1.375-1.617,1.436.222,2.115-.3,1.877-1.82-.227-1.449.7-1.513,1.773-1.385" transform="translate(-45.658 -33.953)" fill="#29c4bb"/>
        <path id="Trazado_126896" data-name="Trazado 126896" d="M217.407,72.615c.32,1.382-.312,1.855-1.608,1.637-1.4-.236-1.976.339-1.728,1.733.24,1.35-.344,1.672-1.651,1.684-1.349.012-1.857-.386-1.622-1.7.251-1.4-.332-1.974-1.721-1.714-1.439.27-1.565-.482-1.619-1.692-.064-1.421.488-1.791,1.725-1.576,1.345.235,1.847-.322,1.618-1.636-.219-1.257.187-1.766,1.587-1.716,1.235.044,1.948.219,1.684,1.634s.35,1.948,1.73,1.716c1.3-.218,1.927.247,1.605,1.629" transform="translate(-69.45 3.711)" fill="#010000"/>
        <path id="Trazado_126897" data-name="Trazado 126897" d="M61.718,190.022c.3,1.289-.334,1.763-1.623,1.53-1.514-.274-1.871.514-1.654,1.789.241,1.418-.446,1.638-1.691,1.63-1.19-.007-1.83-.277-1.579-1.559.328-1.685-.514-2.1-1.965-1.85-1.489.254-1.419-.685-1.425-1.706,0-.988.021-1.827,1.366-1.561,1.809.358,2.271-.511,2.027-2.13-.234-1.55.947-1.1,1.736-1.151.835-.05,1.766-.158,1.522,1.187-.3,1.662.282,2.433,2.041,2.1,1.469-.282,1.289.742,1.245,1.725" transform="translate(-14.582 -24.322)" fill="#010000"/>
        <path id="Trazado_126898" data-name="Trazado 126898" d="M121.84,20.724c-.346-1.471.467-1.758,1.671-1.579,1.251.186,1.743-.332,1.553-1.564s.175-1.792,1.593-1.763c1.3.026,1.9.364,1.672,1.7-.232,1.372.4,1.818,1.687,1.625,1.192-.178,1.789.107,1.8,1.562.007,1.491-.555,1.891-1.854,1.684-1.373-.219-1.838.407-1.626,1.687.239,1.438-.533,1.6-1.742,1.628-1.293.026-1.714-.459-1.524-1.645.208-1.3-.273-1.895-1.63-1.667-1.325.222-1.891-.324-1.595-1.669" transform="translate(-84.601 17.184)" fill="#29c4bb"/>
      </g>
    </g>
  </g>
</svg>
