<svg xmlns="http://www.w3.org/2000/svg" xmlns:xlink="http://www.w3.org/1999/xlink" width="245.026" height="183.469" viewBox="0 0 245.026 183.469">
  <defs>
    <clipPath id="clip-path">
      <rect id="Rect치ngulo_37273" data-name="Rect치ngulo 37273" width="113.165" height="128.58" fill="none"/>
    </clipPath>
  </defs>
  <g id="_88" data-name="88" transform="translate(-808 -4122)">
    <g id="Image_Place_Holder" data-name="Image Place Holder" transform="translate(808 4189.469)">
      <rect id="Image_Place_Holder-2" data-name="Image Place Holder" width="245.027" height="116" rx="10" fill="#c9f0ee"/>
    </g>
    <g id="Grupo_156886" data-name="Grupo 156886" transform="translate(0)">
      <g id="Grupo_156857" data-name="Grupo 156857">
        <rect id="Rect치ngulo_37267" data-name="Rect치ngulo 37267" width="176" height="142" transform="translate(843 4122)" fill="none"/>
        <g id="Grupo_156862" data-name="Grupo 156862" transform="translate(874 4129)">
          <g id="Grupo_156862-2" data-name="Grupo 156862" clip-path="url(#clip-path)">
            <path id="Trazado_128544" data-name="Trazado 128544" d="M5.661,87.578c-.3-1.135.19-1.747,1.266-2.1a6.88,6.88,0,0,1,4.24-.075c.164-1.139.038-2.23.285-3.3a10.436,10.436,0,0,1,4.814-6.793c1.519-.941,3.074-1.827,4.639-2.694a3.405,3.405,0,0,1,4.942,1.314q1.27,2.068,2.422,4.2c.325.6.574.781,1.224.353a33.184,33.184,0,0,1,3.537-2.043c.745-.369.665-.708.372-1.357a25.111,25.111,0,0,1,.025-21.638c.27-.592.353-.919-.339-1.271-1.251-.636-2.463-1.355-3.649-2.1-.579-.365-.827-.24-1.132.322-.772,1.421-1.587,2.82-2.426,4.2a3.42,3.42,0,0,1-5.029,1.338c-1.343-.737-2.66-1.519-3.987-2.289a10.485,10.485,0,0,1-5.629-9.769c0-.169,0-.339-.014-.508,0-.04-.034-.077-.088-.189-3.573,1.139-6.261-.869-8.82-2.816a6.34,6.34,0,0,1-1.26-8.44,6.509,6.509,0,0,1,8.179-2.5A28.147,28.147,0,0,1,13.1,31.649a6.527,6.527,0,0,1,2.524,3.905,10.828,10.828,0,0,1,12.455-.019c1.152.725,2.375,1.338,3.53,2.058A3.421,3.421,0,0,1,32.9,42.454c-.77,1.421-1.585,2.821-2.432,4.2-.362.589-.382.916.307,1.27,1.211.621,2.39,1.312,3.541,2.039.6.383.9.273,1.306-.3a25.394,25.394,0,0,1,16.569-10.6c.126-.024.252-.058.377-.075.883-.116,2.219.072,2.543-.414.459-.691.2-1.877.2-2.852.014-2.884,0-2.882-2.9-2.886-1.109,0-2.223.033-3.328-.034a3.112,3.112,0,0,1-3-2.677,27.118,27.118,0,0,1,.186-8.409,10.509,10.509,0,0,1,5.988-7.277c-2.557-2.18-2.388-5.118-2.267-8.019A6.626,6.626,0,0,1,56.13.014a6.428,6.428,0,0,1,6.937,5.613c.387,3.1.617,6.276-2.118,8.812.36.192.641.321.9.482a10.5,10.5,0,0,1,5.367,8.907c.082,1.789.078,3.586.02,5.377A3.423,3.423,0,0,1,63.5,32.828c-1.493.02-2.993.079-4.481-.021-1.018-.069-1.221.3-1.162,1.219a29.749,29.749,0,0,1,0,3.711c-.045.776.2.985.96,1.055a25.274,25.274,0,0,1,15.047,6.614,20.964,20.964,0,0,1,3.614,4.134c.5.781.9.763,1.605.311,1.108-.714,2.268-1.353,3.427-1.983.532-.289.614-.551.283-1.087-.827-1.34-1.6-2.715-2.368-4.089-1.2-2.147-.731-3.974,1.348-5.233.693-.42,1.427-.77,2.1-1.22a1.559,1.559,0,0,1,2.181.191c.591.919.233,1.61-.542,2.182-.413.3-.89.5-1.33.767-1.717,1.029-1.768,1.1-.714,2.856,1.582,2.632,3.043,5.335,4.628,7.964.529.877.993,1.79,1.542,2.655.338.535.76.869,1.369.5C92.893,52.206,95,51.4,96.612,49.816a7.706,7.706,0,0,0-2.021-12.64,3.612,3.612,0,0,1-.906-.466c-.473-.436-.956-.9-.4-1.6a1.5,1.5,0,0,1,2.254-.653c.644.33,1.282.67,2.067,1.083.591-3.2,3.2-4.477,5.72-5.831a6.593,6.593,0,0,1,6.592,11.418c-.433.27-.881.518-1.324.773-2.889,1.667-3.283,1.748-6.585,1.349a28.224,28.224,0,0,1-.277,3.279,10.351,10.351,0,0,1-3.317,5.629,33.031,33.031,0,0,1-6.753,4.1,3.238,3.238,0,0,1-4.208-1.426c-.9-1.443-1.738-2.929-2.563-4.419-.294-.534-.516-.729-1.123-.341-1.219.779-2.482,1.493-3.762,2.166-.568.3-.543.578-.307,1.087A25.06,25.06,0,0,1,79.684,75.3c-.2.43-.284.723.239,1.008q2.018,1.1,3.98,2.3c.54.33.7.054.93-.353.8-1.408,1.6-2.81,2.439-4.194,1.256-2.076,2.99-2.548,5.1-1.383,1.49.821,2.975,1.657,4.422,2.557a10.2,10.2,0,0,1,5.134,9.135c0,.883.208,1.11,1.031.856a3.763,3.763,0,0,1,2.521.064c3.249,1.312,6.637,2.521,7.507,6.546a6.5,6.5,0,0,1-8.388,7.55,12.91,12.91,0,0,1-5.757-3.654,9.334,9.334,0,0,1-1.319-2.676c-3.29,2.086-6.761,2.666-10.332,1.057a49.147,49.147,0,0,1-5.888-3.317,3.317,3.317,0,0,1-1.037-4.621q1.185-2.19,2.491-4.312c.355-.574.3-.856-.3-1.175-1.24-.659-2.469-1.347-3.649-2.1-.6-.385-.853-.2-1.211.3a25.285,25.285,0,0,1-18.707,10.9c-.783.081-1.087.281-1.036,1.119a30.587,30.587,0,0,1,0,3.838c-.056.888.288,1.055,1.085,1.03q2.494-.078,4.993.005a3.142,3.142,0,0,1,3.186,2.767,27.483,27.483,0,0,1-.156,8.16,10.485,10.485,0,0,1-5.97,7.424c2.826,2.795,2.548,6.249,1.918,9.627-.55,2.938-3.517,4.925-6.569,4.828a6.476,6.476,0,0,1-6.155-5.2,13.526,13.526,0,0,1,.24-6.579,7.145,7.145,0,0,1,1.775-2.664c-4.487-2.348-6.456-6.057-6.271-10.994.046-1.236-.028-2.476.016-3.712.085-2.387,1.413-3.654,3.815-3.678,1.536-.016,3.073-.033,4.609.009.679.019.995-.116.961-.891-.062-1.406-.051-2.817,0-4.223.02-.612-.17-.775-.768-.835A25.318,25.318,0,0,1,35.53,78.781c-.355-.5-.632-.508-1.133-.2-1.193.741-2.415,1.438-3.655,2.1-.589.313-.684.582-.315,1.17.814,1.3,1.555,2.64,2.309,3.973,1.244,2.2.8,4.1-1.38,5.314-2.441,1.355-4.681,3.126-7.533,3.667a10.9,10.9,0,0,1-8.208-1.8c-.674,3.371-3.417,4.681-6.058,6.023A6.543,6.543,0,0,1,.436,95.364c-.372-1.028-.214-1.742.843-2.16,1.172-.451,1.491.487,1.88,1.208.847,1.569,2.077,2.607,3.9,2.285a7.869,7.869,0,0,0,5.19-3.217,3.481,3.481,0,0,0-.141-3.864A3.58,3.58,0,0,0,8.3,88.125c-.944.208-2.009.833-2.638-.547" transform="translate(0 0)"/>
            <path id="Trazado_128545" data-name="Trazado 128545" d="M89.839,33.651a1.712,1.712,0,0,0,1.239,1.719,7.668,7.668,0,0,1,4.839,6.8,7.8,7.8,0,0,1-4.1,7.66c-1.309.793-2.664,1.51-3.966,2.315-.822.508-1.392.417-1.885-.444q-3.358-5.869-6.757-11.713a1.147,1.147,0,0,1,.55-1.858c.6-.31,1.164-.712,1.775-1a1.659,1.659,0,0,0,1.072-2.15L84.84,33.9c1.408.82,1.408.82,2.581-.473a6.459,6.459,0,0,1,2.418.22" transform="translate(3.441 1.456)" fill="#fb5d3d"/>
            <path id="Trazado_128546" data-name="Trazado 128546" d="M5.608,83.92a1.755,1.755,0,0,0,1.968.386,4.007,4.007,0,0,1,5.205,2.15,4.063,4.063,0,0,1-1.936,5.21c-.693.414-1.385.832-2.093,1.217a4.008,4.008,0,0,1-5.966-2.09,1.635,1.635,0,0,0-1.56-1.247c.058-2.967,2.007-4.461,4.382-5.625" transform="translate(0.053 3.658)" fill="#fdb59e"/>
            <path id="Trazado_128547" data-name="Trazado 128547" d="M87.175,33.475a1.369,1.369,0,0,1-1.087,1.4,1.312,1.312,0,0,1-1.493-.926c-.006-.731.152-1.371.989-1.548.882-.186,1.3.369,1.591,1.075" transform="translate(3.688 1.411)" fill="#050302"/>
            <path id="Trazado_128548" data-name="Trazado 128548" d="M32.144,62.538A23.051,23.051,0,1,1,55.132,85.62,23.085,23.085,0,0,1,32.144,62.538" transform="translate(1.401 1.723)" fill="#29c4bb"/>
            <path id="Trazado_128549" data-name="Trazado 128549" d="M54.532,29.6c-2.174,0-4.35-.04-6.521.018-1.087.028-1.585-.354-1.554-1.463.051-1.789-.058-3.589.105-5.365a8.036,8.036,0,0,1,16.008-.053c.171,1.862.082,3.747.1,5.621.01.912-.45,1.269-1.362,1.254-2.259-.037-4.519-.011-6.778-.011" transform="translate(2.025 0.673)" fill="#fb5d3d"/>
            <path id="Trazado_128550" data-name="Trazado 128550" d="M54.574,94.209c2.259,0,4.519.025,6.778-.013.94-.016,1.337.408,1.321,1.293-.032,1.917.118,3.837-.1,5.75a7.987,7.987,0,0,1-8,7.121,7.907,7.907,0,0,1-7.974-7.132c-.185-1.9-.1-3.83-.124-5.747-.014-.891.391-1.3,1.327-1.286,2.259.038,4.519.013,6.778.013" transform="translate(2.026 4.106)" fill="#fb5d3d"/>
            <path id="Trazado_128551" data-name="Trazado 128551" d="M13.217,42.626a8.039,8.039,0,0,1,11.568-7.165c1.642.8,3.183,1.813,4.78,2.711a1.078,1.078,0,0,1,.415,1.708Q26.561,45.8,23.149,51.731a1.072,1.072,0,0,1-1.7.432c-1.537-.915-3.121-1.755-4.626-2.721a7.866,7.866,0,0,1-3.6-6.817" transform="translate(0.576 1.51)" fill="#fb5d3d"/>
            <path id="Trazado_128552" data-name="Trazado 128552" d="M21.546,89.323a8.245,8.245,0,0,1-7.983-5.642,8.05,8.05,0,0,1,3.186-9.122c1.533-1,3.162-1.849,4.737-2.785a1.068,1.068,0,0,1,1.684.483Q26.578,78.187,30,84.108c.3.528.447,1.136-.158,1.467-2.413,1.324-4.578,3.163-7.4,3.652-.377.066-.762.083-.9.1" transform="translate(0.575 3.119)" fill="#fb5d3d"/>
            <path id="Trazado_128553" data-name="Trazado 128553" d="M95.962,80.236c-.05,6.993-6.245,10.854-11.58,8.252-1.644-.8-3.183-1.812-4.781-2.709a1.072,1.072,0,0,1-.415-1.705q3.427-5.919,6.837-11.848a1.074,1.074,0,0,1,1.7-.439c1.539.914,3.137,1.737,4.625,2.726a7.458,7.458,0,0,1,3.614,5.724" transform="translate(3.441 3.119)" fill="#fb5d3d"/>
            <path id="Trazado_128554" data-name="Trazado 128554" d="M58.422,7.957a13.724,13.724,0,0,1-.014,1.911A4.034,4.034,0,0,1,50.38,9.7a20.382,20.382,0,0,1,0-3.569,4.039,4.039,0,0,1,4.04-3.673A4.09,4.09,0,0,1,58.447,6.3c.045.549.007,1.105.007,1.658h-.032" transform="translate(2.193 0.107)" fill="#fdb59e"/>
            <path id="Trazado_128555" data-name="Trazado 128555" d="M58.457,115.729c0,.51.026,1.023-.005,1.531a4.049,4.049,0,0,1-8.1.008,29.377,29.377,0,0,1,0-3.062,4.048,4.048,0,0,1,8.094-.008c.032.508.006,1.021.006,1.531" transform="translate(2.193 4.806)" fill="#fdb59e"/>
            <path id="Trazado_128556" data-name="Trazado 128556" d="M7.025,30.134a9.647,9.647,0,0,1,5.418,3.382,3.856,3.856,0,0,1-.315,4.631,3.945,3.945,0,0,1-4.613,1.147A22.744,22.744,0,0,1,4.1,37.329a3.941,3.941,0,0,1-1.379-4.551c.568-1.605,2.074-2.646,4.3-2.643" transform="translate(0.108 1.314)" fill="#fdb59e"/>
            <path id="Trazado_128557" data-name="Trazado 128557" d="M101.888,93.479a9.682,9.682,0,0,1-5.43-3.4,3.852,3.852,0,0,1,.321-4.631,3.956,3.956,0,0,1,4.617-1.131,22.808,22.808,0,0,1,3.416,1.968,3.951,3.951,0,0,1,1.369,4.555,4.21,4.21,0,0,1-4.293,2.639" transform="translate(4.177 3.661)" fill="#fdb59e"/>
            <path id="Trazado_128558" data-name="Trazado 128558" d="M101.91,30.13c2.241.014,3.734,1.073,4.284,2.691a3.937,3.937,0,0,1-1.427,4.535,23.564,23.564,0,0,1-3.307,1.9,3.94,3.94,0,0,1-4.634-1.047,3.84,3.84,0,0,1-.337-4.731,9.558,9.558,0,0,1,5.42-3.351" transform="translate(4.177 1.313)" fill="#fdb59e"/>
            <path id="Trazado_128559" data-name="Trazado 128559" d="M51.788,61.654c2.92-2.944,5.706-5.767,8.51-8.572A4.282,4.282,0,0,1,65,52a4.237,4.237,0,0,1,2.965,3.808,4.288,4.288,0,0,1-1.32,3.6c-3.855,3.871-7.7,7.752-11.6,11.582a4.4,4.4,0,0,1-6.509-.075q-2.794-2.728-5.523-5.523a4.48,4.48,0,1,1,6.325-6.335c.822.8,1.578,1.676,2.441,2.6" transform="translate(1.812 2.254)"/>
            <path id="Trazado_128560" data-name="Trazado 128560" d="M75.116,62.075A20.519,20.519,0,0,1,57.421,82.5a21.138,21.138,0,0,1-10.853-1.427c-.783-.3-1.676-.722-1.29-1.845.322-.934,1.126-1.067,2.376-.5a17.9,17.9,0,0,0,19.2-3.447A17.569,17.569,0,0,0,72.529,61.7a16.962,16.962,0,0,0-4.618-11.443c-.174-.187-.369-.358-.527-.557-.54-.688-.688-1.357.083-2.007.749-.631,1.394-.282,1.908.269a20.585,20.585,0,0,1,5.491,11.148,13.523,13.523,0,0,1,.249,2.963" transform="translate(1.97 2.064)" fill="#c4e4fd"/>
            <path id="Trazado_128561" data-name="Trazado 128561" d="M43.593,75.686a1.108,1.108,0,0,1-1.109,1.277c-.824.058-2.506-1.449-2.466-2.252a1.274,1.274,0,0,1,1.3-1.3c.838-.045,2.268,1.436,2.276,2.275" transform="translate(1.744 3.2)" fill="#c3e4fd"/>
            <path id="Trazado_128562" data-name="Trazado 128562" d="M51.746,69.627A1.763,1.763,0,0,1,50.271,69c-1.839-1.841-3.694-3.667-5.517-5.525a1.869,1.869,0,0,1-.155-2.829,1.94,1.94,0,0,1,2.848.119c1.019.972,1.991,1.991,3,2.977,1.071,1.052,1.51,1.062,2.564.015q4.358-4.331,8.689-8.69a2.242,2.242,0,0,1,2.037-.821A1.758,1.758,0,0,1,65.2,55.5a1.826,1.826,0,0,1-.5,1.988c-1.256,1.277-2.529,2.54-3.8,3.808q-3.755,3.757-7.512,7.513a2.014,2.014,0,0,1-1.65.821" transform="translate(1.919 2.363)" fill="#13be6d"/>
          </g>
        </g>
      </g>
      <g id="Grupo_156882" data-name="Grupo 156882" transform="translate(845 4124)">
        <path id="Trazado_126894" data-name="Trazado 126894" d="M20.159,132.814c1.384.308,1.7-.344,1.691-1.637-.035-3.239.02-3.3,3.373-3.277,1.247.007,1.635-.379,1.611-1.614-.023-1.15-.233-1.685-1.56-1.68-3.363.013-3.449-.055-3.413-3.411.016-1.518-.729-1.546-1.855-1.558s-1.709.176-1.709,1.525c0,3.4-.069,3.46-3.389,3.446-1.284-.005-1.588.458-1.591,1.651s.3,1.65,1.586,1.642c3.385-.019,3.466.044,3.391,3.25-.035,1.488.514,1.924,1.864,1.662" transform="translate(144.529 -57.997)" fill="#29c4bb"/>
        <path id="Trazado_126895" data-name="Trazado 126895" d="M217,151.2c-1.239-.236-1.925.173-1.721,1.576.171,1.173-.235,1.827-1.534,1.626s-1.736.269-1.747,1.636c-.01,1.433.575,1.764,1.8,1.6,1.167-.158,1.537.35,1.514,1.511-.037,1.819,1.089,2.517,2.848,1.966.835-.261.652-.928.6-1.455-.146-1.438.182-2.318,1.879-2.03,1.313.223,1.394-.6,1.39-1.608,0-.992-.043-1.823-1.375-1.617-1.436.222-2.115-.3-1.877-1.82.227-1.449-.7-1.513-1.773-1.385" transform="translate(-211.994 -66.953)" fill="#29c4bb"/>
        <path id="Trazado_126896" data-name="Trazado 126896" d="M207.536,72.615c-.32,1.382.312,1.855,1.608,1.637,1.4-.236,1.976.339,1.728,1.733-.24,1.35.344,1.672,1.651,1.684,1.349.012,1.857-.386,1.622-1.7-.251-1.4.332-1.974,1.721-1.714,1.439.27,1.565-.482,1.619-1.692.064-1.421-.488-1.791-1.725-1.576-1.345.235-1.847-.322-1.618-1.636.219-1.257-.187-1.766-1.587-1.716-1.235.044-1.948.219-1.684,1.634s-.35,1.948-1.73,1.716c-1.3-.218-1.927.247-1.605,1.629" transform="translate(-179.131 -29.289)" fill="#010000"/>
        <path id="Trazado_126897" data-name="Trazado 126897" d="M51.855,190.022c-.3,1.289.334,1.763,1.623,1.53,1.514-.274,1.871.514,1.654,1.789-.241,1.418.446,1.638,1.691,1.63,1.19-.007,1.83-.277,1.579-1.559-.328-1.685.514-2.1,1.965-1.85,1.489.254,1.419-.685,1.425-1.706,0-.988-.021-1.827-1.366-1.561-1.809.358-2.271-.511-2.027-2.13.234-1.55-.947-1.1-1.736-1.151-.835-.05-1.766-.158-1.522,1.187.3,1.662-.282,2.433-2.041,2.1-1.469-.282-1.289.742-1.245,1.725" transform="translate(77.372 -57.322)" fill="#010000"/>
        <path id="Trazado_126898" data-name="Trazado 126898" d="M131.731,20.724c.346-1.471-.467-1.758-1.671-1.579-1.251.186-1.743-.332-1.553-1.564s-.175-1.792-1.593-1.763c-1.3.026-1.9.364-1.672,1.7.232,1.372-.4,1.818-1.687,1.625-1.192-.178-1.789.107-1.8,1.562-.007,1.491.555,1.891,1.854,1.684,1.373-.219,1.838.407,1.626,1.687-.239,1.438.533,1.6,1.742,1.628,1.293.026,1.714-.459,1.524-1.645-.208-1.3.273-1.895,1.63-1.667,1.325.222,1.891-.324,1.595-1.669" transform="translate(7.393 -15.817)" fill="#29c4bb"/>
      </g>
    </g>
  </g>
</svg>
