<svg xmlns="http://www.w3.org/2000/svg" xmlns:xlink="http://www.w3.org/1999/xlink" width="245.026" height="183.469" viewBox="0 0 245.026 183.469">
  <defs>
    <clipPath id="clip-path">
      <rect id="Rect치ngulo_37263" data-name="Rect치ngulo 37263" width="119.297" height="125.931" fill="none"/>
    </clipPath>
  </defs>
  <g id="_89" data-name="89" transform="translate(-1070 -4122)">
    <g id="Image_Place_Holder" data-name="Image Place Holder" transform="translate(1070 4189.469)">
      <rect id="Image_Place_Holder-2" data-name="Image Place Holder" width="245.027" height="116" rx="10" fill="#c9f0ee"/>
    </g>
    <g id="Grupo_156885" data-name="Grupo 156885">
      <g id="Grupo_156884" data-name="Grupo 156884">
        <g id="Grupo_156858" data-name="Grupo 156858">
          <g id="Grupo_156854" data-name="Grupo 156854" transform="translate(1133 4130)">
            <g id="Grupo_156851" data-name="Grupo 156851" clip-path="url(#clip-path)">
              <path id="Trazado_128466" data-name="Trazado 128466" d="M48.174,55.57a1.765,1.765,0,0,1,.736-2.35c3.747-2.1,7.683-3.232,11.994-2.077a7.183,7.183,0,0,1,4.617,3.391.994.994,0,0,0,1.182.54c7.686-.992,11.652,5.292,11.884,10.736a19.809,19.809,0,0,1-2.228,9.943,17.056,17.056,0,0,0-1.207,4.207,23.026,23.026,0,0,1-6.694,12.427,1.4,1.4,0,0,0-.5,1.166c.02,1.843.03,3.688,0,5.531a.95.95,0,0,0,.733,1.072c1.149.419,2.249.974,3.4,1.388a2.069,2.069,0,0,1,1.55,2.542,1.885,1.885,0,0,1-2.567,1.353,28.831,28.831,0,0,1-3.2-1.258c-1.631-.642-2.41-.112-2.449,1.662-.023,1.065.053,2.134-.028,3.2a4.248,4.248,0,0,1-2.485,3.937,1.464,1.464,0,0,0-.94,1.544c.02,2.008.031,4.017,0,6.025-.016.919.3,1.345,1.268,1.343q8.729-.022,17.458,0c.9,0,1.238-.376,1.228-1.252-.025-2.213.032-4.427-.024-6.639a5.951,5.951,0,0,0-2.824-5.161c-1.356-.878-1.539-1.544-1-2.847,1.066-1.261,1.762-1.406,3.162-.559a6.482,6.482,0,0,1,1.745,1.333c.658.82,1.251.741,2.1.354,1.708-.78,3.454-1.481,5.212-2.14.7-.261.836-.651.9-1.352a5.645,5.645,0,0,0-1.477-4.421,21.971,21.971,0,0,1-4.559-9.8c-.352-1.664-1.245-3.181-1.468-4.915A16.266,16.266,0,0,1,88,70.932a2.175,2.175,0,0,0,.688-1.694,9.462,9.462,0,0,1,9.785-9.963A9.575,9.575,0,0,1,107.5,69.614a1.419,1.419,0,0,0,.485,1.162c4.313,4.8,5.414,10.293,3.588,16.438-.708,2.382-1.008,4.876-2.113,7.153a25.549,25.549,0,0,1-3.825,5.973,6.954,6.954,0,0,0-.561,4.09c.185.395.593.418.913.551,2.638,1.1,5.29,2.17,7.931,3.264a7.936,7.936,0,0,1,5.33,7.892c0,1.435-.089,2.877.02,4.3.2,2.651-.8,4.5-3.3,5.491H3.33a4.915,4.915,0,0,1-3.3-5.484c.118-1.547-.009-3.111.033-4.666a7.7,7.7,0,0,1,4.964-7.362q4.1-1.774,8.26-3.4a1.424,1.424,0,0,0,1.024-1.526,7.279,7.279,0,0,0-1.513-4.947A23.109,23.109,0,0,1,8.031,83.541c.1-2.035.621-2.581,2.4-2.669a1.716,1.716,0,0,1,1.613,2.119A19.712,19.712,0,0,0,14.217,93.2a15.608,15.608,0,0,0,4.8,6.271c1.764,1.253,3.082,1.19,4.763-.257a17.084,17.084,0,0,0,3.891-5.021c1.751-3.3,2.982-6.741,2.636-10.568-.208-2.3-.78-4.436-2.644-6-1.58-1.756-3.733-2.091-5.894-2.241a10.391,10.391,0,0,0-6.106,1.388c-1.395.822-2.194.723-2.988-.262a1.827,1.827,0,0,1,.268-2.725c4.621-3.62,15.779-3.849,19.674,3.565a16.694,16.694,0,0,1,1.15,12.3,26,26,0,0,1-5.169,10.34c-.635.762-.423,1.538-.437,2.315-.041,2.308-.015,2.309,2.128,3.186,1.512.619,3.036,1.21,4.53,1.868a.929.929,0,0,0,1.265-.277,9.138,9.138,0,0,1,3.543-2.351c3.631-1.479,7.239-3.014,10.881-4.464.779-.31,1.132-.7.98-1.523a1.755,1.755,0,0,1,0-.491A9.577,9.577,0,0,0,48.731,89.8c-3.012-3.054-4.086-7.29-4.788-11.5a9.236,9.236,0,0,0-.592-1.983,22.138,22.138,0,0,1-.972-15c.513-1.737,1.011-2.029,2.761-1.8a1.761,1.761,0,0,1,1.184,2.4c-.236,1.034-.445,2.071-.649,3.112a16.778,16.778,0,0,0,.283,6.073c.064.381,0,.925.456,1.049.381.1.585-.372.859-.6.125-.1.232-.229.347-.345A25.053,25.053,0,0,1,55.5,66.545c2.742-1.05,4.823-2.7,5.571-5.717.215-.866.627-1.686.926-2.535a2.117,2.117,0,0,0-1.045-2.8,6.883,6.883,0,0,0-4.633-.722,15.73,15.73,0,0,0-4.752,1.588,5.583,5.583,0,0,1-1.515.476c-.911.02-1.755-.094-1.881-1.261"/>
              <path id="Trazado_128467" data-name="Trazado 128467" d="M43.358,39.578c.433-2.511.879-5.467,1.475-8.393a3.2,3.2,0,0,0-1.079-3.458c-1.969-1.729-3.764-3.653-5.67-5.455a4.85,4.85,0,0,1-1.515-5.442,4.805,4.805,0,0,1,4.375-3.386c2.805-.321,5.589-.817,8.388-1.192a2.356,2.356,0,0,0,2.019-1.5c1.2-2.593,2.532-5.13,3.784-7.7a4.958,4.958,0,0,1,9.151,0c1.255,2.57,2.562,5.117,3.762,7.713A2.448,2.448,0,0,0,70.2,12.269c2.841.371,5.671.815,8.509,1.213A4.779,4.779,0,0,1,82.889,16.8a4.776,4.776,0,0,1-1.373,5.265c-2.111,2.062-4.2,4.148-6.346,6.172a2.182,2.182,0,0,0-.713,2.187c.533,2.94,1.019,5.888,1.537,8.83a4.975,4.975,0,0,1-7.051,5.307c-2.689-1.383-5.37-2.781-8.026-4.224a2.25,2.25,0,0,0-2.4-.016c-2.689,1.468-5.386,2.93-8.142,4.265-3.326,1.61-7.142-.912-7.021-5.008"/>
              <path id="Trazado_128468" data-name="Trazado 128468" d="M21.359,21.832a3.825,3.825,0,0,1,3.482,2.22c.933,1.865,1.87,3.728,2.765,5.61a1.333,1.333,0,0,0,1.187.859c2.112.265,4.214.609,6.317.935a3.712,3.712,0,0,1,3.079,2.665,3.745,3.745,0,0,1-.846,4.1q-2.253,2.268-4.57,4.473a1.347,1.347,0,0,0-.475,1.392c.374,1.887.676,3.788.991,5.687.444,2.679-.8,4.615-3.269,5.181a3.805,3.805,0,0,1-2.712-.473c-1.772-.933-3.552-1.853-5.308-2.815a1.48,1.48,0,0,0-1.594,0c-1.718.946-3.474,1.822-5.2,2.753a3.9,3.9,0,0,1-4.6-.226A4.128,4.128,0,0,1,9.1,49.809c.381-1.927.652-3.876,1.03-5.8a1.256,1.256,0,0,0-.48-1.278c-1.447-1.393-2.863-2.818-4.318-4.2A3.949,3.949,0,0,1,4.19,34.161,3.826,3.826,0,0,1,7.6,31.4c1.989-.25,3.962-.626,5.953-.862a1.441,1.441,0,0,0,1.277-.93c.883-1.841,1.8-3.668,2.7-5.5a3.9,3.9,0,0,1,3.825-2.274"/>
              <path id="Trazado_128469" data-name="Trazado 128469" d="M97.71,21.83a3.949,3.949,0,0,1,3.9,2.217q1.419,2.781,2.763,5.6a1.33,1.33,0,0,0,1.177.87c2.11.262,4.21.61,6.312.935a3.731,3.731,0,0,1,3.091,2.645,3.731,3.731,0,0,1-.815,4.1c-1.431,1.464-2.881,2.915-4.4,4.284a1.956,1.956,0,0,0-.616,2.061c.366,1.97.693,3.948,1.016,5.926a3.585,3.585,0,0,1-1.635,3.708,3.739,3.739,0,0,1-4.147.44c-1.843-.97-3.7-1.92-5.522-2.922a1.563,1.563,0,0,0-1.7-.006c-1.712.954-3.47,1.823-5.195,2.753a3.911,3.911,0,0,1-4.495-.236,3.951,3.951,0,0,1-1.572-4.328c.41-1.918.665-3.869,1.028-5.8a1.375,1.375,0,0,0-.5-1.394c-1.46-1.377-2.876-2.8-4.323-4.191a3.969,3.969,0,0,1-1.162-4.361,3.884,3.884,0,0,1,3.448-2.727c1.946-.262,3.879-.628,5.829-.842A1.7,1.7,0,0,0,91.695,29.4c.805-1.741,1.686-3.448,2.544-5.165a3.982,3.982,0,0,1,3.471-2.4"/>
              <path id="Trazado_128470" data-name="Trazado 128470" d="M27.937,77.467c1.918,1.414,2.478,3.532,2.649,5.693.5,6.388-2.059,11.65-6.418,16.1-1.947,1.986-3.523,1.954-5.72.181-2.941-2.374-4.559-5.625-5.748-9.111a16.207,16.207,0,0,1-.923-7.363,1.9,1.9,0,0,0-1.348-2.092c.037-.245-.022-.518.2-.712,2.043-2.577,4.9-3.591,8-3.922a20.394,20.394,0,0,1,6.7.23,7.492,7.492,0,0,1,2.61,1" fill="#c38858"/>
              <path id="Trazado_128471" data-name="Trazado 128471" d="M78.073,105.99a2.207,2.207,0,0,0,1.273,2.619,5.334,5.334,0,0,1,2.857,4.833c.064,2.66,0,5.323.034,7.984.008.658-.227.828-.852.826q-9.518-.027-19.034,0c-.569,0-.791-.151-.785-.754.026-2.62.02-5.241,0-7.861,0-.5.169-.654.656-.8A3.59,3.59,0,0,0,65.012,109c.019-1.105,0-2.211,0-3.316,0-1.981,1.009-2.645,2.864-1.883.907.372,1.809.758,2.717,1.126,1.477.6,2.05.436,3.044-.84l4.432,1.9" fill="#29c4bb"/>
              <path id="Trazado_128472" data-name="Trazado 128472" d="M48.174,55.57c.882,1.2,1.254,1.256,3.36.507.124.48-.21.765-.483,1.052-3.308,3.484-3.894,7.746-3.5,12.28a12.952,12.952,0,0,0,.331,1.928L46.12,73.174a19.687,19.687,0,0,1-.869-7.4,17.425,17.425,0,0,1,.8-3.941,1.943,1.943,0,0,0-.906-2.318,11.768,11.768,0,0,1,2.655-3.251c.221-.186.436-.358.379-.69" fill="#714d44"/>
              <path id="Trazado_128473" data-name="Trazado 128473" d="M27.937,77.467a27.332,27.332,0,0,0-7.23-1.023,14.016,14.016,0,0,0-9.471,3.324,4.711,4.711,0,0,1-.608.392A9.566,9.566,0,0,1,12.671,76.5a2.293,2.293,0,0,0,2.813.011,11.573,11.573,0,0,1,11.01-.272,2.442,2.442,0,0,1,1.443,1.224" fill="#b17949"/>
              <path id="Trazado_128474" data-name="Trazado 128474" d="M71.743,77.73a19.264,19.264,0,0,1-5.379,11.556,9.168,9.168,0,0,1-13.391-.065,18.847,18.847,0,0,1-5.147-10.5A1.612,1.612,0,0,1,48.3,76.95a18.838,18.838,0,0,1,8.053-5.637,12.217,12.217,0,0,0,4.226-2.45c.565-.5,1.055-.525,1.54.135a17.829,17.829,0,0,0,4.46,3.8,27.284,27.284,0,0,1,4.307,3.615,2.81,2.81,0,0,1,.858,1.317" fill="#f1d0a4"/>
              <path id="Trazado_128475" data-name="Trazado 128475" d="M54.213,104.288a10.662,10.662,0,0,0,6.334,1.484c.595-.062.828.145.781.739a6.277,6.277,0,0,0,0,1.226,1.407,1.407,0,0,1-1.186,1.818,3.17,3.17,0,0,0-2.255,3.3c-.009,2.822-.022,5.644,0,8.466.006.652-.123.941-.865.936-6.173-.041-12.347-.044-18.52-.059a1.033,1.033,0,0,1-.322-.773,64.266,64.266,0,0,1,.2-8.7,4.123,4.123,0,0,1,2.532-3.373c3.973-1.736,8-3.352,12.007-5a1.4,1.4,0,0,1,1.292-.065" fill="#29c4bb"/>
              <path id="Trazado_128476" data-name="Trazado 128476" d="M107.169,89.539A16.966,16.966,0,0,1,100.725,99.8a3.962,3.962,0,0,1-5.1.082,17.853,17.853,0,0,1-6.383-9.228c-.175-.515.01-.725.513-.867,4.016-1.134,7.192-3.632,10.222-6.357,1.043-.938,1.034-.947,1.763.365a18.67,18.67,0,0,0,5.431,5.743" fill="#e2a66f"/>
              <path id="Trazado_128477" data-name="Trazado 128477" d="M92.334,72.24a10.581,10.581,0,0,1,16.252,7.64,15.157,15.157,0,0,1,.178,2.565c-.049.972-.27,1.936-.432,3.015a6.9,6.9,0,0,1-2.254-2.118,29.194,29.194,0,0,1-2.835-4.3c-1.025-1.885-2.264-2.032-3.734-.42a32.4,32.4,0,0,1-7.541,6.239,8.132,8.132,0,0,1-2.8,1.194,3.734,3.734,0,0,1-.784-2.522,15.5,15.5,0,0,1,2.412-9.724c.393-.651,1.058-1.015,1.54-1.567" fill="#845b51"/>
              <path id="Trazado_128478" data-name="Trazado 128478" d="M47.879,71.337c-1.015-.434-.631-1.469-.686-2.121-.342-4.048.168-7.954,2.715-11.328.487-.645,1.081-1.209,1.626-1.811a11.6,11.6,0,0,1,8.127-1.5,4.11,4.11,0,0,1,1.859.9,2.242,2.242,0,0,1,.813,2.909,15.386,15.386,0,0,0-1.122,2.98c-.669,2.769-2.653,4.268-5.076,5.232a30.223,30.223,0,0,0-8.256,4.741" fill="#845b51"/>
              <path id="Trazado_128479" data-name="Trazado 128479" d="M107.577,122.241c-2.252,0-4.505-.028-6.757.016-.705.014-.97-.205-.863-.891a1.334,1.334,0,0,0,0-.368,6.455,6.455,0,0,1,1.895-5.737,11.222,11.222,0,0,0,2.754-5.8c.185-.947.49-.872,1.193-.571,2.289.98,4.61,1.886,6.906,2.851a4.257,4.257,0,0,1,2.851,4.176c.009,1.72-.029,3.442.02,5.161.026.929-.355,1.2-1.242,1.182-2.252-.046-4.5-.015-6.757-.015" fill="#1169e3"/>
              <path id="Trazado_128480" data-name="Trazado 128480" d="M91.616,109.941a17.673,17.673,0,0,0,4.185,7.114,1.724,1.724,0,0,1,.472,1.449c-.088,1.213.511,2.787-.231,3.541-.683.694-2.252.172-3.43.189-1.964.027-3.93-.018-5.894.021-.644.013-.833-.173-.824-.82.041-2.906.031-5.812.039-8.718a.648.648,0,0,1,.367-.913,32.226,32.226,0,0,1,4.865-2,.5.5,0,0,1,.451.134" fill="#1169e3"/>
              <path id="Trazado_128481" data-name="Trazado 128481" d="M67.763,58.768c3.413-.211,5.77,1.549,6.767,5.145.9,3.232.168,6.286-1.122,9.458-2.268-2.4-4.907-4.051-7.355-5.951a7.617,7.617,0,0,1-1.029-1.206.951.951,0,0,1,.146-1.034A13.576,13.576,0,0,0,67.483,59.3a1.083,1.083,0,0,1,.28-.536" fill="#845b51"/>
              <path id="Trazado_128482" data-name="Trazado 128482" d="M24.453,111.862c0,3.327-.009,6.553.01,9.78,0,.512-.214.61-.658.606-1.717-.017-3.434-.024-5.151,0-.53.009-.706-.161-.7-.695.02-3.025.01-6.051.009-9.076,0-.36.005-.673.531-.491a9.373,9.373,0,0,0,5.962-.127" fill="#f6f5f5"/>
              <path id="Trazado_128483" data-name="Trazado 128483" d="M6.461,113.635l6.095,8.563h-7.5c-.078-.092-.194-.174-.207-.3A20.691,20.691,0,0,1,5,114.876c.157-.648.419-1.488,1.461-1.241" fill="#cbf39e"/>
              <path id="Trazado_128484" data-name="Trazado 128484" d="M54.213,104.288c-3.4,1.155-6.638,2.7-9.971,4.011-.682.269-1.336.613-2.026.857-3.23,1.145-3.539,2.393-3.686,5.316-.129,2.569-.024,5.15-.022,7.725-1.032.27-1.326-.136-1.3-1.172.071-2.49.017-4.983.026-7.475a5.355,5.355,0,0,1,3.474-5.278c3.789-1.611,7.623-3.117,11.407-4.739,1.046-.448,1.456.35,2.1.755" fill="#29c4bb"/>
              <path id="Trazado_128485" data-name="Trazado 128485" d="M64.1,100.379a6.415,6.415,0,0,1-7.642.871,5.824,5.824,0,0,1-.265-3.695,1.1,1.1,0,0,1,1.364-.927,17.681,17.681,0,0,0,5.466-.2c.782-.142,1.264.118,1.181,1.038a22.15,22.15,0,0,1-.1,2.914" fill="#f1d0a4"/>
              <path id="Trazado_128486" data-name="Trazado 128486" d="M101.244,106.324a11.327,11.327,0,0,1-2.647,7.2c-.387.506-.629.5-.991.015a10.972,10.972,0,0,1-2.314-4.794c.006-1.032.725-1.84.888-2.838.068-.422.627-.471,1.04-.487a21.8,21.8,0,0,0,3.29-.266c1.031-.2.856.545.734,1.17" fill="#e2a66e"/>
              <path id="Trazado_128487" data-name="Trazado 128487" d="M28.2,108.62l5.2,2.126-5.2,7.4Z" fill="#b2e49e"/>
              <path id="Trazado_128488" data-name="Trazado 128488" d="M71.743,77.73c-2.2-2.691-5.111-4.512-7.858-6.541a6.764,6.764,0,0,1-1.775-1.852c-.407-.662-.756-.836-1.411-.2A13.833,13.833,0,0,1,55.479,72c-3.069,1.068-5.2,3.321-7.357,5.562-.33.342-.233.762-.3,1.156a2,2,0,0,1,.409-2.442A20.208,20.208,0,0,1,56,70.643,19.21,19.21,0,0,0,60.865,68.1c.408-.323.671-.322.981.127A16.136,16.136,0,0,0,66.4,72.274a29.508,29.508,0,0,1,5,4.328c.293.31.753.594.342,1.128" fill="#f0b987"/>
              <path id="Trazado_128489" data-name="Trazado 128489" d="M64.1,100.379c-.009-.9-.043-1.8-.021-2.7.02-.762-.1-1.123-1.044-.906a11.849,11.849,0,0,1-5.448.17c-.752-.179-1.16.17-1.141.991.026,1.1.01,2.211.012,3.316a1.845,1.845,0,0,1-1.307-2.167,25.8,25.8,0,0,0,.01-3.183c-.022-.627.079-.9.8-.671a12.607,12.607,0,0,0,7.582,0c.23-.069.738-.4.72.206-.049,1.649.279,3.311-.163,4.945" fill="#f0ba87"/>
              <path id="Trazado_128490" data-name="Trazado 128490" d="M96.041,63.429a5.464,5.464,0,0,1,7.148,2.715c-.105.687-.656.551-1.032.453a25.123,25.123,0,0,0-5.852-.327c-.621-.016-1.406.257-1.662-.613-.228-.774.271-1.31.818-1.777.186-.159.386-.3.58-.451" fill="#845a50"/>
              <path id="Trazado_128491" data-name="Trazado 128491" d="M92.334,72.24a18.228,18.228,0,0,0-2.683,4.61,14.736,14.736,0,0,0-.485,9.2c-.524.262-1.067.584-1.387-.248-1.958-5.094,1.1-12.012,4.555-13.565" fill="#714c43"/>
              <path id="Trazado_128492" data-name="Trazado 128492" d="M14.162,117.768c-1.053-.726-1.5-1.925-2.248-2.891-.716-.927-1.326-1.935-1.982-2.908a.5.5,0,0,1,.321-.587,18.789,18.789,0,0,1,3.026-1.279c.505-.163,1.008-.146.988.614-.06,2.35.136,4.7-.105,7.051" fill="#afe09c"/>
              <path id="Trazado_128493" data-name="Trazado 128493" d="M96.041,63.429c-.33.463-.651.933-.992,1.388a.886.886,0,0,0-.16.917c.187.448.548.178.848.19,2.231.087,4.494-.342,6.683.426a.617.617,0,0,0,.769-.206,8.061,8.061,0,0,1,.407.869c.228.684.042.875-.688.639a15.193,15.193,0,0,0-9.707.059c-.223.074-.466.263-.676.048s-.005-.465.064-.679a5.182,5.182,0,0,1,3.452-3.651" fill="#714c43"/>
              <path id="Trazado_128494" data-name="Trazado 128494" d="M24.279,107.579a4.537,4.537,0,0,1-5.2.615c-.5-2.011.04-2.76,2.062-2.8a10.252,10.252,0,0,0,2.06-.236c.8-.181,1.284.01,1.164.966a9.387,9.387,0,0,1-.081,1.459" fill="#c28857"/>
              <path id="Trazado_128495" data-name="Trazado 128495" d="M67.763,58.768a11.468,11.468,0,0,1-1.985,6.067,3.526,3.526,0,0,0-.753,1.379,2.3,2.3,0,0,1-.593-3.033,17.331,17.331,0,0,0,1.105-2.954,1.737,1.737,0,0,1,2.226-1.459" fill="#714c44"/>
              <path id="Trazado_128496" data-name="Trazado 128496" d="M24.279,107.579c-.042-.688.165-1.583-.19-2.011-.434-.522-1.238.184-1.9.186-.041,0-.082,0-.122,0-.808.065-1.732-.286-2.4.167-.721.489-.172,1.555-.59,2.269-1.168-.264-1.208-1.141-1.15-2.087.045-.729-.212-1.682.157-2.133.419-.514,1.226.226,1.878.354a6.365,6.365,0,0,0,3.708-.39c.59-.24.844-.153.792.513-.082,1.041.225,2.105-.18,3.128" fill="#af7848"/>
              <path id="Trazado_128497" data-name="Trazado 128497" d="M101.244,106.324c.012-.734-.144-1.191-1.037-.782a6.772,6.772,0,0,1-2.893.2c-.686,0-1.19.155-1,.934.242,1.015-.772,1.337-1.018,2.067a12.475,12.475,0,0,1-.45-4.462c-.006-.528.243-.486.618-.334a6.721,6.721,0,0,0,5.242,0c.521-.213.681-.063.649.437a5.96,5.96,0,0,1-.107,1.939" fill="#d2965b"/>
              <path id="Trazado_128498" data-name="Trazado 128498" d="M6.461,113.635c-1.249.438-1.343,1.561-1.385,2.588-.08,1.989-.022,3.983-.021,5.975-.942.2-1.356-.141-1.329-1.139.045-1.749.012-3.5.019-5.25a4.2,4.2,0,0,1,.531-2.1c.9-1.583,1.217-1.6,2.185-.072" fill="#b2e49e"/>
              <path id="Trazado_128499" data-name="Trazado 128499" d="M33.544,117.382c0,1.378-.029,2.757.013,4.134.019.624-.237.757-.791.736-.894-.034-1.79-.009-2.911-.009,1.209-1.733,2.331-3.339,3.452-4.945l.237.084" fill="#c7ef9b"/>
              <path id="Trazado_128500" data-name="Trazado 128500" d="M14.162,117.768c-.009-2.193-.059-4.387-.008-6.579.022-.949-.359-1.07-1.052-.693a24.718,24.718,0,0,0-3.17,1.473,3.507,3.507,0,0,1-.867-1.247c1.485-.61,2.971-1.178,4.418-1.833.759-.343.813-.017.81.6-.01,2.742,0,5.485,0,8.227a.446.446,0,0,1-.024.1l-.111-.052" fill="#92d1a0"/>
              <path id="Trazado_128501" data-name="Trazado 128501" d="M91.616,109.941c-1.625.65-3.252,1.3-4.874,1.954-.38.154-.767.325-.809.822-.447-1.807-.447-1.807,1.133-2.459L90.106,109c1.319-.544,1.319-.544,1.51.939" fill="#1169e3"/>
              <path id="Trazado_128502" data-name="Trazado 128502" d="M107.169,89.539a12.646,12.646,0,0,1-5.431-5.743c1.648,2.024,3.22,4.122,5.479,5.543.018.012-.031.131-.048.2" fill="#c89058"/>
              <path id="Trazado_128503" data-name="Trazado 128503" d="M40.728,17.274c3.232-.5,6.46-1.022,9.7-1.494a5.015,5.015,0,0,0,3.98-2.909Q56.4,8.864,58.363,4.846c.3-.612.607-1.191,1.406-1.162.737.027,1.014.6,1.289,1.158,1.28,2.6,2.576,5.2,3.834,7.813A5.187,5.187,0,0,0,69.105,15.8c2.959.4,5.907.873,8.861,1.3.631.092,1.214.209,1.442.926s-.21,1.153-.657,1.589c-2.083,2.029-4.143,4.082-6.257,6.079a5.448,5.448,0,0,0-1.658,5.349c.524,2.812.931,5.646,1.388,8.47.3,1.242-.383.854-.972.574-2.7-1.281-5.309-2.745-7.954-4.135a7,7,0,0,0-7.015-.024c-1.771.939-3.508,1.946-5.318,2.814-.556.266-1.144.571-1.731.128s-.477-1.088-.372-1.7c.3-1.775.518-3.569.919-5.325a7.565,7.565,0,0,0-2.88-8.06c-2.062-1.693-3.817-3.7-5.72-5.563a1.058,1.058,0,0,1-.453-.954" fill="#fed063"/>
              <path id="Trazado_128504" data-name="Trazado 128504" d="M40.728,17.274c2.135,2.145,4.167,4.391,6.494,6.346a7.7,7.7,0,0,1,2.886,8.169c-.437,1.858-.685,3.761-.994,5.647-.071.433-.179.931.251,1.256s.862.079,1.263-.128c2.108-1.092,4.2-2.216,6.322-3.277a6.033,6.033,0,0,1,5.663.007c3,1.515,5.987,3.039,8.945,4.624.657.351.643.064.666-.4A1.164,1.164,0,0,1,71.9,41.15a1.38,1.38,0,0,1-1.609-.032c-2.6-1.379-5.23-2.707-7.812-4.12a5.388,5.388,0,0,0-5.592.029c-2.432,1.347-4.92,2.593-7.379,3.891-.622.328-1.244.734-1.943.267-.781-.522-.515-1.319-.4-2.026.475-2.908.979-5.811,1.481-8.715a4.891,4.891,0,0,0-1.556-4.559c-2.17-2.118-4.35-4.226-6.511-6.354-.93-.916-.875-1.47.152-2.257" fill="#feb55f"/>
              <path id="Trazado_128505" data-name="Trazado 128505" d="M9.477,34.921c1.572-.252,3.138-.548,4.717-.743a4.513,4.513,0,0,0,3.814-2.684c.838-1.772,1.711-3.527,2.588-5.279.135-.271.19-.7.6-.689s.458.417.6.7c.874,1.754,1.778,3.495,2.6,5.273A4.45,4.45,0,0,0,28.2,34.175c1.867.227,3.726.51,5.586.786.343.051.812,0,.939.41.112.361-.3.546-.518.765q-2.139,2.115-4.3,4.208a4.174,4.174,0,0,0-1.3,4c.309,1.685.528,3.387.786,5.082-.478.342-.859.011-1.231-.2-1.382-.8-2.845-1.443-4.256-2.187a5.336,5.336,0,0,0-5.282.016q-1.029.545-2.087,1.038c-.516.242-1.074.579-1.609.155-.491-.39-.3-.975-.2-1.493.164-.843.29-1.692.413-2.542a5.157,5.157,0,0,0-1.457-4.494c-1.154-1.216-2.375-2.368-3.542-3.572-.326-.337-.792-.627-.666-1.222" fill="#fed063"/>
              <path id="Trazado_128506" data-name="Trazado 128506" d="M9.477,34.921c1.253,1.291,2.43,2.67,3.777,3.855a6.468,6.468,0,0,1,2,6.966c-.117.474-.223.951-.314,1.43-.061.319-.16.691.144.915s.625.065.927-.087c.951-.479,1.9-.957,2.858-1.426a5.192,5.192,0,0,1,4.83,0q2.85,1.416,5.692,2.848a.9.9,0,0,1,.1.222c.082.545.481,1.223-.016,1.6-.367.277-.875-.271-1.3-.489q-2.394-1.233-4.766-2.507a4.37,4.37,0,0,0-4.435.01c-1.753.959-3.531,1.873-5.307,2.791-.237.123-.486.39-.782.214-.367-.217-.2-.585-.145-.89.332-1.972.642-3.95,1.03-5.912a4.254,4.254,0,0,0-1.285-4.124C11.145,39.025,9.785,37.727,8.45,36.4c-.3-.3-.9-.551-.749-1.022.171-.533.828-.371,1.289-.459a2.476,2.476,0,0,1,.487,0" fill="#feb55f"/>
              <path id="Trazado_128507" data-name="Trazado 128507" d="M86.211,34.924c1.532-.247,3.056-.563,4.6-.727a4.637,4.637,0,0,0,4.059-2.9c.754-1.675,1.608-3.305,2.435-4.946.157-.311.206-.8.638-.82.455-.022.507.467.664.78.86,1.716,1.747,3.419,2.551,5.161a4.455,4.455,0,0,0,3.8,2.7c1.866.228,3.726.509,5.586.787.342.052.825-.017.947.4s-.339.61-.586.855c-1.333,1.329-2.653,2.675-4.04,3.947a4.433,4.433,0,0,0-1.473,4.306c.283,1.649.516,3.307.772,4.962-.536.23-.948-.116-1.374-.322q-2.1-1.017-4.172-2.083a5.283,5.283,0,0,0-5.169-.009c-.761.4-1.537.768-2.289,1.185a1.351,1.351,0,0,1-1.4.124c-.534-.316-.362-.849-.3-1.331.118-.851.252-1.7.418-2.542a5.153,5.153,0,0,0-1.457-4.725c-1.144-1.225-2.373-2.37-3.541-3.575-.326-.336-.79-.626-.668-1.222" fill="#fed063"/>
              <path id="Trazado_128508" data-name="Trazado 128508" d="M86.211,34.924c1.279,1.317,2.5,2.7,3.852,3.933a6.324,6.324,0,0,1,1.985,6.736c-.13.509-.173,1.039-.286,1.553-.078.352-.309.742.131.972a1.066,1.066,0,0,0,1.043-.13c.778-.445,1.582-.845,2.373-1.268a5.433,5.433,0,0,1,5.369-.028c1.812.939,3.652,1.823,5.48,2.732.024.033.062.064.068.1.111.584.517,1.316.017,1.711-.379.3-.943-.3-1.4-.539-1.6-.819-3.19-1.662-4.78-2.5a4.241,4.241,0,0,0-4.221.02c-1.766.945-3.543,1.87-5.322,2.789-.271.14-.541.463-.882.244-.356-.229-.153-.586-.1-.9.342-1.975.678-3.952,1.028-5.925a4.251,4.251,0,0,0-1.252-4.037c-1.382-1.34-2.768-2.676-4.133-4.035-.3-.3-.9-.539-.677-1.046.192-.429.788-.32,1.222-.385a3.193,3.193,0,0,1,.489,0" fill="#feb55f"/>
              <path id="Trazado_128509" data-name="Trazado 128509" d="M72.091,118.531c-1.106,0-2.214.031-3.318-.007a1.874,1.874,0,0,1-1.963-1.915,1.849,1.849,0,0,1,1.984-1.755c2.253-.027,4.507-.032,6.76,0a1.749,1.749,0,0,1,1.875,1.83,1.813,1.813,0,0,1-1.9,1.833c-1.145.042-2.294.009-3.441.01"/>
              <path id="Trazado_128510" data-name="Trazado 128510" d="M63.81,18.07a1.859,1.859,0,0,1-2.632,1.742c-.3-.131-.558-.343-.847-.493a.822.822,0,0,0-1.214.44c-.305.578-.027.939.507,1.143s1.084.359,1.624.55a4.539,4.539,0,0,1,3.387,3.942,4.774,4.774,0,0,1-2.349,4.788,1.353,1.353,0,0,0-.743,1.234,1.815,1.815,0,0,1-1.823,1.913,1.736,1.736,0,0,1-1.81-1.78c-.026-.559-.259-.745-.757-.909a5.694,5.694,0,0,1-1.62-.846,1.715,1.715,0,0,1-.563-2.378,1.76,1.76,0,0,1,2.433-.721,4,4,0,0,0,2.208.589A1.332,1.332,0,0,0,60.959,26.1c.127-.754-.4-.986-.973-1.177s-1.169-.371-1.736-.6a4.472,4.472,0,0,1-1.182-7.82,1.726,1.726,0,0,0,.856-1.466,1.609,1.609,0,0,1,1.652-1.645,1.569,1.569,0,0,1,1.819,1.3,2.27,2.27,0,0,0,1.369,1.79A1.935,1.935,0,0,1,63.81,18.07"/>
            </g>
          </g>
          <rect id="Rect치ngulo_37266" data-name="Rect치ngulo 37266" width="176" height="142" transform="translate(1105 4122)" fill="none"/>
        </g>
      </g>
    </g>
  </g>
</svg>
