<svg xmlns="http://www.w3.org/2000/svg" xmlns:xlink="http://www.w3.org/1999/xlink" width="245.026" height="183.469" viewBox="0 0 245.026 183.469">
  <defs>
    <clipPath id="clip-path">
      <rect id="Rect치ngulo_37275" data-name="Rect치ngulo 37275" width="115.987" height="116" fill="none"/>
    </clipPath>
  </defs>
  <g id="_92" data-name="92" transform="translate(-808 -4461)">
    <g id="Image_Place_Holder" data-name="Image Place Holder" transform="translate(808 4528.469)">
      <rect id="Image_Place_Holder-2" data-name="Image Place Holder" width="245.027" height="116" rx="10" fill="#c9f0ee"/>
    </g>
    <g id="Grupo_156896" data-name="Grupo 156896" transform="translate(0)">
      <g id="Grupo_156868" data-name="Grupo 156868">
        <rect id="Rect치ngulo_37270" data-name="Rect치ngulo 37270" width="176" height="142" transform="translate(843 4461)" fill="none"/>
        <g id="Grupo_156867" data-name="Grupo 156867" transform="translate(873 4474)">
          <g id="Grupo_156866" data-name="Grupo 156866" clip-path="url(#clip-path)">
            <path id="Trazado_128586" data-name="Trazado 128586" d="M31.847,58.113c-.911-.983-1.768-1.989-2.71-2.909a21.633,21.633,0,0,1,5.931-35.276,19.99,19.99,0,0,1,22.073,3.845c.687.665.991.686,1.693.008,10.345-9.972,27.368-6.119,33.009,7.443a21.663,21.663,0,0,1-4.657,23.644c-1.038,1.045-2.006,2.16-3.005,3.242a58.131,58.131,0,0,1,31.349,44.832,72.292,72.292,0,0,1,.456,7.693c.015.872-.2,1.079-1.076,1.078-14.607-.031-29.214-.013-43.821-.044a1.875,1.875,0,0,0-1.891,1.064,13,13,0,0,1-22.536-.2,1.474,1.474,0,0,0-1.529-.861c-14.646.019-29.292,0-43.938.038-.968,0-1.215-.217-1.193-1.193q.747-35,31.25-52.116c.2-.114.412-.215.617-.326.026-.014.039-.051-.022.035" transform="translate(0 -3.154)"/>
            <path id="Trazado_128587" data-name="Trazado 128587" d="M18.182,38.756c-.327,3.118-.329,3.13-3.34,2.638-2.57-.42-5.131-.9-7.7-1.294-.576-.089-.733-.3-.595-.817.02-.074.018-.155.033-.231.169-.875.059-2.058.587-2.539.55-.5,1.666.1,2.53.237q3.86.6,7.711,1.259c.418.07,1.038.026.778.746" transform="translate(-1.128 -6.307)"/>
            <path id="Trazado_128588" data-name="Trazado 128588" d="M119.591,38.6c-.1-.314.157-.4.576-.466q4.947-.8,9.884-1.655c.553-.1.785,0,.831.583a7.8,7.8,0,0,0,.291,1.839c.321.96,0,1.24-.952,1.378-3.114.448-6.217.973-9.314,1.525-.621.111-.815-.017-.883-.616-.093-.809-.265-1.609-.433-2.586" transform="translate(-20.763 -6.33)"/>
            <path id="Trazado_128589" data-name="Trazado 128589" d="M21.494,12.1c.207.186.386.332.548.494,2.121,2.119,4.224,4.255,6.37,6.347.5.483.446.766-.033,1.187-.7.614-1.306,1.739-2.034,1.81-.763.074-1.358-1.126-2.02-1.773-1.616-1.578-3.171-3.217-4.809-4.769-.611-.578-.6-.928.031-1.436.542-.438,1-.981,1.5-1.473.131-.13.28-.242.45-.387" transform="translate(-3.311 -2.102)"/>
            <path id="Trazado_128590" data-name="Trazado 128590" d="M111.778,22.148c-.312-.359-.673-.822-1.082-1.237-1.323-1.345-1.33-1.339-.017-2.651,1.844-1.844,3.707-3.671,5.522-5.545.483-.5.783-.611,1.268-.023.59.715,1.725,1.32,1.782,2.04.062.762-1.13,1.358-1.779,2.02-1.578,1.615-3.186,3.2-4.786,4.794a1.535,1.535,0,0,1-.908.6" transform="translate(-19.049 -2.135)"/>
            <path id="Trazado_128591" data-name="Trazado 128591" d="M47.977,8.656a.263.263,0,0,1-.175.361,3.245,3.245,0,0,0-.3.171c-2.674,1.521-2.674,1.52-4.043-1.22-.71-1.421-1.406-2.849-2.141-4.257-.244-.468-.219-.686.293-.964,2.694-1.463,2.686-1.482,4.041,1.23.675,1.35,1.344,2.7,2.016,4.057.1.207.209.414.312.621" transform="translate(-7.148 -0.306)" fill="#010101"/>
            <path id="Trazado_128592" data-name="Trazado 128592" d="M93.911,10.425c-.965-.49-1.978-.975-2.957-1.521-.276-.154.018-.418.107-.6,1.047-2.119,2.118-4.226,3.156-6.349.217-.444.434-.62.868-.294a.51.51,0,0,0,.1.05c2.724,1.231,2.724,1.231,1.406,3.867-.693,1.387-1.373,2.781-2.084,4.158-.131.255-.164.626-.6.689" transform="translate(-15.774 -0.259)" fill="#010101"/>
            <path id="Trazado_128593" data-name="Trazado 128593" d="M71.653,3.793v.935c0,3.095,0,3.082-3.161,2.816-.453-.038-.592-.156-.588-.606q.029-3.155,0-6.309c0-.461.149-.645.6-.582a.686.686,0,0,0,.117,0C71.653-.1,71.653-.1,71.653,2.975Z" transform="translate(-11.791 0)"/>
            <path id="Trazado_128594" data-name="Trazado 128594" d="M48.184,118.709H37.914q-9.347,0-18.7,0c-.512,0-1.055.2-.963-.769q2.619-27.24,27.9-37.658a1.36,1.36,0,0,1,1.709.36c4.11,3.93,8.272,7.807,12.374,11.744.694.666,1.063.776,1.827.036,4.087-3.953,8.259-7.82,12.365-11.753a1.473,1.473,0,0,1,1.821-.352,45.486,45.486,0,0,1,10.79,5.946c.7.517.661.781.017,1.321q-9.988,8.359-19.932,16.772c-.355.3-.647.569-1.22.33-8.625-3.6-18.927,3.4-17.719,14.023" transform="translate(-3.168 -13.913)" fill="#b0c8cb"/>
            <path id="Trazado_128595" data-name="Trazado 128595" d="M58.9,26.44a13.5,13.5,0,0,0-7.891,3.349,13,13,0,0,0-4.346,9.256,16.828,16.828,0,0,0,5.642,14.228,2.781,2.781,0,0,1,.72,1.039,8.948,8.948,0,0,0,3.053,3.905c.385.278.783.5.545,1.108-.217.56-.215,1.126-1.059,1.311-2.465.538-4.954,1.085-7.011,2.7-.392.307-.607.079-.872-.171-3.675-3.485-7.511-6.814-10.993-10.481a16.921,16.921,0,0,1-4.15-17.618c2-6.368,6.333-10.557,12.945-12.019a15.724,15.724,0,0,1,13.032,2.9,3.433,3.433,0,0,1,.349.3c.023.021.016.074.036.191" transform="translate(-5.492 -3.935)" fill="#29c4bb"/>
            <path id="Trazado_128596" data-name="Trazado 128596" d="M75.424,26.373c5.357-3.879,10.9-4.856,16.8-2.339,11.466,4.888,14.288,20.025,5.406,28.941-3.462,3.476-7.114,6.76-10.68,10.132-.278.264-.5.569-.959.212a15.838,15.838,0,0,0-6.674-2.606,1.537,1.537,0,0,1-1.373-1.295c-.213-.835.335-1.024.765-1.358a7.649,7.649,0,0,0,2.425-2.948A9.117,9.117,0,0,1,83.2,52.342c4.933-4.98,6.284-13.489,3.028-19.224a12.708,12.708,0,0,0-9.347-6.489c-.383-.065-.764-.134-1.458-.256" transform="translate(-13.097 -3.932)" fill="#29c4bb"/>
            <path id="Trazado_128597" data-name="Trazado 128597" d="M106.154,96.248a42.72,42.72,0,0,1,9.22,21.206c.151,1.078.186,2.173.333,3.253.079.58,0,.817-.675.816q-14.256-.031-28.512,0c-.674,0-.721-.226-.652-.806a10.584,10.584,0,0,0-.312-4.053,1.159,1.159,0,0,1,.365-1.327c6.724-6.323,13.431-12.665,20.232-19.089" transform="translate(-14.845 -16.713)" fill="#b0c8cb"/>
            <path id="Trazado_128598" data-name="Trazado 128598" d="M56.18,48.854C52.291,43.128,54.313,35,60.007,32.487a6.662,6.662,0,0,1,2.463-.668c3.495-.086,7.012-.407,10.479.148a9.111,9.111,0,0,1,7.5,8.284,14.083,14.083,0,0,1-1.1,7.415,2.069,2.069,0,0,1-.732,1.033c0-.857.007-1.613,0-2.369a3.649,3.649,0,0,0-2.532-3.676,68.247,68.247,0,0,1-8.165-3.419,1.071,1.071,0,0,0-1.088.026,63.8,63.8,0,0,1-8.061,3.367,3.682,3.682,0,0,0-2.588,3.757c-.01.732,0,1.464,0,2.469" transform="translate(-9.407 -5.496)" fill="#656d78"/>
            <path id="Trazado_128599" data-name="Trazado 128599" d="M61.1,51.952c.079-.931-.459-2.354.191-3.176.6-.756,2-.875,3.043-1.284a9.612,9.612,0,0,0,1.82-.765,4.245,4.245,0,0,1,4.832-.049,26.784,26.784,0,0,0,4.324,1.7.941.941,0,0,1,.761,1.078c-.04,1.79.011,3.581-.022,5.372a5.6,5.6,0,0,1-5.588,5.562c-1.284.025-2.569.03-3.852,0a5.6,5.6,0,0,1-5.505-5.527c-.021-.895,0-1.791,0-2.912" transform="translate(-10.587 -7.979)" fill="#efcfb3"/>
            <path id="Trazado_128600" data-name="Trazado 128600" d="M77.56,122.684a9.346,9.346,0,1,1-9.281-9.444,9.375,9.375,0,0,1,9.281,9.444" transform="translate(-10.223 -19.664)" fill="#1169e3"/>
            <path id="Trazado_128601" data-name="Trazado 128601" d="M55.067,75.012c1.463-1.217,3.238-1.4,4.887-1.922a2.021,2.021,0,0,1,2.425.635c1.433,1.588,3.035,3.024,4.506,4.581.549.581.85.506,1.36-.026,1.62-1.684,3.3-3.308,4.939-4.978a1.15,1.15,0,0,1,1.321-.37A24.39,24.39,0,0,1,79.376,74.5c.629.34.635.573.114,1.061q-5.673,5.313-11.3,10.672c-.346.328-.592.663-1.125.152-3.966-3.794-7.965-7.556-12-11.369" transform="translate(-9.562 -12.652)" fill="#b3dc7e"/>
            <path id="Trazado_128602" data-name="Trazado 128602" d="M25.405,79.177A54.411,54.411,0,0,1,38.9,69.918a.68.68,0,0,1,.906.153c1.768,1.695,3.556,3.369,5.316,5.03-.064.407-.384.409-.613.5a46.325,46.325,0,0,0-13.177,8.251c-.35.312-.59.65-1.1.12-1.563-1.619-3.186-3.181-4.82-4.8" transform="translate(-4.412 -12.122)" fill="#fbd670"/>
            <path id="Trazado_128603" data-name="Trazado 128603" d="M91.051,75.143c1.8-1.7,3.615-3.4,5.405-5.125.338-.326.593-.222.92-.064a55.036,55.036,0,0,1,12.917,8.725c.445.4.375.6,0,.983-1.011,1.028-1.949,2.129-3.59,2.071a1.647,1.647,0,0,0-.9.226c-1.6,1.031-2.791.464-4.164-.654a39.029,39.029,0,0,0-9.658-5.6c-.308-.13-.7-.155-.934-.564" transform="translate(-15.811 -12.121)" fill="#fbd670"/>
            <path id="Trazado_128604" data-name="Trazado 128604" d="M129.817,123.244c-.973,0-1.945-.026-2.916.01-.553.02-.852-.087-.881-.73a44.676,44.676,0,0,0-2.558-12.983c-.149-.42-.073-.632.349-.8,1.944-.781,3.889-1.559,5.807-2.4.688-.3.682.157.824.547a52.775,52.775,0,0,1,2.981,13.5c.06.7.08,1.4.181,2.091.093.637-.145.807-.754.781-1.009-.043-2.021-.012-3.033-.012" transform="translate(-21.427 -18.449)" fill="#fbd670"/>
            <path id="Trazado_128605" data-name="Trazado 128605" d="M8.345,123.255c-.855,0-1.717-.064-2.564.017-.956.092-1.238-.161-1.163-1.187a58.73,58.73,0,0,1,3.058-15.023c.264-.76.536-.932,1.29-.59,1.73.784,3.489,1.506,5.256,2.2.562.222.662.434.457,1.024a43.565,43.565,0,0,0-2.472,12.526c-.036.878-.345,1.121-1.181,1.047-.888-.078-1.787-.017-2.682-.017" transform="translate(-0.8 -18.459)" fill="#fbd670"/>
            <path id="Trazado_128606" data-name="Trazado 128606" d="M20.116,84.245c.288.267.435.394.572.531,1.432,1.43,2.845,2.879,4.3,4.281.457.44.351.692-.018,1.1A44.449,44.449,0,0,0,17.8,100.882c-.288.6-.512.808-1.187.5-1.768-.8-3.562-1.539-5.366-2.253-.535-.212-.729-.355-.436-.964a55.549,55.549,0,0,1,8.912-13.332,4.339,4.339,0,0,0,.388-.592" transform="translate(-1.855 -14.629)" fill="#fbd670"/>
            <path id="Trazado_128607" data-name="Trazado 128607" d="M126.97,98.716c-.054.264-.3.31-.5.393-1.934.8-3.878,1.579-5.8,2.409-.445.193-.615.071-.791-.307a44.953,44.953,0,0,0-5.974-9.418.775.775,0,0,1-.066-1.025,10.24,10.24,0,0,0,1.17-3.513c.21-1.326,1.447-1.849,2.212-2.739.215-.25.385.112.517.257a53.771,53.771,0,0,1,9.081,13.61c.05.106.094.213.146.331" transform="translate(-19.741 -14.661)" fill="#fbd670"/>
            <path id="Trazado_128608" data-name="Trazado 128608" d="M105.312,88.8a6.6,6.6,0,0,1-1.921,2.908Q93.508,101.049,83.63,110.4c-.487.462-.821.678-1.2-.053a2.117,2.117,0,0,0-.3-.359c-1.332-1.578-1.323-1.567.324-2.953q9.422-7.928,18.831-15.869a9.578,9.578,0,0,1,4.02-2.368" transform="translate(-14.096 -15.42)" fill="#e5e8ec"/>
            <path id="Trazado_128609" data-name="Trazado 128609" d="M69.5,67.929c.773,0,1.549-.013,2.323,0,.338.007.8-.282.929.343.1.471.379.9-.135,1.37-.916.832-1.79,1.716-2.627,2.629-.453.495-.717.351-1.1-.059-.794-.847-1.6-1.69-2.47-2.458-.524-.462-.4-.9-.264-1.445.174-.695.66-.36,1.024-.373.775-.027,1.549-.008,2.325-.01" transform="translate(-11.466 -11.785)" fill="#efcfb3"/>
            <path id="Trazado_128610" data-name="Trazado 128610" d="M68.964,128.983a5.608,5.608,0,1,1,5.641-5.516,5.633,5.633,0,0,1-5.641,5.516" transform="translate(-11.008 -20.45)"/>
            <path id="Trazado_128611" data-name="Trazado 128611" d="M71.65,124.2a1.865,1.865,0,1,1-1.8-1.9,1.884,1.884,0,0,1,1.8,1.9" transform="translate(-11.794 -21.236)" fill="#fbfbfb"/>
          </g>
        </g>
      </g>
      <g id="Grupo_156895" data-name="Grupo 156895" transform="translate(840 4433)">
        <path id="Trazado_126894" data-name="Trazado 126894" d="M19.994,132.814c-1.384.308-1.7-.344-1.691-1.637.035-3.239-.02-3.3-3.373-3.277-1.247.007-1.635-.379-1.611-1.614.023-1.15.233-1.685,1.56-1.68,3.363.013,3.449-.055,3.413-3.411-.016-1.518.729-1.546,1.855-1.558s1.709.176,1.709,1.525c0,3.4.069,3.46,3.389,3.446,1.284-.005,1.588.458,1.591,1.651s-.3,1.65-1.586,1.642c-3.385-.019-3.466.044-3.391,3.25.035,1.488-.514,1.924-1.864,1.662" transform="translate(-8.318 -24.997)" fill="#29c4bb"/>
        <path id="Trazado_126895" data-name="Trazado 126895" d="M217.019,151.2c1.239-.236,1.925.173,1.721,1.576-.171,1.173.235,1.827,1.534,1.626s1.736.269,1.747,1.636c.01,1.433-.575,1.764-1.8,1.6-1.167-.158-1.537.35-1.514,1.511.037,1.819-1.089,2.517-2.848,1.966-.835-.261-.652-.928-.6-1.455.146-1.438-.182-2.318-1.879-2.03-1.313.223-1.394-.6-1.39-1.608,0-.992.043-1.823,1.375-1.617,1.436.222,2.115-.3,1.877-1.82-.227-1.449.7-1.513,1.773-1.385" transform="translate(-45.658 -33.953)" fill="#29c4bb"/>
        <path id="Trazado_126896" data-name="Trazado 126896" d="M217.407,72.615c.32,1.382-.312,1.855-1.608,1.637-1.4-.236-1.976.339-1.728,1.733.24,1.35-.344,1.672-1.651,1.684-1.349.012-1.857-.386-1.622-1.7.251-1.4-.332-1.974-1.721-1.714-1.439.27-1.565-.482-1.619-1.692-.064-1.421.488-1.791,1.725-1.576,1.345.235,1.847-.322,1.618-1.636-.219-1.257.187-1.766,1.587-1.716,1.235.044,1.948.219,1.684,1.634s.35,1.948,1.73,1.716c1.3-.218,1.927.247,1.605,1.629" transform="translate(-69.45 3.711)" fill="#010000"/>
        <path id="Trazado_126897" data-name="Trazado 126897" d="M61.718,190.022c.3,1.289-.334,1.763-1.623,1.53-1.514-.274-1.871.514-1.654,1.789.241,1.418-.446,1.638-1.691,1.63-1.19-.007-1.83-.277-1.579-1.559.328-1.685-.514-2.1-1.965-1.85-1.489.254-1.419-.685-1.425-1.706,0-.988.021-1.827,1.366-1.561,1.809.358,2.271-.511,2.027-2.13-.234-1.55.947-1.1,1.736-1.151.835-.05,1.766-.158,1.522,1.187-.3,1.662.282,2.433,2.041,2.1,1.469-.282,1.289.742,1.245,1.725" transform="translate(39.97 -29.322)" fill="#010000"/>
        <path id="Trazado_126898" data-name="Trazado 126898" d="M121.84,20.724c-.346-1.471.467-1.758,1.671-1.579,1.251.186,1.743-.332,1.553-1.564s.175-1.792,1.593-1.763c1.3.026,1.9.364,1.672,1.7-.232,1.372.4,1.818,1.687,1.625,1.192-.178,1.789.107,1.8,1.562.007,1.491-.555,1.891-1.854,1.684-1.373-.219-1.838.407-1.626,1.687.239,1.438-.533,1.6-1.742,1.628-1.293.026-1.714-.459-1.524-1.645.208-1.3-.273-1.895-1.63-1.667-1.325.222-1.891-.324-1.595-1.669" transform="translate(-84.601 17.184)" fill="#29c4bb"/>
      </g>
    </g>
  </g>
</svg>
