<svg xmlns="http://www.w3.org/2000/svg" xmlns:xlink="http://www.w3.org/1999/xlink" width="245.026" height="183.469" viewBox="0 0 245.026 183.469">
  <defs>
    <clipPath id="clip-path">
      <rect id="Rect치ngulo_37276" data-name="Rect치ngulo 37276" width="119.271" height="119.22" fill="none"/>
    </clipPath>
  </defs>
  <g id="_93" data-name="93" transform="translate(-1070 -4461)">
    <g id="Image_Place_Holder" data-name="Image Place Holder" transform="translate(1070 4528.469)">
      <rect id="Image_Place_Holder-2" data-name="Image Place Holder" width="245.027" height="116" rx="10" fill="#c9f0ee"/>
    </g>
    <g id="Grupo_156898" data-name="Grupo 156898" transform="translate(26 2)">
      <g id="Grupo_156871" data-name="Grupo 156871" transform="translate(-26 -2)">
        <rect id="Rect치ngulo_37271" data-name="Rect치ngulo 37271" width="176" height="142" transform="translate(1105 4461)" fill="none"/>
        <g id="Grupo_156870" data-name="Grupo 156870" transform="translate(1133 4472)">
          <g id="Grupo_156869" data-name="Grupo 156869" clip-path="url(#clip-path)">
            <path id="Trazado_128612" data-name="Trazado 128612" d="M21.089,119.2c-5.446,0-10.893-.013-16.339.015-.745,0-1.009-.119-.96-.961q.988-16.965,1.9-33.934.771-13.97,1.531-27.941c.038-.679.076-1.359.13-2.037.253-3.172.4-6.2-1.38-9.207-1.739-2.937-2.135-6.417-2.112-9.859a1.293,1.293,0,0,0-.782-1.385A5.525,5.525,0,0,1,.009,28.71c-.017-2.442,0-4.885,0-7.327a5.612,5.612,0,0,1,3.224-5.331,1.53,1.53,0,0,0,.9-1.125,7.632,7.632,0,0,1,7.087-5.8c4.746-.384,9.493-.79,14.226-1.309,5.074-.557,8.47,1.964,9.143,7,.064.478.206.584.644.581,2.123-.018,4.246-.03,6.368.006.6.01.726-.2.718-.753-.03-2,.012-4-.025-6.005-.012-.666.057-.971.874-.967q12.614.053,25.229.005c.7,0,.841.222.84.875q-.029,16.458,0,32.914c0,.7-.214.845-.872.844q-12.615-.033-25.229,0c-.7,0-.86-.209-.846-.871.042-2-.016-4.005.032-6.006.017-.7-.217-.839-.873-.846-2.989-.031-3.049-.051-2.974,2.918A15.538,15.538,0,0,1,34.99,48.323a1.58,1.58,0,0,0-.319,1.224q1.39,24.52,2.765,49.041c.364,6.515.676,13.033,1.078,19.546.06.974-.24,1.087-1.086,1.081-5.446-.036-10.893-.018-16.339-.018"/>
            <path id="Trazado_128613" data-name="Trazado 128613" d="M96.128,119.2c-7.327,0-14.654-.018-21.98.023-.891,0-1.136-.2-1.113-1.1a20.1,20.1,0,0,1,.671-5.335,1.974,1.974,0,0,0-.032-1.285,9.7,9.7,0,0,1,1.388-9.322,8.1,8.1,0,0,0,1.6-6.99,8.9,8.9,0,0,0-1.277-2.69,12.543,12.543,0,0,1-.762-13.4c1.169-2.315,2.233-4.691,3.522-6.938,3.948-6.874,9.965-10.533,17.868-10.584S110,65.116,114,71.96a88.532,88.532,0,0,1,4.041,8.017,11.827,11.827,0,0,1-.862,12c-2.356,3.552-2.39,6.852.093,10.3a9.558,9.558,0,0,1,1.322,9.22,1.967,1.967,0,0,0-.025,1.285,19.667,19.667,0,0,1,.662,5.456c.011.805-.234.973-1,.97-7.366-.028-14.733-.017-22.1-.017"/>
            <path id="Trazado_128614" data-name="Trazado 128614" d="M96.13,57.683c-7.329,0-14.658-.018-21.986.023-.9,0-1.106-.211-1.106-1.106,0-8.835,4.919-15.127,13.528-17.227a9.345,9.345,0,0,1,1.5-.391c.948-.066.793-.855,1.027-1.394.243-.561-.175-.775-.533-1.039a9.162,9.162,0,0,1-3.788-6.291,1.329,1.329,0,0,0-1.047-1.238,29.751,29.751,0,0,1-2.888-1.154,6.381,6.381,0,0,1-3.45-8.284,2.661,2.661,0,0,0,.072-1.728C75.451,9.762,79.82,2.311,87.69.382a12.883,12.883,0,0,1,3.09-.37c3.564.006,7.128-.035,10.692.01a13.865,13.865,0,0,1,13.449,17.231,4.605,4.605,0,0,0,.1,2.771,6.335,6.335,0,0,1-3.472,7.793,31.992,31.992,0,0,1-3.111,1.249,1.261,1.261,0,0,0-.947,1.181,9.178,9.178,0,0,1-3.78,6.3c-.407.3-.77.556-.511,1.16.222.517.142,1.12.99,1.285a25.981,25.981,0,0,1,4.262,1.189,16.763,16.763,0,0,1,10.769,16.9c-.035.734-.447.6-.864.6q-4.986,0-9.971,0H96.13"/>
            <path id="Trazado_128615" data-name="Trazado 128615" d="M69.217,82.672c0,5.406-.024,10.812.023,16.218.008.9-.206,1.111-1.1,1.107q-12.375-.06-24.75,0c-.9,0-1.11-.208-1.107-1.106q.054-16.218,0-32.436c0-.9.206-1.111,1.1-1.107q12.375.06,24.751,0c.9,0,1.114.206,1.107,1.105-.048,5.406-.024,10.812-.024,16.218"/>
            <path id="Trazado_128616" data-name="Trazado 128616" d="M49.991,48.158c0,1.835,0,1.835-1.889,1.835-1.956,0-1.956,0-1.956-2.009,0-1.835,0-1.835,1.889-1.835,1.956,0,1.956,0,1.956,2.009"/>
            <path id="Trazado_128617" data-name="Trazado 128617" d="M57.682,47.969c0,2.024,0,2.024-2.061,2.024-1.784,0-1.784,0-1.784-1.82,0-2.024,0-2.024,2.061-2.024,1.784,0,1.784,0,1.784,1.82"/>
            <path id="Trazado_128618" data-name="Trazado 128618" d="M65.372,47.976c0,2.018,0,2.018-2.067,2.018-1.778,0-1.778,0-1.778-1.827,0-2.018,0-2.018,2.067-2.018,1.778,0,1.778,0,1.778,1.827"/>
            <path id="Trazado_128619" data-name="Trazado 128619" d="M46.146,105.639c0-1.82,0-1.82,1.784-1.82,2.061,0,2.061,0,2.061,2.024,0,1.82,0,1.82-1.784,1.82-2.061,0-2.061,0-2.061-2.024"/>
            <path id="Trazado_128620" data-name="Trazado 128620" d="M57.682,105.745c0,1.919,0,1.919-1.926,1.919s-1.919,0-1.919-1.927,0-1.918,1.926-1.918,1.919,0,1.919,1.926"/>
            <path id="Trazado_128621" data-name="Trazado 128621" d="M61.527,105.646c0-1.827,0-1.827,1.9-1.827,1.947,0,1.947,0,1.947,1.9,0,1.948,0,1.948-1.9,1.948-1.947,0-1.947,0-1.947-2.018"/>
            <path id="Trazado_128622" data-name="Trazado 128622" d="M8.977,94.226c.373-6.714.757-13.427,1.1-20.142.036-.709.128-1.049.979-1.044q10.091.057,20.181.006c.708,0,.942.161.982.916q1.065,20.145,2.216,40.285c.051.894-.1,1.133-1.034,1.129q-12.253-.062-24.506,0c-.93,0-1.092-.23-1.037-1.128.4-6.672.742-13.348,1.1-20.023h.012" fill="#29c4bb"/>
            <path id="Trazado_128623" data-name="Trazado 128623" d="M21.242,46.148c-3.2,0-6.405-.016-9.607.015a1.331,1.331,0,0,1-1.405-.782,22.01,22.01,0,0,1-2.554-9.887c-.02-.8.264-.9.953-.893,5.284.026,10.568.017,15.852.013,3.908,0,6.273-2.372,6.284-6.276,0-1.762-.024-3.523.01-5.283a3.868,3.868,0,0,1,2.991-3.735c.573-.136.862-.108.859.628-.032,6.524-.015,13.047-.046,19.572a9.4,9.4,0,0,1-.707,3.267c-1.15,3.041-1.615,3.361-4.824,3.361Z" fill="#efcfb3"/>
            <path id="Trazado_128624" data-name="Trazado 128624" d="M65.372,25.012c0,4.125-.019,8.25.017,12.374.006.771-.085,1.1-1,1.1q-8.65-.071-17.3,0c-.829.006-1-.266-.956-1.012.07-1.115-.314-2.443.17-3.3s1.942-.908,2.975-1.3c2.909-1.112,5.83-2.193,8.741-3.3,2.257-.857,3.481-2.448,3.5-4.516.022-2.118-1.21-3.75-3.521-4.622-3.661-1.38-7.319-2.767-11-4.1-.687-.249-.939-.583-.865-1.289.119-1.14-.5-2.67.245-3.321.64-.562,2.132-.168,3.248-.17,4.926-.006,9.853.016,14.779-.022.793-.006.987.214.98.99-.038,4.165-.018,8.33-.018,12.495" fill="#fee9a6"/>
            <path id="Trazado_128625" data-name="Trazado 128625" d="M11.54,25.037c0,1.64-.023,3.281.012,4.92.013.6-.122.847-.785.828-1.6-.048-3.2.005-4.8-.023a1.909,1.909,0,0,1-2.108-2.074q-.042-3.66,0-7.321a1.933,1.933,0,0,1,2.179-2.126c1.56-.022,3.122.032,4.68-.022.723-.025.852.258.837.9-.039,1.639-.013,3.28-.013,4.92" fill="#a9b1bc"/>
            <path id="Trazado_128626" data-name="Trazado 128626" d="M21.156,69.216c-3.28,0-6.561-.026-9.84.02-.806.011-.989-.216-.933-1,.208-2.86.179-2.862,3.086-2.862,5.72,0,11.441.02,17.16-.021.86-.006,1.287.162,1.137,1.084a1.133,1.133,0,0,0,.011.239c.148,2.542.148,2.542-2.461,2.542Z" fill="#e5e8ec"/>
            <path id="Trazado_128627" data-name="Trazado 128627" d="M21.033,61.527c-3.084,0-6.168-.027-9.252.019-.8.011-.994-.218-.964-1,.109-2.859.079-2.86,2.885-2.86,5.487,0,10.975.019,16.461-.019.844-.006,1.147.161,1.212,1.079.2,2.789.249,2.785-2.532,2.785h-7.81" fill="#29c4bb"/>
            <path id="Trazado_128628" data-name="Trazado 128628" d="M21.131,53.838c-2.957,0-5.915-.017-8.872.013-.7.007-1.04-.059-1-.938.126-2.918.082-2.92,3.023-2.92,5.155,0,10.311.018,15.466-.018.825-.006,1.184.125,1.228,1.064.132,2.8.178,2.8-2.649,2.8Z" fill="#e5e8ec"/>
            <path id="Trazado_128629" data-name="Trazado 128629" d="M8,15.391a3.627,3.627,0,0,1,3.086-2.38q7.818-.769,15.644-1.436a3.619,3.619,0,0,1,3.979,2.887c.112.56.152.951-.686.947-7.278-.032-14.557-.018-22.023-.018" fill="#efcfb3"/>
            <path id="Trazado_128630" data-name="Trazado 128630" d="M27.883,19.236a9.734,9.734,0,0,0-.946,3.414c-.013.506-.365.428-.67.428-3.4,0-6.8-.006-10.2.011-.5,0-.764-.128-.686-.667a.6.6,0,0,0,0-.12c-.131-3.066-.131-3.066,2.957-3.066h9.541" fill="#29c4bb"/>
            <path id="Trazado_128631" data-name="Trazado 128631" d="M20.513,30.77c-1.44,0-2.88-.026-4.319.012-.6.016-.81-.12-.829-.778-.085-3.079-.11-3.079,2.957-3.079,2.559,0,5.119.027,7.678-.017.719-.012.947.147.943.912-.014,2.4-.521,2.949-2.951,2.95H20.513" fill="#fbd670"/>
            <path id="Trazado_128632" data-name="Trazado 128632" d="M46.2,20.116c1.167.439,2.232.873,3.322,1.234.474.157.467.465.467.832q0,2.822,0,5.642c0,.367.007.675-.467.832-1.09.361-2.155.8-3.322,1.234Z" fill="#a9b1bc"/>
            <path id="Trazado_128633" data-name="Trazado 128633" d="M40.474,30.77c-2.018,0-2.018,0-2.018-2.066,0-1.779,0-1.779,1.827-1.779,2.018,0,2.018,0,2.018,2.066,0,1.779,0,1.779-1.827,1.779" fill="#fbd670"/>
            <path id="Trazado_128634" data-name="Trazado 128634" d="M40.41,19.236c1.891,0,1.891,0,1.891,1.835,0,2.01,0,2.01-1.955,2.01-1.89,0-1.89,0-1.89-1.835,0-2.01,0-2.01,1.954-2.01" fill="#29c4bb"/>
            <path id="Trazado_128635" data-name="Trazado 128635" d="M53.818,22.973c1.18.443,2.212.824,3.239,1.219a.836.836,0,0,1,.6.8.855.855,0,0,1-.589.815,1.67,1.67,0,0,1-.215.1,17.542,17.542,0,0,1-2.91.966,29.466,29.466,0,0,1-.13-3.9" fill="#a8b0bb"/>
            <path id="Trazado_128636" data-name="Trazado 128636" d="M77.622,105.322q.526-.828,1.055-1.656c2.783-4.349,2.863-8.748.03-13.066a9.074,9.074,0,0,1-.556-9.956c1.531-2.852,2.647-5.93,4.592-8.554a16.712,16.712,0,0,1,28.127,2.12c1.239,2.331,2.407,4.7,3.549,7.081a8.419,8.419,0,0,1-.563,8.782c-3.186,4.783-3.144,9.486.118,14.2.276.4.733.758.581,1.483-2.771-3.02-6.3-4.423-10.122-5.195-.851-.172-1.042-.64-1.246-1.336s.254-.932.654-1.244a9.454,9.454,0,0,0,3.825-7.779q.018-3.243,0-6.487a2.811,2.811,0,0,0-2.086-3.124,21.522,21.522,0,0,1-8.744-5.736c-.548-.591-.883-.561-1.411.012a21.255,21.255,0,0,1-8.861,5.767,2.488,2.488,0,0,0-1.9,2.25,53.523,53.523,0,0,0,.162,9.346,8.991,8.991,0,0,0,3.412,5.615c.428.35,1.04.52.857,1.381a1.611,1.611,0,0,1-1.49,1.4,18.169,18.169,0,0,0-8.272,3.6c-.507.413-1,.847-1.5,1.271l-.212-.179" fill="#656d78"/>
            <path id="Trazado_128637" data-name="Trazado 128637" d="M103.823,88.03a20.012,20.012,0,0,1-.164,3.62,5.744,5.744,0,0,1-5.531,4.471q-1.98.043-3.962,0a5.754,5.754,0,0,1-5.716-5.746c-.03-1.84.019-3.682-.022-5.522a1.006,1.006,0,0,1,.772-1.128,22.8,22.8,0,0,0,6.371-3.758c.412-.342.662-.388,1.1-.021a23.209,23.209,0,0,0,6.474,3.818.921.921,0,0,1,.688,1.059c-.036,1-.01,2-.01,3.206" fill="#efcfb3"/>
            <path id="Trazado_128638" data-name="Trazado 128638" d="M92.048,115.352c-4.858,0-9.5-.023-14.144.019-.94.008-.807-.436-.673-1.029A13.079,13.079,0,0,1,87.859,104.5c.482-.073.631.007.672.476a23.024,23.024,0,0,0,1.091,5.393,24.99,24.99,0,0,0,2.426,4.988" fill="#1169e3"/>
            <path id="Trazado_128639" data-name="Trazado 128639" d="M100.233,115.353a22.039,22.039,0,0,0,2.943-6.916c.226-1.094.39-2.2.536-3.31.067-.511.133-.756.781-.613,5.389,1.192,8.989,4.286,10.5,9.68.221.792.28,1.205-.83,1.187-4.36-.069-8.721-.028-13.082-.028Z" fill="#1169e3"/>
            <path id="Trazado_128640" data-name="Trazado 128640" d="M96.113,99.974c.481,0,.961,0,1.442,0,2.113-.008,2.216.033,2.4,2.164a16.464,16.464,0,0,1-.379,4.892c-.106.487-.282.651-.777.644-1.8-.027-3.6-.014-5.407-.008-.349,0-.574-.043-.659-.48a13.543,13.543,0,0,1-.055-6.643c.167-.555.394-.65.917-.613.837.06,1.681.016,2.522.016v.028" fill="#efcfb3"/>
            <path id="Trazado_128641" data-name="Trazado 128641" d="M94.252,111.559h3.626a10.359,10.359,0,0,1-1.409,2.372c-.28.412-.5.279-.709-.047-.468-.717-.932-1.437-1.508-2.325" fill="#fbe6a4"/>
            <path id="Trazado_128642" data-name="Trazado 128642" d="M96.554,3.857c1.949.132,4.358-.237,6.741.2a10.047,10.047,0,0,1,8.2,10.559c-.059.845-.193,1.34-1.258.974a11.04,11.04,0,0,0-3.936-.183,11.56,11.56,0,0,1-9.325-3.845c-.607-.668-.994-.773-1.662-.034a11.5,11.5,0,0,1-9.309,3.878,14.624,14.624,0,0,0-4.534.267c-.89.257-.628-.556-.667-.895A10.051,10.051,0,0,1,87.084,4.587a10.5,10.5,0,0,1,3.863-.733c1.721.014,3.442,0,5.607,0" fill="#b17946"/>
            <path id="Trazado_128643" data-name="Trazado 128643" d="M103.822,24.634c0,1.4.019,2.8,0,4.2a5.76,5.76,0,0,1-5.7,5.768c-1.36.032-2.723.039-4.083,0a5.727,5.727,0,0,1-5.579-5.634c-.048-3,.008-6-.031-9-.009-.687.25-.875.876-.96a13.5,13.5,0,0,0,6.156-2.495A.955.955,0,0,1,96.8,16.5a13.659,13.659,0,0,0,6.273,2.516c.618.08.778.346.764.933-.036,1.561-.012,3.123-.013,4.683" fill="#efcfb3"/>
            <path id="Trazado_128644" data-name="Trazado 128644" d="M94.21,47.346c0,2.068-.025,3.973.011,5.878.016.841-.557.607-.977.608q-6.539.016-13.077.006H78.848c-1.951,0-1.972-.006-1.394-1.827a12.878,12.878,0,0,1,6.028-7.461c.616-.357.927-.352,1.254.359.75,1.631,1.641,3.2,2.372,4.835.362.811.725.826,1.432.453,1.823-.963,3.683-1.858,5.67-2.851" fill="#75b0f1"/>
            <path id="Trazado_128645" data-name="Trazado 128645" d="M98.055,47.339c1.986.995,3.844,1.892,5.667,2.855.7.37,1.07.373,1.434-.445.73-1.638,1.623-3.2,2.371-4.834.326-.711.633-.718,1.25-.359a12.949,12.949,0,0,1,6.285,8.379c.154.615.107.926-.687.92q-7.735-.05-15.471,0c-.684,0-.882-.186-.865-.868.046-1.824.016-3.65.016-5.647" fill="#75b0f1"/>
            <path id="Trazado_128646" data-name="Trazado 128646" d="M107.668,25.236c0-1.891,0-3.641,0-5.392,0-.257-.072-.516.351-.62a3.041,3.041,0,0,1,3.269,1.662,2.553,2.553,0,0,1-1.125,3.3c-.759.408-1.593.676-2.5,1.05" fill="#efcfb3"/>
            <path id="Trazado_128647" data-name="Trazado 128647" d="M84.6,25.232c-.864-.35-1.577-.6-2.253-.921a2.56,2.56,0,0,1-1.423-3.274,2.955,2.955,0,0,1,3.283-1.816c.519.1.386.423.387.7.012,1.716.006,3.431.006,5.306" fill="#efcfb3"/>
            <path id="Trazado_128648" data-name="Trazado 128648" d="M96.158,38.421c.88,0,1.76.009,2.64-.005.323,0,.636-.091.723.381.071.389.258.734-.227,1.031-.92.564-1.817,1.166-2.7,1.789a.725.725,0,0,1-.965-.029c-.851-.6-1.709-1.183-2.593-1.728-.435-.269-.415-.557-.318-1,.117-.527.426-.454.8-.445.879.021,1.76.007,2.64.007v0" fill="#eeceb3"/>
            <path id="Trazado_128649" data-name="Trazado 128649" d="M92.278,43.994c-.964.485-1.772.877-2.565,1.3-.347.184-.5.043-.636-.256a8.775,8.775,0,0,1-.415-.858c-.134-.419-.785-.913-.314-1.228a1.913,1.913,0,0,1,1.916-.308,22.647,22.647,0,0,1,2.014,1.353" fill="#5c9ae8"/>
            <path id="Trazado_128650" data-name="Trazado 128650" d="M100.015,43.978c1.207-.757,2.028-1.886,3.546-1.225.516.224.558.361.359.843-.817,1.976-.8,1.984-2.692,1.033-.347-.174-.686-.367-1.213-.651" fill="#5c9ae8"/>
            <path id="Trazado_128651" data-name="Trazado 128651" d="M65.372,79.936c0,5.16-.009,10.319.013,15.479,0,.592-.189.727-.75.726q-8.886-.028-17.772,0c-.588,0-.729-.184-.728-.747q.026-12.727,0-25.454c0-.578.165-.738.739-.736q8.886.028,17.772,0c.575,0,.815.16.729.737a1.144,1.144,0,0,0,0,.36c.473,2.761-.528,4.784-2.662,6.637-2.864,2.487-5.434,5.314-8.1,8.027-.537.547-.853.731-1.49.072C51.366,83.22,51.374,83.3,49.545,85c-.815.757-.795,1.2.014,1.917a42.8,42.8,0,0,1,3.4,3.393c.646.72,1.015.786,1.742.037,3.178-3.273,6.433-6.471,9.656-9.7.274-.275.511-.586.766-.881l.253.171" fill="#fee9a6"/>
          </g>
        </g>
      </g>
      <g id="Grupo_156897" data-name="Grupo 156897" transform="translate(1076 4431)">
        <path id="Trazado_126894" data-name="Trazado 126894" d="M19.994,132.814c-1.384.308-1.7-.344-1.691-1.637.035-3.239-.02-3.3-3.373-3.277-1.247.007-1.635-.379-1.611-1.614.023-1.15.233-1.685,1.56-1.68,3.363.013,3.449-.055,3.413-3.411-.016-1.518.729-1.546,1.855-1.558s1.709.176,1.709,1.525c0,3.4.069,3.46,3.389,3.446,1.284-.005,1.588.458,1.591,1.651s-.3,1.65-1.586,1.642c-3.385-.019-3.466.044-3.391,3.25.035,1.488-.514,1.924-1.864,1.662" transform="translate(-8.318 -24.997)" fill="#29c4bb"/>
        <path id="Trazado_126895" data-name="Trazado 126895" d="M217.019,151.2c1.239-.236,1.925.173,1.721,1.576-.171,1.173.235,1.827,1.534,1.626s1.736.269,1.747,1.636c.01,1.433-.575,1.764-1.8,1.6-1.167-.158-1.537.35-1.514,1.511.037,1.819-1.089,2.517-2.848,1.966-.835-.261-.652-.928-.6-1.455.146-1.438-.182-2.318-1.879-2.03-1.313.223-1.394-.6-1.39-1.608,0-.992.043-1.823,1.375-1.617,1.436.222,2.115-.3,1.877-1.82-.227-1.449.7-1.513,1.773-1.385" transform="translate(-45.658 -33.953)" fill="#29c4bb"/>
        <path id="Trazado_126896" data-name="Trazado 126896" d="M217.407,72.615c.32,1.382-.312,1.855-1.608,1.637-1.4-.236-1.976.339-1.728,1.733.24,1.35-.344,1.672-1.651,1.684-1.349.012-1.857-.386-1.622-1.7.251-1.4-.332-1.974-1.721-1.714-1.439.27-1.565-.482-1.619-1.692-.064-1.421.488-1.791,1.725-1.576,1.345.235,1.847-.322,1.618-1.636-.219-1.257.187-1.766,1.587-1.716,1.235.044,1.948.219,1.684,1.634s.35,1.948,1.73,1.716c1.3-.218,1.927.247,1.605,1.629" transform="translate(-69.45 3.711)" fill="#010000"/>
        <path id="Trazado_126897" data-name="Trazado 126897" d="M61.718,190.022c.3,1.289-.334,1.763-1.623,1.53-1.514-.274-1.871.514-1.654,1.789.241,1.418-.446,1.638-1.691,1.63-1.19-.007-1.83-.277-1.579-1.559.328-1.685-.514-2.1-1.965-1.85-1.489.254-1.419-.685-1.425-1.706,0-.988.021-1.827,1.366-1.561,1.809.358,2.271-.511,2.027-2.13-.234-1.55.947-1.1,1.736-1.151.835-.05,1.766-.158,1.522,1.187-.3,1.662.282,2.433,2.041,2.1,1.469-.282,1.289.742,1.245,1.725" transform="translate(39.97 -29.322)" fill="#010000"/>
        <path id="Trazado_126898" data-name="Trazado 126898" d="M121.84,20.724c-.346-1.471.467-1.758,1.671-1.579,1.251.186,1.743-.332,1.553-1.564s.175-1.792,1.593-1.763c1.3.026,1.9.364,1.672,1.7-.232,1.372.4,1.818,1.687,1.625,1.192-.178,1.789.107,1.8,1.562.007,1.491-.555,1.891-1.854,1.684-1.373-.219-1.838.407-1.626,1.687.239,1.438-.533,1.6-1.742,1.628-1.293.026-1.714-.459-1.524-1.645.208-1.3-.273-1.895-1.63-1.667-1.325.222-1.891-.324-1.595-1.669" transform="translate(-84.601 17.184)" fill="#29c4bb"/>
      </g>
    </g>
  </g>
</svg>
